<?xml version="1.0" encoding="utf-8"?>
<!-- Generator: Adobe Illustrator 23.0.3, SVG Export Plug-In . SVG Version: 6.00 Build 0)  -->
<svg version="1.1" id="Layer_1" xmlns="http://www.w3.org/2000/svg" xmlns:xlink="http://www.w3.org/1999/xlink" x="0px" y="0px"
	 viewBox="0 0 56.7 708.7" style="enable-background:new 0 0 56.7 708.7;" xml:space="preserve">
<style type="text/css">
	.st0{fill:url(#SVGID_1_);}
	.st1{fill:#375B54;}
	.st2{fill:#467065;}
	.st3{fill:#223F42;}
	.st4{fill:#2E5658;}
	.st5{fill:#33544C;}
	.st6{fill:#0F1F1B;}
	.st7{fill:#263F39;}
	.st8{fill:#17322D;}
	.st9{fill:#254740;}
	.st10{fill:url(#SVGID_2_);}
	.st11{fill:url(#SVGID_3_);}
	.st12{fill:url(#SVGID_4_);}
	.st13{fill:url(#SVGID_5_);}
	.st14{fill:url(#SVGID_6_);}
	.st15{fill:url(#SVGID_7_);}
	.st16{fill:url(#SVGID_8_);}
	.st17{fill:url(#SVGID_9_);}
	.st18{fill:url(#SVGID_10_);}
	.st19{fill:url(#SVGID_11_);}
	.st20{fill:url(#SVGID_12_);}
	.st21{fill:url(#SVGID_13_);}
	.st22{fill:url(#SVGID_14_);}
	.st23{fill:url(#SVGID_15_);}
	.st24{fill:url(#SVGID_16_);}
	.st25{fill:url(#SVGID_17_);}
	.st26{fill:url(#SVGID_18_);}
	.st27{fill:url(#SVGID_19_);}
	.st28{fill:url(#SVGID_20_);}
	.st29{fill:url(#SVGID_21_);}
	.st30{fill:url(#SVGID_22_);}
	.st31{fill:url(#SVGID_23_);}
	.st32{fill:url(#SVGID_24_);}
	.st33{fill:url(#SVGID_25_);}
	.st34{fill:url(#SVGID_26_);}
	.st35{fill:url(#SVGID_27_);}
	.st36{fill:url(#SVGID_28_);}
	.st37{fill:url(#SVGID_29_);}
	.st38{fill:url(#SVGID_30_);}
	.st39{fill:url(#SVGID_31_);}
	.st40{fill:url(#SVGID_32_);}
	.st41{fill:url(#SVGID_33_);}
	.st42{fill:url(#SVGID_34_);}
	.st43{fill:url(#SVGID_35_);}
	.st44{fill:url(#SVGID_36_);}
	.st45{fill:url(#SVGID_37_);}
	.st46{fill:url(#SVGID_38_);}
	.st47{fill:url(#SVGID_39_);}
	.st48{fill:url(#SVGID_40_);}
	.st49{fill:url(#SVGID_41_);}
	.st50{fill:url(#SVGID_42_);}
	.st51{fill:url(#SVGID_43_);}
	.st52{fill:url(#SVGID_44_);}
	.st53{fill:url(#SVGID_45_);}
	.st54{fill:url(#SVGID_46_);}
	.st55{fill:url(#SVGID_47_);}
	.st56{fill:url(#SVGID_48_);}
	.st57{fill:url(#SVGID_49_);}
	.st58{fill:url(#SVGID_50_);}
	.st59{fill:url(#SVGID_51_);}
	.st60{fill:url(#SVGID_52_);}
	.st61{fill:url(#SVGID_53_);}
	.st62{fill:url(#SVGID_54_);}
	.st63{fill:url(#SVGID_55_);}
	.st64{fill:url(#SVGID_56_);}
	.st65{fill:url(#SVGID_57_);}
	.st66{fill:url(#SVGID_58_);}
	.st67{fill:url(#SVGID_59_);}
	.st68{fill:url(#SVGID_60_);}
	.st69{fill:url(#SVGID_61_);}
	.st70{fill:url(#SVGID_62_);}
	.st71{fill:url(#SVGID_63_);}
	.st72{fill:url(#SVGID_64_);}
	.st73{fill:url(#SVGID_65_);}
	.st74{fill:url(#SVGID_66_);}
	.st75{fill:url(#SVGID_67_);}
	.st76{fill:url(#SVGID_68_);}
	.st77{fill:url(#SVGID_69_);}
	.st78{fill:url(#SVGID_70_);}
	.st79{fill:url(#SVGID_71_);}
	.st80{fill:url(#SVGID_72_);}
	.st81{fill:url(#SVGID_73_);}
	.st82{fill:url(#SVGID_74_);}
	.st83{fill:url(#SVGID_75_);}
	.st84{fill:url(#SVGID_76_);}
	.st85{fill:url(#SVGID_77_);}
	.st86{fill:url(#SVGID_78_);}
	.st87{fill:url(#SVGID_79_);}
	.st88{fill:url(#SVGID_80_);}
	.st89{fill:url(#SVGID_81_);}
	.st90{fill:url(#SVGID_82_);}
	.st91{fill:url(#SVGID_83_);}
	.st92{fill:url(#SVGID_84_);}
	.st93{fill:url(#SVGID_85_);}
	.st94{fill:url(#SVGID_86_);}
	.st95{fill:url(#SVGID_87_);}
	.st96{fill:url(#SVGID_88_);}
	.st97{fill:url(#SVGID_89_);}
</style>
<g>
	
		<linearGradient id="SVGID_1_" gradientUnits="userSpaceOnUse" x1="-267.356" y1="880.1136" x2="-267.356" y2="861.718" gradientTransform="matrix(1 0 0 1 295.3901 -174.0626)">
		<stop  offset="0" style="stop-color:#5F7668"/>
		<stop  offset="0.4303" style="stop-color:#EEEEEE"/>
		<stop  offset="1" style="stop-color:#75877C"/>
	</linearGradient>
	<ellipse class="st0" cx="28" cy="684.4" rx="12.4" ry="23.9"/>
	<g>
		<g>
			<g>
				<path class="st1" d="M31.1,0.7c-0.8-1-3.6-1-4.4,0c-5.8,7-6.3,494-6.5,473.4c0.8,74.8,6.4,102.8,8.7,102.8
					c2.3,0,7.9-27.9,8.7-102.8C37.3,494.8,36.9,7.7,31.1,0.7z"/>
				<path class="st2" d="M30.3,195.4c-0.5-0.6-2.4-0.6-2.9,0c-3.8,4.6-4.1,327.1-4.3,313.5c0.5,49.5,4.2,68.1,5.8,68.1
					c1.5,0,5.2-18.5,5.8-68.1C34.5,522.5,34.2,200,30.3,195.4z"/>
			</g>
			<g>
				<path class="st3" d="M21.1,273.6c4.7-7.2,9.7-14,15.3-20c0-5.9-0.1-11.7-0.1-17.6c-5.3,4.3-10.3,8.8-15,13.9
					C21.3,257.8,21.2,265.7,21.1,273.6z"/>
				<path class="st3" d="M26,292.9c-1.6,1.9-3.2,3.8-5,5.6c0,3.6,0,7.2-0.1,10.8c4.9-9.5,9.2-19.5,14-29.1
					C32.2,284.7,29.2,289,26,292.9z"/>
				<path class="st3" d="M35.6,155.5c-2.2-1.3-4.4-2.8-6.5-4.2c-2.3-1.6-4.6-3.3-6.8-5c0,1.5,0,3.1-0.1,4.6
					c4.4,3.5,8.9,6.7,13.4,9.7C35.6,158.9,35.6,157.2,35.6,155.5z"/>
				<path class="st3" d="M36.2,222.9c0-0.1,0-0.3,0-0.4c-5-0.4-9.9-1.7-14.6-4.1c0,5.7-0.1,11.5-0.1,17.2c3.4-3.2,6.8-6.2,10.3-9.1
					C33.2,225.3,34.7,224.1,36.2,222.9z"/>
				<path class="st3" d="M35.4,142.9c-0.1-5-0.1-10-0.2-14.9c-4.2-3.1-8.4-6.1-12.6-9.1c-0.1,4.7-0.1,9.4-0.2,14.3
					c3.1,2.5,6.2,5,9.4,7.2C33,141.3,34.2,142.1,35.4,142.9z"/>
				<path class="st3" d="M37.3,411.6c0-3,0-6.1,0-9.2c-0.6,2.8-1.1,5.5-1.5,8.3C36.3,410.9,36.8,411.2,37.3,411.6z"/>
				<path class="st3" d="M21.3,410.9c0.8-1.4,1.6-2.8,2.2-4.3c3.1-6.6,5-12.4,7-19.3c2.5-8.8,4.4-17.8,6.5-26.7c0-5,0-10.1-0.1-15.3
					C30.8,366.9,23.2,388.1,21.3,410.9z"/>
				<path class="st3" d="M35.9,310.2c0.3-0.5,0.6-1,0.9-1.3c0-2.4,0-4.9,0-7.4c-4.6,10.7-9,21.5-13,32.6c-1,2.8-2,5.7-3,8.6
					c0,2.9,0,5.8,0,8.7c0.1-0.3,0.2-0.5,0.3-0.8C25.5,337.2,29.7,322.8,35.9,310.2z"/>
				<path class="st3" d="M24.7,23.9c-0.1,3.1-0.2,6.4-0.4,10c3,0.9,6,1.7,9.1,2.2c-0.1-2.3-0.1-4.4-0.2-6.5c-0.3-0.3-0.7-0.6-1-0.8
					c-1.9-1.4-3.8-2.7-5.7-3.9C25.9,24.6,25.3,24.3,24.7,23.9z"/>
				<path class="st3" d="M34.7,94.1c-0.1-6.4-0.2-12.7-0.3-18.6c-3-2.2-6.1-4.3-9.2-6.4c-0.6-0.4-1.1-0.8-1.7-1.2
					c-0.1,6.8-0.3,13.9-0.4,21.4C26.9,91.2,30.8,92.9,34.7,94.1z"/>
				<path class="st3" d="M28.9,187.4c-0.8-0.4-1.5-0.9-2.3-1.3c-0.2-0.1-0.4-0.2-0.7-0.4c-0.2-0.1-0.5-0.3-0.6-0.3
					c-1.1-0.6-2.3-1.2-3.5-1.7c-0.1,7.4-0.1,15-0.2,22.5c0.6,0.4,1.3,0.8,1.9,1.2c0,0,0,0,0,0c0.2,0.1,0.5,0.2,0.7,0.3
					c2.2,1,4.3,2.1,6.7,2.7c1.7,0.4,3.4,0.7,5.1,0.9c-0.1-6.6-0.1-13.1-0.2-19.7C33.6,190.2,31.2,188.8,28.9,187.4z"/>
				<path class="st3" d="M37.3,424.3c-0.6,1.7-1.4,3.3-2.3,4.9c0,0.4-0.1,0.9-0.1,1.3c-0.1,1.1-0.1,2.1-0.1,3.2
					c-0.1,2.2-0.1,4.3-0.1,6.5c-0.1,7.3,0.2,17.6-4.8,22.6c-1.9,1.9-4.4,2.3-6.2,0c-1.5-2-1.9-6,0-7.9c0.3-0.3,0.5-0.5,0.7-0.8
					c0,0,0,0,0-0.1c0.1-0.3,0.3-0.6,0.4-0.9c0,0,0-0.1,0-0.1c0.2-0.8,0.4-1.6,0.5-2.4c0.1-0.4,0.1-0.9,0.2-1.3c0-0.1,0-0.1,0-0.2
					c0-0.1,0-0.1,0-0.2c0.3-4.2,0.3-8.3,0.4-12.5c0-2,0.1-4.1,0.2-6.2c-0.2-0.6-0.3-1.3-0.3-2c-0.1-2.3,0-4.5,0-6.7
					c-1.6,2.2-3.5,4.2-5.5,5.9c-0.1,32.4-0.2,51.3-0.2,46.9c0.8,74.8,6.4,102.8,8.7,102.8c2.3,0,7.9-27.9,8.7-102.8
					C37.5,478.7,37.4,458.5,37.3,424.3z"/>
				<path class="st3" d="M31.8,4.7c-0.2-2.3-0.5-3.6-0.8-3.9c-0.8-1-3.6-1-4.4,0c-0.2,0.2-0.4,1-0.6,2.3C28,3.6,29.9,4.1,31.8,4.7z"
					/>
				<path class="st3" d="M22.1,163.9c0,2.7-0.1,5.4-0.1,8.1c3.8,1.4,7.4,3.5,11,5.6c1,0.6,1.9,1.1,2.9,1.7c0-2,0-4-0.1-5.9
					C31.1,170.3,26.5,167.2,22.1,163.9z"/>
				<path class="st3" d="M22.9,101.2c0,1.7-0.1,3.4-0.1,5.1c3.7,2.7,7.5,5.4,11.3,8.1c0.3,0.2,0.6,0.5,1,0.7c0-3.2-0.1-6.3-0.1-9.4
					C30.8,104.6,26.8,103,22.9,101.2z"/>
				<path class="st3" d="M33.8,47.5c-3.3-0.6-6.5-1.5-9.7-2.4c-0.1,3.3-0.2,6.7-0.3,10.2c3.4,2.6,6.9,4.9,10.4,7.3
					C34,57.3,33.9,52.2,33.8,47.5z"/>
				<path class="st4" d="M33.4,309.4c-3.3,7.8-6.4,15.8-9.3,23.8c0,2.8,0,5.5-0.1,8.3c2.9-8.8,5.8-17.7,9.5-26.1
					C33.5,313.4,33.4,311.4,33.4,309.4z"/>
				<path class="st4" d="M34.4,450.5c-0.5,4.8-1.6,9.4-4.4,12.2c-1.9,1.9-4.4,2.3-6.2,0c-0.1-0.2-0.3-0.4-0.4-0.6
					c-0.1,30.8-0.2,50.3-0.2,46.7c0.5,49.5,4.2,68.1,5.8,68.1c1.5,0,5.2-18.5,5.8-68.1C34.6,512.9,34.5,487.9,34.4,450.5z"/>
				<path class="st4" d="M32.1,226.2c0-1.5-0.1-2.9-0.1-4.3c-2.1-0.4-4.2-0.9-6.2-1.7c-0.1,3.6-0.2,7.4-0.3,11.6
					c2.1-1.8,4.2-3.6,6.3-5.4C31.9,226.4,32,226.3,32.1,226.2z"/>
				<path class="st4" d="M26,292.9c-0.5,0.6-1,1.2-1.5,1.8c0,2.5-0.1,5.1-0.1,7.7c3-6.1,5.8-12.4,8.8-18.5c0-0.3,0-0.5,0-0.8
					C30.9,286.5,28.5,289.8,26,292.9z"/>
				<path class="st4" d="M24.8,268.2c2.5-3.6,5.2-7.1,8-10.4c-0.1-6.6-0.2-12.8-0.3-18.6c-2.5,2.1-4.9,4.3-7.2,6.6
					C25,252.8,24.9,260.3,24.8,268.2z"/>
				<path class="st4" d="M34,373.9c0-5.9-0.1-11.9-0.1-17.9c-3.8,12.7-7.7,25.4-10.2,38.4c0,4.1,0,8.2-0.1,12.2
					c3.1-6.6,5-12.4,7-19.3C31.8,382.9,32.9,378.4,34,373.9z"/>
				<path class="st4" d="M27.4,195.4c-0.4,0.5-0.8,5.3-1.2,13.3c1.6,0.7,3.1,1.4,4.8,1.8c0.2,0.1,0.4,0.1,0.6,0.2
					c-0.4-9.2-0.8-14.7-1.3-15.3C29.8,194.7,27.9,194.7,27.4,195.4z"/>
				<path class="st4" d="M23.5,424.3c-0.1,11-0.1,21.4-0.1,30.9c0.1-0.2,0.2-0.3,0.4-0.4c0.3-0.3,0.5-0.5,0.7-0.8c0,0,0,0,0-0.1
					c0.1-0.3,0.3-0.6,0.4-0.9c0,0,0-0.1,0-0.1c0.2-0.8,0.4-1.6,0.5-2.4c0.1-0.4,0.1-0.9,0.2-1.3c0-0.1,0-0.1,0-0.2
					c0-0.1,0-0.1,0-0.2c0.3-4.2,0.3-8.3,0.4-12.5c0-2,0.1-4.1,0.2-6.2c-0.2-0.6-0.3-1.3-0.3-2c-0.1-2.3,0-4.5,0-6.7
					C25.1,422.4,24.3,423.4,23.5,424.3z"/>
			</g>
		</g>
		<g>
			<g>
				<g>
					<path class="st5" d="M52.3,533.1c-3.3,1.4-5.7,3.1-8.1,6.9c-2.4,3.9-3.6,9.7-6.2,13.3c-4.6,6.5-5.5-13.3-5.8-16.5
						c-0.4-4.6-1-9.1-1.8-13.6c-0.6-3.2-0.9-7.7-2.4-10.4c-1.2-2.3-4.1-3.9-4-6.6l-2.3-3.2c0.6-3,1.2-15.2-3.2-13.5
						c0.4,3.7-5,1.5-4.4-3.2c0.6-5.2,5.5-2.9,7.8-1.8c8,3.7,9.8,13.6,13,23c1,3,2.5,5,4.4,6.9c-1.1-3.4,1.1-5.2,3.2-6.1
						c2.2-0.9,4.5-0.3,6.1,2.4c2.6,4.3,3,11.6,1.9,16.7C53.9,525.7,56.2,531.4,52.3,533.1z"/>
					<path class="st6" d="M40.9,547.4c-3.7,6.6-5.5,12.3-6.6,20.4c-2.1,15.9,0.4,33.2,4,48.2c5.9,24.3,21.3,46.3,15.8,73.8
						c-1.1,5.5-4.2,12.4-7.7,15.7c-3.3,3.2-9.6,4.5-12.5-0.4c-3.1-5.4-2.5-14-1.7-20.3c0.4-3.4,1.4-6.8,2.9-9.6
						c0.8-1.5,3.5-5.1,4.5-4.2l-3.2-9.3c-2,4.4-5.1,5.7-8.7,1.4c-3-3.6-2.9-9.4-4.4-14c-0.5,3.7,0.3,8.2-3.1,9.7
						c-2.9,1.2-7.3-2.1-8-6c-0.6-2.9,1.5-4.4,1.2-6.4c-0.2-1.1-1.2-2-2.1-2.6c-0.5,0-0.9-0.1-1.4-0.2c-4.2-0.9-9-4.2-9.7-10.8
						c-0.9-7.7,0.8-12.5,6-13.9c5.2-1.3,6.9-2.6,8.6-10.1c0.6-2.8,1.8-6.6,0.9-9.6c-0.2-0.7-0.5-1.4-0.8-1.8c-1,0.5-2,0.5-2.9,0.1
						c-0.1,0.2-0.2,0.3-0.4,0.5v-0.7c-2.7-1.5-4.4-6.1-4.3-10.1c0.3-7.3,2.9-9.1,5.4-14.7c2.2-5.2,1-13.4,2.6-19.2
						c2.3-8.4,4.9-15,11-18.8c4.2-2.6,9.1-7.8,13.5-9.1c1.9-0.6,5.2,1.1,6.6-0.9c1.3-1.8,0.9-7.4-1.4-7.4c2.5,3.1-0.9,6.9-2.8,3
						c-1.2-2.5,0.6-9.2,2.8-10.2c6.7-2.9,5.7,14.4,4.8,18.7C48.2,536,44.2,541.6,40.9,547.4z"/>
				</g>
				<g>
					<path class="st7" d="M42.9,546.2c-3.9,11.4-5.8,24.9-5.4,37.4c0.4,16.5,1.8,31.7,5.1,47.6c1,5.1,2.3,10.5,4,15.3
						c0.8,2.2,2.7,5.5,2.9,7.1l-6,6c-6.6-3-11.7-7.7-16.6-15.2c-3.7-5.5-5.3-7.2-10.4-3.7c-4.4,3-8.4,3.2-12.2-1.1
						c-3.4-3.8-5.8-14.8-0.5-18.2c1.8-1.2,5.1-0.6,6.3,1.9c1.1,2.3,0.1,7.6-2.3,4.9c2.9-1.7-0.4-8.2-2.7-4.1c-2.2,3.7,0.7,7,3.2,6.8
						c5.9-0.4,8.4-10.1,10.4-16.7c1.9-6.3,0.8-15.5,0.8-22.3c0-13.6-1.5-27.1-0.1-40.4c0.4-3.3,0.6-6.7,1.4-9.9
						c0.8-3.1,1.9-4.9,1.8-8.4c-0.3-6.6-5.5-8.2-5.4-15.2c0.1-6.8,4.6-10.9,4.6-17.9c0-6.7-2.9-10.1-6.3-13.9
						c12.8,1.1,17,15,20,30.7c1.2,6.4,4.2,10.7,8.9,12.9c2.7,1.3,7.6-1.5,9.4,1.2C48.1,531.4,45,540,42.9,546.2z"/>
					<path class="st5" d="M38.5,705.5c-6.7-1.9-12.8-14.4-4.8-21.1c9.7-8.1,9.8,14.1,3.9,10.6c2.1,0.4,2.7-2.4,1.7-4.9
						c-6.1-2.5-5.5,12.4,1.4,10.1c4.9-1.6,4.3-13,2.6-18.6c-2.1-6.8-7.4-9.8-10.8-14.9c-5.5-8.1-6.7-24.8-4.3-35.2l-0.3-3.1
						c-0.4,1-1,0.9-1.4,2.3c-3.5-0.5,0.7-6.5-0.8-10c-2.3-5.2-4.8-0.2-5.2,4.1c-6.4,2-5.2-10.6-3.3-14.7c3-6.2,6.7-7.7,6.4-15.7
						c-0.2-5.8-1.8-14.5-7.4-12.6c-2.6,0.9-4.4,3.9-4.3,7.8c0.1,3.6,2.1,6.2,2.2,1.3c5.9-2.2,2.7,13-3.5,7.9
						c-8.8-7.3,1.4-29.7,11.1-24.3c11.3,6.3,9.9,31.9,10,45.5c0.1,10.6,1.2,23.3,9.5,27.2c3.3,1.6,6.9,0,10,2.7
						c3.4,2.9,4.5,8.3,5,13.3C58.1,680.1,55.5,710.4,38.5,705.5z"/>
				</g>
				<g>
					<path class="st8" d="M53.8,531c-1.6-2.4-5.6-0.6-8.3-0.9c-0.1,0.7-0.2,1.4-0.4,2.1c-0.5,1.7-1.3,3.3-2.4,4.4
						c-0.6,0.6-1.1,1.2-1.7,1.7c0,0,0,0,0,0c-0.9,1.2-2.2,1.8-3.5,1.6c-0.9,0.1-1.9-0.3-2.6-1v0.6c0,3.3-2,6.1-4.4,6.1
						c-2.4,0-4.4-2.8-4.4-6.1v-21.5c0-3.3,2-6.1,4.4-6.1c2.4,0,4.4,2.8,4.4,6.1c0,1.6,0,3.3,0.1,4.9c0.6-0.5,1.3-1,1.9-1.6
						c-0.5-1.3-0.9-2.8-1.2-4.4c-3-15.7-7.3-29.7-20-30.7c3.4,3.8,6.2,7.2,6.3,13.9c0,7-4.5,11.1-4.6,17.9
						c-0.1,6.9,5.2,8.6,5.4,15.2c0.2,3.4-1,5.3-1.8,8.4c-0.9,3.2-1.1,6.6-1.4,9.9c-1.4,13.3,0.1,26.7,0.1,40.4
						c0,6.8,1.1,16-0.8,22.3c-1.3,4.3-2.8,9.9-5.3,13.4c0.1,0.2,0.1,0.4,0.2,0.6c0,0,0,0,0,0c0.1,0,0.2-0.1,0.2-0.1
						c0.1,0,0.1-0.1,0.2-0.2c0.2-0.1,0.7-0.6,0.8-0.8c0.2-0.3,0.5-0.6,0.7-0.9c0.1-0.2,0.3-0.4,0.4-0.6c0,0,0-0.1,0.1-0.1
						c0.4-0.7,0.7-1.4,1-2.1c0.3-0.6,0.5-1.3,0.7-1.9c0,0,0-0.1,0-0.1c0-0.1,0.2-0.7,0.3-0.9c0.4-1.4,0.7-2.8,1-4.3
						c0.2-1.1,0.4-2.3,0.5-3.4c0,0.1,0.1-1.2,0.1-1.5c0-0.7,0.1-1.5,0.1-2.2c0-3.3,2-6.1,4.4-6.1c2.4,0,4.4,2.8,4.4,6.1
						c-0.1,14.4-6.9,36.7-19.9,30.6c-0.1,0-0.1,0-0.2-0.1c-0.2,0-0.3,0-0.5,0c-1.2-0.1-2-0.4-3.1-1.1c-2.3-1.5-2.8-5.6-2.9-8.7
						c0-2.9,1.5-5.3,3.4-5.9c1-1.5,2.1-1.1,2.9-0.2c0.8,0,1.5,0.1,2.2,0.4c-0.1-0.3-0.2-0.5-0.3-0.7c-1.2-2.5-4.5-3.1-6.3-1.9
						c-5.2,3.4-2.9,14.4,0.5,18.2c3.9,4.3,7.9,4.1,12.2,1.1c5-3.5,6.7-1.9,10.4,3.7c2.4,3.6,4.9,6.6,7.5,9.1
						c0.3-0.6,0.7-1.1,1.2-1.5c2.2-1.8,4.6-0.5,6,2.2c0.2,0.4,0.4,0.8,0.5,1.1c0.1,0.3,0.2,0.6,0.3,0.8c0.5,1,1,2,1.4,3.1l5.6-5.6
						c-0.3-1.5-2.2-4.8-2.9-7.1c-1.7-4.8-3-10.2-4-15.3c-3.3-15.9-4.7-31.1-5.1-47.6c-0.3-12.5,1.6-26,5.4-37.4
						C45,540,48.1,531.4,53.8,531z M30.7,572.9c0,5.4-0.1,10.8-1.3,16c-0.7,3.2-3,5.2-5.4,4.3c-2.2-0.9-3.8-4.3-3.1-7.5
						c1-4.2,1-8.2,1-12.7c0-3.3,2-6.1,4.4-6.1C28.7,566.8,30.7,569.6,30.7,572.9z"/>
					<path class="st9" d="M21.3,583.8c-1.1-1.9-2.8-3-5.1-2.1c-2.6,0.9-4.4,3.9-4.3,7.8c0.1,3.6,2.1,6.2,2.2,1.3
						c5.9-2.2,2.7,13-3.5,7.9c-8.8-7.3,1.4-29.7,11.1-24.3c0.1,0,0.2,0.1,0.3,0.2C21.9,577.8,21.8,580.8,21.3,583.8z"/>
					<path class="st9" d="M33.7,684.4c9.7-8.1,9.8,14.1,3.9,10.6c2.1,0.4,2.7-2.4,1.7-4.9c-5.4-2.2-5.5,9.2-0.7,10.2
						c0,0.8,0.2,1.7,0.6,2.5c1.2,2.8,4,3.9,6,2.2c1-0.8,1.9-1.7,2.7-2.7c1.6-1.6,3.2-3.3,4.4-5.4c0.9-1.5,1.6-3,2.2-4.5
						c-2.5,9.2-7.4,15.6-16,13.1C31.8,703.6,25.7,691.1,33.7,684.4z"/>
					<path class="st9" d="M56.4,681.2c-0.4-1.7-1.4-3.1-2.6-3.8c-0.1-0.8-0.2-1.6-0.3-2.3c0.1-1.3-0.1-2.7-0.5-3.9
						c-0.2-0.6-0.4-1.2-0.6-1.7c-0.5-1.7-1-3.2-1.7-4.6c-1.2-2.5-3.4-3.8-5.5-2.6c-0.1-0.4-0.3-0.7-0.5-1.1
						c-0.7-1.7-1.6-3.4-2.3-5.1c-0.1-0.3-0.2-0.6-0.3-0.8c-0.2-0.4-0.4-0.8-0.5-1.1c-1.4-2.7-3.8-4-6-2.2c-2.1,1.7-2.8,5.5-1.6,8.4
						c1,2.4,2.2,4.7,3.2,7c0.1,0.3,0.3,0.6,0.4,0.9c0.1,0.4,0.2,0.8,0.4,1.2c0.3,0.8,0.7,1.6,1.1,2.3c1.2,2.4,2.3,4.1,3.3,6.2
						c0.1,0.7,0.2,1.4,0.3,2c0,0.2,0.1,0.3,0.1,0.5c-2.3-6-7.2-8.9-10.4-13.7c-5.5-8.1-6.7-24.8-4.3-35.2l-0.3-3.1
						c-0.4,1-1,0.9-1.4,2.3c-1.5-0.2-1.6-1.4-1.3-2.9c2.2-6,3.3-13.1,3.3-18.9c0-3.3-2-6.1-4.4-6.1c-2.4,0-4.4,2.8-4.4,6.1
						c0,0.7,0,1.5-0.1,2.2c0,0.3-0.1,1.6-0.1,1.5c-0.1,1.2-0.3,2.3-0.5,3.4c-0.3,1.4-0.6,2.9-1,4.3c0,0.2-0.2,0.8-0.3,0.9
						c0,0,0,0.1,0,0.1c-0.2,0.7-0.5,1.3-0.7,1.9c-0.1,0.1-0.1,0.3-0.2,0.4c-2.1-3-1.1-10.7,0.4-13.7c3-6.2,6.7-7.7,6.4-15.7
						c0-0.4,0-0.9-0.1-1.3c0.2,0.1,0.3,0.2,0.5,0.2c2.4,0.9,4.7-1.1,5.4-4.3c0.1-0.4,0.2-0.9,0.3-1.3c2.4,10.3,1.9,23.6,2,32.2
						c0.1,10.6,1.2,23.3,9.5,27.2c3.3,1.6,6.9,0,10,2.7c3.4,2.9,4.5,8.3,5,13.3C56.7,668.3,56.9,674.8,56.4,681.2z"/>
					<path class="st9" d="M45.3,683.8c0,0.3,0,0.7-0.1,1c0,0,0,0,0,0c0,0.2,0,0.3-0.1,0.5c-0.1,0.5-0.2,1-0.3,1.6
						c0,0.1,0,0.2-0.1,0.3c0,0,0,0,0,0c-0.1,0.1-0.1,0.3-0.2,0.5c-0.1,0.1-0.1,0.1-0.2,0.2c-0.2-2.3-0.6-4.5-1.1-6.2
						C43.7,682.7,44.5,683.4,45.3,683.8z"/>
				</g>
			</g>
			<g>
				<path class="st5" d="M4.4,533.5c3.3,1.4,5.7,3.1,8.1,6.9c2.4,3.9,3.6,9.7,6.2,13.3c4.6,6.5,5.5-13.3,5.8-16.5
					c0.4-4.6,1-9.1,1.8-13.6c0.6-3.2,0.9-7.7,2.4-10.4c1.2-2.3,4.1-3.9,4-6.6l2.3-3.2c-0.6-3-1.2-15.2,3.2-13.5
					c-0.4,3.7,5,1.5,4.4-3.2c-0.6-5.2-5.5-2.9-7.8-1.8c-8,3.7-9.8,13.6-13,23c-1,3-2.5,5-4.4,6.9c1.1-3.4-1.1-5.2-3.2-6.1
					c-2.2-0.9-4.5-0.3-6.1,2.4c-2.6,4.3-3,11.6-1.9,16.7C2.8,526.1,0.5,531.8,4.4,533.5z"/>
				<path class="st6" d="M15.8,547.8c3.7,6.6,5.5,12.3,6.6,20.4c2.1,15.9-0.4,33.2-4,48.2c-5.9,24.3-21.3,46.3-15.8,73.8
					c1.1,5.5,4.2,12.4,7.7,15.7c3.3,3.2,9.6,4.5,12.5-0.4c3.1-5.4,2.5-14,1.7-20.3c-0.4-3.4-1.4-6.8-2.9-9.6
					c-0.8-1.5-3.5-5.1-4.5-4.2l3.2-9.3c2,4.4,5.1,5.7,8.7,1.4c3-3.6,2.9-9.4,4.4-14c0.5,3.7-0.3,8.2,3.1,9.7c2.9,1.2,7.3-2.1,8-6
					c0.6-2.9-1.5-4.4-1.2-6.4c0.2-1.1,1.2-2,2.1-2.6c0.5,0,0.9-0.1,1.4-0.2c4.2-0.9,9-4.2,9.7-10.8c0.9-7.7-0.8-12.5-6-13.9
					c-5.2-1.3-6.9-2.6-8.6-10.1c-0.6-2.8-1.8-6.6-0.9-9.6c0.2-0.7,0.5-1.4,0.8-1.8c1,0.5,2,0.5,2.9,0.1c0.1,0.2,0.2,0.3,0.4,0.5
					v-0.7c2.7-1.5,4.4-6.1,4.3-10.1c-0.3-7.3-2.9-9.1-5.4-14.7c-2.2-5.2-1-13.4-2.6-19.2c-2.3-8.4-4.9-15-11-18.8
					c-4.2-2.6-9.1-7.8-13.5-9.1c-1.9-0.6-5.2,1.1-6.6-0.9c-1.3-1.8-0.9-7.4,1.4-7.4c-2.5,3.1,0.9,6.9,2.8,3
					c1.2-2.5-0.6-9.2-2.8-10.2c-6.7-2.9-5.7,14.4-4.8,18.7C8.5,536.4,12.5,542,15.8,547.8z"/>
			</g>
			<g>
				<path class="st7" d="M13.8,546.6c3.9,11.4,5.8,24.9,5.4,37.4c-0.4,16.5-1.8,31.7-5.1,47.6c-1,5.1-2.3,10.5-4,15.3
					c-0.8,2.2-2.7,5.5-2.9,7.1l6,6c6.6-3,11.7-7.7,16.6-15.2c3.7-5.5,5.3-7.2,10.4-3.7c4.4,3,8.4,3.2,12.2-1.1
					c3.4-3.8,5.8-14.8,0.5-18.2c-1.8-1.2-5.1-0.6-6.3,1.9c-1.1,2.3-0.1,7.6,2.3,4.9c-2.9-1.7,0.4-8.2,2.7-4.1c2.2,3.7-0.7,7-3.2,6.8
					c-5.9-0.4-8.4-10.1-10.4-16.7c-1.9-6.3-0.8-15.5-0.8-22.3c0-13.6,1.5-27.1,0.1-40.4c-0.4-3.3-0.6-6.7-1.4-9.9
					c-0.8-3.1-1.9-4.9-1.8-8.4c0.3-6.6,5.5-8.2,5.4-15.2c-0.1-6.8-4.6-10.9-4.6-17.9c0-6.7,2.9-10.1,6.3-13.9
					c-12.8,1.1-17,15-20,30.7c-1.2,6.4-4.2,10.7-8.9,12.9c-2.7,1.3-7.6-1.5-9.4,1.2C8.6,531.8,11.7,540.4,13.8,546.6z"/>
				<path class="st5" d="M18.2,705.9c6.7-1.9,12.8-14.4,4.8-21.1c-9.7-8.1-9.8,14.1-3.9,10.6c-2.1,0.4-2.7-2.4-1.7-4.9
					c6.1-2.5,5.5,12.4-1.4,10.1c-4.9-1.6-4.3-13-2.6-18.6c2.1-6.8,7.4-9.8,10.8-14.9c5.5-8.1,6.7-24.8,4.3-35.2l0.3-3.1
					c0.4,1,1,0.9,1.4,2.3c3.5-0.5-0.7-6.5,0.8-10c2.3-5.2,4.8-0.2,5.2,4.1c6.4,2,5.2-10.6,3.3-14.7c-3-6.2-6.7-7.7-6.4-15.7
					c0.2-5.8,1.8-14.5,7.4-12.6c2.6,0.9,4.4,3.9,4.3,7.8c-0.1,3.6-2.1,6.2-2.2,1.3c-5.9-2.2-2.7,13,3.5,7.9
					c8.8-7.3-1.4-29.7-11.1-24.3c-11.3,6.3-9.9,31.9-10,45.5c-0.1,10.6-1.2,23.3-9.5,27.2c-3.3,1.6-6.9,0-10,2.7
					c-3.4,2.9-4.5,8.3-5,13.3C-1.4,680.5,1.2,710.8,18.2,705.9z"/>
			</g>
			<g>
				<path class="st8" d="M13.8,546.6c3.9,11.4,5.8,24.9,5.4,37.4c-0.4,16.5-1.8,31.7-5.1,47.6c-1,5.1-2.3,10.5-4,15.3
					c-0.8,2.2-2.7,5.5-2.9,7.1l5.6,5.6c0.5-1,1-2,1.4-3.1c0.1-0.3,0.2-0.6,0.3-0.8c0.2-0.4,0.4-0.8,0.5-1.1c1.4-2.7,3.8-4,6-2.2
					c0.5,0.4,0.9,0.9,1.2,1.5c2.6-2.5,5.1-5.4,7.5-9.1c3.7-5.5,5.3-7.2,10.4-3.7c4.4,3,8.4,3.2,12.2-1.1c3.4-3.8,5.8-14.8,0.5-18.2
					c-1.8-1.2-5.1-0.6-6.3,1.9c-0.1,0.2-0.2,0.5-0.3,0.7c0.7-0.3,1.4-0.4,2.2-0.4c0.7-1,1.9-1.3,2.9,0.2c1.9,0.7,3.4,3.1,3.4,5.9
					c0,3.1-0.6,7.2-2.9,8.7c-1.1,0.7-1.9,1-3.1,1.1c-0.2,0-0.3,0-0.5,0c0,0-0.1,0-0.2,0.1c-13,6.1-19.8-16.2-19.9-30.6
					c0-3.3,2-6.1,4.4-6.1c2.4,0,4.4,2.8,4.4,6.1c0,0.7,0,1.5,0.1,2.2c0,0.3,0.1,1.6,0.1,1.5c0.1,1.2,0.3,2.3,0.5,3.4
					c0.3,1.4,0.6,2.9,1,4.3c0,0.2,0.2,0.8,0.3,0.9c0,0,0,0.1,0,0.1c0.2,0.7,0.5,1.3,0.7,1.9c0.3,0.7,0.6,1.5,1,2.1
					c0,0,0,0.1,0.1,0.1c0.1,0.2,0.3,0.4,0.4,0.6c0.2,0.3,0.5,0.6,0.7,0.9c0.2,0.1,0.7,0.6,0.8,0.8c0.1,0.1,0.2,0.1,0.2,0.2
					c0.1,0,0.1,0,0.2,0.1c0,0,0,0,0,0c0-0.2,0.1-0.4,0.2-0.6c-2.5-3.5-4-9.1-5.3-13.4c-1.9-6.3-0.8-15.5-0.8-22.3
					c0-13.6,1.5-27.1,0.1-40.4c-0.4-3.3-0.6-6.7-1.4-9.9c-0.8-3.1-1.9-4.9-1.8-8.4c0.3-6.6,5.5-8.2,5.4-15.2
					c-0.1-6.8-4.6-10.9-4.6-17.9c0-6.7,2.9-10.1,6.3-13.9c-12.8,1.1-17,15-20,30.7c-0.3,1.6-0.7,3.1-1.2,4.4
					c0.6,0.5,1.3,1.1,1.9,1.6c0.1-1.6,0.1-3.2,0.1-4.9c0-3.3,2-6.1,4.4-6.1s4.4,2.8,4.4,6.1v21.5c0,3.3-2,6.1-4.4,6.1
					c-2.4,0-4.4-2.8-4.4-6.1v-0.6c-0.8,0.8-1.7,1.1-2.6,1c-1.2,0.1-2.5-0.5-3.5-1.6c0,0,0,0,0,0c-0.6-0.5-1.2-1.1-1.7-1.7
					c-1-1.1-1.9-2.7-2.4-4.4c-0.2-0.7-0.4-1.4-0.4-2.1c-2.8,0.4-6.7-1.5-8.3,0.9C8.6,531.8,11.7,540.4,13.8,546.6z M30.4,567.2
					c2.4,0,4.4,2.8,4.4,6.1c0,4.6,0,8.5,1,12.7c0.7,3.2-0.8,6.7-3.1,7.5c-2.4,0.9-4.7-1.1-5.4-4.3c-1.2-5.2-1.3-10.6-1.3-16
					C26,570,28,567.2,30.4,567.2z"/>
				<path class="st9" d="M35.4,584.2c1.1-1.9,2.8-3,5.1-2.1c2.6,0.9,4.4,3.9,4.3,7.8c-0.1,3.6-2.1,6.2-2.2,1.3
					c-5.9-2.2-2.7,13,3.5,7.9c8.8-7.3-1.4-29.7-11.1-24.3c-0.1,0-0.2,0.1-0.3,0.2C34.8,578.2,34.9,581.1,35.4,584.2z"/>
				<path class="st9" d="M23,684.8c-9.7-8.1-9.8,14.1-3.9,10.6c-2.1,0.4-2.7-2.4-1.7-4.9c5.4-2.2,5.5,9.2,0.7,10.2
					c0,0.8-0.2,1.7-0.6,2.6c-1.2,2.8-4,3.9-6,2.2c-1-0.8-1.9-1.7-2.7-2.7c-1.6-1.6-3.2-3.3-4.4-5.4c-0.9-1.5-1.6-3-2.2-4.5
					c2.5,9.2,7.4,15.6,16,13.1C24.9,704,31,691.5,23,684.8z"/>
				<path class="st9" d="M0.3,681.6c0.4-1.7,1.4-3.1,2.6-3.8c0.1-0.8,0.2-1.6,0.3-2.3c-0.1-1.3,0.1-2.7,0.5-3.9
					c0.2-0.6,0.4-1.2,0.6-1.7c0.5-1.7,1-3.2,1.7-4.6c1.2-2.5,3.4-3.8,5.5-2.6c0.1-0.4,0.3-0.7,0.5-1.1c0.7-1.7,1.6-3.4,2.3-5.1
					c0.1-0.3,0.2-0.6,0.3-0.8c0.2-0.4,0.4-0.8,0.5-1.1c1.4-2.7,3.8-4,6-2.2c2.1,1.7,2.8,5.5,1.6,8.4c-1,2.4-2.2,4.7-3.2,7
					c-0.1,0.3-0.3,0.6-0.4,0.9c-0.1,0.4-0.2,0.8-0.4,1.2c-0.3,0.8-0.7,1.6-1.1,2.3c-1.2,2.4-2.3,4.1-3.3,6.2c-0.1,0.7-0.2,1.4-0.3,2
					c0,0.2-0.1,0.3-0.1,0.5c2.3-6,7.2-8.9,10.4-13.7c5.5-8.1,6.7-24.8,4.3-35.2l0.3-3.1c0.4,1,1,0.9,1.4,2.3
					c1.5-0.2,1.6-1.4,1.3-2.9c-2.2-6-3.3-13.1-3.3-18.9c0-3.3,2-6.1,4.4-6.1c2.4,0,4.4,2.8,4.4,6.1c0,0.7,0,1.5,0.1,2.2
					c0,0.3,0.1,1.6,0.1,1.5c0.1,1.2,0.3,2.3,0.5,3.4c0.3,1.4,0.6,2.9,1,4.3c0,0.2,0.2,0.8,0.3,0.9c0,0,0,0.1,0,0.1
					c0.2,0.7,0.5,1.3,0.7,1.9c0.1,0.1,0.1,0.3,0.2,0.4c2.1-3,1.1-10.7-0.4-13.7c-3-6.2-6.7-7.7-6.4-15.7c0-0.4,0-0.9,0.1-1.3
					c-0.2,0.1-0.3,0.2-0.5,0.2c-2.4,0.9-4.7-1.1-5.4-4.3c-0.1-0.4-0.2-0.9-0.3-1.3c-2.4,10.3-1.9,23.6-2,32.2
					c-0.1,10.6-1.2,23.3-9.5,27.2c-3.3,1.6-6.9,0-10,2.7c-3.4,2.9-4.5,8.3-5,13.3C0,668.7-0.2,675.2,0.3,681.6z"/>
				<path class="st9" d="M11.4,684.2c0,0.3,0,0.7,0.1,1c0,0,0,0,0,0c0,0.2,0,0.3,0.1,0.5c0.1,0.5,0.2,1,0.3,1.6c0,0.1,0,0.2,0.1,0.3
					c0,0,0,0,0,0c0.1,0.1,0.1,0.3,0.2,0.5c0.1,0.1,0.1,0.1,0.2,0.2c0.2-2.3,0.6-4.5,1.1-6.2C12.9,683.1,12.2,683.8,11.4,684.2z"/>
			</g>
		</g>
	</g>
	<g>
		
			<linearGradient id="SVGID_2_" gradientUnits="userSpaceOnUse" x1="-269.0917" y1="662.5995" x2="-269.0917" y2="416.0824" gradientTransform="matrix(1 0 0 1 295.3901 -174.0626)">
			<stop  offset="0" style="stop-color:#5F7668"/>
			<stop  offset="0.4303" style="stop-color:#EEEEEE"/>
			<stop  offset="1" style="stop-color:#75877C"/>
		</linearGradient>
		<path class="st10" d="M26.3,423.6c-0.1-6.3,0-12.6,0.2-18.8c0.1-5.3,0.6-12.4-0.5-17.4c0-0.2-0.2-0.1-0.2,0.1
			c-0.1,2.8,0.2,5.7,0.3,8.5c0.1,2.9,0,5.9,0,8.8c-0.1,6.3-0.2,12.5-0.1,18.8c0.2,13,0.7,26.1,0.8,39.1c0,0.1,0.1,0.1,0.1,0
			C27,449.7,26.5,436.7,26.3,423.6z"/>
		
			<linearGradient id="SVGID_3_" gradientUnits="userSpaceOnUse" x1="-270.1091" y1="662.5994" x2="-270.1091" y2="416.0825" gradientTransform="matrix(1 0 0 1 295.3901 -174.0626)">
			<stop  offset="0" style="stop-color:#5F7668"/>
			<stop  offset="0.4303" style="stop-color:#EEEEEE"/>
			<stop  offset="1" style="stop-color:#75877C"/>
		</linearGradient>
		<path class="st11" d="M25.1,373.1c0-0.1-0.1-0.1-0.1,0.1c-0.1,2.8,0,5.9,0.1,8.8c0,0.5,0.3,0.5,0.3,0c0.1-1.6,0.1-3.1,0.1-4.7
			C25.6,375.6,25.5,374.5,25.1,373.1z"/>
		
			<linearGradient id="SVGID_4_" gradientUnits="userSpaceOnUse" x1="-270.1198" y1="662.6083" x2="-270.1198" y2="416.0741" gradientTransform="matrix(1 0 0 1 295.3901 -174.0626)">
			<stop  offset="0" style="stop-color:#5F7668"/>
			<stop  offset="0.4303" style="stop-color:#EEEEEE"/>
			<stop  offset="1" style="stop-color:#75877C"/>
		</linearGradient>
		<path class="st12" d="M25.3,363.2c0-0.2-0.1-0.2-0.2,0c-0.2,1.4-0.3,2.4-0.3,3.9c0,1-0.1,2.3,0.3,3c0,0,0,0,0.1,0
			c0.4-0.7,0.3-2,0.3-3C25.7,365.6,25.5,364.6,25.3,363.2z"/>
		
			<linearGradient id="SVGID_5_" gradientUnits="userSpaceOnUse" x1="-270.2574" y1="662.5801" x2="-270.2574" y2="416.0988" gradientTransform="matrix(1 0 0 1 295.3901 -174.0626)">
			<stop  offset="0" style="stop-color:#5F7668"/>
			<stop  offset="0.4303" style="stop-color:#EEEEEE"/>
			<stop  offset="1" style="stop-color:#75877C"/>
		</linearGradient>
		<path class="st13" d="M25.1,353.7c0-0.1-0.1-0.1-0.1,0c-0.1,1.4-0.1,2.8,0.2,4c0,0,0,0,0,0C25.2,356.3,25.2,355,25.1,353.7z"/>
		
			<linearGradient id="SVGID_6_" gradientUnits="userSpaceOnUse" x1="-270.1192" y1="662.6089" x2="-270.1192" y2="416.0754" gradientTransform="matrix(1 0 0 1 295.3901 -174.0626)">
			<stop  offset="0" style="stop-color:#5F7668"/>
			<stop  offset="0.4303" style="stop-color:#EEEEEE"/>
			<stop  offset="1" style="stop-color:#75877C"/>
		</linearGradient>
		<path class="st14" d="M25.3,345.7c0-0.1-0.1-0.1-0.1,0c0,0.4-0.1,0.7-0.1,1c0,0.3,0.1,0.4,0.1,0.6c0,0,0,0,0.1,0c0,0,0-0.2,0-0.2
			c0.1-0.1,0.1-0.2,0.1-0.4C25.4,346.4,25.4,346.1,25.3,345.7z"/>
		
			<linearGradient id="SVGID_7_" gradientUnits="userSpaceOnUse" x1="-265.1553" y1="662.6" x2="-265.1553" y2="416.0812" gradientTransform="matrix(1 0 0 1 295.3901 -174.0626)">
			<stop  offset="0" style="stop-color:#5F7668"/>
			<stop  offset="0.4303" style="stop-color:#EEEEEE"/>
			<stop  offset="1" style="stop-color:#75877C"/>
		</linearGradient>
		<path class="st15" d="M32.5,394c0-1.1,0.4-3.6-0.1-4.3c-0.1-0.1-0.2-0.1-0.2,0c-0.2,0.3-0.2,0.6-0.2,1c0,0.1,0,0.2,0.1,0.3
			c0,0,0,0,0,0c0,0.7-0.1,1.4-0.1,2.1c-0.1,2.6,0.1,5.2,0.2,7.8c0,1.4,0.1,2.9,0.2,4.3c0,0.9-1.1,0.6-1.4,0.7c-0.1,0-0.1,0-0.2,0
			c0-2.7-0.2-5.4-0.5-8c0-0.3-0.3-0.2-0.2,0.1c0.2,2.6,0.3,5.3,0.3,8c-0.7,0.2-1.4,0.7-2.1,1.4c0-5.8,0.3-11.6,0.4-17.5
			c0.1-5,0.2-10.6-0.8-15.2c0-0.2-0.2,0-0.1,0.1c0.9,4.9,0.7,10.8,0.6,15.9c-0.1,5.8-0.5,11.6-0.5,17.5c0,0.4,0.2,0.6,0.4,0.4
			c0.7-0.9,1.4-1.4,2.2-1.6c0,2.6-0.1,5.2-0.1,7.8c0,2.5-0.1,4.9-0.1,7.4c0,1.6-0.1,3.9,0.3,5.2c0.1,0.2,0.2,0.2,0.2-0.1
			c0.2-1.6,0-3.6,0-5.2c0-2.8,0.1-5.5,0.1-8.3c0-2.3,0.1-4.7,0-7c0.6-0.1,1.2-0.1,1.9-0.1c0.1,0,0.3-0.3,0.3-0.6
			C32.6,402.2,32.4,398,32.5,394z"/>
		
			<linearGradient id="SVGID_8_" gradientUnits="userSpaceOnUse" x1="-264.5027" y1="662.5994" x2="-264.5027" y2="416.0828" gradientTransform="matrix(1 0 0 1 295.3901 -174.0626)">
			<stop  offset="0" style="stop-color:#5F7668"/>
			<stop  offset="0.4303" style="stop-color:#EEEEEE"/>
			<stop  offset="1" style="stop-color:#75877C"/>
		</linearGradient>
		<path class="st16" d="M31.4,381.3c-0.3,0.9-0.5,1.8-0.7,2.8c-0.1-0.8-0.1-1.7-0.2-2.5c-0.1-0.8-0.1-2.3-0.4-2.9c0,0-0.1,0-0.1,0
			c0,0.1,0,0.2,0,0.3c0,0.1-0.1,0.3,0,0.5c0,0.7,0.1,1.5,0.1,2.2c0.1,1.4,0.1,3,0.3,4.3c0.1,0.5,0.4,0.5,0.5,0
			c0.3-1.4,0.8-2.9,0.9-4.4C31.8,381.1,31.5,380.8,31.4,381.3z"/>
		
			<linearGradient id="SVGID_9_" gradientUnits="userSpaceOnUse" x1="-264.2427" y1="662.6014" x2="-264.2427" y2="416.0797" gradientTransform="matrix(1 0 0 1 295.3901 -174.0626)">
			<stop  offset="0" style="stop-color:#5F7668"/>
			<stop  offset="0.4303" style="stop-color:#EEEEEE"/>
			<stop  offset="1" style="stop-color:#75877C"/>
		</linearGradient>
		<path class="st17" d="M32,370.8c0-0.2-0.1-0.4-0.2-0.4c-0.4,0-0.9,0.1-1.1,1.1c-0.2,0.8-0.1,1.9,0.1,2.7c0,0.2,0.1,0.1,0.1,0
			c0.1-0.5,0.1-1,0.1-1.5c0-0.9,0.2-1.2,0.6-1.3c0.1,2,0,3.9-0.3,5.8c-0.7-1.1-0.9-2.7-0.8-4.6c0-0.2-0.2-0.3-0.2-0.1
			c-0.2,2.3,0,4.2,1,5.5c0.1,0.1,0.2,0,0.2-0.2C32,375.4,32.1,373.2,32,370.8z"/>
		
			<linearGradient id="SVGID_10_" gradientUnits="userSpaceOnUse" x1="-261.6733" y1="662.5994" x2="-261.6733" y2="416.0836" gradientTransform="matrix(1 0 0 1 295.3901 -174.0626)">
			<stop  offset="0" style="stop-color:#5F7668"/>
			<stop  offset="0.4303" style="stop-color:#EEEEEE"/>
			<stop  offset="1" style="stop-color:#75877C"/>
		</linearGradient>
		<path class="st18" d="M35.8,441.6c0.1-5.5,0.1-10.9,0-16.4c0-5.2-0.2-10.6-1.1-15.5c0-0.3-0.2-0.3-0.3-0.2c-0.9,0.8-2,1-3,1.1
			c0,0,0,0,0,0c0.3,0.9,1.3,0.4,1.7,0.3c0.7-0.2,1.2-1.1,1.4,0.6c0.3,2.3,0.4,4.6,0.5,7c0.3,7.7,0,15.5,0.1,23.2c0,0,0,0.1,0,0.1
			c0,0,0,0,0,0c0,0.2,0.1,0.3,0.2,0.3c0,0,0,0,0,0c0,0,0,0,0,0c0.1,0,0.2-0.1,0.2-0.3C35.8,441.8,35.8,441.7,35.8,441.6
			C35.8,441.7,35.8,441.7,35.8,441.6z"/>
		
			<linearGradient id="SVGID_11_" gradientUnits="userSpaceOnUse" x1="-260.4398" y1="662.602" x2="-260.4398" y2="416.0772" gradientTransform="matrix(1 0 0 1 295.3901 -174.0626)">
			<stop  offset="0" style="stop-color:#5F7668"/>
			<stop  offset="0.4303" style="stop-color:#EEEEEE"/>
			<stop  offset="1" style="stop-color:#75877C"/>
		</linearGradient>
		<path class="st19" d="M35.6,406.6c-0.5-1.2-1.1-2.8-1.9-2.8c0,0,0,0.1,0,0.1c0.6,0.9,1.2,1.9,1.6,3.2c0.2,0.5,0.3,1.1,0.5,1.6
			c0.1,0.3,0.2,0.5,0.3,0.8c0,0.1,0.1,0.1,0.1,0C36.4,408.5,35.8,407.3,35.6,406.6z"/>
		
			<linearGradient id="SVGID_12_" gradientUnits="userSpaceOnUse" x1="-260.0793" y1="662.6008" x2="-260.0793" y2="416.0797" gradientTransform="matrix(1 0 0 1 295.3901 -174.0626)">
			<stop  offset="0" style="stop-color:#5F7668"/>
			<stop  offset="0.4303" style="stop-color:#EEEEEE"/>
			<stop  offset="1" style="stop-color:#75877C"/>
		</linearGradient>
		<path class="st20" d="M36.4,404.6C36.4,404.5,36.4,404.5,36.4,404.6c0,0,0-0.1,0-0.1c0-0.2-0.1-0.3-0.2-0.4
			c-0.2-0.4-0.4-0.8-0.6-1.2c-0.4-0.7-0.8-1.4-1.3-1.9c-0.1-0.1-0.1,0.1-0.1,0.2c0.6,0.8,1.1,2.1,1.7,3.2c0.1,0.2,0.3,0.6,0.5,0.5
			C36.5,404.9,36.4,404.7,36.4,404.6z"/>
		
			<linearGradient id="SVGID_13_" gradientUnits="userSpaceOnUse" x1="-260.9672" y1="662.5991" x2="-260.9672" y2="416.0824" gradientTransform="matrix(1 0 0 1 295.3901 -174.0626)">
			<stop  offset="0" style="stop-color:#5F7668"/>
			<stop  offset="0.4303" style="stop-color:#EEEEEE"/>
			<stop  offset="1" style="stop-color:#75877C"/>
		</linearGradient>
		<path class="st21" d="M35.7,390.2c-0.5,0.9-0.8,2.3-1.1,3.5c-0.5,1.9-1,3.9-1.6,5.6c-0.1,0.2,0.1,0.4,0.1,0.2
			c1.1-2.8,1.8-6.1,2.7-9.2C35.9,390.2,35.8,390.1,35.7,390.2z"/>
		
			<linearGradient id="SVGID_14_" gradientUnits="userSpaceOnUse" x1="-259.9022" y1="662.6044" x2="-259.9022" y2="416.0745" gradientTransform="matrix(1 0 0 1 295.3901 -174.0626)">
			<stop  offset="0" style="stop-color:#5F7668"/>
			<stop  offset="0.4303" style="stop-color:#EEEEEE"/>
			<stop  offset="1" style="stop-color:#75877C"/>
		</linearGradient>
		<path class="st22" d="M36,394.7c0,1.4-0.1,2.8-0.2,4.2c-0.3-0.4-0.6-1-0.8-1.5c0.3-1,0.6-1.9,0.9-2.9c0.1-0.4,0.2-1.2-0.1-0.7
			c-0.1,0.1,0,0.3,0,0.3c0,0,0,0,0,0c0,0.1-0.1,0.3-0.1,0.4c-0.1,0.3-0.2,0.7-0.3,1c-0.2,0.6-0.5,1.2-0.7,1.9c0,0.1,0,0.3,0,0.4
			c0.3,0.8,0.7,1.5,1.2,2c0.1,0.1,0.2,0,0.2-0.3c0-1.6,0.2-3.2,0.2-4.8C36.3,394.3,36,394.3,36,394.7z"/>
		
			<linearGradient id="SVGID_15_" gradientUnits="userSpaceOnUse" x1="-262.4428" y1="662.5995" x2="-262.4428" y2="416.0826" gradientTransform="matrix(1 0 0 1 295.3901 -174.0626)">
			<stop  offset="0" style="stop-color:#5F7668"/>
			<stop  offset="0.4303" style="stop-color:#EEEEEE"/>
			<stop  offset="1" style="stop-color:#75877C"/>
		</linearGradient>
		<path class="st23" d="M34.3,415c-3.2-2.4-2.6,11.5-2.5,14.6c0.1,3.9,0.2,7.7,0.2,11.5c0,2.7,0,5.3,0,8c0,1.5-0.2,3.7,0.1,5
			c0,0.1,0.1,0.1,0.1,0c0.2-0.9,0.1-2,0.1-3c0-2.3,0-4.5,0-6.8c0-3.7,0.1-7.3-0.1-11C32.1,428.9,30.9,415.2,34.3,415
			C34.3,415,34.3,415,34.3,415z"/>
		
			<linearGradient id="SVGID_16_" gradientUnits="userSpaceOnUse" x1="-260.6487" y1="662.6" x2="-260.6487" y2="416.0813" gradientTransform="matrix(1 0 0 1 295.3901 -174.0626)">
			<stop  offset="0" style="stop-color:#5F7668"/>
			<stop  offset="0.4303" style="stop-color:#EEEEEE"/>
			<stop  offset="1" style="stop-color:#75877C"/>
		</linearGradient>
		<path class="st24" d="M36.3,446.5c0-0.1,0-0.2-0.1-0.2c-0.5,0-1.3,0.5-1.5,1.7c-0.1,0.5,0.3,0.8,0.4,0.2c0.1-0.8,0.7-1.1,1.1-1.4
			c0.1,0.7,0,1.8-0.1,2.4c-0.1,0.7-0.3,1.3-0.6,1.7c-0.5,0.7-1.3,0.7-1.9,0.7c-0.1-1.5-0.1-3.1,0.3-4.5c0.4-1.3,0.9-1.4,1.6-1.4
			c0,0,0,0,0-0.1c-0.5-1-1.3-0.4-1.7,0.5c-0.7,1.5-0.8,4-0.6,6c0,0.2,0.1,0.4,0.2,0.4c0.9,0,1.8-0.1,2.5-1.2c0.3-0.4,0.5-1,0.6-1.7
			c0.1-0.4,0.1-0.8,0.1-1.2C36.5,447.7,36.3,447.2,36.3,446.5z"/>
		
			<linearGradient id="SVGID_17_" gradientUnits="userSpaceOnUse" x1="-262.1687" y1="662.5999" x2="-262.1687" y2="416.0815" gradientTransform="matrix(1 0 0 1 295.3901 -174.0626)">
			<stop  offset="0" style="stop-color:#5F7668"/>
			<stop  offset="0.4303" style="stop-color:#EEEEEE"/>
			<stop  offset="1" style="stop-color:#75877C"/>
		</linearGradient>
		<path class="st25" d="M34.1,441.5c-0.9-0.7-0.4-4.3-0.4-6c0-1.4-0.7-2.8,0-3.6c0.3-0.3,0.4-1.2,0.4-1.8c-0.1-0.7-0.2-1.2-0.4-1.8
			c-0.3-1-0.7-1,0.3-1.3c0.2-0.1,0.2-0.6,0.1-0.8c-0.4-0.6-0.6-1.3-1-1.9c0.5-0.4,0.9-1,0.9-2.3c0-0.5-0.2-0.9-0.4-1.3
			c0-0.1,0.3-0.9,0.2-1.4c0-0.1-0.1-0.2-0.1-0.2c-0.3,0.2-0.5,0.6-0.7,1c-0.1,0.2-0.1,0.5,0,0.7c0.7,1.3,0.2,2.3-0.5,2.8
			c-0.2,0.1-0.2,0.7-0.1,0.8c0.4,0.4,0.7,1.1,1,1.7c-0.2,0.1-0.4,0.3-0.6,0.6c-0.1,0.2-0.2,0.5,0,0.7c0.4,0.9,1.6,3,0.1,4.1
			c-0.1,0.1-0.2,0.4-0.1,0.6c0.8,2.8,0.5,5.5,0.4,8.6c0,0.8,0.7,0.9,0.9,1C34.1,441.9,34.2,441.6,34.1,441.5z"/>
		
			<linearGradient id="SVGID_18_" gradientUnits="userSpaceOnUse" x1="-267.4342" y1="662.6025" x2="-267.4342" y2="416.0755" gradientTransform="matrix(1 0 0 1 295.3901 -174.0626)">
			<stop  offset="0" style="stop-color:#5F7668"/>
			<stop  offset="0.4303" style="stop-color:#EEEEEE"/>
			<stop  offset="1" style="stop-color:#75877C"/>
		</linearGradient>
		<path class="st26" d="M28.5,412.4c-0.1-0.3-0.2-0.5-0.3-0.7c-0.1-0.2-0.2-0.6-0.4-0.6c-0.1,0-0.1,0.1-0.2,0.3c0,0.1,0,0.3,0,0.4
			c0,0-0.1,0-0.1,0.1c0,0.1-0.1,0.1-0.1,0.1c0,0.1-0.1,0.2-0.1,0.3c0,0.2,0,0.5,0,0.7c0,0.8,0.4,1.3,0.7,1.7
			c0.1,0.1,0.2,0.1,0.3-0.1C28.5,413.9,28.7,413.2,28.5,412.4z M27.7,412.6c0-0.1,0-0.3,0-0.5c0.1,0.2,0.2,0.4,0.3,0.5
			c0.1,0.1,0.1,0.2,0.2,0.4c0,0.2,0,0.4-0.1,0.5C27.9,413.4,27.7,413.1,27.7,412.6z"/>
		
			<linearGradient id="SVGID_19_" gradientUnits="userSpaceOnUse" x1="-267.6009" y1="662.5953" x2="-267.6009" y2="416.0934" gradientTransform="matrix(1 0 0 1 295.3901 -174.0626)">
			<stop  offset="0" style="stop-color:#5F7668"/>
			<stop  offset="0.4303" style="stop-color:#EEEEEE"/>
			<stop  offset="1" style="stop-color:#75877C"/>
		</linearGradient>
		<path class="st27" d="M28.3,418.8c-0.1-0.4-0.4-0.1-0.3,0.3c0.1,0.6,0.3,1.4,0.2,2.1c-0.1,0.7-0.5,0.9-0.9,1
			c-0.1-1.9,0.4-3,1.1-4.2c0.1-0.2,0-0.5-0.1-0.4c-0.9,1.2-1.4,2.7-1.3,5c0,0.2,0.1,0.4,0.2,0.4c0.5-0.1,1.1-0.3,1.4-1.3
			C28.7,420.7,28.5,419.6,28.3,418.8z"/>
		
			<linearGradient id="SVGID_20_" gradientUnits="userSpaceOnUse" x1="-267.2943" y1="662.5994" x2="-267.2943" y2="416.0832" gradientTransform="matrix(1 0 0 1 295.3901 -174.0626)">
			<stop  offset="0" style="stop-color:#5F7668"/>
			<stop  offset="0.4303" style="stop-color:#EEEEEE"/>
			<stop  offset="1" style="stop-color:#75877C"/>
		</linearGradient>
		<path class="st28" d="M28.9,448.1c0-0.3-0.1-0.6-0.1-0.8c0-0.1-0.1-0.2-0.1-0.1c-0.1,0.2-0.1,0.4-0.1,0.5c0.1-0.3,0.2-1,0.2-1.5
			c0-2.2-0.1-4.4-0.1-6.6c-0.1-4.1-0.1-8.1,0.1-12.2c0-0.2-0.1-0.4-0.2-0.4c-0.3,0-0.6,0-0.9,0c0,0-0.1,0-0.1,0c0,0,0,0,0,0l0,0
			c0,0,0,0,0,0c-0.1,0.1-0.2,0.5,0,0.6c0.4,0.5,1-0.5,0.9,0.9c-0.1,2.2-0.1,4.4-0.1,6.7c0,4.4,0.1,8.9,0.2,13.3
			c0,0.3,0.1,0.5,0.3,0.4c0.1,0,0.1-0.1,0.2-0.1C28.9,448.6,28.9,448.4,28.9,448.1z"/>
		<g>
			
				<linearGradient id="SVGID_21_" gradientUnits="userSpaceOnUse" x1="-265.5131" y1="662.5887" x2="-265.5131" y2="416.1211" gradientTransform="matrix(1 0 0 1 295.3901 -174.0626)">
				<stop  offset="0" style="stop-color:#5F7668"/>
				<stop  offset="0.4303" style="stop-color:#EEEEEE"/>
				<stop  offset="1" style="stop-color:#75877C"/>
			</linearGradient>
			<path class="st29" d="M30.3,432.9c0-0.1,0-0.3-0.1-0.4c-0.1-0.2-0.2-0.3-0.4-0.4c-0.1-0.1-0.1-0.1-0.2-0.2c0,0,0,0-0.1-0.1
				c0,0,0,0,0,0c0,0,0,0,0,0c0,0,0,0,0,0c0,0,0,0,0,0c0,0,0-0.1,0-0.1c0,0.1-0.1,0-0.2,0c0,0-0.1,0.1-0.1,0.2c0,0.2,0,0.4,0.1,0.5
				c0.1,0.3,0.4,0.6,0.6,0.7c0.1,0,0.1,0,0.2-0.1c0,0,0,0,0,0C30.3,433.1,30.3,433,30.3,432.9C30.3,432.9,30.3,432.9,30.3,432.9
				C30.3,432.8,30.3,432.8,30.3,432.9z"/>
			
				<linearGradient id="SVGID_22_" gradientUnits="userSpaceOnUse" x1="-265.7365" y1="605.8659" x2="-265.7365" y2="605.8414" gradientTransform="matrix(1 0 0 1 295.3901 -174.0626)">
				<stop  offset="0" style="stop-color:#5F7668"/>
				<stop  offset="0.4303" style="stop-color:#EEEEEE"/>
				<stop  offset="1" style="stop-color:#75877C"/>
			</linearGradient>
			<path class="st30" d="M29.7,431.8C29.7,431.8,29.7,431.8,29.7,431.8C29.6,431.8,29.6,431.8,29.7,431.8
				C29.6,431.8,29.7,431.8,29.7,431.8z"/>
		</g>
		
			<linearGradient id="SVGID_23_" gradientUnits="userSpaceOnUse" x1="-265.4597" y1="662.5608" x2="-265.4597" y2="416.2217" gradientTransform="matrix(1 0 0 1 295.3901 -174.0626)">
			<stop  offset="0" style="stop-color:#5F7668"/>
			<stop  offset="0.4303" style="stop-color:#EEEEEE"/>
			<stop  offset="1" style="stop-color:#75877C"/>
		</linearGradient>
		<path class="st31" d="M30.5,434.8c-0.1-0.4-0.2-0.6-0.4-0.6c-0.2,0-0.5,0.2-0.7,0.5c-0.1,0.1,0,0.5,0.1,0.4
			c0.2-0.1,0.4-0.2,0.6-0.1c0.1,0,0.1,0.1,0.2,0.1c0.1,0,0.1-0.1,0.1,0C30.5,435.1,30.5,434.9,30.5,434.8z"/>
		
			<linearGradient id="SVGID_24_" gradientUnits="userSpaceOnUse" x1="-265.151" y1="662.6263" x2="-265.151" y2="415.9809" gradientTransform="matrix(1 0 0 1 295.3901 -174.0626)">
			<stop  offset="0" style="stop-color:#5F7668"/>
			<stop  offset="0.4303" style="stop-color:#EEEEEE"/>
			<stop  offset="1" style="stop-color:#75877C"/>
		</linearGradient>
		<path class="st32" d="M30.5,437.3c-0.1,0.1-0.2,0.2-0.3,0.2c-0.1,0-0.1-0.1-0.2-0.2c0,0,0-0.1,0-0.1c0-0.2-0.2-0.3-0.3,0
			c0,0.2-0.1,0.5,0,0.7c0.1,0.2,0.2,0.3,0.3,0.4c0.2,0.2,0.5,0,0.7-0.2C30.9,437.9,30.8,437.1,30.5,437.3z"/>
		
			<linearGradient id="SVGID_25_" gradientUnits="userSpaceOnUse" x1="-265.1743" y1="662.5811" x2="-265.1743" y2="416.1593" gradientTransform="matrix(1 0 0 1 295.3901 -174.0626)">
			<stop  offset="0" style="stop-color:#5F7668"/>
			<stop  offset="0.4303" style="stop-color:#EEEEEE"/>
			<stop  offset="1" style="stop-color:#75877C"/>
		</linearGradient>
		<path class="st33" d="M30.9,440.7c0-0.1-0.1-0.2-0.2-0.2c-0.4,0-0.7,0-1.1,0.1c-0.2,0-0.2,0.6,0,0.6c0.4,0.1,0.7,0.1,1.1,0.1
			c0.1,0,0.1-0.1,0.2-0.2C30.9,440.9,30.9,440.8,30.9,440.7z"/>
		
			<linearGradient id="SVGID_26_" gradientUnits="userSpaceOnUse" x1="-266.3877" y1="662.5989" x2="-266.3877" y2="416.0876" gradientTransform="matrix(1 0 0 1 295.3901 -174.0626)">
			<stop  offset="0" style="stop-color:#5F7668"/>
			<stop  offset="0.4303" style="stop-color:#EEEEEE"/>
			<stop  offset="1" style="stop-color:#75877C"/>
		</linearGradient>
		<path class="st34" d="M30.3,443.8c-0.1-0.1-0.2,0-0.3,0.2c-0.3,3.5,0.1,7.1-0.2,10.7c-0.1,0.9-0.2,1.7-0.4,2.4
			c-0.2,0.5-0.4,0.9-0.6,1.2c-0.7,0.9-0.7-0.7-0.7-1.9c-0.1-1.8,0.1-3.8-0.7-5c-0.1-0.1-0.1,0.1-0.1,0.2c0.2,2.5,0.2,5.2,0.6,7.6
			c0,0.3,0.2,0.4,0.3,0.3c1.4-0.5,1.9-2.6,2.2-5.3c0.1-1.7,0.1-3.5,0.1-5.2c0-0.8,0-1.6-0.1-2.5c0-0.4,0.1-2.8,0-1.7
			c0,0.1,0,0.2,0.1,0.3l0.1,0.1c0,0,0.1,0,0.1-0.1C30.8,444.4,30.7,444.2,30.3,443.8z"/>
		
			<linearGradient id="SVGID_27_" gradientUnits="userSpaceOnUse" x1="-268.1254" y1="662.602" x2="-268.1254" y2="416.0709" gradientTransform="matrix(1 0 0 1 295.3901 -174.0626)">
			<stop  offset="0" style="stop-color:#5F7668"/>
			<stop  offset="0.4303" style="stop-color:#EEEEEE"/>
			<stop  offset="1" style="stop-color:#75877C"/>
		</linearGradient>
		<path class="st35" d="M27.5,443.8c-0.1-0.1-0.1-0.3-0.2-0.4c-0.2-0.4-0.4,0.2-0.3,0.5c0.1,0.1,0.1,0.2,0.2,0.4
			C27.4,444.6,27.6,444.1,27.5,443.8z"/>
		
			<linearGradient id="SVGID_28_" gradientUnits="userSpaceOnUse" x1="-268.3306" y1="662.6035" x2="-268.3306" y2="416.0679" gradientTransform="matrix(1 0 0 1 295.3901 -174.0626)">
			<stop  offset="0" style="stop-color:#5F7668"/>
			<stop  offset="0.4303" style="stop-color:#EEEEEE"/>
			<stop  offset="1" style="stop-color:#75877C"/>
		</linearGradient>
		<path class="st36" d="M27,439.1c-0.1-0.1-0.1-0.1-0.2,0c0,0,0,0-0.1,0.1c0,0,0,0.1,0,0.1c0,0,0.1,0.4,0.1,0.5
			c0.1,0.2,0.1,0.5,0.1,0.7c0,0.3,0.3,0.3,0.3,0C27.4,439.9,27.3,439.4,27,439.1z"/>
		
			<linearGradient id="SVGID_29_" gradientUnits="userSpaceOnUse" x1="-268.1346" y1="662.5981" x2="-268.1346" y2="416.0872" gradientTransform="matrix(1 0 0 1 295.3901 -174.0626)">
			<stop  offset="0" style="stop-color:#5F7668"/>
			<stop  offset="0.4303" style="stop-color:#EEEEEE"/>
			<stop  offset="1" style="stop-color:#75877C"/>
		</linearGradient>
		<path class="st37" d="M27.5,435.8c0-0.2,0-0.5-0.1-0.7c-0.1-0.3-0.3-0.6-0.4-0.4c-0.1,0.1-0.1,0.2-0.1,0.4c0,0.1,0,0.1,0,0.2
			c0,0,0,0,0,0c0,0,0,0,0.1,0c0,0.1,0,0.2,0.1,0.3c0,0.3,0.1,0.6,0.1,0.9c0,0.4,0.3,0.4,0.4,0C27.6,436.3,27.6,436.1,27.5,435.8z"/>
		
			<linearGradient id="SVGID_30_" gradientUnits="userSpaceOnUse" x1="-268.0843" y1="662.6009" x2="-268.0843" y2="416.0773" gradientTransform="matrix(1 0 0 1 295.3901 -174.0626)">
			<stop  offset="0" style="stop-color:#5F7668"/>
			<stop  offset="0.4303" style="stop-color:#EEEEEE"/>
			<stop  offset="1" style="stop-color:#75877C"/>
		</linearGradient>
		<path class="st38" d="M27.6,431.8c-0.1-0.1-0.2-0.2-0.3-0.3c-0.1-0.1-0.2-0.2-0.3-0.1c0,0-0.1,0.1-0.1,0.2c0,0.1,0,0.1,0,0.2
			c0,0,0,0,0,0c0,0.1,0,0.1,0.1,0.1c0.1,0.1,0.2,0.2,0.3,0.3c0.1,0.1,0.2,0.2,0.3,0.1C27.7,432.2,27.7,431.9,27.6,431.8z"/>
		
			<linearGradient id="SVGID_31_" gradientUnits="userSpaceOnUse" x1="-272.6324" y1="662.6017" x2="-272.6324" y2="416.0576" gradientTransform="matrix(1 0 0 1 295.3901 -174.0626)">
			<stop  offset="0" style="stop-color:#5F7668"/>
			<stop  offset="0.4303" style="stop-color:#EEEEEE"/>
			<stop  offset="1" style="stop-color:#75877C"/>
		</linearGradient>
		<path class="st39" d="M23,472.4c-0.2-0.1-0.5-0.3-0.7-0.4c-0.2-0.1-0.3,0-0.5,0c0,0,0,0,0,0c0.1,0.2,0.1,0.5,0.2,0.7
			c0.1,0.2,0.3,0.4,0.4,0.5c0.3,0.3,0.7,0.6,1,0.5c0.1,0,0.2-0.1,0.2-0.4C23.8,472.6,23.2,472.5,23,472.4z"/>
		
			<linearGradient id="SVGID_32_" gradientUnits="userSpaceOnUse" x1="-272.5448" y1="662.5942" x2="-272.5448" y2="416.1372" gradientTransform="matrix(1 0 0 1 295.3901 -174.0626)">
			<stop  offset="0" style="stop-color:#5F7668"/>
			<stop  offset="0.4303" style="stop-color:#EEEEEE"/>
			<stop  offset="1" style="stop-color:#75877C"/>
		</linearGradient>
		<path class="st40" d="M23.8,468.3c-0.3-1.1-1.3-1-1.8-0.6c-0.2,0.1-0.1,0.7,0.1,0.6c0.3-0.2,0.6-0.1,0.9,0
			c0.3,0.1,0.5,0.3,0.7,0.2C23.8,468.5,23.8,468.4,23.8,468.3z"/>
		
			<linearGradient id="SVGID_33_" gradientUnits="userSpaceOnUse" x1="-273.238" y1="662.5999" x2="-273.238" y2="416.082" gradientTransform="matrix(1 0 0 1 295.3901 -174.0626)">
			<stop  offset="0" style="stop-color:#5F7668"/>
			<stop  offset="0.4303" style="stop-color:#EEEEEE"/>
			<stop  offset="1" style="stop-color:#75877C"/>
		</linearGradient>
		<path class="st41" d="M22.2,476.6C22.2,476.6,22.2,476.6,22.2,476.6c0-0.1,0-0.2,0-0.2c0,0,0-0.1,0,0c0,0.2-0.1,0.3-0.2,0.4
			c-0.1,0.2-0.1,0.5-0.1,0.8c-0.2,1-0.3,2-0.4,3.1c0,0.2,0.1,0.5,0.2,0.4c0.5-0.4,1.1-1,1.1-2.2C22.9,478.1,22.6,476.6,22.2,476.6z
			 M21.9,480.1c0.1-0.7,0.1-1.5,0.2-2.2c0-0.2,0.1-0.4,0.1-0.6c0.1,0.4,0.2,0.7,0.3,1.1C22.6,479.2,22.2,479.7,21.9,480.1z"/>
		
			<linearGradient id="SVGID_34_" gradientUnits="userSpaceOnUse" x1="-271.9097" y1="662.5991" x2="-271.9097" y2="416.087" gradientTransform="matrix(1 0 0 1 295.3901 -174.0626)">
			<stop  offset="0" style="stop-color:#5F7668"/>
			<stop  offset="0.4303" style="stop-color:#EEEEEE"/>
			<stop  offset="1" style="stop-color:#75877C"/>
		</linearGradient>
		<path class="st42" d="M24.5,465.6c0.1,0,0.3-0.2,0.2-0.5c-0.2-2.9-0.4-5.8-0.6-8.8c0-0.4-0.3-0.3-0.4,0c-0.4,2.3-1,4-2,5.4
			c-0.1,0.1-0.1,0.4,0,0.6c1.1,1.5,3,3.3,3.5,6.1c0,0,0,0,0,0C25.2,467.3,24.9,466.4,24.5,465.6z M23.8,457.8c0.2,2.5,0.3,5,0.5,7.5
			c-0.7-1.3-1.5-2.4-2.2-3.3C22.9,460.9,23.4,459.5,23.8,457.8z"/>
		
			<linearGradient id="SVGID_35_" gradientUnits="userSpaceOnUse" x1="-272.315" y1="662.5999" x2="-272.315" y2="416.0811" gradientTransform="matrix(1 0 0 1 295.3901 -174.0626)">
			<stop  offset="0" style="stop-color:#5F7668"/>
			<stop  offset="0.4303" style="stop-color:#EEEEEE"/>
			<stop  offset="1" style="stop-color:#75877C"/>
		</linearGradient>
		<path class="st43" d="M24.7,434.8c0-0.3-0.2-0.3-0.3-0.2c-0.9,1.6-1.9,2.9-2.5,5c-0.1-1.5-0.1-2.9-0.1-4.4c0-1.8-0.4-3.5,0.5-4.3
			c0.3-0.2,0.5-0.5,0.8-0.7c0.5-0.4,0.6-1.1,0.6,0.1c0.1,1.7,0.3,3.9-1,2.8c-0.1-0.1-0.1,0.1-0.1,0.2c0.4,1.1,0.9,0.8,1.5,0.3
			c0.1-0.1,0.1-0.2,0.1-0.4c0-1.5-0.2-2.9-0.2-4.4c0-0.3-0.1-0.5-0.3-0.3c-0.8,0.9-1.6,1.7-2.4,2.4c-0.1,0.1-0.1,0.2-0.1,0.4
			c0.3,3.2,0,6.4,0.4,9.6c0,0.4,0.3,0.3,0.3,0c0.3-1.6,0.7-2.6,1.3-3.7c0.9-1.7,1.1-2.1,1.2,0.6c0.1,2.4,0.1,4.8,0,7.2
			c-0.2-1-0.3-2.1-0.4-3.2c0-0.3-0.2-0.4-0.3-0.1c-1.2,4.1-3.3,5.7-2.3,11c0,0.2,0.2,0.4,0.3,0.1c0.3-1.3,0.7-2.2,1.1-3.4
			c0.2-0.6,0.8,0.9,1,1.4c0.6,1.2-1.7,6.3-2.1,7.7c-0.1,0.2,0.1,0.4,0.2,0.2c0.8-2.5,1.8-4.5,2.5-7.1c0-0.1,0-0.2,0-0.3
			c-0.4-1.1-0.9-2-1.4-2.9c-0.1-0.2-0.2-0.1-0.3,0.1c-0.4,1.1-0.8,2.2-1.2,3.3c0-0.3,0-0.6-0.1-0.9c-0.1-1.1,0-2.3,0.3-3.2
			c0.5-1.9,1.4-3.2,2-4.9c0.2,1.6,0.5,3.2,0.7,4.8c0,0.4,0.4,0.3,0.4-0.1C24.9,443.4,25,439.1,24.7,434.8z"/>
		
			<linearGradient id="SVGID_36_" gradientUnits="userSpaceOnUse" x1="-272.4431" y1="662.5994" x2="-272.4431" y2="416.0836" gradientTransform="matrix(1 0 0 1 295.3901 -174.0626)">
			<stop  offset="0" style="stop-color:#5F7668"/>
			<stop  offset="0.4303" style="stop-color:#EEEEEE"/>
			<stop  offset="1" style="stop-color:#75877C"/>
		</linearGradient>
		<path class="st44" d="M23.9,412.9c0-0.2-0.2-0.3-0.2-0.2c-0.7,1.1-1.7,2.4-2,4.2c-0.4,2.1-0.2,4.6-0.2,6.8c0,0.2,0.1,0.4,0.2,0.4
			c1.4-0.9,1.8-4.3,1-6.8c0-0.1-0.1-0.1-0.1,0.1c0,1.1,0.1,2,0.1,3.1c0,0.8-0.1,1.5-0.4,2.1c-0.6,1.6-0.5-0.5-0.5-1
			c0-1.7-0.1-3.5,0.3-5c0.2-0.7,0.5-1.3,0.8-1.8c0.2-0.4,0.4-0.8,0.7-1.2c0,0,0.3,2.7,0.3,3.3c0.1,1.7,0.1,3.3,0.2,5
			c0,0.5,0.2,2.6-0.1,2.9c-0.5,0.4-1,0.6-1.5,0.7c-0.1,0-0.1,0.4,0,0.4c0.7,0,1.3-0.3,2-0.7c0.1,0,0.1-0.2,0.1-0.3
			C24.3,420.9,24.2,416.9,23.9,412.9z"/>
		
			<linearGradient id="SVGID_37_" gradientUnits="userSpaceOnUse" x1="-272.2206" y1="662.6009" x2="-272.2206" y2="416.0795" gradientTransform="matrix(1 0 0 1 295.3901 -174.0626)">
			<stop  offset="0" style="stop-color:#5F7668"/>
			<stop  offset="0.4303" style="stop-color:#EEEEEE"/>
			<stop  offset="1" style="stop-color:#75877C"/>
		</linearGradient>
		<path class="st45" d="M24.4,407.1c-0.1-0.4-0.4-0.2-0.6-0.3c-0.2-0.1-0.3,0.5-0.1,0.7c0.1,0.1,0.2,0.1,0.3,0.1c0.2,0,0,0.4,0,0.4
			c-0.1,0.2-0.3,0.4-0.4,0.6c-0.4,0.5-0.9,0.8-1.4,0.9c0-1.1,0.3-2,0.7-2.7c0.3-0.6,1-1.1,1.2-0.1c0,0,0,0,0,0
			c-0.2-1.1-0.6-1.2-1.1-0.7c-0.7,0.7-1.1,2.4-1.2,3.9c0,0.2,0.1,0.4,0.2,0.4c0.8,0,1.6-0.7,2.2-1.7C24.5,408,24.6,407.7,24.4,407.1
			z"/>
		
			<linearGradient id="SVGID_38_" gradientUnits="userSpaceOnUse" x1="-272.0316" y1="662.6013" x2="-272.0316" y2="416.0793" gradientTransform="matrix(1 0 0 1 295.3901 -174.0626)">
			<stop  offset="0" style="stop-color:#5F7668"/>
			<stop  offset="0.4303" style="stop-color:#EEEEEE"/>
			<stop  offset="1" style="stop-color:#75877C"/>
		</linearGradient>
		<path class="st46" d="M24.5,400.5c-0.1-0.1-0.1-0.1-0.2-0.1c0.1-0.1,0.1-0.3,0.1-0.4c0-0.1,0-0.3-0.1-0.3
			c-1.4-0.4-2.5,1.2-2.3,4.2c0,0.3,0.1,0.5,0.2,0.4c0.4-0.2,0.8-0.5,1.2-0.9c0.2-0.3,0.5-0.6,0.7-0.9c0.1-0.2,0.4-0.5,0.5-0.8
			C24.8,401.3,24.7,400.7,24.5,400.5z M22.4,403.3c0-1.1,0.2-2.2,0.7-2.8c0.3-0.3,0.6-0.4,0.9-0.5c0.3,0,0.3,0.1,0.2,0.3
			c-0.1,0-0.1,0-0.2,0c-0.1,0-0.1,0.2-0.1,0.3c0,0,0,0,0,0.1c0,0.1-0.1,0.1-0.1,0.2c0,0,0,0,0,0c0-0.1,0.1-0.1,0.1-0.2
			c0,0.1,0.1,0.2,0.1,0.2c0.1,0.1,0.3-0.1,0.3,0.1C23.7,402.1,23.1,402.8,22.4,403.3z"/>
		
			<linearGradient id="SVGID_39_" gradientUnits="userSpaceOnUse" x1="-272.5093" y1="662.5998" x2="-272.5093" y2="416.0817" gradientTransform="matrix(1 0 0 1 295.3901 -174.0626)">
			<stop  offset="0" style="stop-color:#5F7668"/>
			<stop  offset="0.4303" style="stop-color:#EEEEEE"/>
			<stop  offset="1" style="stop-color:#75877C"/>
		</linearGradient>
		<path class="st47" d="M24.3,394.2c-0.4-0.5-1.4,0.6-1.8,1c-0.1,0.1-0.1,0.1-0.2,0.2c0,0,0.1-0.1,0.1-0.2c0-0.5,0.2-1,0.3-1.4
			c0.2-0.9,0.4-1.7,0.6-2.6c0.6-2.9-0.2-3.5-1.3-3.1c0.4-1.7,1.5-3.1,1.4-5.2c0-0.6-0.3-1-0.6-1c-0.1,0-0.8,0.2-0.8,0.2
			c0-1.4,0.5-1.5,1-2.1c0.1-0.1,0.1-0.4,0.1-0.6c-0.4-1.5-1.8-3.9-0.5-5.4c0.1-0.1,0.1-0.3,0.1-0.5c-1.3-7.9-0.4-16.3-0.2-24.4
			c0.2-7.2-1.2-15.1,0.2-22c0-0.1-0.1-0.3-0.1-0.1c-1.4,4.1-0.9,10.1-0.7,14.8c0.2,6.4-0.1,12.4-0.3,18.7c-0.1,3.1,0,6.2,0.2,9.3
			c0.1,0.9,0.6,3.2,0.2,3.9c-0.2,0.4-0.5,0.8-0.5,1.6c0,1.7,1.6,3.7,0.6,4.6c-0.6,0.5-0.6,1.7-0.6,2.9c0,0.3,0.1,0.5,0.3,0.4
			c0.5-0.3,1.3-0.7,0.9,0.9c-0.2,0.7-0.4,1.3-0.6,1.9c-0.3,0.8-0.7,1.6-0.8,2.5c0,0.3,0.1,0.7,0.3,0.6c0.5-0.3,1.6-1.2,1.3,0.8
			c-0.1,1-0.4,2-0.6,2.9c-0.2,1-0.5,2.1-0.4,3.2c0,0.3,0.2,0.4,0.3,0.2c0.5-0.5,1.4-0.8,1.7-1.7c-0.1,0.4,0.2,0.7,0.3,0.4
			c0-0.1,0-0.1,0.1-0.2C24.4,394.5,24.3,394.3,24.3,394.2z"/>
		
			<linearGradient id="SVGID_40_" gradientUnits="userSpaceOnUse" x1="-268.6539" y1="662.5995" x2="-268.6539" y2="416.0821" gradientTransform="matrix(1 0 0 1 295.3901 -174.0626)">
			<stop  offset="0" style="stop-color:#5F7668"/>
			<stop  offset="0.4303" style="stop-color:#EEEEEE"/>
			<stop  offset="1" style="stop-color:#75877C"/>
		</linearGradient>
		<path class="st48" d="M29.7,327.7c-0.2-0.9-0.5-1-0.9-0.7c-0.2-2.1-0.7-3.9-1.5-3c0,0.1,0,0.2,0,0.3c0.4,0.9,0.8,1.1,1,2.4
			c0,0.2,0.1,0.5,0.1,0.7c-0.4,0.5-0.8,1.4-1,1.9c0,0.1,0,0.3,0.1,0.2c0.3-0.4,0.6-1,0.9-1.4c0.1,1.1,0.1,2.2,0,3.3
			c-0.1,2.4-0.7,4.9-1.7,5.8c-0.1-2.5-0.1-4.9-0.2-7.4c0-0.3-0.2-0.3-0.2-0.1c-0.1,0.6-0.1,1-0.1,1.7c0,0,0,0,0,0
			c0.1-1.8,0,1.7,0,1.7c0,1.4,0,2.9,0.1,4.3c0,0,0,0,0,0c-0.4,0.2-0.9,0-1.5-0.6c-1.3-1.5-0.9-6-0.6-8.3c0.2-1.6,0.5-3,0.9-4.4
			c0.1-0.5,0.9-2,0.9-2.3c0.2-0.1,0.3-0.1,0.4-0.6c0.1-0.2-0.1-0.4-0.2-0.3c-2.2,2.3-4.6,16.5-0.8,17.4c0.3,0.1,0.6,0.1,0.8,0
			c0,1.6,0,3.2,0.1,4.8c0,1.8-0.1,4.4,0.3,6c0,0.2,0.2,0.2,0.2-0.1c0-0.1,0-0.2,0-0.3c0,0,0-0.1,0-0.2c0-0.4,0-0.9,0-1.3
			c0-1.4-0.1-2.8-0.1-4.2c0-1.7-0.1-3.3-0.1-5c1.3-0.8,1.9-3.6,2.1-6.7c0-0.5,0-2.1-0.1-3.6c0.2-0.1,0.5,0,0.8,0.1
			C29.7,328,29.7,327.8,29.7,327.7z"/>
		
			<linearGradient id="SVGID_41_" gradientUnits="userSpaceOnUse" x1="-266.0252" y1="662.6022" x2="-266.0252" y2="416.0789" gradientTransform="matrix(1 0 0 1 295.3901 -174.0626)">
			<stop  offset="0" style="stop-color:#5F7668"/>
			<stop  offset="0.4303" style="stop-color:#EEEEEE"/>
			<stop  offset="1" style="stop-color:#75877C"/>
		</linearGradient>
		<path class="st49" d="M30.6,350.4c0-0.3-0.2-0.4-0.3-0.2c-1,2.6-4.1,11.3-1.4,13.6c1.7,1.5,1.4-6.8,0.8-8.3c0-0.1-0.1,0-0.1,0.1
			c0,1.2,0.6,9.6-0.9,6.9c-1.4-2.5,0.7-8.6,1.7-11.3c0.7,3.8,2,8.1,1,12c-0.3,1.2-0.9,2.1-1.4,2.9c-0.3,0.5-1.8,1.7-2,0.4
			c-0.2-1-0.2-2.1-0.3-3.1c-0.2-2.8-0.5-5.6-0.6-8.4c-0.1-1,1.6-2.8,2-3.3c0.3-0.4,0.7-0.8,0.9-1.5c0,0,0,0,0,0c0,0,0,0,0,0
			c0,0,0,0,0,0c0,0.3-1.8,2.1-2,2.4c-0.4,0.6-1.2,1.5-1.2,2.7c0.1,3.7,0.5,7.5,0.9,11.1c0.4,3.9,3.2,0,3.8-1.4
			C33.2,360.5,31.3,355.1,30.6,350.4z"/>
		
			<linearGradient id="SVGID_42_" gradientUnits="userSpaceOnUse" x1="-264.8027" y1="662.6036" x2="-264.8027" y2="416.0789" gradientTransform="matrix(1 0 0 1 295.3901 -174.0626)">
			<stop  offset="0" style="stop-color:#5F7668"/>
			<stop  offset="0.4303" style="stop-color:#EEEEEE"/>
			<stop  offset="1" style="stop-color:#75877C"/>
		</linearGradient>
		<path class="st50" d="M31.5,344.5c-0.3-0.3-0.7-0.5-1.1-0.3c-0.4,0.2-0.6,0.8-0.8,1.4c-0.1,0.1,0,0.3,0.1,0.3
			c0.2-0.2,0.4-0.3,0.7-0.5c0.3-0.3,0.5-0.3,0.8-0.1c0,0.8,0,1.7-0.1,2.5c-0.3-0.1-0.6-0.2-0.8-0.6c-0.1-0.2,0-0.7,0-1c0,0,0,0,0,0
			c-0.2,0.3-0.5,0.6-0.3,1.2c0.2,0.8,0.9,1,1.2,1.1c0.1,0,0.2,0,0.2-0.2c0.2-1,0.2-2.3,0.2-3.4C31.6,344.8,31.6,344.6,31.5,344.5z"
			/>
		
			<linearGradient id="SVGID_43_" gradientUnits="userSpaceOnUse" x1="-263.9835" y1="662.5994" x2="-263.9835" y2="416.0826" gradientTransform="matrix(1 0 0 1 295.3901 -174.0626)">
			<stop  offset="0" style="stop-color:#5F7668"/>
			<stop  offset="0.4303" style="stop-color:#EEEEEE"/>
			<stop  offset="1" style="stop-color:#75877C"/>
		</linearGradient>
		<path class="st51" d="M33.5,349.2c0.4-0.4-1.1-5.5-1.2-6.3c-0.1-0.6-0.2-1.2-0.3-1.8c0.3-0.2,0.6-0.6,0.7-1.4
			c0.3-1.8,0-3.9-0.3-5.7c-0.2-1-0.4-3.3-0.9-3.6c-0.1,0-0.1,0-0.1,0.2c-0.1,1,0.4,2.3,0.5,3.3c0.3,1.6,0.8,4.6,0.2,6.1
			c-0.1,0.1-0.1,0.2-0.2,0.3c-0.2-1.2-0.4-2.4-0.8-3.3c0-0.1-0.1-0.1-0.1-0.1c-0.2,0.1-0.1,0.5-0.1,0.9c0,0,0,0,0,0
			c0-1.7,0.4,1.1,0.5,1.6c0.1,0.3,0.1,0.7,0.2,1c-0.7,0-1.5-1.9-1.9-2.3c-0.3-0.3-0.3,0.4-0.3,0.8c0,0,0,0,0,0
			c0.1-0.9,0.6,0.5,0.8,0.7c0.3,0.5,0.6,1.1,1,1.3c0.2,0.1,0.4,0.2,0.6,0.1c0.1,0.7,0.2,1.4,0.3,2.1c0.2,1.2,0.6,2.4,0.8,3.6
			c0.2,0.9,0.3,2,0.7,2.6c0,0.1,0.1,0,0.1-0.1c0,0,0,0,0,0C33.6,349.2,33.5,349.1,33.5,349.2z"/>
		
			<linearGradient id="SVGID_44_" gradientUnits="userSpaceOnUse" x1="-261.4612" y1="662.602" x2="-261.4612" y2="416.0797" gradientTransform="matrix(1 0 0 1 295.3901 -174.0626)">
			<stop  offset="0" style="stop-color:#5F7668"/>
			<stop  offset="0.4303" style="stop-color:#EEEEEE"/>
			<stop  offset="1" style="stop-color:#75877C"/>
		</linearGradient>
		<path class="st52" d="M35.3,359.4c-0.2-0.3-0.4-0.5-0.7-0.5c0-0.1,0.1-0.2,0.1-0.4c0.2-0.7,0.2-1.6,0.4-2.3c0.1-0.2,0-0.5-0.1-0.6
			c-0.7-0.3-1.4-1-2.1-1c-0.5,0,0,0.9,0.1,1c0,0,0,0,0,0c-0.1-0.3-0.3-0.4,0-0.3c0.2,0.1,0.4,0.2,0.6,0.3c0.3,0.2,0.7,0.5,1,0.7
			c-0.1,0.4-0.2,0.9-0.2,1.4c-0.1,0.9-0.5,1.2-0.9,1.6c-0.2,0.2-0.1,0.9,0.2,0.8c0.4-0.2,1-0.6,1.4,0c0.3,0.5-0.4,1.4-0.5,1.6
			c-0.5,0.6-1.2,0.6-1.8,0.3c-0.2-0.1-0.5,0.3-0.5,0.7c0,0.1,0,0.3,0.1,0.4c0.2,0.2,0.5,0.3,0.6-0.1c0.3,0.1,0.6,0.1,0.9,0
			c0.5-0.2,1.1-0.6,1.4-1.6C35.6,360.7,35.6,359.9,35.3,359.4z"/>
		
			<linearGradient id="SVGID_45_" gradientUnits="userSpaceOnUse" x1="-261.2431" y1="662.6012" x2="-261.2431" y2="416.0806" gradientTransform="matrix(1 0 0 1 295.3901 -174.0626)">
			<stop  offset="0" style="stop-color:#5F7668"/>
			<stop  offset="0.4303" style="stop-color:#EEEEEE"/>
			<stop  offset="1" style="stop-color:#75877C"/>
		</linearGradient>
		<path class="st53" d="M35.4,373.9c-0.1-0.1-0.1,0-0.1,0.2c0.3,3.8-2.7,5.1-2.3,1.7c0.2-1.8,1.2-3.6,2-4c0.2-0.1,0.2-0.9,0-1
			c-1.3-0.5-0.6-2.5,0.4-1.5c0.2,0.2,0.4-0.1,0.4-0.6c-0.2-1.2-0.3-2.5-0.6-3.7c-0.1-0.4-0.4-0.1-0.4,0.3c0.1,0.8,0.3,1.7,0.4,2.6
			c-0.6-0.4-1.3-0.6-1.5,0.8c-0.2,1.2,0.1,2,0.6,2.6c-1.2,1.4-2.5,4.9-1.5,7C34.2,381,36.9,375.4,35.4,373.9z"/>
		
			<linearGradient id="SVGID_46_" gradientUnits="userSpaceOnUse" x1="-259.6342" y1="662.6042" x2="-259.6342" y2="416.0779" gradientTransform="matrix(1 0 0 1 295.3901 -174.0626)">
			<stop  offset="0" style="stop-color:#5F7668"/>
			<stop  offset="0.4303" style="stop-color:#EEEEEE"/>
			<stop  offset="1" style="stop-color:#75877C"/>
		</linearGradient>
		<path class="st54" d="M36.1,361.2c0-0.2-0.2-0.3-0.2-0.1c-0.4,0.8-0.5,1.6-0.4,2.5c0-0.1,0-0.1-0.1-0.2c0-0.1-0.1,0-0.1,0
			c0,0.1,0,0.3,0,0.4c0,0.1,0,0.2,0,0.4c0,0.5,0.1,1,0.1,1.5c0,0.2,0.1,0.3,0.2,0.1c0.2-0.6,0.4-1.3,0.5-2.1
			C36.3,362.8,36.2,362,36.1,361.2z M35.7,365c0-0.1,0-0.3,0-0.4c0,0,0,0,0.1-0.1c0-0.4,0.1-0.7,0-1.1c0-0.6,0.1-1,0.2-1.4
			c0,0.5,0.1,1,0.1,1.5C35.9,364,35.8,364.5,35.7,365z"/>
		
			<linearGradient id="SVGID_47_" gradientUnits="userSpaceOnUse" x1="-261.2428" y1="662.5939" x2="-261.2428" y2="416.0897" gradientTransform="matrix(1 0 0 1 295.3901 -174.0626)">
			<stop  offset="0" style="stop-color:#5F7668"/>
			<stop  offset="0.4303" style="stop-color:#EEEEEE"/>
			<stop  offset="1" style="stop-color:#75877C"/>
		</linearGradient>
		<path class="st55" d="M35.6,385c-0.2-0.4-0.3-0.5-0.6-0.7c-0.1-0.1-0.1-0.1-0.2-0.2c0.3-1.2,0.4-2.5,0.6-3.8
			c0-0.2-0.1-0.3-0.1-0.1c-0.2,1.2-0.4,2.4-0.7,3.6c-0.2-0.2-0.4-0.4-0.6-0.6c-0.2-0.2-0.9-1.3-1.1-0.9c0,0,0,0,0,0
			c0.3,0.8,0.9,1.4,1.3,1.9c0.1,0.1,0.1,0.2,0.2,0.3c-0.5,1.7-1,3.2-1.7,4.4c0,0.1,0,0.3,0,0.3c0.8-0.1,1.2-1.5,1.6-2.8
			c0.2-0.5,0.3-1,0.4-1.5c0.3,0.4,0.7,0.6,0.9,0.2C35.7,385.2,35.6,385.1,35.6,385z"/>
		
			<linearGradient id="SVGID_48_" gradientUnits="userSpaceOnUse" x1="-260.2758" y1="662.5988" x2="-260.2758" y2="416.0818" gradientTransform="matrix(1 0 0 1 295.3901 -174.0626)">
			<stop  offset="0" style="stop-color:#5F7668"/>
			<stop  offset="0.4303" style="stop-color:#EEEEEE"/>
			<stop  offset="1" style="stop-color:#75877C"/>
		</linearGradient>
		<path class="st56" d="M36.4,341.3c0-1.8-0.2-3.6-0.3-5.4c0-0.7,0-1.4,0-2.1c0-0.2-0.1-0.2-0.1,0c0,0,0,0.1,0,0.1
			c-0.1-1.4-0.2-2.7-0.2-4.1c0-0.9,0-1.8,0-2.7c0,0,0,0,0,0c0,0,0,0,0,0c0,0,0-0.1,0-0.1c0-0.5-0.4-0.4-0.4,0.1c0,0.9,0,1.9,0,2.8
			c-0.1,1.8-0.3,3.5-0.9,1.5c-0.3-0.9-0.4-2.1-0.5-3.1c0,0,0,0,0,0c-0.1,2.1,0.2,4.3,1.1,5.5c0.1,0.2,0.2,0,0.3-0.2
			c0.1-0.3,0.1-0.7,0.2-1c0.1,1,0.2,2.1,0.2,3.1c-0.4,2.4-0.7,4.9-1,7.3c-0.4,2.5-0.5,5.1-0.2,7.7c0,0.3,0.2,0.4,0.3,0.3
			C36.5,349.3,36.4,344.6,36.4,341.3z M34.8,349.8c-0.3-4,0.6-7.5,1-11.1C36,342.1,36.3,347.7,34.8,349.8z"/>
		
			<linearGradient id="SVGID_49_" gradientUnits="userSpaceOnUse" x1="-263.4363" y1="662.6" x2="-263.4363" y2="416.0818" gradientTransform="matrix(1 0 0 1 295.3901 -174.0626)">
			<stop  offset="0" style="stop-color:#5F7668"/>
			<stop  offset="0.4303" style="stop-color:#EEEEEE"/>
			<stop  offset="1" style="stop-color:#75877C"/>
		</linearGradient>
		<path class="st57" d="M32.4,310.4c0-5.9,0.1-12.4-0.7-18.1c0-0.1-0.1-0.1-0.1,0c0.3,6,0.6,11.9,0.5,18c0,3.1-0.1,6.2-0.1,9.3
			c0,2.5-0.2,5.3,0.1,7.8c0,0.1,0.1,0.1,0.1,0c0.2-2.5,0.1-5.2,0.1-7.8C32.3,316.6,32.4,313.5,32.4,310.4z"/>
		
			<linearGradient id="SVGID_50_" gradientUnits="userSpaceOnUse" x1="-263.8199" y1="662.611" x2="-263.8199" y2="416.0798" gradientTransform="matrix(1 0 0 1 295.3901 -174.0626)">
			<stop  offset="0" style="stop-color:#5F7668"/>
			<stop  offset="0.4303" style="stop-color:#EEEEEE"/>
			<stop  offset="1" style="stop-color:#75877C"/>
		</linearGradient>
		<path class="st58" d="M31.6,284.7C31.6,284.6,31.5,284.7,31.6,284.7c-0.1,0.5-0.1,0.9-0.1,1.4c0,0.4-0.1,0.9-0.1,1.3
			c0,0.2,0,0.3,0,0.4c0,0,0,0.1,0,0.1c0,0,0,0.1,0,0c0,0,0,0,0.1,0c0.1,0,0.2-0.1,0.2-0.2c0.1-0.4,0.1-0.9,0.1-1.4
			C31.8,285.7,31.8,285.3,31.6,284.7z"/>
		
			<linearGradient id="SVGID_51_" gradientUnits="userSpaceOnUse" x1="-264.0071" y1="662.6576" x2="-264.0071" y2="416.0711" gradientTransform="matrix(1 0 0 1 295.3901 -174.0626)">
			<stop  offset="0" style="stop-color:#5F7668"/>
			<stop  offset="0.4303" style="stop-color:#EEEEEE"/>
			<stop  offset="1" style="stop-color:#75877C"/>
		</linearGradient>
		<path class="st59" d="M31.4,279.6C31.4,279.5,31.3,279.5,31.4,279.6c-0.1,0.7-0.1,1.3-0.1,2c0,0,0,0,0,0
			C31.4,280.9,31.4,280.3,31.4,279.6z"/>
		
			<linearGradient id="SVGID_52_" gradientUnits="userSpaceOnUse" x1="-264.1981" y1="662.613" x2="-264.1981" y2="416.0798" gradientTransform="matrix(1 0 0 1 295.3901 -174.0626)">
			<stop  offset="0" style="stop-color:#5F7668"/>
			<stop  offset="0.4303" style="stop-color:#EEEEEE"/>
			<stop  offset="1" style="stop-color:#75877C"/>
		</linearGradient>
		<path class="st60" d="M31.1,274.4c0,0.5,0,1.1,0,1.6c0,0.1,0.1,0.1,0.1,0c0-0.5,0-1.1,0-1.6C31.2,274.3,31.1,274.3,31.1,274.4z"/>
		
			<linearGradient id="SVGID_53_" gradientUnits="userSpaceOnUse" x1="-264.1981" y1="662.5859" x2="-264.1981" y2="416.0833" gradientTransform="matrix(1 0 0 1 295.3901 -174.0626)">
			<stop  offset="0" style="stop-color:#5F7668"/>
			<stop  offset="0.4303" style="stop-color:#EEEEEE"/>
			<stop  offset="1" style="stop-color:#75877C"/>
		</linearGradient>
		<path class="st61" d="M31.3,266.9c0-0.2-0.1-0.2-0.1,0c-0.1,0.9-0.1,1.8-0.1,2.8c0,0.4,0.3,0.4,0.3,0
			C31.3,268.7,31.3,267.8,31.3,266.9z"/>
		
			<linearGradient id="SVGID_54_" gradientUnits="userSpaceOnUse" x1="-264.1981" y1="662.5734" x2="-264.1981" y2="416.0843" gradientTransform="matrix(1 0 0 1 295.3901 -174.0626)">
			<stop  offset="0" style="stop-color:#5F7668"/>
			<stop  offset="0.4303" style="stop-color:#EEEEEE"/>
			<stop  offset="1" style="stop-color:#75877C"/>
		</linearGradient>
		<path class="st62" d="M31.2,261.3C31.2,261.3,31.2,261.3,31.2,261.3C31.2,261.3,31.2,261.3,31.2,261.3z"/>
		
			<linearGradient id="SVGID_55_" gradientUnits="userSpaceOnUse" x1="-264.1983" y1="662.5883" x2="-264.1983" y2="416.0828" gradientTransform="matrix(1 0 0 1 295.3901 -174.0626)">
			<stop  offset="0" style="stop-color:#5F7668"/>
			<stop  offset="0.4303" style="stop-color:#EEEEEE"/>
			<stop  offset="1" style="stop-color:#75877C"/>
		</linearGradient>
		<path class="st63" d="M31.2,258.9v1.2c0,0,0,0,0,0L31.2,258.9C31.2,258.9,31.2,258.9,31.2,258.9z"/>
		
			<linearGradient id="SVGID_56_" gradientUnits="userSpaceOnUse" x1="-261.2025" y1="662.5995" x2="-261.2025" y2="416.0826" gradientTransform="matrix(1 0 0 1 295.3901 -174.0626)">
			<stop  offset="0" style="stop-color:#5F7668"/>
			<stop  offset="0.4303" style="stop-color:#EEEEEE"/>
			<stop  offset="1" style="stop-color:#75877C"/>
		</linearGradient>
		<path class="st64" d="M34.2,307.4c0-0.3-0.3-0.3-0.3,0c-0.4,2.9-0.2,5.9-0.2,8.9c0,0.4,0.3,0.4,0.3,0c0-0.7,0.1-1.3,0.3-1.9
			c0-0.2-0.1-0.3-0.1-0.1c-0.1,0.3-0.2,0.5-0.2,0.7c0-0.1,0-0.2,0-0.4c0-1.9-0.1-3.7,0.1-5.6c0.4,2.1,1.2,4,0.9,6.3
			c-0.2,2.1-1,3.9-1.5,5.8c0-4.9-0.2-9.8-0.3-14.8c0-0.2-0.2-0.2-0.2,0c-0.1,5.4,0.1,10.9,0.1,16.3c0,0.5,0.3,0.5,0.4,0.1
			c0.5-2.6,1.8-5.2,1.9-8.1C35.4,311.9,34.4,310.1,34.2,307.4z"/>
		
			<linearGradient id="SVGID_57_" gradientUnits="userSpaceOnUse" x1="-268.6121" y1="662.599" x2="-268.6121" y2="416.0816" gradientTransform="matrix(1 0 0 1 295.3901 -174.0626)">
			<stop  offset="0" style="stop-color:#5F7668"/>
			<stop  offset="0.4303" style="stop-color:#EEEEEE"/>
			<stop  offset="1" style="stop-color:#75877C"/>
		</linearGradient>
		<path class="st65" d="M28.7,318.5c-0.6-3.7,0.4-20.5-3.5-16.5c-0.1,0.1-0.1,0.2-0.1,0.3c0,3.8,0.5,7.5,0.6,11.4c0,0,0,0,0,0
			c0,0,0,0.1,0,0.1c0,0,0,0,0,0c0,0,0,0.1,0,0.1c0,0.4,0.3,0.3,0.3-0.1c0,0,0-0.1,0-0.1c0-0.2,0.5-0.7,0.6-0.4c0,0.1,0,0.1,0,0.2
			c0,0.4,0.3,0.5,0.3,0.1c0,0,0-0.1,0-0.1c0,0,0,0,0,0c0,0,0-0.1,0-0.1c0-0.1,0-0.1,0-0.2c0-2.2-0.1-4.5-0.5-6.5
			c0-0.2-0.1-0.1-0.1,0c0,1.9,0.2,3.8,0.3,5.8c-0.2-0.1-0.5,0.1-0.7,0.3c-0.2-3.2-0.9-10.1,0-10.7c1.2-0.7,1.6,2.6,1.8,4.4
			c0.3,3.3,0.1,7,0.4,10.3c-0.5-1.1-1.2-1.5-2-0.6c-0.2,0.3-0.4,0.5-0.6,0.8c-0.6,1.1-0.3-1.1-0.3-1.9c0-2.3-0.1-4.6-0.3-6.8
			c0,0,0,0,0,0c0.3,3.3,0.1,6.6,0.1,9.9c0,0.2,0.1,0.3,0.2,0.2c1.1-2.1,2.4-3.2,3.2,0.4C28.5,319.2,28.7,318.9,28.7,318.5z"/>
		
			<linearGradient id="SVGID_58_" gradientUnits="userSpaceOnUse" x1="-269.0585" y1="662.5887" x2="-269.0585" y2="416.0854" gradientTransform="matrix(1 0 0 1 295.3901 -174.0626)">
			<stop  offset="0" style="stop-color:#5F7668"/>
			<stop  offset="0.4303" style="stop-color:#EEEEEE"/>
			<stop  offset="1" style="stop-color:#75877C"/>
		</linearGradient>
		<path class="st66" d="M26.4,299.1c-0.1-0.1-0.2-0.3-0.3-0.4c-0.1-0.1-0.1,0-0.2-0.1c0,0,0,0,0,0c0,0,0,0,0,0c0,0.1,0,0.2,0,0.3
			c0.1,0.2,0.1,0.4,0.2,0.5c0.1,0.3,0.2,0.6,0.4,0.5c0,0,0,0,0-0.1C26.7,299.5,26.6,299.4,26.4,299.1z"/>
		
			<linearGradient id="SVGID_59_" gradientUnits="userSpaceOnUse" x1="-269.3286" y1="662.5638" x2="-269.3286" y2="416.0922" gradientTransform="matrix(1 0 0 1 295.3901 -174.0626)">
			<stop  offset="0" style="stop-color:#5F7668"/>
			<stop  offset="0.4303" style="stop-color:#EEEEEE"/>
			<stop  offset="1" style="stop-color:#75877C"/>
		</linearGradient>
		<path class="st67" d="M26.9,297.2c-0.3-1.4-1-1.5-1.7-1c-0.1,0.1-0.1,0.3,0,0.3c0.5-0.2,1.1-0.1,1.4,1.1c0,0.1,0.1,0.2,0.1,0.2
			c0,0,0.1,0,0.1-0.1C26.9,297.5,26.9,297.4,26.9,297.2z"/>
		
			<linearGradient id="SVGID_60_" gradientUnits="userSpaceOnUse" x1="-269.3053" y1="662.6113" x2="-269.3053" y2="416.0791" gradientTransform="matrix(1 0 0 1 295.3901 -174.0626)">
			<stop  offset="0" style="stop-color:#5F7668"/>
			<stop  offset="0.4303" style="stop-color:#EEEEEE"/>
			<stop  offset="1" style="stop-color:#75877C"/>
		</linearGradient>
		<path class="st68" d="M26.1,292.3c0-0.1-0.1,0.1-0.1,0.1c0.1,0.3,0,0.7,0,1.1c0,0.1,0,0.2,0,0.2c0,0,0,0.2,0,0.3c0,0,0,0,0,0
			s0-0.2,0-0.2c0,0,0.1-0.1,0.1-0.2C26.2,293.1,26.3,292.6,26.1,292.3z"/>
		
			<linearGradient id="SVGID_61_" gradientUnits="userSpaceOnUse" x1="-269.4619" y1="662.5982" x2="-269.4619" y2="416.0823" gradientTransform="matrix(1 0 0 1 295.3901 -174.0626)">
			<stop  offset="0" style="stop-color:#5F7668"/>
			<stop  offset="0.4303" style="stop-color:#EEEEEE"/>
			<stop  offset="1" style="stop-color:#75877C"/>
		</linearGradient>
		<path class="st69" d="M25.9,288.3c0-0.1-0.1,0-0.1,0.2c0.1,0.2,0.1,0.5,0.1,0.8c0,0.2,0,0.5-0.1,0.7c0,0,0,0,0,0
			C26.2,289.7,26.1,288.7,25.9,288.3z"/>
		
			<linearGradient id="SVGID_62_" gradientUnits="userSpaceOnUse" x1="-269.8148" y1="662.572" x2="-269.8148" y2="416.0875" gradientTransform="matrix(1 0 0 1 295.3901 -174.0626)">
			<stop  offset="0" style="stop-color:#5F7668"/>
			<stop  offset="0.4303" style="stop-color:#EEEEEE"/>
			<stop  offset="1" style="stop-color:#75877C"/>
		</linearGradient>
		<path class="st70" d="M25.5,281.6C25.5,281.5,25.4,281.6,25.5,281.6c0,0.5,0.1,1,0.1,1.5c0,0.4,0,0.9,0.1,1.3c0,0,0,0,0,0
			C25.8,283.6,25.7,282.3,25.5,281.6z"/>
		
			<linearGradient id="SVGID_63_" gradientUnits="userSpaceOnUse" x1="-269.8092" y1="662.6603" x2="-269.8092" y2="416.072" gradientTransform="matrix(1 0 0 1 295.3901 -174.0626)">
			<stop  offset="0" style="stop-color:#5F7668"/>
			<stop  offset="0.4303" style="stop-color:#EEEEEE"/>
			<stop  offset="1" style="stop-color:#75877C"/>
		</linearGradient>
		<path class="st71" d="M25.7,276.4c0-0.1-0.1-0.1-0.1,0c0,0.3,0,0.6,0,0.9c0,0.2,0,0.5-0.1,0.7c0,0,0,0.1,0,0
			c0.1-0.2,0.2-0.3,0.2-0.6C25.7,277.1,25.7,276.8,25.7,276.4z"/>
		
			<linearGradient id="SVGID_64_" gradientUnits="userSpaceOnUse" x1="-269.7377" y1="662.745" x2="-269.7377" y2="416.0613" gradientTransform="matrix(1 0 0 1 295.3901 -174.0626)">
			<stop  offset="0" style="stop-color:#5F7668"/>
			<stop  offset="0.4303" style="stop-color:#EEEEEE"/>
			<stop  offset="1" style="stop-color:#75877C"/>
		</linearGradient>
		<path class="st72" d="M25.6,272.4c0,0.3,0,0.5,0,0.8c0,0,0,0,0,0C25.7,273,25.7,272.7,25.6,272.4
			C25.7,272.4,25.6,272.4,25.6,272.4z"/>
		
			<linearGradient id="SVGID_65_" gradientUnits="userSpaceOnUse" x1="-272.6581" y1="662.6004" x2="-272.6581" y2="416.0815" gradientTransform="matrix(1 0 0 1 295.3901 -174.0626)">
			<stop  offset="0" style="stop-color:#5F7668"/>
			<stop  offset="0.4303" style="stop-color:#EEEEEE"/>
			<stop  offset="1" style="stop-color:#75877C"/>
		</linearGradient>
		<path class="st73" d="M23.7,319.7c0-0.3-0.2-0.3-0.3-0.2c-0.4,0.4-0.7,0.8-0.8,1.7c-0.1,0.6-0.3,2.1-0.1,2.7
			c0,0.1,0.1,0.1,0.1,0.1c0.3-0.3,0.2-1.2,0.3-1.8c0-0.8,0.2-1.4,0.5-1.8c0.1,1.5,0,4.1-0.9,3.7c-1.1-0.5-0.3-3.5,0-4.5
			c0.1-0.2-0.1-0.6-0.2-0.3c-0.4,1-0.8,2.3-0.7,3.6c0.1,0.9,0.3,1.6,0.8,1.9c0.4,0.2,0.9-0.2,1.1-0.9
			C23.9,322.7,23.9,321.1,23.7,319.7z"/>
		
			<linearGradient id="SVGID_66_" gradientUnits="userSpaceOnUse" x1="-272.7473" y1="662.6052" x2="-272.7473" y2="416.08" gradientTransform="matrix(1 0 0 1 295.3901 -174.0626)">
			<stop  offset="0" style="stop-color:#5F7668"/>
			<stop  offset="0.4303" style="stop-color:#EEEEEE"/>
			<stop  offset="1" style="stop-color:#75877C"/>
		</linearGradient>
		<path class="st74" d="M23.3,312.6c0-0.2-0.2-0.3-0.3-0.1c-0.2,0.4-0.3,0.9-0.4,1.4c0,0.3-0.1,0.6-0.1,0.9c0,0.3-0.1,0.6,0,0.8
			c0,0.1,0.1,0.1,0.1,0.1c0.2-0.2,0.2-0.8,0.3-1.2c0-0.4,0.1-0.7,0.2-1c0.1,1.1,0.1,2.6-0.6,2.5c-0.2,0-0.4-0.3-0.4-0.7
			c-0.1-0.8,0.1-1.4,0.1-2.2c0,0,0,0,0,0c-0.3,0.4-0.4,1.6-0.4,2.4c0.1,0.6,0.3,1.1,0.7,1.2c0.3,0.1,0.6-0.3,0.8-0.9
			C23.6,314.8,23.5,313.6,23.3,312.6z"/>
		
			<linearGradient id="SVGID_67_" gradientUnits="userSpaceOnUse" x1="-272.6212" y1="662.613" x2="-272.6212" y2="416.0769" gradientTransform="matrix(1 0 0 1 295.3901 -174.0626)">
			<stop  offset="0" style="stop-color:#5F7668"/>
			<stop  offset="0.4303" style="stop-color:#EEEEEE"/>
			<stop  offset="1" style="stop-color:#75877C"/>
		</linearGradient>
		<path class="st75" d="M23.2,308c-0.3-0.3-0.7,0.4-0.7,1.1c0,0.1,0.1,0.1,0.1,0.1c0.1-0.2,0.2-0.5,0.3-0.6
			c-0.1,0.3-0.1,0.6-0.2,0.9c-0.1,0.2-0.1,0.4-0.2,0.6c0-0.7,0-1.4,0.1-2.2c0,0.1,0,0,0,0c0-0.2-0.2,0.1-0.2,0.2
			c-0.2,0.8-0.2,1.8-0.2,2.7c0,0.3,0.2,0.3,0.3,0.1c0.2-0.3,0.3-0.7,0.5-1.1c0.1-0.4,0.2-0.9,0.3-1.4
			C23.3,308.2,23.3,308.1,23.2,308z"/>
		
			<linearGradient id="SVGID_68_" gradientUnits="userSpaceOnUse" x1="-273.0396" y1="662.6508" x2="-273.0396" y2="416.0648" gradientTransform="matrix(1 0 0 1 295.3901 -174.0626)">
			<stop  offset="0" style="stop-color:#5F7668"/>
			<stop  offset="0.4303" style="stop-color:#EEEEEE"/>
			<stop  offset="1" style="stop-color:#75877C"/>
		</linearGradient>
		<path class="st76" d="M22.7,303.5c0-0.1-0.1-0.1-0.1,0c0,0.2-0.1-0.1-0.2-0.2c-0.2-0.4-0.5,0.3-0.2,0.6c0.1,0.2,0.3,0.4,0.4,0.2
			C22.7,303.9,22.7,303.7,22.7,303.5z"/>
		
			<linearGradient id="SVGID_69_" gradientUnits="userSpaceOnUse" x1="-273.0203" y1="662.6206" x2="-273.0203" y2="416.0756" gradientTransform="matrix(1 0 0 1 295.3901 -174.0626)">
			<stop  offset="0" style="stop-color:#5F7668"/>
			<stop  offset="0.4303" style="stop-color:#EEEEEE"/>
			<stop  offset="1" style="stop-color:#75877C"/>
		</linearGradient>
		<path class="st77" d="M22.6,299.5c0,0.1-0.1,0.3-0.2,0.2c-0.1-0.1-0.1-0.4-0.1-0.6c0-0.3-0.2-0.3-0.2,0c0,0.4,0,0.9,0.2,1.1
			c0.2,0.2,0.3-0.3,0.3-0.6C22.7,299.5,22.6,299.4,22.6,299.5z"/>
		
			<linearGradient id="SVGID_70_" gradientUnits="userSpaceOnUse" x1="-272.8983" y1="662.6009" x2="-272.8983" y2="416.0814" gradientTransform="matrix(1 0 0 1 295.3901 -174.0626)">
			<stop  offset="0" style="stop-color:#5F7668"/>
			<stop  offset="0.4303" style="stop-color:#EEEEEE"/>
			<stop  offset="1" style="stop-color:#75877C"/>
		</linearGradient>
		<path class="st78" d="M22.5,295.1c0,0.2-0.1,0.3-0.1,0.3c-0.1,0-0.1,0.4,0,0.3c0.2,0,0.3-0.2,0.3-0.6
			C22.7,295,22.5,295,22.5,295.1z"/>
		
			<linearGradient id="SVGID_71_" gradientUnits="userSpaceOnUse" x1="-272.6888" y1="662.754" x2="-272.6888" y2="416.0435" gradientTransform="matrix(1 0 0 1 295.3901 -174.0626)">
			<stop  offset="0" style="stop-color:#5F7668"/>
			<stop  offset="0.4303" style="stop-color:#EEEEEE"/>
			<stop  offset="1" style="stop-color:#75877C"/>
		</linearGradient>
		<path class="st79" d="M22.8,291.4c-0.1,0-0.1,0-0.2,0c-0.1,0-0.1,0.2,0,0.2c0.1,0,0.1,0,0.2,0C22.9,291.7,22.9,291.4,22.8,291.4z"
			/>
		
			<linearGradient id="SVGID_72_" gradientUnits="userSpaceOnUse" x1="-267.2038" y1="662.5989" x2="-267.2038" y2="416.0827" gradientTransform="matrix(1 0 0 1 295.3901 -174.0626)">
			<stop  offset="0" style="stop-color:#5F7668"/>
			<stop  offset="0.4303" style="stop-color:#EEEEEE"/>
			<stop  offset="1" style="stop-color:#75877C"/>
		</linearGradient>
		<path class="st80" d="M29.1,286.4c0-0.1-0.1-0.1-0.1,0c-0.2,0.8-0.2,1.8-0.3,2.7c-0.1,1.3-0.2,2.7-0.2,4c-0.3-1.2-0.5-2.4-0.8-3.6
			c-0.1-0.4-0.3-1.7-0.6-1.5c0,0,0,0.1,0,0.1c0,0.1,1.2,5.9,1.4,6.5c0.1,0.3,0.3,0.2,0.3-0.2c0-1.6,0.1-3.3,0.2-4.9
			C29.1,288.5,29.3,287.3,29.1,286.4z"/>
		
			<linearGradient id="SVGID_73_" gradientUnits="userSpaceOnUse" x1="-267.6202" y1="662.611" x2="-267.6202" y2="416.08" gradientTransform="matrix(1 0 0 1 295.3901 -174.0626)">
			<stop  offset="0" style="stop-color:#5F7668"/>
			<stop  offset="0.4303" style="stop-color:#EEEEEE"/>
			<stop  offset="1" style="stop-color:#75877C"/>
		</linearGradient>
		<path class="st81" d="M28.9,279.4L28.9,279.4c-0.3,0.6-0.4,1.4-0.6,2.1c-0.2,0.8-0.4,1.7-0.5,2.7c-0.3-0.5-0.5-1.3-0.7-1.8
			c-0.1-0.4-0.2-0.7-0.3-1.1c0-0.1-0.2-0.4-0.2-0.5c0,0,0,0,0,0c0,0,0,0,0,0c0,0,0,0,0,0c-0.1,0.4,0.3,1.5,0.4,1.8
			c0.2,0.8,0.5,1.9,0.9,2.4c0.1,0.1,0.2,0,0.2-0.3c0.1-1.9,0.8-3.4,0.9-5.2C29,279.4,28.9,279.4,28.9,279.4z"/>
		
			<linearGradient id="SVGID_74_" gradientUnits="userSpaceOnUse" x1="-267.7473" y1="662.6001" x2="-267.7473" y2="416.0818" gradientTransform="matrix(1 0 0 1 295.3901 -174.0626)">
			<stop  offset="0" style="stop-color:#5F7668"/>
			<stop  offset="0.4303" style="stop-color:#EEEEEE"/>
			<stop  offset="1" style="stop-color:#75877C"/>
		</linearGradient>
		<path class="st82" d="M28.7,272.8c-0.3,0.6-0.5,1.5-0.7,2.3c-0.2,0.9-0.4,2-0.5,3c-0.3-1-0.6-2.1-0.8-3.3c0-0.2-0.2-0.1-0.2,0.1
			c0.2,1.5,0.5,2.8,0.9,4.1c0.1,0.2,0.2,0.1,0.2-0.1c0.1-2.1,0.9-3.9,1.1-5.9C28.8,272.8,28.7,272.7,28.7,272.8z"/>
		<g>
			
				<linearGradient id="SVGID_75_" gradientUnits="userSpaceOnUse" x1="-264.0099" y1="662.6718" x2="-264.0099" y2="416.081" gradientTransform="matrix(1 0 0 1 295.3901 -174.0626)">
				<stop  offset="0" style="stop-color:#5F7668"/>
				<stop  offset="0.4303" style="stop-color:#EEEEEE"/>
				<stop  offset="1" style="stop-color:#75877C"/>
			</linearGradient>
			<path class="st83" d="M31.4,244.7c0,0.1,0,0.1,0.1,0.2C31.4,244.7,31.4,244.7,31.4,244.7z"/>
			
				<linearGradient id="SVGID_76_" gradientUnits="userSpaceOnUse" x1="-262.7175" y1="662.5976" x2="-262.7175" y2="416.0821" gradientTransform="matrix(1 0 0 1 295.3901 -174.0626)">
				<stop  offset="0" style="stop-color:#5F7668"/>
				<stop  offset="0.4303" style="stop-color:#EEEEEE"/>
				<stop  offset="1" style="stop-color:#75877C"/>
			</linearGradient>
			<path class="st84" d="M33.5,240.5c-0.1-0.1-0.1,0-0.1,0.2c0.3,1.1,0.3,3,0.4,4.3c0.1,1.8,0.2,4.6-0.6,5.7
				c-0.4,0.5-0.7,0.4-0.9-0.1c0-0.9,0-1.8,0-2.7c0-0.7,0-2.2-0.2-2.8c0,0,0,0,0,0c0,0-0.1,0.2-0.1,0.2c0,0,0,0.1,0,0
				c0,1.4,0,2.9,0,4.5c-0.2-0.8-0.4-1.8-0.5-2.4c-0.1-0.7-0.2-1.5-0.2-2.2c0-0.3,0-0.6,0-0.6c-0.1-0.5-0.3-0.5-0.3,0.6
				c0,1.8,0.3,4.4,1,5.8c0,2.7,0,5.6,0,8.1c0,1.6-0.2,4.5,0.2,5.9c0.1,0.2,0.2,1.3,0.4,0.6c0-0.1,0-0.2-0.1-0.1
				c0.1-0.3-0.1-2.9-0.1-3.6c-0.1-2.5-0.1-5-0.1-7.5c0-1,0-2,0-3c0,0,0,0,0,0c1.2,1.4,1.8-2,1.9-3.8
				C34.3,245.9,34.3,241.9,33.5,240.5z"/>
			
				<linearGradient id="SVGID_77_" gradientUnits="userSpaceOnUse" x1="-263.9384" y1="662.5911" x2="-263.9384" y2="416.082" gradientTransform="matrix(1 0 0 1 295.3901 -174.0626)">
				<stop  offset="0" style="stop-color:#5F7668"/>
				<stop  offset="0.4303" style="stop-color:#EEEEEE"/>
				<stop  offset="1" style="stop-color:#75877C"/>
			</linearGradient>
			<path class="st85" d="M31.5,245.4c0-0.1-0.1-0.3-0.1-0.4C31.4,245.1,31.4,245.2,31.5,245.4C31.5,245.4,31.5,245.4,31.5,245.4z"/>
		</g>
		
			<linearGradient id="SVGID_78_" gradientUnits="userSpaceOnUse" x1="-262.0063" y1="662.5925" x2="-262.0063" y2="416.083" gradientTransform="matrix(1 0 0 1 295.3901 -174.0626)">
			<stop  offset="0" style="stop-color:#5F7668"/>
			<stop  offset="0.4303" style="stop-color:#EEEEEE"/>
			<stop  offset="1" style="stop-color:#75877C"/>
		</linearGradient>
		<path class="st86" d="M34.1,271.6c-0.2-0.3-0.3-0.5-0.5-0.6c-0.2-0.1-0.4-0.2-0.6-0.1c-0.1,0-0.3,0.2-0.3,0.4
			c-0.1,0.4,0.1,0.7,0.2,1c0,0,0,0,0,0c-0.1-0.2-0.1-0.6,0-0.8c0.1-0.1,0.2-0.1,0.3,0c0.1,0.1,0.3,0.1,0.4,0.2
			c0.2,0.1,0.3,0.1,0.4,0.2C34.1,271.8,34.1,271.6,34.1,271.6z"/>
		
			<linearGradient id="SVGID_79_" gradientUnits="userSpaceOnUse" x1="-262.0349" y1="662.5894" x2="-262.0349" y2="416.0837" gradientTransform="matrix(1 0 0 1 295.3901 -174.0626)">
			<stop  offset="0" style="stop-color:#5F7668"/>
			<stop  offset="0.4303" style="stop-color:#EEEEEE"/>
			<stop  offset="1" style="stop-color:#75877C"/>
		</linearGradient>
		<path class="st87" d="M34.1,274.5c-0.1-0.1-0.1-0.4-0.2-0.5c-0.1-0.1-0.3-0.3-0.4-0.4c-0.2-0.1-0.5-0.3-0.7-0.2
			c-0.1,0-0.1,0.1-0.1,0.3c0,0,0,0.2,0,0.3c0,0.1,0,0.1,0.1,0c0,0,0-0.1,0-0.1c0,0.1,0.1,0.1,0.1,0.1c0.2,0,0.4,0.2,0.6,0.4
			c0.1,0.1,0.2,0.2,0.3,0.3c0.1,0.1,0.2,0,0.4,0C34.1,274.8,34.1,274.6,34.1,274.5z"/>
		
			<linearGradient id="SVGID_80_" gradientUnits="userSpaceOnUse" x1="-262.1324" y1="662.5962" x2="-262.1324" y2="416.0826" gradientTransform="matrix(1 0 0 1 295.3901 -174.0626)">
			<stop  offset="0" style="stop-color:#5F7668"/>
			<stop  offset="0.4303" style="stop-color:#EEEEEE"/>
			<stop  offset="1" style="stop-color:#75877C"/>
		</linearGradient>
		<path class="st88" d="M34,277.1C34,277.1,34,277,34,277.1c0-0.1,0-0.1,0-0.1v0c0,0,0-0.1,0-0.1c0,0,0,0,0,0c0,0,0,0,0,0
			c0,0,0,0,0,0c0-0.1-0.1-0.1-0.1-0.1c-0.4,0-0.8,0-1.2,0.1c-0.2,0-0.2,0.5,0,0.5c0.4,0.1,0.8,0.1,1.2,0.1c0.1,0,0.1-0.1,0.1-0.1
			c0,0,0,0,0,0C34,277.2,34,277.2,34,277.1C34,277.2,34,277.2,34,277.1C34,277.1,34,277.1,34,277.1C34,277.1,34,277.1,34,277.1z"/>
		
			<linearGradient id="SVGID_81_" gradientUnits="userSpaceOnUse" x1="-261.4802" y1="662.594" x2="-261.4802" y2="416.0826" gradientTransform="matrix(1 0 0 1 295.3901 -174.0626)">
			<stop  offset="0" style="stop-color:#5F7668"/>
			<stop  offset="0.4303" style="stop-color:#EEEEEE"/>
			<stop  offset="1" style="stop-color:#75877C"/>
		</linearGradient>
		<path class="st89" d="M34.9,284.8c0-0.6-0.5-0.6-0.5,0c0,1.8-0.1,3.3-0.5,4.8c-0.1,0-0.3,0-0.4,0c0.1-1.8,0.5-6,1.1-5.4
			c0,0,0,0,0-0.1c-0.2-0.8-0.6-0.5-0.8,0.1c-0.6,1.4-0.7,4-0.9,5.8c0,0.3,0.1,0.7,0.2,0.7c0.3,0,0.8,0.2,1-0.1
			c0.2-0.3,0.4-1.1,0.4-1.5C34.9,287.7,34.9,286.3,34.9,284.8z"/>
	</g>
	<g>
		
			<linearGradient id="SVGID_82_" gradientUnits="userSpaceOnUse" x1="-288.753" y1="738.3271" x2="-261.0456" y2="738.3271" gradientTransform="matrix(1 0 0 1 295.3901 -174.0626)">
			<stop  offset="0" style="stop-color:#5F7668"/>
			<stop  offset="0.4303" style="stop-color:#EEEEEE"/>
			<stop  offset="1" style="stop-color:#75877C"/>
		</linearGradient>
		<path class="st90" d="M8.1,550.4c0.8,1.3,1.8,2.3,2.8,3.2c1.1,0.9,2.2,1.6,3.3,2.3c1.1,0.7,2.3,1.3,3.5,1.9l3.5,1.8
			c1.2,0.6,2.3,1.2,3.5,1.9c1.1,0.7,2.2,1.5,3.2,2.5c1,1,1.8,2.2,2.4,3.5c0.7,1.3,1.3,2.7,1.7,4.1c1,2.9,1.6,5.9,1.7,9
			c0.1,1.5,0,3.1-0.3,4.5c-0.3,1.5-0.8,2.9-1.7,4c-0.8,1.1-1.9,1.9-3.1,2.2c-1.2,0.4-2.5,0.4-3.7,0.3c-1.2-0.1-2.4-0.7-3.2-1.8
			c-0.8-1.1-1.3-2.5-1.4-4c-0.1-1.5,0.2-3,0.8-4.3c0.6-1.3,1.6-2.2,2.8-2.6c0.6-0.2,1.2-0.4,1.8-0.3c0.6,0,1.2,0.2,1.7,0.6
			c1,0.7,1.8,2.1,1.9,3.5c0,0.7-0.1,1.5-0.4,2.1c-0.3,0.6-0.7,1.2-1.2,1.6c-0.5,0.4-1.1,0.6-1.7,0.7c-0.6,0.1-1.2,0-1.8-0.3
			c-0.3-0.1-0.5-0.4-0.7-0.6c-0.2-0.3-0.3-0.6-0.3-1c0-0.4,0.1-0.7,0.2-1.1c0.1-0.4,0.3-0.7,0.5-0.9c0.4-0.5,1.1-0.7,1.7-0.3
			c0.3,0.2,0.5,0.5,0.5,0.8c0,0.4-0.2,0.7-0.5,0.9l0,0.1c0.3-0.2,0.5-0.5,0.6-1c0-0.4-0.2-0.8-0.5-1c-0.6-0.4-1.4-0.3-1.9,0.3
			c-0.3,0.3-0.4,0.6-0.6,1c-0.1,0.4-0.2,0.8-0.2,1.2c0,0.4,0.1,0.8,0.3,1.2c0.2,0.3,0.5,0.6,0.8,0.8c0.6,0.3,1.3,0.4,2,0.3
			c0.7-0.1,1.3-0.4,1.9-0.7c0.6-0.4,1.1-1,1.4-1.7c0.3-0.7,0.5-1.6,0.4-2.4c-0.1-1.6-0.9-3.2-2.1-4c-0.6-0.4-1.3-0.6-1.9-0.7
			c-0.7,0-1.3,0.1-2,0.3c-0.6,0.2-1.2,0.6-1.8,1.1c-0.5,0.5-1,1.1-1.3,1.8c-0.7,1.4-1,3.1-0.9,4.7c0.1,1.6,0.6,3.2,1.5,4.4
			c0.5,0.6,1,1.1,1.6,1.5c0.6,0.4,1.3,0.5,1.9,0.6c1.3,0.1,2.6,0.1,3.9-0.4c1.3-0.4,2.5-1.2,3.4-2.5c0.9-1.2,1.5-2.7,1.8-4.3
			c0.3-1.6,0.4-3.1,0.3-4.7c-0.2-3.1-0.8-6.2-1.9-9.1c-0.5-1.4-1.1-2.8-1.8-4.1c-0.7-1.3-1.5-2.5-2.5-3.5c-1-1-2.1-1.8-3.2-2.5
			c-1.1-0.7-2.3-1.3-3.5-2c-2.3-1.2-4.7-2.4-7-3.8c-1.1-0.7-2.2-1.5-3.2-2.4c-1-0.9-2-1.9-2.7-3.2c-0.7-1.2-1.2-2.7-1.3-4.1
			c0-0.4,0-0.8,0-1.1l0-0.3c0-0.1,0-0.2,0-0.3c0-0.2,0-0.4,0.1-0.5c0.1-0.7,0.4-1.4,0.6-2.1c0.6-1.3,1.3-2.6,2.3-3.6
			c0.5-0.5,1-0.9,1.5-1.2c0.6-0.3,1.2-0.3,1.7-0.1c0.5,0.3,0.9,0.9,1.2,1.5c0.1,0.3,0.3,0.7,0.4,1c0.1,0.3,0.1,0.7,0.1,1.1
			c0,0.7-0.1,1.5-0.3,2.2c-0.2,0.7-0.5,1.4-1,1.8c-0.2,0.2-0.5,0.4-0.8,0.5c-0.3,0.1-0.6,0-0.9-0.1c-0.3-0.1-0.5-0.3-0.7-0.6
			c-0.2-0.3-0.3-0.6-0.4-1c-0.1-0.4-0.1-0.7-0.1-1.1c0-0.2,0-0.4,0.1-0.6c0-0.2,0.1-0.4,0.2-0.5c0.2-0.3,0.5-0.3,0.8-0.2
			c0.1,0.1,0.3,0.1,0.4,0.2l0.2,0.1c0,0,0,0,0.1,0c0.1,0,0-0.1,0-0.1c0,0,0,0,0,0c0,0-0.1-0.1-0.1-0.1l0,0c0,0,0,0.1,0,0.1l-0.2-0.1
			c-0.1-0.1-0.3-0.2-0.4-0.2c-0.2-0.1-0.3-0.1-0.5-0.1c-0.2,0-0.3,0.1-0.5,0.3c-0.1,0.2-0.2,0.4-0.2,0.6c0,0.2-0.1,0.4-0.1,0.6
			c0,0.4,0,0.8,0.1,1.2c0.1,0.4,0.2,0.8,0.4,1.1c0.2,0.3,0.5,0.6,0.8,0.7c0.3,0.1,0.7,0.2,1,0.1c0.3-0.1,0.7-0.3,0.9-0.5
			c0.5-0.5,0.9-1.2,1.1-2c0.2-0.7,0.4-1.5,0.4-2.3c0-0.4,0-0.8-0.1-1.2c-0.1-0.4-0.2-0.8-0.4-1.1c-0.3-0.7-0.8-1.4-1.4-1.8
			c-0.3-0.2-0.7-0.2-1-0.2c-0.3,0-0.7,0.1-1,0.3c-0.6,0.3-1.2,0.8-1.7,1.3c-1,1.1-1.8,2.3-2.4,3.7c-0.3,0.7-0.6,1.5-0.7,2.3
			c0,0.2-0.1,0.4-0.1,0.6c0,0.1,0,0.2,0,0.3l0,0.3c0,0.4,0,0.8,0,1.2C6.8,547.6,7.3,549.2,8.1,550.4z"/>
		
			<linearGradient id="SVGID_83_" gradientUnits="userSpaceOnUse" x1="-284.5556" y1="796.6578" x2="-242.8608" y2="796.6578" gradientTransform="matrix(1 0 0 1 295.3901 -174.0626)">
			<stop  offset="0" style="stop-color:#5F7668"/>
			<stop  offset="0.4303" style="stop-color:#EEEEEE"/>
			<stop  offset="1" style="stop-color:#75877C"/>
		</linearGradient>
		<path class="st91" d="M52.4,638.2c-0.2-0.7-0.6-1.3-1-1.7c-0.2-0.2-0.5-0.4-0.7-0.6c-0.3-0.1-0.5-0.2-0.8-0.3
			c-0.5-0.1-1.1-0.1-1.6,0c-1.1,0.2-2.1,0.7-2.9,1.7c-0.4,0.5-0.7,1.1-0.8,1.8c-0.1,0.7-0.1,1.4,0.1,2c0.2,0.7,0.6,1.2,1.2,1.4
			c0.5,0.2,1.1,0.2,1.6-0.1c0.5-0.2,1-0.6,1.3-1.2c0.3-0.6,0.4-1.3,0.3-1.9l0-0.1l0,0c-0.2-0.1-0.3-0.2-0.5-0.3
			c-0.2-0.1-0.4-0.1-0.6-0.1c-0.2,0-0.4,0.1-0.5,0.2c-0.2,0.1-0.3,0.3-0.4,0.5l0,0l0,0c0,0.1,0.1,0.3,0.2,0.4c0,0.1,0.1,0.1,0.1,0.1
			c0,0,0,0,0.1,0c0,0,0-0.1,0-0.1c0,0,0-0.1,0-0.1l-0.1,0c0,0,0,0.1,0,0.1c0,0,0,0,0,0c0,0,0,0,0,0c0,0-0.1-0.1-0.1-0.1
			c-0.1-0.1-0.1-0.2-0.1-0.3c0.3-0.3,0.6-0.6,0.9-0.6c0.3,0,0.7,0.2,1,0.4c0.1,0.6,0,1.2-0.3,1.7c-0.3,0.5-0.7,0.9-1.2,1
			c-0.5,0.2-1,0.2-1.4,0c-0.5-0.2-0.8-0.6-1-1.2c-0.2-0.5-0.2-1.2-0.1-1.7c0.1-0.6,0.4-1.1,0.7-1.5c0.7-0.8,1.7-1.3,2.7-1.5
			c1-0.1,2,0,2.7,0.8c0.4,0.4,0.7,0.9,0.8,1.4c0.1,0.5,0.1,1.1,0,1.7c-0.2,1.2-0.7,2.2-1.4,3.2c-0.7,0.9-1.4,1.7-2.3,2.2
			c-0.9,0.5-1.9,0.8-2.9,0.8c-1,0-2-0.2-3-0.6c-0.5-0.2-0.9-0.4-1.4-0.7c-0.5-0.3-0.9-0.6-1.3-0.9c-0.9-0.7-1.7-1.4-2.5-2.2
			c-3.2-3.2-5.5-7.6-7-12.3c-0.4-1.2-0.7-2.4-1-3.6c-0.3-1.2-0.5-2.5-0.7-3.7c-0.4-2.5-0.8-5-1.2-7.5c-0.5-2.5-1-5-1.8-7.3
			c-0.4-1.2-0.9-2.3-1.4-3.4c-0.6-1.1-1.3-2.1-2.1-2.9c-0.8-0.8-1.7-1.6-2.7-2.1c-1-0.5-2-0.9-3.1-0.9c-1.1,0-2.2,0.4-3.1,1.2
			c-0.4,0.4-0.8,0.9-1.1,1.4c-0.1,0.1-0.2,0.3-0.2,0.4l-0.1,0.2c0,0.1-0.1,0.1-0.1,0.2c-0.1,0.3-0.2,0.6-0.3,0.9
			c-0.2,0.6-0.2,1.3-0.2,2c0,0.7,0.1,1.3,0.2,2c0.2,0.6,0.4,1.2,0.8,1.7c0.4,0.5,0.9,0.8,1.4,1c0.5,0.2,1.1,0.2,1.6-0.1
			c0.5-0.2,1-0.7,1.3-1.2c0.3-0.5,0.6-1.1,0.5-1.8c0-0.2-0.1-0.3-0.1-0.5c-0.1-0.1-0.2-0.3-0.3-0.3c-0.3-0.1-0.5-0.1-0.8,0l0,0.1
			c0.3-0.1,0.5-0.1,0.7,0c0.2,0.1,0.4,0.4,0.4,0.7c0,0.6-0.2,1.2-0.6,1.7c-0.3,0.5-0.7,0.8-1.2,1c-0.5,0.2-1,0.2-1.5,0
			c-0.5-0.2-0.9-0.5-1.2-0.9c-0.3-0.4-0.5-1-0.7-1.6c-0.3-1.2-0.2-2.5,0.1-3.6c0.1-0.3,0.2-0.6,0.3-0.8c0-0.1,0.1-0.1,0.1-0.2
			l0.1-0.2c0.1-0.1,0.1-0.2,0.2-0.4c0.3-0.5,0.7-0.9,1.1-1.3c0.8-0.7,1.8-1.1,2.8-1.1c1,0,2,0.3,2.9,0.8c0.9,0.5,1.8,1.2,2.6,2
			c0.8,0.8,1.5,1.7,2,2.8c0.6,1.1,1,2.2,1.5,3.3c0.8,2.3,1.4,4.8,1.9,7.2c0.5,2.5,0.8,5,1.2,7.5c0.4,2.5,0.8,5,1.6,7.4
			c0.7,2.4,1.6,4.7,2.8,6.9c1.2,2.1,2.5,4.1,4.2,5.8c0.8,0.8,1.7,1.6,2.6,2.3c0.4,0.3,0.9,0.7,1.4,1c0.5,0.3,1,0.6,1.5,0.8
			c1,0.4,2.1,0.7,3.2,0.6c1.1,0,2.2-0.3,3.2-0.9c1-0.6,1.8-1.4,2.5-2.4c0.7-1,1.3-2.2,1.5-3.5C52.6,639.6,52.6,638.9,52.4,638.2z"/>
		
			<linearGradient id="SVGID_84_" gradientUnits="userSpaceOnUse" x1="-285.2477" y1="850.2552" x2="-247.757" y2="850.2552" gradientTransform="matrix(1 0 0 1 295.3901 -174.0626)">
			<stop  offset="0" style="stop-color:#5F7668"/>
			<stop  offset="0.4303" style="stop-color:#EEEEEE"/>
			<stop  offset="1" style="stop-color:#75877C"/>
		</linearGradient>
		<path class="st92" d="M47.2,684.6c-0.5-2.9-1.6-5.7-3.3-7.9c-0.8-1.1-1.7-2.1-2.8-2.9c-1-0.8-2.1-1.5-3.2-2.1
			c-1.1-0.6-2.3-1.1-3.5-1.5c-1.2-0.4-2.3-0.8-3.5-1.1c-2.4-0.6-4.8-1.1-7.2-1.6c-1.2-0.2-2.4-0.5-3.6-0.8c-0.6-0.2-1.2-0.3-1.8-0.5
			c-0.6-0.2-1.2-0.4-1.7-0.6c-1.1-0.5-2.2-1.2-3.1-2.1c-0.9-0.9-1.8-1.9-2.3-3.2c-0.5-1.2-0.7-2.7-0.5-4.1c0.2-1.4,0.8-2.7,1.7-3.6
			c0.4-0.4,1-0.7,1.5-0.9c0.6-0.1,1.1-0.1,1.7,0.1c0.5,0.2,1,0.6,1.4,1.1c0.4,0.5,0.7,1.1,0.8,1.8c0.2,0.7,0.2,1.4,0.2,2.1
			c0,0.7-0.2,1.4-0.5,2c-0.3,0.6-0.6,1.2-1,1.7c-0.4,0.5-0.9,0.9-1.5,0.8c-0.6,0-1.1-0.4-1.5-0.9c-0.4-0.5-0.5-1.3-0.4-2
			c0-0.4,0.1-0.7,0.3-1c0.1-0.3,0.3-0.6,0.6-0.8c0.1-0.1,0.3-0.1,0.4-0.1c0.1,0,0.3,0.1,0.3,0.3c0.2,0.3,0.3,0.6,0.3,1l0.1,0
			c0-0.4-0.1-0.7-0.3-1.1c-0.1-0.2-0.2-0.3-0.4-0.3c-0.2,0-0.3,0-0.5,0.1c-0.3,0.2-0.5,0.5-0.6,0.8c-0.2,0.3-0.3,0.7-0.3,1.1
			c-0.1,0.8,0,1.6,0.4,2.2c0.4,0.6,1,1.1,1.6,1.1c0.7,0,1.3-0.4,1.7-0.9c0.5-0.5,0.8-1.2,1.1-1.8c0.3-0.7,0.5-1.4,0.6-2.2
			c0.1-0.8,0-1.5-0.2-2.3c-0.2-0.8-0.5-1.5-0.9-2c-0.4-0.6-1-1-1.6-1.2c-0.6-0.2-1.3-0.3-1.9-0.1c-0.6,0.1-1.2,0.5-1.8,1
			c-0.5,0.5-0.9,1.1-1.2,1.8c-0.3,0.7-0.5,1.4-0.7,2.2c-0.3,1.5,0,3.2,0.6,4.5c0.6,1.4,1.5,2.5,2.5,3.4c1,0.9,2.1,1.7,3.3,2.2
			c0.6,0.3,1.2,0.5,1.8,0.6c0.6,0.2,1.2,0.4,1.8,0.5c1.2,0.3,2.4,0.6,3.6,0.8c2.4,0.5,4.8,0.9,7.2,1.5c1.2,0.3,2.4,0.7,3.5,1
			c1.2,0.4,2.3,0.8,3.4,1.4c2.2,1.1,4.4,2.6,6,4.8c1.6,2.2,2.7,4.9,3.2,7.8c0.5,2.9,0.6,5.9,0,8.7c-0.3,1.4-0.8,2.8-1.5,4
			c-0.7,1.2-1.6,2.1-2.7,2.8c-0.3,0.2-0.5,0.3-0.8,0.4c-0.3,0.1-0.5,0.2-0.8,0.2c-0.6,0.1-1.2,0-1.7-0.2c-1.1-0.4-2.2-1.1-3.1-2
			c-0.9-0.9-1.7-2.1-2.1-3.4c-0.2-0.7-0.3-1.4-0.3-2c0-0.7,0.2-1.3,0.6-1.9c0.4-0.5,0.8-0.9,1.4-1.2c0.5-0.3,1.1-0.4,1.7-0.2
			c1.1,0.3,2,1.5,2.2,2.9c0.1,0.3,0.1,0.7,0,1c0,0.4-0.1,0.7-0.2,1c-0.1,0.3-0.2,0.7-0.4,0.9c-0.2,0.3-0.4,0.5-0.7,0.5
			c-0.5,0.2-1.2-0.3-1.3-0.9c-0.1-0.3,0-0.7,0.1-1c0.1-0.3,0.4-0.6,0.6-0.8c0.1,0,0.1,0,0.2,0.1c0.1,0,0.1,0.1,0.1,0.2
			c0,0.1,0,0.2,0,0.2c0,0.1,0,0.2,0.1,0.2l0,0c0-0.1-0.1-0.1-0.1-0.2c0-0.1,0-0.1,0-0.2c0,0,0-0.1,0-0.1c0-0.1-0.1-0.1-0.1-0.1
			c-0.1,0-0.1-0.1-0.2-0.1l0,0l0,0c-0.3,0.2-0.5,0.5-0.7,0.8c-0.2,0.3-0.2,0.7-0.2,1.1c0.2,0.8,0.9,1.3,1.5,1.2
			c0.3-0.1,0.6-0.3,0.8-0.6c0.2-0.3,0.4-0.7,0.5-1c0.1-0.4,0.2-0.7,0.2-1.1c0-0.4,0-0.8,0-1.2c-0.2-1.5-1.2-2.9-2.5-3.3
			c-0.6-0.2-1.3-0.1-1.9,0.2c-0.6,0.3-1.1,0.8-1.5,1.4c-0.4,0.6-0.7,1.4-0.7,2.2c0,0.8,0.1,1.6,0.3,2.3c0.5,1.4,1.3,2.7,2.2,3.7
			c0.9,1,2.1,1.8,3.3,2.2c0.6,0.2,1.3,0.3,1.9,0.2c0.3,0,0.6-0.1,0.9-0.3c0.3-0.1,0.6-0.3,0.9-0.4c1.1-0.7,2.1-1.7,2.8-3
			c0.7-1.3,1.2-2.7,1.4-4.1c0.3-1.5,0.4-3,0.3-4.5C47.6,687.5,47.4,686.1,47.2,684.6z"/>
		
			<linearGradient id="SVGID_85_" gradientUnits="userSpaceOnUse" x1="-292.8775" y1="816.291" x2="-274.9704" y2="816.291" gradientTransform="matrix(1 0 0 1 295.3901 -174.0626)">
			<stop  offset="0" style="stop-color:#5F7668"/>
			<stop  offset="0.4303" style="stop-color:#EEEEEE"/>
			<stop  offset="1" style="stop-color:#75877C"/>
		</linearGradient>
		<path class="st93" d="M11.2,644.6c1,0,2,0,3,0c1,0,2,0.1,2.9,0.4c0.9,0.3,1.9,0.7,2.5,1.7c0.3,0.5,0.5,1,0.6,1.6
			c0.1,0.6,0.1,1.2,0.1,1.8l0.1,0c0.1-0.6,0.1-1.2,0.1-1.9c-0.1-0.6-0.2-1.3-0.5-1.8c-0.3-0.5-0.7-1-1.2-1.3
			c-0.5-0.3-0.9-0.6-1.4-0.7c-1-0.3-2-0.4-3-0.5c-1,0-2,0-3,0c-1,0.1-2,0.1-3,0.1c-1,0-2,0-3-0.3c-0.5-0.1-1-0.3-1.4-0.7
			c-0.4-0.3-0.7-0.8-0.9-1.3c-0.2-0.5-0.2-1.2-0.2-1.8c0-0.6,0.2-1.2,0.3-1.8c0.1-0.6,0.3-1.1,0.7-1.6c0.3-0.4,0.7-0.8,1.1-1.1
			c0.8-0.6,1.8-0.7,2.8-0.6c1,0.1,1.9,0.5,2.6,1.3c0.3,0.4,0.6,0.8,0.8,1.4c0.2,0.5,0.2,1.1,0.2,1.6c0,0.6-0.2,1.1-0.4,1.6
			c-0.2,0.5-0.6,0.9-1,1.1c-0.4,0.3-0.9,0.4-1.3,0.3c-0.5,0-0.9-0.2-1.3-0.5c-0.4-0.3-0.8-0.7-1-1.2c-0.2-0.5-0.3-1.1-0.1-1.6
			c0.2-0.5,0.5-1,0.9-1.1c0.2-0.1,0.5,0,0.6,0.3c0.2,0.2,0.3,0.5,0.3,0.8l0.1,0c0-0.3-0.1-0.6-0.3-0.9c-0.2-0.3-0.5-0.4-0.7-0.4
			c-0.3,0-0.5,0.2-0.7,0.4c-0.2,0.2-0.4,0.5-0.5,0.8c-0.2,0.6-0.2,1.3,0,2c0.2,0.6,0.6,1.1,1.1,1.5c0.4,0.4,1,0.6,1.5,0.7
			c0.5,0.1,1.1-0.1,1.6-0.4c0.5-0.3,0.9-0.8,1.2-1.3c0.3-0.6,0.5-1.2,0.5-1.9c0-0.7,0-1.3-0.2-2c-0.2-0.6-0.5-1.2-0.9-1.6
			c-0.8-0.9-1.9-1.3-2.9-1.4c-1-0.1-2.1,0.1-3.1,0.8c-0.5,0.3-0.9,0.8-1.2,1.3c-0.3,0.5-0.5,1.1-0.6,1.7c-0.1,0.6-0.2,1.2-0.3,1.8
			c0,0.6,0,1.3,0.2,1.9c0.2,0.6,0.6,1.1,1,1.4c0.4,0.3,0.9,0.6,1.4,0.7c1,0.3,2,0.4,3,0.5C9.2,644.6,10.2,644.6,11.2,644.6z"/>
		
			<linearGradient id="SVGID_86_" gradientUnits="userSpaceOnUse" x1="-287.4956" y1="859.3006" x2="-269.0504" y2="859.3006" gradientTransform="matrix(1 0 0 1 295.3901 -174.0626)">
			<stop  offset="0" style="stop-color:#5F7668"/>
			<stop  offset="0.4303" style="stop-color:#EEEEEE"/>
			<stop  offset="1" style="stop-color:#75877C"/>
		</linearGradient>
		<path class="st94" d="M24.7,671c-0.6,0.4-1.2,0.7-1.8,1c-1.2,0.6-2.5,1-3.8,1.4c-1.3,0.4-2.6,0.8-3.8,1.4
			c-1.3,0.6-2.5,1.3-3.5,2.4c-1,1.1-1.9,2.4-2.5,3.9c-0.6,1.5-1,3.1-1.2,4.7c-0.4,3.3,0,6.7,1.1,9.6c0.3,0.7,0.6,1.4,1,2.1
			c0.4,0.7,0.8,1.3,1.4,1.8c1.1,1,2.4,1.4,3.8,1.5c1.3,0.1,2.7-0.2,3.9-0.8c0.6-0.3,1.2-0.8,1.7-1.3c0.5-0.6,1-1.2,1.2-2
			c0.6-1.6,0.5-3.4-0.2-4.9c-0.3-0.7-0.9-1.4-1.5-1.8c-0.6-0.4-1.4-0.5-2.1-0.3c-0.7,0.2-1.3,0.6-1.8,1.2c-0.5,0.6-0.8,1.4-0.9,2.3
			c0,0.4,0,0.9,0.2,1.3c0.1,0.4,0.4,0.7,0.8,0.9c0.3,0.1,0.7,0.1,1,0c0.3-0.1,0.6-0.3,0.9-0.6l0-0.1c-0.3,0.2-0.6,0.4-0.9,0.5
			c-0.3,0.1-0.6,0.1-0.9,0c-0.3-0.1-0.5-0.4-0.6-0.8c-0.1-0.3-0.1-0.7-0.1-1.1c0.1-0.8,0.4-1.5,0.8-2c0.2-0.3,0.5-0.5,0.8-0.6
			c0.3-0.2,0.6-0.3,0.9-0.3c0.6-0.1,1.2,0,1.8,0.3c0.5,0.3,1,0.9,1.3,1.6c0.6,1.3,0.7,3,0.2,4.4c-0.5,1.4-1.5,2.5-2.7,3.2
			c-1.2,0.7-2.5,1-3.8,1c-1.3-0.1-2.6-0.5-3.7-1.5c-0.3-0.2-0.5-0.5-0.7-0.8c-0.2-0.3-0.4-0.6-0.6-1c-0.4-0.7-0.7-1.4-0.9-2.1
			c-1-2.9-1.3-6.2-0.9-9.3c0.4-3.1,1.6-6.1,3.6-8.2c1-1,2.1-1.8,3.3-2.4c1.2-0.6,2.5-1,3.8-1.5c1.3-0.4,2.6-0.9,3.8-1.6
			c1.2-0.6,2.4-1.5,3.3-2.7l0-0.1C25.8,670.2,25.3,670.6,24.7,671z"/>
		
			<linearGradient id="SVGID_87_" gradientUnits="userSpaceOnUse" x1="-260.8994" y1="734.4252" x2="-247.0307" y2="734.4252" gradientTransform="matrix(1 0 0 1 295.3901 -174.0626)">
			<stop  offset="0" style="stop-color:#5F7668"/>
			<stop  offset="0.4303" style="stop-color:#EEEEEE"/>
			<stop  offset="1" style="stop-color:#75877C"/>
		</linearGradient>
		<path class="st95" d="M40.5,542c0.1,0.4,0.2,0.9,0.5,1.2c0.2,0.4,0.5,0.6,0.9,0.8c0.3,0.2,0.7,0.3,1.1,0.3c0.4,0,0.7-0.1,1.1-0.3
			c0.7-0.4,1.2-1.2,1.2-2.1c0-0.2,0-0.5-0.1-0.7c-0.1-0.2-0.2-0.4-0.4-0.5c-0.3-0.2-0.7-0.1-1-0.1l0,0.1c0.3-0.1,0.7-0.1,1,0.1
			c0.3,0.2,0.4,0.6,0.3,1c-0.1,0.8-0.6,1.4-1.2,1.8c-0.6,0.3-1.3,0.2-1.9-0.1c-0.6-0.3-1-1-1.1-1.8c-0.1-0.8-0.1-1.6,0.1-2.3
			c0.2-0.8,0.5-1.5,0.9-2c0.1-0.1,0.2-0.3,0.4-0.4c0.1-0.1,0.3-0.2,0.4-0.3c0.3-0.2,0.6-0.4,0.9-0.6c0.6-0.3,1.2-0.5,1.9-0.3
			c0.6,0.2,1.1,0.7,1.5,1.3c0.4,0.7,0.6,1.4,0.8,2.2c0.3,1.6,0.4,3.3,0.2,4.9c-0.2,1.6-0.5,3.3-1.3,4.7c-0.4,0.7-0.9,1.2-1.4,1.7
			c-0.5,0.5-1.1,0.9-1.8,1.3c-1.2,0.8-2.5,1.4-3.7,2.3c-1.2,1-2.2,2-3.2,3.3c-0.9,1.3-1.7,2.8-2,4.5c-0.4,1.7-0.2,3.5,0.2,5.2
			c0.4,1.6,1.1,3.2,2,4.5c0.4,0.7,0.8,1.3,1.2,2c0.4,0.7,0.7,1.4,1.1,2.1c0.3,0.7,0.6,1.5,0.9,2.2c0.3,0.8,0.4,1.6,0.6,2.4
			c0.2,0.8,0.3,1.6,0.5,2.4c0.2,0.8,0.5,1.6,0.9,2.3l0,0c-0.4-0.7-0.6-1.5-0.8-2.3c-0.2-0.8-0.3-1.6-0.4-2.5
			c-0.1-0.8-0.3-1.7-0.5-2.5c-0.2-0.8-0.5-1.6-0.8-2.3c-0.3-0.8-0.7-1.5-1-2.2c-0.4-0.7-0.8-1.4-1.2-2.1c-0.8-1.4-1.4-2.8-1.8-4.4
			c-0.4-1.5-0.5-3.2-0.2-4.8c0.3-1.6,1-3,1.9-4.3c0.9-1.2,1.9-2.3,3-3.3c1.1-0.9,2.4-1.6,3.6-2.4c1.2-0.8,2.4-1.8,3.2-3.2
			c0.4-0.7,0.7-1.5,0.9-2.3c0.2-0.8,0.3-1.6,0.4-2.5c0.1-0.8,0.1-1.7,0.1-2.5c0-0.8-0.1-1.7-0.2-2.5c-0.2-0.8-0.4-1.7-0.8-2.4
			c-0.4-0.7-1-1.4-1.7-1.6c-0.7-0.2-1.5-0.1-2.2,0.3c-0.3,0.2-0.6,0.4-0.9,0.6c-0.2,0.1-0.3,0.2-0.4,0.4c-0.2,0.1-0.3,0.3-0.4,0.5
			c-0.5,0.7-0.8,1.5-1.1,2.3C40.4,540.3,40.4,541.2,40.5,542z"/>
		
			<linearGradient id="SVGID_88_" gradientUnits="userSpaceOnUse" x1="-267.5459" y1="778.5765" x2="-246.4264" y2="778.5765" gradientTransform="matrix(1 0 0 1 295.3901 -174.0626)">
			<stop  offset="0" style="stop-color:#5F7668"/>
			<stop  offset="0.4303" style="stop-color:#EEEEEE"/>
			<stop  offset="1" style="stop-color:#75877C"/>
		</linearGradient>
		<path class="st96" d="M45.8,594.6c-1.1-1.1-2.5-1.9-3.9-2.5c-1.4-0.5-2.9-0.8-4.3-0.7c-1.5,0.1-2.9,0.5-4.2,1.4
			c-1.3,0.9-2.4,2.2-3,3.9c-0.7,1.6-1.2,3.3-1.5,5c-0.4,1.7-0.6,3.5-0.8,5.2c-0.3,3.5-0.2,7.1,0.3,10.6l0.1,0
			c-0.3-3.5-0.3-7,0.1-10.5c0.4-3.5,1.1-6.9,2.3-10c0.6-1.5,1.6-2.9,2.8-3.8c1.2-0.9,2.6-1.4,4-1.5c1.4-0.1,2.9,0.1,4.2,0.7
			c1.4,0.5,2.6,1.4,3.7,2.5c1.1,1.1,2,2.5,2.5,4.1c0.5,1.6,0.6,3.4,0.3,5c-0.2,0.8-0.4,1.7-0.7,2.4c-0.3,0.7-0.8,1.4-1.3,1.9
			c-1.1,1-2.6,1.3-3.9,0.9c-0.7-0.2-1.3-0.5-1.8-1c-0.5-0.5-0.9-1.2-0.9-2c0-0.8,0.3-1.5,0.8-2.1c0.5-0.6,1-1.1,1.7-1.4
			c0.6-0.3,1.4-0.3,1.9,0.1c0.3,0.2,0.5,0.6,0.6,0.9c0.1,0.4,0.1,0.8,0.1,1.2c0,0.4-0.1,0.9-0.2,1.2c-0.1,0.4-0.4,0.7-0.7,0.7
			c-0.3,0-0.7-0.1-0.9-0.4c-0.1-0.1-0.2-0.3-0.3-0.5c-0.1-0.2,0-0.4,0.1-0.6l0,0c-0.1,0.2-0.2,0.4-0.1,0.7c0.1,0.2,0.2,0.4,0.3,0.6
			c0.3,0.3,0.7,0.5,1,0.5c0.2,0,0.4-0.1,0.6-0.2c0.2-0.1,0.3-0.3,0.4-0.5c0.2-0.4,0.2-0.9,0.3-1.3c0-0.5,0-0.9-0.1-1.4
			c-0.1-0.5-0.3-0.9-0.7-1.2c-0.3-0.3-0.7-0.4-1.1-0.5c-0.4,0-0.8,0.1-1.1,0.2c-0.7,0.3-1.4,0.8-1.9,1.5c-0.3,0.3-0.5,0.7-0.7,1.1
			c-0.2,0.4-0.3,0.9-0.3,1.4c0,0.5,0.1,1,0.3,1.4c0.2,0.4,0.5,0.8,0.8,1.1c0.6,0.6,1.3,1,2.1,1.2c1.5,0.4,3.1,0.1,4.4-1
			c0.6-0.6,1.1-1.3,1.5-2.1c0.4-0.8,0.6-1.7,0.7-2.6c0.3-1.8,0.2-3.7-0.4-5.4C47.9,597.1,46.9,595.7,45.8,594.6z"/>
		
			<linearGradient id="SVGID_89_" gradientUnits="userSpaceOnUse" x1="-273.4773" y1="713.4177" x2="-254.6736" y2="713.4177" gradientTransform="matrix(1 0 0 1 295.3901 -174.0626)">
			<stop  offset="0" style="stop-color:#5F7668"/>
			<stop  offset="0.4303" style="stop-color:#EEEEEE"/>
			<stop  offset="1" style="stop-color:#75877C"/>
		</linearGradient>
		<path class="st97" d="M22.4,547.3c0.3,1.5,0.7,3,1.2,4.5c1,2.9,2.6,5.4,4.2,7.8c0.8,1.2,1.7,2.3,2.5,3.5c0.4,0.6,0.7,1.2,1,1.9
			c0.3,0.7,0.4,1.4,0.4,2.2l0.1,0c0-0.8-0.1-1.6-0.3-2.3c-0.2-0.7-0.6-1.4-0.9-2.1c-0.7-1.3-1.6-2.4-2.4-3.6c-1.6-2.4-3-4.9-4-7.7
			c-1-2.8-1.6-5.8-1.7-8.9c-0.1-3,0.2-6.1,0.8-9.1c0.6-3,1.6-5.8,2.9-8.5c0.6-1.3,1.4-2.6,2.1-3.8c0.8-1.2,1.6-2.4,2.5-3.5
			c1.7-2.2,3.7-4.2,6-5.3c0.6-0.3,1.2-0.5,1.8-0.5c0.3,0,0.6,0.1,0.8,0.2c0.1,0.1,0.2,0.2,0.4,0.3c0.1,0.1,0.1,0.1,0.2,0.2
			c0.1,0.1,0.1,0.1,0.1,0.2c0.2,0.3,0.3,0.6,0.4,1c0.1,0.3,0,0.7-0.2,1c-0.2,0.3-0.5,0.4-0.8,0.5c-0.1,0-0.3,0-0.4-0.1
			c-0.1-0.1-0.2-0.3-0.2-0.4l-0.1,0c0,0.2,0.1,0.4,0.2,0.5c0.1,0.1,0.3,0.2,0.5,0.2c0.3,0,0.7-0.2,0.9-0.5c0.2-0.3,0.4-0.8,0.3-1.2
			c0-0.4-0.2-0.8-0.4-1.1c-0.2-0.3-0.4-0.6-0.7-0.8c-0.3-0.2-0.6-0.3-1-0.3c-0.7,0-1.3,0.2-1.9,0.5c-1.2,0.5-2.3,1.3-3.4,2.2
			c-1,0.9-2,2-2.8,3.1c-1.7,2.3-3.1,4.9-4.4,7.6c-1.3,2.7-2.3,5.5-3.1,8.5c-0.7,3-1.1,6.1-1,9.2C22,544.3,22.1,545.8,22.4,547.3z"/>
	</g>
</g>
</svg>
