<?xml version="1.0" encoding="utf-8"?>
<!-- Generator: Adobe Illustrator 23.0.3, SVG Export Plug-In . SVG Version: 6.00 Build 0)  -->
<svg version="1.1" id="Layer_1" xmlns="http://www.w3.org/2000/svg" xmlns:xlink="http://www.w3.org/1999/xlink" x="0px" y="0px"
	 viewBox="0 0 56.7 708.7" style="enable-background:new 0 0 56.7 708.7;" xml:space="preserve">
<style type="text/css">
	.st0{fill:url(#SVGID_1_);}
	.st1{fill:#432252;}
	.st2{fill:#58306D;}
	.st3{fill:#2F183C;}
	.st4{fill:#452457;}
	.st5{fill:#4F2A61;}
	.st6{fill:#3D204C;}
	.st7{fill:#5F3474;}
	.st8{fill:#4D2A5F;}
	.st9{fill:#48265A;}
	.st10{fill:#361A43;}
	.st11{fill:#883B69;}
	.st12{fill:url(#SVGID_2_);}
	.st13{fill:url(#SVGID_3_);}
	.st14{fill:url(#SVGID_4_);}
	.st15{fill:url(#SVGID_5_);}
	.st16{fill:url(#SVGID_6_);}
	.st17{fill:url(#SVGID_7_);}
	.st18{fill:url(#SVGID_8_);}
	.st19{fill:url(#SVGID_9_);}
	.st20{fill:url(#SVGID_10_);}
	.st21{fill:url(#SVGID_11_);}
	.st22{fill:url(#SVGID_12_);}
	.st23{fill:url(#SVGID_13_);}
	.st24{fill:url(#SVGID_14_);}
	.st25{fill:url(#SVGID_15_);}
	.st26{fill:url(#SVGID_16_);}
	.st27{fill:url(#SVGID_17_);}
	.st28{fill:url(#SVGID_18_);}
	.st29{fill:url(#SVGID_19_);}
	.st30{fill:url(#SVGID_20_);}
</style>
<g>
	<g>
		<linearGradient id="SVGID_1_" gradientUnits="userSpaceOnUse" x1="6.1864" y1="696.2711" x2="50.5065" y2="696.2711">
			<stop  offset="0" style="stop-color:#8C4527"/>
			<stop  offset="0.4303" style="stop-color:#F1B78E"/>
			<stop  offset="1" style="stop-color:#9F593D"/>
		</linearGradient>
		<ellipse class="st0" cx="28.3" cy="696.3" rx="22.2" ry="12.4"/>
		<g>
			<g>
				<g>
					<g>
						<path class="st1" d="M28.3,0c7.3,0,13.1,470.5,12.4,519.4C39.6,597,31.6,626,28.3,626c-3.3,0-11.3-29-12.4-106.7
							C15.3,470.5,21,0,28.3,0z"/>
						<path class="st2" d="M27.2,129.4c5.6,0,9.9,357,9.4,394.1c-0.9,58.9-6.9,80.9-9.4,80.9c-2.5,0-8.5-22-9.4-80.9
							C17.3,486.4,21.6,129.4,27.2,129.4z"/>
					</g>
					<g>
						<path class="st3" d="M17.3,427.2c-0.2,2.3-0.3,4.6-0.3,6.9c-0.1,6.6,0.8,13.1,1.9,19.6c0.5,3,1.1,6.1,1.7,9.1
							c0.3,1.4,0.5,2.8,0.7,4.3c0,0.2,0.3,1.8,0.3,1.8c0.1,0.5,0.1,1,0.2,1.5c0,0.1,0,0.3,0.1,0.4c0,3-0.1,6-0.1,8.9
							c0,3.6,3.2,6.5,7,6.5c3.8,0,7-3,7-6.5c0-32.6,2.4-65.2,3.8-97.8c0.1-0.1,0.1-0.1,0.2-0.2c0.7,53.9,1.1,99.1,1.1,123.1
							c-7.4-0.3-14.9,0.4-22.2,1.4c-0.9,0.1-1.8,0.3-2.7,0.4c0-16.8,0.2-45,0.6-79.8C16.7,426.9,17,427.1,17.3,427.2z"/>
						<path class="st4" d="M18.9,453.7c0.5,3,1.1,6.1,1.7,9.1c0.3,1.4,0.5,2.8,0.7,4.3c0,0.2,0.3,1.8,0.3,1.8c0.1,0.5,0.1,1,0.2,1.5
							c0,0.1,0,0.3,0.1,0.4c0,3-0.1,6-0.1,8.9c0,3.6,3.2,6.5,7,6.5c3.8,0,7-3,7-6.5c0-8.5,0.2-17,0.4-25.5c0.2,20.5,0.3,38,0.4,50.6
							c-6,0-12,0.7-18,1.5c-0.3,0-0.5,0.1-0.8,0.1c0-13.6,0.2-33.3,0.5-56.7C18.4,451,18.6,452.3,18.9,453.7z"/>
					</g>
				</g>
				<g>
					<g>
						<path class="st5" d="M5,487.4c-5.1-3.8,10.8-4.4,23.4-4.4c12.6,0,28.5,0.6,23.4,4.4c-4.6,3.3-9.6,58,0,205.9
							c0.4,6.6-12.4,8.6-23.4,8.6c-11,0-23.8-2.1-23.4-8.6C14.6,545.4,9.5,490.7,5,487.4z"/>
						<path class="st6" d="M6.3,505.3c-4.9-3.4,10.2-3.9,22.1-3.9c11.9,0,26.9,0.5,22.1,3.9c-4.3,3-9.1,51.8,0,183.7
							c0.4,5.9-11.7,7.7-22.1,7.7c-10.4,0-22.5-1.9-22.1-7.7C15.4,557.1,10.6,508.3,6.3,505.3z"/>
					</g>
					<g>
						<path class="st7" d="M22.9,486.1c7.3-0.8,14.7-0.7,22,0.1c-0.2,1.2-0.4,2.3-0.4,3.5c-4.8,1.7-9.7,3-14.7,3.9
							c-5,0.5-9.9,0.6-14.9,0.2c-0.2-2-0.4-4-0.7-5.9C17.1,487.2,20,486.5,22.9,486.1z"/>
						<path class="st7" d="M7.1,686.2c1.5-8.4,4.1-16.6,6.6-24.8c2.3-7.4,4.3-14.8,5.8-22.4c0,0.3,0.1,0.6,0.1,1
							c0.4,4.2,1,8.5,0.8,12.6c-0.2,5.4-0.6,10.5,0.7,15.8c1.1,4.8,3.8,10.3,7.7,13.5c2.5,2,5,3.6,7.6,5.3c0.2,0.2,0.5,0.4,0.7,0.6
							c3.7,2.9,5.1,3.9,9.2,5.5c-0.4,1.9-0.9,3.7-1.6,5.5c-0.2,0.4-0.5,0.9-0.7,1.3c-4.5,1.3-10.3,1.8-15.6,1.8
							c-8.4,0-17.9-1.2-21.7-4.7C6.6,693.6,6.7,689.9,7.1,686.2z"/>
						<path class="st8" d="M7.1,686.2c1.5-8.4,4.1-16.6,6.6-24.8c2.3-7.4,4.3-14.8,5.8-22.4c0,0.3,0.1,0.6,0.1,1
							c0.4,4.2,1,8.5,0.8,12.6c-0.2,5.4-0.6,10.5,0.7,15.8c1.1,4.8,3.8,10.3,7.7,13.5c2.5,2,5,3.6,7.6,5.3c0.2,0.2,0.5,0.4,0.7,0.6
							c3.7,2.9,5.1,3.9,9.2,5.5c-0.1,0.3-0.1,0.6-0.2,0.8c-4.4,1.9-11.4,2.6-17.7,2.6c-9,0-19.3-1.4-21.6-5.6
							C6.8,689.5,6.9,687.9,7.1,686.2z"/>
					</g>
					<g>
						<path class="st9" d="M28.3,702c11,0,23.8-2.1,23.4-8.6c-9.6-147.9-4.6-202.6,0-205.9c1.6-1.1,1.2-2-0.5-2.6
							c-0.1,1.6-0.8,3.2-2,4.3c-6.1,5.6-14.8,8.1-22.9,8.4c-7.5,0.3-16-2.4-20.4-8.8c4.3,9.7,8.1,66.5-0.9,204.5
							C4.6,699.9,17.4,702,28.3,702z M43.9,506.6c-4.3-0.2-8.6-0.5-12.9-0.6c-4.3-0.1-9-0.1-13.1,1.3c-1.8,0.6-2.5-2.2-0.8-2.8
							c4-1.4,8.5-1.5,12.7-1.5c0.4,0,0.8,0,1.2,0c0.2-0.1,0.5-0.1,0.8-0.1c0.5,0.1,1,0.1,1.5,0.2c0.4,0,0.9,0,1.3,0.1
							c3.3,0,6.7-0.5,10-0.3c1.7,0.1,1.8,2.4,0.5,2.8C45,506.2,44.6,506.6,43.9,506.6z M40.7,539.7c0,1.9-2.9,1.9-2.9,0
							c0-9.2-1.5-18.4-1.9-27.6c-0.1-1.3,1.6-1.9,2.5-1c0.1,0.1,0.2,0.2,0.3,0.3c0.3-1,1.7-1.7,2.4-0.7c0,0,0.1,0.1,0.1,0.1
							c0.9-0.3,2,0.1,1.9,1.3C42.2,521.3,40.7,530.4,40.7,539.7z M10.8,681c-0.1-1.9,0.8-3.7,2.1-4.9c0-2.1,0.2-4.2,0.3-6.3
							c0.4-6.1,0.8-12.2,1.1-18.3c0.7-12.2,1.2-24.3,1.2-36.5c0-0.8,0.2-1.6,0.4-2.3c0.5-9.2,1.6-18.4,1.7-27.6
							c0-0.3,0.1-0.5,0.2-0.7c-0.2-17.6-0.7-35.3-1.7-52.9c-0.1-1.9,2.8-1.9,2.9,0c0.6,10.3,1,20.6,1.3,30.9
							c0.3,0.2,0.5,0.4,0.6,0.9c2.2,14.1,4.3,28.2,6.8,42.2c0.2,1,0.4,2.1,0.5,3.1c0,0,0,0.1,0,0.1c0,0,0,0,0,0c0,0.1,0,0.3,0.1,0.4
							c0.1,0.5-0.2,0.9-0.6,1.2c1.1,1.3,1.8,2.9,1.9,4.7c0.3,4.7,0.8,9.3,1.4,14c0,0.1,0,0.3,0.1,0.7c0.1,0.8,0.2,1.5,0.3,2.3
							c0.2,1.3,0.4,2.5,0.6,3.8c0.4,2.5,0.9,5,1.3,7.5c1.9,9.9,4.3,19.7,6.3,29.5c0.8,3.8,1.5,7.6,0.6,11.4c-1.1,4.8-5.5,7.7-9.9,9
							C21.5,695.7,11.2,690.8,10.8,681z"/>
						<path class="st9" d="M4.4,486.1c0.2,0.5,0.4,0.9,0.7,1.4c0,0-0.1-0.1-0.1-0.1c-1-0.7-1.2-1.3-0.8-1.8
							C4.3,485.8,4.3,485.9,4.4,486.1z"/>
						<path class="st10" d="M6.3,689.1c-0.4,5.9,11.7,7.7,22.1,7.7c10.4,0,22.5-1.9,22.1-7.7c-9.1-131.9-4.3-180.7,0-183.7
							c4.9-3.4-10.2-3.9-22.1-3.9c-11.9,0-26.9,0.5-22.1,3.9C10.6,508.3,15.4,557.1,6.3,689.1z M43.9,506.6
							c-4.3-0.2-8.6-0.5-12.9-0.6c-4.3-0.1-9-0.1-13.1,1.3c-1.8,0.6-2.5-2.2-0.8-2.8c4-1.4,8.5-1.5,12.7-1.5c0.4,0,0.8,0,1.2,0
							c0.2-0.1,0.5-0.1,0.8-0.1c0.5,0.1,1,0.1,1.5,0.2c0.4,0,0.9,0,1.3,0.1c3.3,0,6.7-0.5,10-0.3c1.7,0.1,1.8,2.4,0.5,2.8
							C45,506.2,44.6,506.6,43.9,506.6z M40.7,539.7c0,1.9-2.9,1.9-2.9,0c0-9.2-1.5-18.4-1.9-27.6c-0.1-1.3,1.6-1.9,2.5-1
							c0.1,0.1,0.2,0.2,0.3,0.3c0.3-1,1.7-1.7,2.4-0.7c0,0,0.1,0.1,0.1,0.1c0.9-0.3,2,0.1,1.9,1.3C42.2,521.3,40.7,530.4,40.7,539.7
							z M10.8,681c-0.1-1.9,0.8-3.7,2.1-4.9c0-2.1,0.2-4.2,0.3-6.3c0.4-6.1,0.8-12.2,1.1-18.3c0.7-12.2,1.2-24.3,1.2-36.5
							c0-0.8,0.2-1.6,0.4-2.3c0.5-9.2,1.6-18.4,1.7-27.6c0-0.3,0.1-0.5,0.2-0.7c-0.2-17.6-0.7-35.3-1.7-52.9c-0.1-1.9,2.8-1.9,2.9,0
							c0.6,10.3,1,20.6,1.3,30.9c0.3,0.2,0.5,0.4,0.6,0.9c2.2,14.1,4.3,28.2,6.8,42.2c0.2,1,0.4,2.1,0.5,3.1c0,0,0,0.1,0,0.1
							c0,0,0,0,0,0c0,0.1,0,0.3,0.1,0.4c0.1,0.5-0.2,0.9-0.6,1.2c1.1,1.3,1.8,2.9,1.9,4.7c0.3,4.7,0.8,9.3,1.4,14
							c0,0.1,0,0.3,0.1,0.7c0.1,0.8,0.2,1.5,0.3,2.3c0.2,1.3,0.4,2.5,0.6,3.8c0.4,2.5,0.9,5,1.3,7.5c1.9,9.9,4.3,19.7,6.3,29.5
							c0.8,3.8,1.5,7.6,0.6,11.4c-1.1,4.8-5.5,7.7-9.9,9C21.5,695.7,11.2,690.8,10.8,681z"/>
					</g>
				</g>
			</g>
			<g>
				<path class="st11" d="M24.7,476.7c1.2-0.1,2.3,0.2,2.3,0.6c0,0.4-0.9,0.8-2.2,0.9c-1.2,0.1-2.3-0.2-2.3-0.6
					C22.5,477.2,23.5,476.8,24.7,476.7z"/>
				<path class="st11" d="M22.4,472.8c2.1-1.1,4.1-1.5,4.4-0.8c0.4,0.7-1,2.2-3.1,3.3c-2.1,1.1-4.1,1.5-4.4,0.8
					C19,475.4,20.4,473.9,22.4,472.8z"/>
				<path class="st11" d="M19.4,467.1c0-0.8,0.1-1.7,0.1-2.5c0-0.2,0-0.4,0-0.6c1,0.3,2.3,1,3.5,2.1c2.1,1.8,3.3,3.8,2.7,4.5
					c-0.6,0.7-2.8-0.2-4.8-1.9C20.3,468.1,19.8,467.6,19.4,467.1z"/>
				<path class="st11" d="M19.6,462.3c0-1,0.1-2,0.2-3c0.3-0.3,0.7-0.5,1.1-0.8c2-1.3,4.1-1.8,4.5-1.2c0.4,0.7-0.9,2.3-2.9,3.6
					C21.4,461.6,20.4,462.1,19.6,462.3z"/>
				<path class="st11" d="M21.5,453c-0.5-0.1-1-0.3-1.4-0.5c0-0.4,0-0.8,0.1-1.2c0.4,0,1,0,1.6,0.1c1.3,0.3,2.2,0.9,2.1,1.3
					C23.9,453.2,22.8,453.3,21.5,453z"/>
				<path class="st11" d="M20.3,449.6c0-0.4,0.1-0.9,0.1-1.3c0.2-0.4,0.5-0.8,0.8-1.2c0.9-1,1.9-1.6,2.3-1.3c0.3,0.3-0.1,1.4-1,2.4
					C21.6,449.2,20.7,449.8,20.3,449.6z"/>
				<path class="st11" d="M20.7,443.5c0.1-1.5,0.2-2.9,0.3-4.4c0,0,0.1-0.1,0.1-0.1c2.5-1.8,5-2.6,5.6-1.8c0.6,0.8-0.9,3-3.4,4.8
					C22.4,442.6,21.5,443.1,20.7,443.5z"/>
				<path class="st11" d="M22.1,434.5c-0.4-0.3-0.7-0.6-0.9-0.8c0-0.2,0-0.4,0-0.6c0.3-0.1,0.9,0.1,1.5,0.5c0.8,0.5,1.2,1.1,1.1,1.3
					C23.6,435.2,22.9,435,22.1,434.5z"/>
				<path class="st11" d="M21.3,431.4c0-0.5,0-0.9,0.1-1.4c0.3-0.1,0.6-0.2,0.9-0.3c1.3-0.3,2.4-0.3,2.5,0.1c0.1,0.4-0.8,1-2.1,1.4
					C22.2,431.3,21.7,431.4,21.3,431.4z"/>
				<path class="st11" d="M21.5,426.9c0-0.8,0-1.6,0-2.5c0.4,0,0.7,0.1,1.1,0.1c2,0.4,3.6,1.2,3.5,1.9c-0.1,0.7-1.9,0.9-3.9,0.6
					C21.9,427,21.7,427,21.5,426.9z"/>
				<path class="st11" d="M22.2,424.5c-0.2,0-0.5,0-0.7,0c0-1.4,0-2.8,0-4.1c0.1-0.1,0.2-0.1,0.3-0.2c1-0.7,2.1-1,2.3-0.6
					c0.2,0.3-0.2,0.9-0.9,1.4c2.6,0.2,4.5,1,4.5,1.9C27.7,423.8,25.2,424.6,22.2,424.5z"/>
				<path class="st11" d="M21.5,417.6c0-2,0-3.9-0.1-5.9c0.3,0.2,0.7,0.3,1.1,0.6c0.1,0.1,0.3,0.2,0.4,0.2c1-0.6,1.8-0.9,2.2-0.5
					c0.4,0.3,0.2,1.2-0.4,2.2c0.1,0.3,0.2,0.5,0.1,0.7c-0.1,0.2-0.3,0.2-0.7,0.2c-0.3,0.4-0.6,0.7-0.9,1.1
					C22.6,416.7,22,417.2,21.5,417.6z"/>
				<path class="st11" d="M21.3,406.4C21.3,406.4,21.3,406.4,21.3,406.4c0-0.5,0-1-0.1-1.5c0.3,0.1,0.5,0.3,0.8,0.6
					c0.7,0.6,1.1,1.4,0.9,1.6C22.8,407.4,22,407.1,21.3,406.4z"/>
				<path class="st11" d="M21.5,402.2c1-0.2,1.8-0.1,1.9,0.2c0.1,0.3-0.7,0.8-1.7,1c-0.2,0-0.4,0.1-0.5,0.1c0-1.2-0.1-2.5-0.1-3.7
					c1.1-1.1,2.2-1.6,2.6-1.2c0.4,0.4-0.2,1.7-1.4,3C22,401.8,21.8,402,21.5,402.2z"/>
				<path class="st11" d="M20.9,393.6C20.9,393.6,20.8,393.5,20.9,393.6c-0.1-0.6-0.1-1.1-0.1-1.6c0.3,0.1,0.6,0.3,0.9,0.5
					c0.9,0.6,1.5,1.3,1.3,1.7C22.7,394.4,21.8,394.2,20.9,393.6z"/>
				<path class="st11" d="M20.6,388.1c-0.1-2.3-0.2-4.6-0.3-6.9c0.3-0.1,0.5-0.1,0.8-0.1c2.6-0.4,4.9,0.1,5,0.9
					c0.1,0.8-1.6,1.7-3.9,2.1c1.5,0.5,2.6,1.2,2.5,1.8c-0.1,0.5-1.2,0.7-2.6,0.5c1.4,1.3,2.1,2.7,1.7,3.1
					C23.4,390,22,389.3,20.6,388.1z"/>
				<path class="st11" d="M23.5,377.5c-0.1,0.4-1.1,0.5-2.2,0.3c-0.4-0.1-0.8-0.2-1.2-0.4c0-0.4,0-0.7,0-1.1c0.4,0,0.8,0,1.4,0.1
					c-0.2-0.1-0.4-0.2-0.7-0.3c-0.2-0.1-0.5-0.3-0.7-0.4c0-1-0.1-2-0.1-3c0.7,0.2,1.4,0.5,2.2,0.9c2.1,1.1,3.5,2.6,3.1,3.3
					c-0.2,0.4-1,0.5-2.1,0.2C23.4,377.2,23.5,377.3,23.5,377.5z"/>
				<path class="st11" d="M21.7,368.2c-0.8,0.1-1.5,0.1-1.9-0.1c0-0.4,0-0.8-0.1-1.2c0.2-0.1,0.4-0.2,0.6-0.2
					c-0.2-0.1-0.4-0.2-0.6-0.3c-0.1-1.3-0.1-2.6-0.2-3.9c0.9,0.2,1.9,0.5,2.9,1c2.8,1.3,4.8,3.2,4.3,4.1c-0.3,0.7-1.8,0.7-3.7,0.2
					C22.7,368,22.2,368.2,21.7,368.2z"/>
				<path class="st11" d="M23.9,360.7c-0.2,0.4-1.4,0.3-2.6-0.3c-1.3-0.6-2.1-1.4-1.9-1.8c0.2-0.4,1.4-0.3,2.6,0.3
					C23.3,359.5,24.1,360.3,23.9,360.7z"/>
				<path class="st11" d="M21.5,353c-0.8-0.7-1.2-1.4-1-1.6c0.2-0.3,1,0.1,1.8,0.7c0.8,0.7,1.2,1.4,1,1.6
					C23,353.9,22.2,353.6,21.5,353z"/>
				<path class="st11" d="M18.8,347.9c0-0.9-0.1-1.8-0.1-2.7c0.5-0.5,1-1,1.7-1.5c-0.8,0.2-1.4,0.2-1.8,0c0-0.5,0-1-0.1-1.5
					c0.6-0.8,1.8-1.8,3.3-2.6c1.9-1,3.6-1.4,4.6-1.3c0,0.6,0.1,1.2,0.1,1.9c-0.3,0.4-0.7,0.7-1.2,1.1c0.5-0.1,0.9-0.1,1.3-0.1
					c0,0.7,0.1,1.4,0.1,2.1c-0.7,0.9-1.8,1.9-3.3,2.8C21.7,347.2,19.9,347.8,18.8,347.9z"/>
				<path class="st11" d="M22.6,337.5c-0.9-0.6-1.5-1.3-1.3-1.6c0.2-0.3,1.1-0.1,2,0.5c0.9,0.6,1.5,1.3,1.3,1.6
					C24.4,338.3,23.5,338.1,22.6,337.5z"/>
				<path class="st11" d="M20.3,326.2c0.9-0.1,2.2,0,3.7,0.5c0.7,0.2,1.4,0.5,2,0.8c0,0.8,0.1,1.7,0.1,2.5c-0.7,0-1.6-0.1-2.5-0.4
					c0.4,0.4,0.7,0.7,1.1,1.2c0.7,0.9,1.2,1.7,1.6,2.5c0,0.9,0.1,1.8,0.1,2.7c-0.8,0.3-2.7-0.9-4.4-3c-1.1-1.3-1.8-2.7-2.1-3.7
					C20,328.2,20.2,327.2,20.3,326.2z"/>
				<path class="st11" d="M20.7,322.5c0.8-0.2,2.1-0.1,3.4,0.1c0.6,0.1,1.2,0.3,1.7,0.5c0,0.9,0.1,1.7,0.1,2.6
					c-0.7,0-1.5-0.1-2.4-0.2c-1.2-0.2-2.3-0.6-3.1-1.1C20.6,323.8,20.6,323.2,20.7,322.5z"/>
				<path class="st11" d="M21.4,316c0.7-0.3,1.5-0.7,2.4-0.9c0.6-0.2,1.1-0.3,1.7-0.4c0,1.2,0.1,2.5,0.1,3.7
					c-0.3,0.1-0.5,0.2-0.8,0.3c-1.4,0.4-2.7,0.6-3.8,0.6C21.2,318.1,21.3,317.1,21.4,316z"/>
				<path class="st11" d="M21.9,309.9c0.5-0.6,1.3-1.2,2.2-1.8c0.4-0.2,0.7-0.4,1.1-0.6c0,1,0.1,2,0.1,3c-1.5,0.8-2.9,1.2-3.6,1
					C21.8,311,21.9,310.5,21.9,309.9z"/>
				<path class="st11" d="M23.2,299.4c0.3-0.3,1,0,1.8,0.5c0,0.9,0,1.8,0.1,2.7c-0.2-0.1-0.3-0.3-0.5-0.4
					C23.5,301.1,22.9,299.8,23.2,299.4z"/>
				<path class="st11" d="M25,296.1c0,0.5,0,1.1,0,1.6c-1.1-0.2-1.9-0.7-1.9-1.1C23.2,296.3,24,296.1,25,296.1z"/>
				<path class="st11" d="M25,295.6c-0.8-0.3-1.5-0.6-2-1c0-0.6,0.1-1.2,0.1-1.8c0.5-0.1,1.1,0,1.9,0.1
					C24.9,293.9,25,294.7,25,295.6z"/>
				<path class="st11" d="M24.9,291.1c-0.7,0.2-1.3,0.4-1.8,0.4c0.1-1.1,0.1-2.2,0.1-3.3c0.5-0.3,1-0.7,1.6-1
					C24.9,288.5,24.9,289.8,24.9,291.1z"/>
				<path class="st11" d="M24.8,279.8c-0.5,0.1-0.9,0.1-1.2,0.1c0-0.9,0-1.8,0.1-2.7c0.3-0.2,0.7-0.4,1.2-0.7
					C24.8,277.6,24.8,278.7,24.8,279.8z"/>
				<path class="st11" d="M24.9,268c-0.4-0.1-0.7-0.2-1-0.4c0-0.9,0-1.9,0-2.8c0.3-0.1,0.7-0.1,1.1-0.1
					C24.9,265.8,24.9,266.9,24.9,268z"/>
				<path class="st11" d="M25.1,255.2c0,1.2-0.1,2.3-0.1,3.5c-0.5-0.4-0.9-0.7-1.2-1.1c0-0.8,0-1.6,0-2.4
					C24.2,255.1,24.6,255.1,25.1,255.2z"/>
				<path class="st11" d="M25.2,252.2c0,0.6,0,1.2-0.1,1.8c-0.5-0.2-0.9-0.4-0.9-0.8C24.2,252.8,24.6,252.5,25.2,252.2z"/>
				<path class="st11" d="M25.8,238.8c0,0.9-0.1,1.7-0.1,2.6c-1.1-0.3-1.8-0.8-1.8-1.3C23.9,239.5,24.7,239.1,25.8,238.8z"/>
				<path class="st11" d="M26.3,230.8c-0.1,1-0.1,2-0.2,3c-1.5-0.3-2.4-0.9-2.4-1.5C23.7,231.6,24.7,231.1,26.3,230.8z"/>
				<path class="st11" d="M25.8,216.2c0-0.4,0.6-0.7,1.5-0.8c0,0.6-0.1,1.2-0.1,1.8C26.3,217,25.7,216.6,25.8,216.2z"/>
				<path class="st11" d="M23.4,210.8c0.1-0.4,0.5-0.7,1.2-1c0.4-0.7,1.6-1.7,3.1-2.5c-0.2,2.6-0.3,5.3-0.5,7.9
					c-1.2-0.3-2.1-0.8-2-1.3c0-0.4,0.6-0.8,1.6-1C24.7,212.5,23.3,211.6,23.4,210.8z"/>
				<path class="st11" d="M27.8,207.2c-1,0.3-1.8,0.2-2-0.2c-0.3-0.6,0.7-1.6,2.2-2.5C27.9,205.4,27.8,206.3,27.8,207.2z"/>
				<path class="st11" d="M28.4,197.9c-0.1,1.5-0.2,2.9-0.3,4.4c-0.6,0.2-1,0.2-1.2-0.1c-0.1-0.2,0-0.6,0.3-1c-0.3,0-0.5,0-0.7-0.2
					C26.1,200.6,26.9,199.2,28.4,197.9z"/>
				<path class="st11" d="M28.6,194.4c-2.7-0.9-4.6-2.4-4.3-3.3c0.3-0.8,2.2-0.9,4.5-0.3C28.7,192,28.7,193.2,28.6,194.4z"/>
				<path class="st11" d="M29.1,184.3C29.1,184.3,29.2,184.3,29.1,184.3c0,1.1-0.1,2.2-0.1,3.3c-2.5,0.1-4.6-0.4-4.6-1.3
					C24.3,185.4,26.4,184.5,29.1,184.3z"/>
				<path class="st11" d="M29.4,180c-0.2-0.1-0.5-0.1-0.7-0.2c-2.5-0.7-4.4-2-4.1-2.8c0.2-0.8,2.5-0.9,5-0.2
					C29.5,177.9,29.5,179,29.4,180z"/>
				<path class="st11" d="M29.3,172.2c0.2,0,0.3,0.1,0.5,0.1c0,0.5,0,1.1-0.1,1.6c-0.3,0-0.5-0.1-0.8-0.2c-1.3-0.4-2.3-1-2.1-1.4
					C26.9,171.9,28,171.8,29.3,172.2z"/>
				<path class="st11" d="M28.5,164.9c0.6-0.2,1.1-0.3,1.6-0.4c0,1.3-0.1,2.5-0.2,3.8c-0.1,0-0.3,0.1-0.4,0.1
					c-2.9,0.9-5.5,0.8-5.8-0.1C23.5,167.3,25.6,165.8,28.5,164.9z"/>
				<path class="st11" d="M30.3,159.9c0,1.1-0.1,2.3-0.1,3.4c-0.1,0.1-0.2,0.2-0.4,0.2c-2.1,1.3-4.3,1.8-4.7,1.1
					c-0.4-0.7,0.9-2.4,3.1-3.7C28.9,160.5,29.6,160.2,30.3,159.9z"/>
				<path class="st11" d="M26,153.2c0.5-0.6,1.1-1.3,1.9-1.9c0.2-0.2,0.4-0.3,0.6-0.5c-1.9-0.3-3.5-0.9-4.4-1.5
					c0-0.6,0.1-1.2,0.1-1.9c1-0.4,2.9-0.6,4.9-0.3c0.5,0.1,1.1,0.2,1.6,0.3c0,1.9-0.1,3.7-0.2,5.6c-0.2,0.2-0.4,0.4-0.6,0.6
					c-0.1,0.1-0.2,0.2-0.3,0.3c0.3,0.1,0.6,0.2,0.9,0.4c0,1-0.1,2-0.1,3c-0.6-0.1-1.3-0.3-2-0.5c-0.9-0.3-1.6-0.7-2.3-1.1
					c-0.4,0-0.6,0-0.8-0.2c-0.1-0.1-0.1-0.3-0.1-0.5c-0.5-0.4-0.7-0.9-0.6-1.2C24.8,153.4,25.3,153.2,26,153.2z"/>
				<path class="st11" d="M30.6,142.3c0.2,0.3-0.5,1-1.5,1.5c-1,0.5-1.9,0.6-2.1,0.3c-0.2-0.3,0.5-1,1.5-1.5
					C29.5,142.1,30.4,142,30.6,142.3z"/>
				<path class="st11" d="M30.9,133.9c0,1,0,2,0,3c-0.6,0.1-1.3,0.3-2,0.3c-1.8,0.2-3.3,0-4.2-0.4c0-0.6,0.1-1.3,0.1-1.9
					c0.9-0.5,2.3-0.9,3.9-1C29.4,133.8,30.2,133.8,30.9,133.9z"/>
				<path class="st11" d="M30.7,129.5c0.2,0.4-0.6,1.1-1.7,1.5c-1.1,0.5-2.1,0.6-2.3,0.2c-0.2-0.4,0.6-1.1,1.7-1.5
					C29.5,129.3,30.6,129.2,30.7,129.5z"/>
				<path class="st11" d="M31,122.8c0,0.5,0,1.1,0,1.6c-0.7,0-1.7-0.3-2.8-0.9c-1.6-0.9-2.7-2-2.4-2.6c0.3-0.5,1.8-0.3,3.5,0.6
					C30,121.9,30.6,122.4,31,122.8z"/>
				<path class="st11" d="M30.9,109.1c0,1.2,0,2.3,0.1,3.5c-0.6,0.1-1.3,0.3-2,0.3c-0.3,0-0.6,0-0.8,0.1c0.4,0.2,0.8,0.4,1.3,0.7
					c0.6,0.4,1.2,0.8,1.6,1.2c0,0.6,0,1.3,0,1.9c-0.7-0.1-1.8-0.5-2.9-1.1c-1.6-1-2.6-2.2-2.5-2.8c-0.1,0-0.1,0-0.2,0
					c0-0.4,0-0.8,0-1.2c0-0.6,0-1.3,0-1.9c0.9-0.3,1.9-0.5,3-0.6C29.4,109,30.1,109,30.9,109.1z"/>
				<path class="st11" d="M28.8,106.8c0.9,0,1.7,0.3,2.1,0.5c0,0.2,0,0.4,0,0.6c-0.3,0.3-1.2,0.4-2.1,0.4c-1.3-0.1-2.3-0.4-2.2-0.8
					C26.5,107,27.5,106.7,28.8,106.8z"/>
				<path class="st11" d="M30.6,99.8c0,0.3,0,0.6,0,1c-0.4,0.3-1,0.6-1.7,0.7c-1.3,0.3-2.4,0.2-2.5-0.2c-0.1-0.4,0.8-1,2.1-1.4
					C29.4,99.7,30.1,99.7,30.6,99.8z"/>
				<path class="st11" d="M29.9,83.4c0.1,1,0.1,2.1,0.2,3.1c0.1,1.3,0.1,2.6,0.2,3.9c-0.3,0.1-0.6,0.2-0.9,0.4
					c-0.5,0.2-1,0.3-1.5,0.5c0.4,0.1,0.9,0.2,1.3,0.4c0.4,0.1,0.7,0.3,1.1,0.5c0,0.9,0.1,1.9,0.1,2.8c-0.7-0.1-1.4-0.3-2.2-0.6
					c-1.1-0.4-2-0.9-2.6-1.4c0-0.7,0-1.5,0-2.2c0-1.4,0-2.9-0.1-4.3c0.6-0.6,1.3-1.3,2.3-1.9C28.5,84,29.2,83.6,29.9,83.4z"/>
				<path class="st11" d="M28.3,81.2c-0.9-0.7-1.4-1.6-1.1-1.9c0.2-0.3,1.2,0.1,2,0.8c0.2,0.2,0.4,0.3,0.5,0.5c0,0.5,0.1,1,0.1,1.4
					C29.4,81.9,28.8,81.6,28.3,81.2z"/>
				<path class="st11" d="M27.7,71.9c0.5-0.3,0.9-0.6,1.4-0.8c0.1,1.4,0.2,2.7,0.3,4.1c-0.5,0.4-1.1,0.7-1.6,0.9
					c0.5,0.2,1.1,0.5,1.7,0.9c0,0,0,0,0,0c0.1,1,0.1,2,0.2,3c-0.5-0.2-1.1-0.5-1.6-0.9c-1.2-0.8-2.1-1.6-2.4-2.3c-0.1,0-0.1,0-0.1,0
					c0-1,0-2,0-3C26.1,73.1,26.8,72.5,27.7,71.9z"/>
				<path class="st11" d="M29,70.4c-0.3-0.1-0.6-0.2-0.9-0.4c-0.9-0.4-1.8-0.9-2.4-1.4c0-0.8,0.1-1.6,0.1-2.4c0.8,0,1.8,0.3,2.9,0.7
					C28.9,68.1,28.9,69.3,29,70.4z"/>
				<path class="st11" d="M28.3,60.1c0.1,1,0.1,2,0.2,3c-0.9,0.7-1.8,1.1-2.1,0.8c-0.5-0.4,0.2-1.9,1.5-3.4
					C28,60.4,28.2,60.3,28.3,60.1z"/>
				<path class="st11" d="M28.2,59.1c-0.8,0.3-1.5,0.4-1.8,0.2c0-0.3,0.1-0.6,0.1-0.9c0.3-0.4,0.9-0.9,1.6-1.2
					C28.1,57.8,28.2,58.5,28.2,59.1z"/>
				<path class="st11" d="M27.1,51.4c0-0.4,0.1-0.8,0.1-1.1c0.1,0,0.3,0,0.4,0c0,0.5,0.1,1,0.1,1.5C27.5,51.6,27.3,51.5,27.1,51.4z"
					/>
			</g>
		</g>
		<linearGradient id="SVGID_2_" gradientUnits="userSpaceOnUse" x1="0" y1="503.8437" x2="56.6929" y2="503.8437">
			<stop  offset="0" style="stop-color:#8C4527"/>
			<stop  offset="0.4303" style="stop-color:#F1B78E"/>
			<stop  offset="1" style="stop-color:#9F593D"/>
		</linearGradient>
		<path class="st12" d="M56.7,502.4c0,2.2-12.7,4-28.3,4S0,504.6,0,502.4s12.7-0.1,28.3-0.1S56.7,500.2,56.7,502.4z"/>
		<linearGradient id="SVGID_3_" gradientUnits="userSpaceOnUse" x1="5.0302" y1="488.5488" x2="51.6627" y2="488.5488">
			<stop  offset="0" style="stop-color:#8C4527"/>
			<stop  offset="0.4303" style="stop-color:#F1B78E"/>
			<stop  offset="1" style="stop-color:#9F593D"/>
		</linearGradient>
		<path class="st13" d="M51.7,487.3c0,1.8-10.4,3.3-23.3,3.3S5,489.1,5,487.3c0-1.8,10.4-0.1,23.3-0.1S51.7,485.5,51.7,487.3z"/>
	</g>
	<g>
		<linearGradient id="SVGID_4_" gradientUnits="userSpaceOnUse" x1="27.8083" y1="623.6057" x2="27.8099" y2="623.6057">
			<stop  offset="0" style="stop-color:#612E1A"/>
			<stop  offset="0.4303" style="stop-color:#C99B7A"/>
			<stop  offset="1" style="stop-color:#75412C"/>
		</linearGradient>
		<path class="st14" d="M27.8,623.6C27.8,623.6,27.8,623.6,27.8,623.6L27.8,623.6z"/>
		<linearGradient id="SVGID_5_" gradientUnits="userSpaceOnUse" x1="6.0455" y1="656.1251" x2="49.3606" y2="656.1251">
			<stop  offset="0" style="stop-color:#612E1A"/>
			<stop  offset="0.4303" style="stop-color:#C99B7A"/>
			<stop  offset="1" style="stop-color:#75412C"/>
		</linearGradient>
		<path class="st15" d="M49.3,680.4c-0.1-1.5-0.5-3-0.9-4.5c-0.5-1.5-1.1-2.9-2-4.2c-0.4-0.5-0.8-1.1-1.3-1.5c0.3,0,0.7-0.1,1-0.3
			c0.4-0.2,0.8-0.5,1.1-0.8c0.3-0.3,0.5-0.7,0.7-1.1c0.3-0.8,0.5-1.5,0.6-2.3c0.1-0.8,0.2-1.5,0.2-2.3c0,0,0-0.1,0-0.1
			c0,0-0.1,0-0.1,0c-0.5,0.6-0.9,1.3-1.3,1.9c-0.3,0.7-0.6,1.3-0.9,1.9c-0.3,0.6-0.6,1.1-0.9,1.6c-0.2,0.3-0.6,0.5-1,0.6
			c-0.3-0.3-0.7-0.5-1-0.7c0-0.1,0-0.1,0-0.2c-0.1-0.2-0.1-0.4-0.2-0.7c0-0.2-0.1-0.5-0.2-0.7l0.1,0.2c0.1-0.8,0.2-1.7,0.4-2.5
			c0.2-0.8,0.4-1.6,0.7-2.4l0.7-2.5c0.2-0.8,0.5-1.7,0.7-2.6l-0.1,0.1c0,0,0.1-0.1,0.1-0.2c0-0.1,0.1-0.1,0.1-0.2
			c0.1-0.1,0.1-0.2,0.2-0.2l0,0c0,0,0,0,0-0.1c0-0.1,0-0.1-0.1-0.1c-0.2,0-0.3,0-0.5,0.1c-0.1,0-0.1,0.1-0.2,0.1
			c-0.1,0-0.1,0.1-0.2,0.1l-0.1,0.1c-0.6,0.7-1.1,1.4-1.6,2.2c-0.5,0.8-0.9,1.6-1.2,2.5c-0.3,0.9-0.4,1.8-0.5,2.8
			c-0.1,0.9,0,1.9,0.3,2.8l0.1,0.2c0.1,0.2,0.2,0.3,0.3,0.5c-0.1,0-0.1,0-0.2-0.1c-0.6-0.9-1.1-1.7-1.5-2.6
			c-0.2-0.5-0.4-1.1-0.6-1.6l-0.5-1.7c-0.2-0.6-0.3-1.2-0.4-1.8c-0.1-0.6,0-1.2,0.1-1.8c0.2-1.2,0.8-2.3,1.5-3.3l-0.1,0.1
			c0.7-0.8,1.3-1.7,2-2.6c0.6-0.9,1.2-1.7,1.8-2.6c0.6-0.9,1.1-1.8,1.7-2.6c0.6-0.9,1.2-1.7,1.8-2.6c0,0,0-0.1,0-0.1
			c0-0.1-0.1-0.1-0.1-0.1c-1,0.4-2,1.1-2.8,1.8c-0.8,0.7-1.6,1.6-2.3,2.4c-0.7,0.9-1.2,1.8-1.8,2.7c-0.5,0.9-1.1,1.9-1.5,2.8
			l-0.1,0.1c-0.4,1.3-0.6,2.6-0.8,3.8l-0.3,1.9c-0.1,0.6-0.2,1.3-0.2,2c0,0.7,0.1,1.4,0.2,2c0.2,0.7,0.5,1.3,0.8,1.9
			c0.3,0.5,0.7,1,1.2,1.4c-0.7-0.1-1.4-0.1-2.1,0c-1.5,0.2-3,0.6-4.4,1.1c-1.4,0.6-2.8,1.3-3.9,2.4c-0.5,0.6-1,1.2-1.3,1.9
			c-0.3,0.7-0.5,1.5-0.4,2.3c0,0.2,0,0.4,0.1,0.6c-0.1-0.1-0.2-0.2-0.3-0.3c-0.2-0.2-0.5-0.3-0.8-0.5c-0.6-0.2-1.1-0.4-1.8-0.4
			c-0.3,0-0.6,0-1,0c-0.1,0-0.3,0.1-0.5,0.1c-0.2,0-0.3,0.1-0.5,0.1c-0.6,0.2-1.2,0.6-1.6,1.1c-0.9,0.9-1.5,2.1-1.8,3.2
			c-0.2,0.6-0.3,1.2-0.3,1.8l0,0.2l0,0.2c0,0.1,0,0.3,0,0.5c0,0.3,0,0.6,0.1,0.9c0.2,1.2,0.6,2.4,1.2,3.4c0.6,1,1.5,1.9,2.5,2.5
			c1,0.6,2.1,1.1,3.2,1.4c1.1,0.3,2.3,0.4,3.6,0.1c0.6-0.2,1.2-0.5,1.7-1c0.5-0.5,0.8-1.1,1-1.8c0.2-0.6,0.2-1.3,0.2-1.9
			c0-0.7-0.2-1.3-0.5-1.9c-0.3-0.6-0.8-1.2-1.3-1.6c-0.5-0.4-1.1-0.8-1.8-1c-0.6-0.2-1.3-0.3-2-0.3c-0.7,0-1.4,0.1-2,0.4
			c-0.7,0.3-1.4,0.8-1.8,1.6c-0.2,0.4-0.3,0.8-0.3,1.2c0,0.4,0.1,0.8,0.2,1.1c0.1,0.2,0.1,0.3,0.2,0.5l0,0.1l0,0l0,0.1
			c0,0.1,0.1,0.1,0.1,0.2c0.1,0.1,0.1,0.2,0.2,0.3c0.2,0.3,0.5,0.5,0.8,0.8c0.6,0.4,1.2,0.7,1.8,0.8c0.6,0.2,1.3,0.2,2.1,0
			c0.4-0.1,0.7-0.3,1-0.7c0.1-0.2,0.2-0.3,0.3-0.5c0.1-0.2,0.1-0.3,0.1-0.6c0-0.4-0.1-0.8-0.3-1.1c-0.2-0.3-0.4-0.5-0.7-0.7
			c-0.3-0.2-0.6-0.3-1-0.3c-0.2,0-0.4,0.1-0.5,0.3c-0.1,0.1-0.2,0.3-0.3,0.4l0,0c0,0,0,0,0,0c0,0.1,0,0.2,0.1,0.2c0.1,0,0.2,0,0.3,0
			c0.1,0,0.2,0,0.2,0l0,0c0,0,0.1,0,0.1-0.1c0,0,0-0.1,0-0.1c-0.1,0-0.2-0.1-0.2-0.1c0.3-0.2,0.6,0,0.8,0.2c0.3,0.3,0.5,0.8,0.4,1.1
			c0,0.1-0.1,0.2-0.1,0.2c0,0.1-0.1,0.1-0.2,0.2c-0.1,0.1-0.3,0.2-0.4,0.2c-0.4,0-0.8,0-1.2-0.2c-0.4-0.2-0.8-0.4-1.2-0.7
			c-0.2-0.1-0.3-0.3-0.4-0.4c0,0,0-0.1-0.1-0.1c0,0,0,0,0,0l0,0l0,0c0,0,0,0,0,0l0,0c0-0.1-0.1-0.2-0.1-0.3c-0.1-0.4,0-0.7,0.1-0.9
			c0.1-0.2,0.4-0.4,0.8-0.6c0.7-0.3,1.7-0.3,2.6-0.1c0.9,0.3,1.6,0.8,2.1,1.5c0.2,0.4,0.4,0.8,0.4,1.3c0,0.2,0.1,0.5,0,0.7l0,0.2
			l0,0.2c0,0.1,0,0.2,0,0.4c-0.1,0.5-0.2,0.9-0.5,1.3c-0.2,0.4-0.6,0.7-1.1,0.9c-0.9,0.4-2,0.4-3.1,0.3c-1.1-0.2-2.1-0.6-3-1.3
			c-0.9-0.6-1.5-1.5-1.9-2.5c-0.4-1-0.5-2-0.6-3c0-0.3,0-0.5,0-0.8l0-0.4l0-0.2l0-0.2c0-0.5,0.1-1,0.2-1.5c0.2-1,0.7-1.9,1.3-2.6
			c0.3-0.4,0.7-0.7,1.1-0.9c0.1-0.1,0.2-0.1,0.3-0.2c0.1,0,0.2-0.1,0.3-0.1c0.2-0.1,0.4-0.1,0.7-0.1c0.5,0,1,0,1.6,0.1
			c0.3,0,0.5,0.1,0.7,0.2c0.2,0.1,0.4,0.2,0.5,0.5c0,0,0.1,0.1,0.1,0.1c0,0,0,0,0,0c0.1,0.4,0.3,0.7,0.5,1.1c0.2,0.3,0.6,0.6,1,0.7
			c0.4,0.1,0.9,0.1,1.2-0.1c0.4-0.2,0.7-0.4,1-0.7c0.3-0.3,0.4-0.7,0.4-1.1c0-0.4-0.2-0.8-0.6-1.1c-0.2-0.1-0.5-0.1-0.7,0
			c-0.2,0.1-0.3,0.3-0.3,0.5l0,0c0,0,0,0.1,0.1,0.1c0,0,0.1,0,0.1-0.1c0.1-0.2,0.2-0.3,0.3-0.4c0.1-0.1,0.3-0.1,0.4,0
			c0.3,0.2,0.4,0.5,0.4,0.8c0,0.3-0.1,0.6-0.4,0.9c-0.2,0.2-0.5,0.4-0.8,0.5c-0.3,0.1-0.6,0.1-0.9,0c-0.3-0.1-0.5-0.3-0.7-0.6
			c-0.4-0.5-0.5-1.2-0.5-1.9c0-0.7,0.2-1.4,0.5-2c0.3-0.6,0.7-1.2,1.2-1.6c1-0.9,2.3-1.6,3.7-2.1c1.3-0.5,2.8-0.8,4.2-0.9
			c1.4-0.1,2.7,0.1,3.9,0.8c1.2,0.6,2.2,1.7,2.9,2.8c0.8,1.2,1.3,2.5,1.7,3.8c0.8,2.7,1.1,5.6,0.5,8.3c-0.6,2.7-1.9,5.3-3.7,7.5
			c-0.1,0.1-0.2,0.2-0.2,0.3c0,0,0,0,0,0c0-0.2,0-0.4,0-0.6c0-0.4-0.1-0.7-0.1-1.1c-0.1-0.7-0.3-1.4-0.5-2.1c-0.4-1.4-0.9-2.8-1.7-4
			c-0.4-0.6-0.9-1.2-1.5-1.7c-0.6-0.5-1.3-0.8-2.1-0.9l0,0c-0.1,0-0.3,0.1-0.3,0.2c-0.3,0.8-0.3,1.6-0.4,2.4
			c-0.1,0.8-0.1,1.6-0.3,2.3c-0.4,1.5-0.9,3.1-1,4.7c-0.1,0.8,0,1.7,0.1,2.5l0.1,0.3l0.1,0.3c0.1,0.2,0.1,0.4,0.2,0.7
			c0.2,0.4,0.4,0.9,0.9,1.3c0.2,0.2,0.5,0.3,0.8,0.4c0.3,0.1,0.6,0.1,0.8,0c0.2,0,0.3-0.1,0.5-0.1c-0.4,0.3-0.8,0.5-1.3,0.8
			c-2.5,1.3-5.3,2.1-8.1,2.2c-2.8,0.1-5.7-0.4-8.2-1.7c-1.3-0.6-2.4-1.5-3.4-2.5c-1-1-1.9-2.2-2.6-3.4c-0.1-0.2-0.3-0.4-0.4-0.7
			c0-0.1,0-0.2-0.1-0.2c-0.1-0.3-0.3-0.5-0.4-0.7c0,0,0,0,0,0c-1-2-1.6-4.2-1.9-6.5c-0.3-2.9-0.1-5.8,0.7-8.6c0.7-2.8,1.9-5.5,3.5-8
			c1.6-2.5,3.4-4.8,5.4-6.9c4-4.3,8.5-8.1,12.8-12.2c2.1-2,4.2-4.2,5.9-6.7c0.9-1.2,1.6-2.5,2.3-3.9c0.6-1.4,1.1-2.8,1.5-4.3
			c0.2-0.7,0.3-1.5,0.4-2.3l0-0.4c0,0,0.1,0,0.1,0c0.5-0.1,1.1,0,1.7-0.3c0.3-0.1,0.5-0.3,0.7-0.5c0.2-0.2,0.3-0.4,0.5-0.7
			c0.2-0.5,0.4-1,0.3-1.6c0,0,0,0,0,0c0-0.1-0.1-0.1-0.2-0.1c-0.6,0.2-1,0.5-1.3,0.8c-0.2,0.1-0.3,0.3-0.5,0.4
			c-0.2,0.1-0.3,0.3-0.4,0.4c-0.2,0.3-0.5,0.7-0.8,0.9l0,0c0-0.3,0-0.5,0.1-0.8c0-0.1,0.1-0.1,0.1-0.2c0.1-0.2,0.2-0.4,0.3-0.6
			c0.2-0.4,0.4-0.8,0.5-1.2c0.1-0.4,0.2-0.8,0.4-1.2c0.1-0.4,0.2-0.8,0.6-1.1l0,0c0,0,0,0,0,0c0-0.1,0-0.1-0.1-0.2
			c-0.3-0.1-0.6-0.1-0.9,0c-0.3,0.1-0.6,0.2-0.8,0.4c0,0-0.1,0.1-0.1,0.1c0-0.2-0.1-0.3-0.1-0.5c0-0.4,0.2-0.8,0.5-1.2
			c0.1-0.2,0.3-0.3,0.4-0.5c0.1-0.2,0.2-0.3,0.3-0.5c0.2-0.3,0.4-0.6,0.6-0.9c0.3-0.7,0.5-1.3,0.8-2.3c0,0,0,0,0,0
			c0-0.1-0.1-0.1-0.1-0.1c-1.1,0-1.9,0.6-2.5,1.4c-0.3,0.4-0.4,0.9-0.5,1.3c0,0.2-0.1,0.5-0.1,0.7c0,0.2,0,0.4,0.1,0.7
			c-0.4-1.2-0.9-2.3-1.6-3.3c-0.8-1.3-1.8-2.5-2.9-3.6c-1.1-1.1-2.2-2.1-3.5-3c-1.3-0.9-2.6-1.7-4.1-2.2c-1.5-0.5-3.1-0.9-4.7-0.8
			c-0.8,0-1.6,0.2-2.4,0.4c-0.4,0.1-0.8,0.3-1.2,0.4c-0.4,0.2-0.8,0.5-1.1,0.7c-0.7,0.6-1.2,1.2-1.6,1.9c-0.4,0.7-0.8,1.4-1.1,2.2
			c-0.6,1.5-0.9,3-1.2,4.5c-0.1,0.8-0.2,1.5-0.2,2.3c0,0.4,0,0.8,0,1.2c0,0.2,0,0.4,0,0.6l0,0.3l0,0.3c0.2,1.6,0.8,3.2,1.7,4.6
			c0.9,1.4,2.1,2.5,3.4,3.4c1.4,0.9,3,1.4,4.7,1.5c1.7,0.1,3.4-0.5,4.7-1.3c0.2-0.2,0.5-0.3,0.7-0.5c-0.2,0.4-0.5,0.8-0.8,1.1
			c-0.5,0.6-1,1.2-1.6,1.7c-0.7,0.5-1.4,1.1-2,1.8c-0.5,0.4-1,0.8-1.5,1.1c-0.9,0.3-1.8,0.5-2.8,0.6c-1.2,0.2-2.4,0.2-3.5,0.1l0,0
			l-0.1,0c-1.1,0-2.2-0.4-3.2-0.9c-1-0.5-2-1.3-2.8-2.1c-0.9-0.9-1.7-1.8-2.5-2.8c-0.8-1-1.6-2-2.5-3c0,0-0.1,0-0.1,0
			c-0.1,0-0.1,0.1-0.1,0.1c0.5,1.2,1,2.4,1.7,3.6c0.6,1.2,1.3,2.3,2.2,3.3c0.9,1,1.9,2,3.2,2.7c0.2,0.1,0.4,0.2,0.5,0.3
			c-0.2,0-0.4,0.1-0.6,0.1c-0.3,0.1-0.7,0.3-1,0.4c-0.6,0.3-1.2,0.6-1.7,1c-0.6,0.3-1.1,0.7-1.6,1.1c-1.1,0.8-2,1.8-2.8,3
			c-0.8,1.2-1.2,2.5-1.5,3.9c-0.3,1.3-0.3,2.7-0.2,4c0.1,0.7,0.1,1.3,0.2,2l0.1,0.5c0,0.1,0,0.3,0.1,0.5c0.1,0.3,0.1,0.7,0.3,1.1
			c0.1,0.2,0.4,0.3,0.6,0.4c0.1,0,0.2,0,0.3,0c0.1,0,0.2,0,0.3,0c0.4,0,0.7-0.1,1-0.2c0.7-0.2,1.3-0.5,1.9-0.7
			c0.6-0.3,1.2-0.6,1.7-0.9c0.6-0.3,1.1-0.7,1.7-1.2c1-0.9,2-1.9,2.7-3c0.7-1.1,1.3-2.4,1.8-3.6c0.4-1.3,0.8-2.5,1-3.9
			c0.1-0.7,0.2-1.4,0.1-2.2c0-0.4-0.1-0.8-0.2-1.1c0,0,0-0.1,0-0.1c0.1,0,0.1,0,0.2,0c0.5,0,1,0,1.5-0.1c0.5-0.1,1-0.2,1.4-0.4
			c0.1-0.1,0.3-0.1,0.4-0.2c0,0,0,0,0,0c1.3-0.3,2.5-0.9,3.6-1.5c0.8-0.5,1.6-1,2.4-1.5c0.4-0.2,0.7-0.3,1-0.5
			c0.7-0.4,1.4-0.9,1.9-1.6l0.2-0.2l0.4-0.4c0.1-0.1,0.2-0.2,0.3-0.4c0.9-1,1.6-2.2,2.1-3.4c0.5-1.2,0.7-2.5,0.9-3.8
			c0.2-1.4,0-2.8-0.5-4c-0.3-0.6-0.6-1.2-1.1-1.8c-0.1-0.1-0.2-0.2-0.3-0.3c-0.2-0.3-0.4-0.7-0.7-1c-0.5-0.6-1.1-1.2-1.7-1.7
			c-0.6-0.5-1.3-0.9-2-1.3c-1.4-0.7-3.1-1.1-4.8-0.8c-0.8,0.1-1.6,0.5-2.3,0.9c-0.2,0.1-0.3,0.2-0.5,0.4c-0.1,0.1-0.1,0.1-0.2,0.2
			c-0.1,0.1-0.1,0.1-0.2,0.2c-0.3,0.3-0.5,0.6-0.8,1c-0.9,1.4-1.4,2.9-1.4,4.5c0,0.8,0.1,1.6,0.5,2.4c0.3,0.8,0.9,1.5,1.6,1.9
			c1.4,0.9,3.2,1,4.7,0.5c0.8-0.3,1.5-0.7,2-1.3c0.6-0.6,1-1.4,1-2.3c0-0.4,0-0.8-0.2-1.2c-0.1-0.2-0.1-0.4-0.2-0.6
			c-0.1-0.2-0.2-0.4-0.3-0.5c-0.5-0.7-1.3-1-2-1.3c-0.4-0.1-0.8-0.2-1.2-0.2c-0.4,0-0.8,0.1-1.2,0.4c-0.3,0.3-0.5,0.7-0.6,1.1
			c0,0.2,0,0.4,0,0.6c0,0.2,0.1,0.4,0.2,0.6c0.2,0.4,0.4,0.7,0.8,0.9c0.2,0.1,0.4,0.1,0.6,0.1c0.2,0,0.4-0.1,0.6-0.2
			c0.2-0.1,0.3-0.3,0.4-0.5c0.1-0.2,0-0.5-0.1-0.6c-0.1-0.2-0.3-0.3-0.4-0.4c-0.1-0.1-0.2-0.1-0.3-0.2c0,0-0.1,0-0.1-0.1
			c0,0-0.1,0-0.1,0c0,0-0.1,0-0.2,0.1c0,0,0,0.1,0,0.1c0,0,0.1,0,0.1,0c0,0,0,0,0,0c0,0,0,0,0,0c0,0,0,0,0,0c0,0,0.1,0,0.1,0.1
			c0.1,0,0.1,0.1,0.2,0.1c0.1,0.1,0.3,0.2,0.3,0.4c0.1,0.1,0.1,0.3,0.1,0.4c0,0.1-0.2,0.2-0.3,0.3c-0.3,0.2-0.6,0.2-0.9,0
			c-0.3-0.2-0.5-0.4-0.6-0.7c-0.1-0.2-0.1-0.3-0.1-0.5c0-0.1,0-0.3,0-0.5c0.1-0.3,0.2-0.6,0.4-0.8c0.5-0.4,1.2-0.3,1.9-0.1
			c0.6,0.2,1.3,0.6,1.6,1.1c0.1,0.1,0.2,0.3,0.2,0.4c0.1,0.2,0.1,0.3,0.2,0.5c0.1,0.3,0.1,0.6,0.1,1c-0.1,0.6-0.4,1.2-0.8,1.7
			c-0.5,0.5-1.1,0.8-1.7,1c-0.6,0.2-1.3,0.3-2,0.2c-0.6-0.1-1.3-0.3-1.8-0.7c-1-0.7-1.5-2.1-1.5-3.4c0-1.3,0.5-2.7,1.3-3.7
			c0.2-0.3,0.4-0.5,0.6-0.7l0.2-0.2l0.2-0.1c0.1-0.1,0.3-0.2,0.4-0.3c0.5-0.3,1.1-0.6,1.8-0.7c1.3-0.2,2.6,0.1,3.8,0.8
			c1.2,0.6,2.3,1.5,3.1,2.5c0.8,1,1.3,2.3,1.3,3.6c0,1.3-0.3,2.6-1,3.7c-0.7,1.1-1.6,2.1-2.7,2.8c-1.1,0.7-2.4,1.1-3.7,1
			c-1.3,0-2.5-0.5-3.7-1.2c-1.1-0.7-2.1-1.7-2.8-2.8c-0.7-1.1-1.2-2.4-1.4-3.7l0-0.2l0-0.3l0-0.5c0-0.3,0-0.7,0-1
			c0-0.7,0.1-1.4,0.2-2.1c0.2-1.4,0.5-2.8,1-4.1c0.5-1.3,1.2-2.5,2.1-3.3c0.2-0.2,0.5-0.4,0.7-0.5c0.3-0.1,0.6-0.3,0.9-0.4
			c0.6-0.2,1.3-0.3,1.9-0.4c1.3-0.1,2.7,0.1,4,0.6c2.6,0.9,4.9,2.7,6.9,4.7c2,2,3.7,4.4,4.4,7c0.3,1.3,0.4,2.7,0.4,4.2
			c0,0.4,0,0.7-0.1,1.1l0,0.5l0,0.5c-0.1,0.7-0.2,1.4-0.3,2.1c-0.6,2.8-1.8,5.4-3.3,7.8c-1.6,2.4-3.5,4.6-5.6,6.7
			c-4.1,4.2-8.6,8.1-12.5,12.5c-2,2.2-3.8,4.5-5.4,7.1c-1.6,2.5-2.8,5.3-3.6,8.1c-0.8,2.9-1.1,5.9-0.8,8.9c0.1,1.6,0.4,3.1,0.9,4.6
			c0,0-0.1,0-0.1-0.1c-0.1-0.1-0.3-0.1-0.4-0.1c-0.3,0-0.7,0.1-1,0c-0.3-0.1-0.5-0.3-0.7-0.6c-0.1-0.1-0.2-0.3-0.3-0.4
			c-0.1-0.1-0.2-0.2-0.4-0.3c-0.3-0.2-0.5-0.4-0.8-0.5c-0.6-0.2-1.3-0.2-2.1,0.2c-0.1,0-0.1,0.1-0.1,0.2c0.4,0.8,0.8,1.2,1.3,1.5
			c0.3,0.1,0.6,0.2,0.9,0.2c0.2,0,0.3,0.1,0.5,0.1c0.2,0,0.3,0,0.5,0c0.4,0,0.7,0,0.9,0.2c0.1,0.1,0.2,0.2,0.3,0.3
			c-0.2,0-0.4,0.1-0.6,0.1c-0.8,0.2-1.6,0.5-2.2,0.9c-0.7,0.4-1.3,0.8-2,1.3l0,0c0,0,0,0,0,0.1c0,0.1,0,0.1,0.1,0.1
			c0.8,0.2,1.6,0.1,2.4,0c0.8-0.1,1.5-0.2,2.2-0.3c0.7-0.1,1.3-0.2,1.8-0.1c0.3,0,0.5,0.1,0.7,0.2c0.2,0.1,0.4,0.2,0.4,0.3
			c0.1,0.2,0,0.5-0.3,0.8c-0.2,0.3-0.5,0.5-0.8,0.6c-0.7,0.3-1.5,0.2-2.1,0.2c-0.3,0-0.7,0-1,0l-1,0c-0.7,0-1.5,0-2.3,0.2
			c0,0,0,0-0.1,0c0,0,0,0.1,0,0.2c0.6,0.6,1.4,0.9,2.2,1.1c0.4,0.1,0.8,0.2,1.2,0.2c0.4,0,0.8,0,1.3-0.2c0.8-0.3,1.5-0.8,2.2-1.2
			c0.3-0.2,0.7-0.4,1-0.7c0.1-0.1,0.3-0.3,0.5-0.4c0.7,1.3,1.5,2.5,2.6,3.5c1.1,1.1,2.3,2.1,3.6,2.8c2.7,1.5,5.8,2.2,8.9,2.1
			c3.1-0.1,6.1-0.9,8.9-2.3c1.4-0.7,2.6-1.6,3.8-2.7c0.3-0.3,0.6-0.6,0.8-0.8c0.3-0.3,0.5-0.6,0.8-0.8c0.5-0.6,1-1.1,1.4-1.7
			c1.9-2.4,3.4-5.2,4-8.2C49.4,683.5,49.4,682,49.3,680.4z M20.4,644.7c-0.1,0.6-0.2,1.2-0.3,1.8c-0.1,0.6-0.3,1.2-0.5,1.8
			c-0.4,1.2-0.8,2.3-1.4,3.4c-0.6,1.1-1.2,2.1-2.1,3c-0.8,0.9-1.9,1.7-3,2.3c-0.5,0.3-1.1,0.6-1.7,0.8c-0.3,0.1-0.6,0.2-0.9,0.2
			c-0.1,0-0.1,0-0.2,0c-0.1,0-0.1,0-0.2,0c-0.1,0-0.2-0.1-0.2-0.1c-0.1-0.2-0.1-0.5-0.1-0.8c0-0.2,0-0.3,0-0.5c0-0.2,0-0.3,0-0.5
			c0-0.6,0-1.3,0-1.9c0.1-1.3,0.4-2.5,0.7-3.7c0.3-1.2,0.8-2.3,1.4-3.3c0.3-0.5,0.7-1,1.1-1.5c0.4-0.5,0.8-0.9,1.3-1.3
			c0.5-0.4,0.9-0.8,1.4-1.2c0.5-0.4,1-0.8,1.5-1.2c0.4-0.3,0.9-0.6,1.4-0.7c-0.4,0.4-0.8,0.8-1.2,1.2c-0.9,1-1.8,2-2.5,3.2
			c-1.4,2.3-2.4,4.9-2.5,7.5c0,0,0,0.1,0.1,0.1c0.1,0,0.1,0,0.1-0.1c0.7-2.5,1.9-4.7,3.5-6.7c0.4-0.5,0.8-1,1.2-1.4
			c0.4-0.5,0.9-0.9,1.3-1.3c0.5-0.4,0.9-0.8,1.4-1.2l0.3-0.2c0,0.2,0.1,0.4,0.1,0.6C20.5,643.5,20.4,644.1,20.4,644.7z M36.1,631.3
			c0-0.1,0-0.2,0-0.4c0.1-0.1,0.1-0.2,0.2-0.2c0,0.1,0,0.2-0.1,0.3C36.2,631.1,36.1,631.2,36.1,631.3z M38.1,696
			c-0.3,0-0.5-0.1-0.6-0.3c-0.1-0.1-0.2-0.4-0.3-0.7c0-0.2-0.1-0.3-0.1-0.5l0-0.3l0-0.3c-0.1-0.7-0.1-1.5-0.1-2.2
			c0-1.5,0.1-3.1,0.2-4.7c0.1-0.8,0-1.6,0.1-2.4c0-0.7,0.1-1.3,0.4-1.9c0.5,0.2,0.9,0.5,1.3,0.9c0.4,0.5,0.7,1.1,1,1.6
			c0.5,1.2,0.9,2.5,1.2,3.8c0.1,0.7,0.2,1.3,0.3,2c0,0.3,0.1,0.7,0.1,1c0,0.2,0,0.3,0,0.4c0,0.1,0,0.3,0,0.4c0,0.6-0.2,1.2-0.4,1.7
			c0,0.1-0.1,0.2-0.1,0.3c0-0.1-0.1-0.1-0.1-0.2c-0.3-0.5-0.6-1-0.8-1.4c-0.3-0.5-0.5-0.9-0.7-1.4c-0.2-0.5-0.3-1-0.2-1.5l0,0
			c0,0,0-0.1,0-0.1c0,0-0.1,0-0.1,0c-0.3,0.5-0.4,1.2-0.3,1.7c0.1,0.6,0.2,1.1,0.4,1.7l0.5,1.6c0.1,0.1,0.1,0.3,0.1,0.4
			c-0.1,0-0.3,0-0.4,0.1C38.8,695.9,38.5,696,38.1,696z"/>
		<linearGradient id="SVGID_6_" gradientUnits="userSpaceOnUse" x1="32.7279" y1="563.2066" x2="46.0076" y2="563.2066">
			<stop  offset="0" style="stop-color:#612E1A"/>
			<stop  offset="0.4303" style="stop-color:#C99B7A"/>
			<stop  offset="1" style="stop-color:#75412C"/>
		</linearGradient>
		<path class="st16" d="M36.2,557.5c0.1-0.1,0.2-0.3,0.3-0.3c0.2-0.2,0.4-0.4,0.7-0.6c0.5-0.3,1-0.6,1.5-0.7
			c0.6-0.1,1.1-0.2,1.7-0.1c0.6,0.1,1.1,0.3,1.6,0.6c0.5,0.3,1,0.7,1.4,1.2c0.4,0.5,0.8,1,1.1,1.6c0.6,1.2,1,2.5,1.3,3.8
			c0,0,0,0.1,0.1,0.1c0.1,0,0.1,0,0.1-0.1c0-1.4-0.1-2.8-0.6-4.2c-0.2-0.7-0.5-1.4-1-2c-0.4-0.6-0.9-1.2-1.6-1.7
			c-0.6-0.5-1.4-0.8-2.2-1c-0.8-0.2-1.6-0.2-2.4,0c-0.8,0.2-1.5,0.5-2.2,1c-0.3,0.2-0.6,0.5-0.9,0.8c-0.2,0.2-0.2,0.3-0.4,0.4
			c-0.1,0.2-0.2,0.3-0.3,0.5c-0.8,1.3-1.3,2.7-1.5,4.1c-0.1,0.7-0.2,1.4-0.2,2.1c0,0.7-0.1,1.4,0,2.1c0.1,1.4,0.3,2.8,0.9,4.1
			c0.3,0.7,0.7,1.3,1.3,1.8c0.6,0.5,1.3,0.9,2.1,1c0.8,0.2,1.6,0.1,2.4-0.1c0.8-0.2,1.4-0.7,2-1.2c1.2-1,1.9-2.4,2.4-3.9
			c0.1-0.4,0.2-0.7,0.2-1.1c0.1-0.4,0.1-0.7,0.2-1.1c0.1-0.7,0.1-1.5,0-2.3c-0.1-0.8-0.3-1.6-0.8-2.4c-0.1-0.2-0.3-0.4-0.5-0.6
			c-0.1-0.1-0.3-0.3-0.5-0.4c-0.4-0.3-0.9-0.5-1.5-0.5c-0.6,0-1.2,0.2-1.6,0.5c-0.4,0.3-0.7,0.6-1,0.9c-0.5,0.7-0.9,1.4-1.1,2.1
			c-0.3,0.7-0.5,1.4-0.5,2.3c0,0.4,0,0.8,0.1,1.2c0.1,0.4,0.2,0.8,0.4,1.2c0.1,0.2,0.3,0.4,0.5,0.6c0.2,0.2,0.5,0.3,0.8,0.3
			c0.3,0,0.6,0,0.8-0.1c0.2-0.1,0.4-0.2,0.6-0.3c0.1-0.1,0.2-0.2,0.3-0.2c0.1-0.1,0.2-0.2,0.2-0.3c0.1-0.2,0.2-0.4,0.3-0.5
			c0.2-0.4,0.3-0.8,0.3-1.2c0-0.4,0-0.8-0.1-1.2c-0.1-0.2-0.2-0.4-0.3-0.6c-0.1-0.1-0.2-0.2-0.2-0.2c-0.1-0.1-0.2-0.1-0.2-0.2
			c-0.1-0.1-0.2-0.1-0.3-0.1c-0.1,0-0.3,0-0.4,0c-0.2,0.1-0.3,0.2-0.3,0.3c-0.1,0.1-0.1,0.2-0.1,0.3c0,0.2,0,0.4,0.1,0.6
			c0,0.1,0.1,0.1,0.2,0.2c0.1,0.1,0.2,0,0.3,0c0.1-0.1,0.1-0.2,0.2-0.3c0,0,0-0.1,0-0.1c0,0-0.1,0-0.1,0l0,0c0,0.1-0.1,0.1-0.1,0.1
			c0,0,0,0,0,0c0-0.1,0-0.3,0-0.4c0-0.1,0.1-0.2,0.1-0.2c0,0,0.1,0,0.2,0.1c0.1,0,0.1,0.1,0.1,0.2c0,0.1,0.1,0.1,0.1,0.2
			c0.1,0.1,0.1,0.2,0.1,0.4c0,0.3,0,0.6-0.1,0.8c-0.1,0.3-0.2,0.6-0.4,0.8c-0.1,0.1-0.2,0.2-0.2,0.3c0,0-0.1,0.1-0.1,0.1
			c0,0-0.1,0.1-0.1,0.1c-0.2,0.1-0.5,0.1-0.6,0.1c0,0-0.1,0-0.1-0.1c0,0-0.1-0.1-0.1-0.2c-0.2-0.4-0.2-1-0.1-1.6
			c0.1-0.5,0.3-1.1,0.5-1.7c0.3-0.6,0.6-1.1,0.9-1.5c0.2-0.2,0.4-0.4,0.5-0.5c0.2-0.1,0.3-0.1,0.4-0.1c0.1,0,0.2,0.1,0.4,0.2
			c0.1,0.1,0.2,0.1,0.3,0.2c0.1,0.1,0.1,0.2,0.2,0.2c0.3,0.4,0.4,0.9,0.5,1.5c0.1,0.6,0.1,1.2,0.1,1.9c0,0.3-0.1,0.6-0.1,1
			c0,0.3-0.1,0.7-0.2,0.9c-0.3,1.2-0.9,2.3-1.7,3.2c-0.4,0.4-0.9,0.8-1.4,1.1c-0.5,0.3-1.1,0.4-1.7,0.3c-0.6,0-1.2-0.2-1.7-0.6
			c-0.5-0.4-0.9-0.9-1.2-1.5c-0.6-1.2-0.9-2.5-0.9-3.9c0-2.7,0.9-5.4,2.5-7.4C36,557.7,36.1,557.6,36.2,557.5z M39.6,564
			C39.6,564,39.6,564,39.6,564C39.6,564,39.6,564,39.6,564z"/>
		<linearGradient id="SVGID_7_" gradientUnits="userSpaceOnUse" x1="10.7123" y1="595.3709" x2="46.7057" y2="595.3709">
			<stop  offset="0" style="stop-color:#612E1A"/>
			<stop  offset="0.4303" style="stop-color:#C99B7A"/>
			<stop  offset="1" style="stop-color:#75412C"/>
		</linearGradient>
		<path class="st17" d="M46.7,580.5c0,0-0.1,0-0.1,0c-1.5,1.3-2.9,2.6-4.4,3.8c-1.5,1.2-3,2.4-4.6,3.5c-1.5,1.2-3.1,2.3-4.6,3.5
			c-0.8,0.6-1.6,1.1-2.4,1.7c-0.8,0.6-1.6,1.2-2.3,1.8c-1.6,1.2-3.2,2.3-4.9,3.3c-0.8,0.5-1.7,0.9-2.6,1.4l-0.7,0.3l-0.1,0l0,0
			l-0.1,0l-0.2,0.1l-0.3,0.2c-0.4,0.3-0.9,0.5-1.3,0.8c-0.8,0.6-1.6,1.2-2.3,1.9c-0.7,0.7-1.4,1.4-2,2.2c-0.6,0.8-1.2,1.6-1.7,2.4
			c-0.5,0.9-1,1.7-1.3,2.7c0,0,0,0.1,0,0.1c0,0,0.1,0,0.1,0l2-2.2c0.7-0.7,1.3-1.4,2-2.1c0.7-0.7,1.4-1.3,2.1-1.9l2.2-1.9l1.1-1
			l0.3-0.2l0.1-0.1l0,0l0,0c0,0,0,0,0,0l0,0l0.1-0.1l0.6-0.5c0.8-0.6,1.5-1.2,2.4-1.7c1.6-1.1,3.3-2,5.1-2.9
			c0.9-0.4,1.8-0.9,2.6-1.4c0.9-0.5,1.7-1,2.5-1.5c1.7-1,3.3-2.1,4.9-3.4c1.5-1.2,3-2.6,4.3-4.1c1.3-1.5,2.6-3.1,3.5-4.8
			C46.7,580.6,46.7,580.5,46.7,580.5z"/>
		<linearGradient id="SVGID_8_" gradientUnits="userSpaceOnUse" x1="31.2665" y1="598.1557" x2="46.3576" y2="598.1557">
			<stop  offset="0" style="stop-color:#612E1A"/>
			<stop  offset="0.4303" style="stop-color:#C99B7A"/>
			<stop  offset="1" style="stop-color:#75412C"/>
		</linearGradient>
		<path class="st18" d="M45,590.3c0.4-0.7,0.8-1.4,1.4-2c0,0,0-0.1,0-0.1c0,0-0.1-0.1-0.1,0c-0.7,0.5-1.4,1.1-1.9,1.7
			c-0.5,0.7-1,1.5-1.2,2.4c-0.2,0.9-0.2,1.9,0.2,2.9c0,0,0,0,0,0c0,0,0,0,0,0c0,0.2,0.1,0.4,0.2,0.6c0.1,0.2,0.1,0.3,0.2,0.5
			c0.1,0.4,0.2,0.7,0.3,1.1c0.1,0.7,0.2,1.5,0.1,2.3c0,0.8-0.1,1.5-0.3,2.3c-0.4,1.5-1,2.9-2.1,4c-0.6,0.5-1.2,1-2,1.3
			c-0.2,0.1-0.4,0.1-0.6,0.2l-0.3,0.1c-0.1,0-0.2,0-0.3,0.1c-0.4,0.1-0.8,0.1-1.2,0.1c-1.6-0.1-3.2-0.8-4-2.1
			c-0.4-0.6-0.7-1.3-0.7-2c0-0.3,0-0.7,0.1-1.1c0.1-0.4,0.1-0.7,0.2-1.1c0.2-0.7,0.6-1.3,1-1.8c0.5-0.5,1-0.7,1.7-0.9
			c0.6-0.1,1.2,0,1.7,0.2c0.6,0.2,1.1,0.6,1.5,1.1c0.2,0.2,0.4,0.5,0.5,0.8c0.1,0.3,0.2,0.6,0.2,0.7c0,0.2,0,0.4-0.2,0.6
			c-0.1,0.3-0.3,0.6-0.5,1c-0.3,0.4-0.6,0.8-1,0.9c-0.2,0.1-0.4,0.1-0.5,0.1c-0.2,0-0.3-0.1-0.5-0.2c-0.2-0.2-0.3-0.5-0.3-0.8
			c0-0.3,0-0.7,0.1-1.1c0.1-0.2,0.1-0.3,0.2-0.5c0-0.1,0.1-0.2,0.1-0.2c0,0,0,0,0,0c0,0,0.2,0,0.4,0c0.1,0,0.2,0.1,0.3,0.2
			c0,0.1-0.1,0.1-0.1,0.2c-0.1,0.1-0.2,0.1-0.2,0.2c0,0-0.1,0-0.1,0c0,0-0.1,0.1-0.1,0.1c0,0-0.1,0-0.1,0.1c0,0,0,0-0.1,0
			c0,0-0.1,0-0.1,0c0,0-0.1,0.1-0.1,0.1c0,0,0,0.1,0,0.2c0,0.1,0.2,0.2,0.3,0.2l0,0c0,0,0.1,0,0.1,0l0,0l0.1,0c0,0,0,0,0.1,0
			c0,0,0,0,0.1,0c0,0,0,0,0,0c0,0,0,0,0.1,0c0,0,0.1,0,0.1-0.1c0,0,0-0.1,0-0.1c0.1,0,0.2-0.1,0.3-0.1c0.1-0.1,0.3-0.2,0.4-0.3
			c0.1-0.1,0.2-0.4,0.2-0.6c0-0.1,0-0.2-0.1-0.3l0,0c-0.2-0.2-0.4-0.4-0.7-0.5c-0.3-0.1-0.5-0.3-0.9-0.2c-0.2,0-0.5,0.1-0.6,0.3
			c-0.1,0.1-0.2,0.2-0.3,0.3c-0.2,0.2-0.3,0.5-0.5,0.7c-0.2,0.5-0.4,1.1-0.4,1.6c0,0.6,0.2,1.2,0.5,1.7c0,0,0,0.1,0.1,0.1l0,0
			c0.3,0.3,0.7,0.6,1.2,0.8c0.5,0.1,1,0.1,1.5,0c0.5-0.1,0.9-0.4,1.2-0.6c0.4-0.3,0.7-0.6,0.9-1c0,0,0,0,0-0.1l0,0
			c0.1-0.2,0.4-0.6,0.6-1c0.2-0.4,0.4-1,0.4-1.6c0-0.6-0.2-1.1-0.4-1.5c-0.2-0.4-0.5-0.8-0.8-1.2c-0.6-0.7-1.4-1.3-2.3-1.6
			c-0.9-0.3-1.9-0.4-2.9-0.2l0,0l0,0c-0.9,0.3-1.8,0.8-2.5,1.6c-0.7,0.8-1.1,1.7-1.3,2.6c-0.1,0.5-0.1,0.9-0.1,1.4
			c0,0.5,0,0.9,0.1,1.4c0.2,0.9,0.6,1.8,1.2,2.5c1.3,1.4,3,2,4.7,2.1c0.4,0,0.9,0,1.3-0.1c0.1,0,0.2,0,0.3-0.1l0.3-0.1
			c0.2,0,0.4-0.1,0.6-0.2c0.8-0.3,1.6-0.6,2.4-1.2c1.5-1,2.5-2.6,3.1-4.3c0.6-1.7,0.6-3.6,0.2-5.3c-0.1-0.4-0.2-0.8-0.4-1.2
			c0.1-0.1,0.2-0.1,0.3-0.2c0.1-0.1,0.3-0.3,0.4-0.5c0.1-0.2,0.2-0.4,0.2-0.7c0-0.1,0-0.1-0.1-0.2l0,0c-0.2-0.1-0.4-0.2-0.6-0.2
			c-0.2,0-0.3-0.1-0.4-0.1c-0.1-0.3-0.1-0.6,0.2-0.7c0.2-0.1,0.4-0.1,0.6-0.2c0.2-0.1,0.2-0.2,0.3-0.3c0.1-0.1,0.1-0.3,0.1-0.4
			c0-0.1,0-0.2,0-0.3c0-0.1,0-0.1,0-0.2l0-0.2c0-0.1,0-0.1-0.1-0.2l0,0c-0.1-0.1-0.3-0.1-0.4-0.1c-0.1,0-0.3,0-0.4,0
			c-0.2,0.1-0.4,0.2-0.6,0.3c-0.2,0.1-0.3,0.3-0.3,0.5c0,0.2,0,0.5,0.1,0.7c0,0.2,0,0.4-0.2,0.5c0-0.3,0-0.6,0-0.9
			C44.3,591.7,44.6,591,45,590.3z M37.1,602.4C37.1,602.4,37.1,602.4,37.1,602.4C37.1,602.4,37.1,602.4,37.1,602.4
			C37.1,602.4,37.1,602.4,37.1,602.4z"/>
		<linearGradient id="SVGID_9_" gradientUnits="userSpaceOnUse" x1="12.8213" y1="570.9749" x2="46.2811" y2="570.9749">
			<stop  offset="0" style="stop-color:#612E1A"/>
			<stop  offset="0.4303" style="stop-color:#C99B7A"/>
			<stop  offset="1" style="stop-color:#75412C"/>
		</linearGradient>
		<path class="st19" d="M26.2,568.1c-0.8,0.2-1.5,0.7-2,1.1c-0.5,0.5-1,1-1.4,1.5c-0.4,0.5-0.8,1-1.2,1.5l-1.1,1.5
			c-1.5,2-2.9,4.1-4.2,6.2c-1.3,2.1-2.5,4.4-3.2,6.9c-0.3,1.2-0.5,2.5-0.3,3.8c0.1,0.7,0.3,1.3,0.9,1.8c0.5,0.5,1.2,0.7,1.9,0.8
			c1.3,0.1,2.6-0.2,3.8-0.6c1.2-0.5,2.3-1.1,3.4-1.9c2-1.6,3.5-3.9,4.4-6.3c0.9-2.4,1.2-5,1.1-7.6c0-0.6-0.1-1.3-0.1-1.9
			c0-0.3-0.1-0.6-0.1-0.9l-0.1-0.5c0-0.2-0.1-0.3-0.1-0.5c0,0,0,0,0,0c0.6,1.1,1.4,2.2,2.4,3.1c1.1,1,2.4,1.8,3.8,2.2
			c1.4,0.5,3,0.6,4.5,0.2c0.7-0.2,1.5-0.4,2.1-0.8c0.2-0.1,0.3-0.2,0.5-0.3l0.1-0.1l0.1-0.1l0.2-0.1c0.1-0.1,0.3-0.2,0.4-0.3
			c0.1-0.1,0.3-0.2,0.4-0.4c0.5-0.5,1-1.1,1.5-1.6c0.4-0.6,0.8-1.2,1.1-1.9c0.3-0.6,0.5-1.3,0.7-2c0.2-0.7,0.3-1.4,0.4-2.1
			c0.2-1.4,0.2-2.8,0-4.1c0,0,0-0.1-0.1-0.1c-0.1,0-0.1,0-0.1,0.1c-0.3,2.7-0.9,5.3-2.3,7.5c-0.7,1.1-1.5,2-2.4,2.8
			c-0.1,0.1-0.2,0.2-0.4,0.3l-0.4,0.2l-0.2,0.1l-0.1,0c0,0,0,0,0,0l0,0l-0.1,0.1c-0.1,0.1-0.3,0.1-0.4,0.2c-0.5,0.3-1.1,0.5-1.6,0.6
			c-1.1,0.2-2.3,0.2-3.5-0.2c-1.1-0.3-2.2-0.9-3.2-1.7c-1-0.8-1.8-1.7-2.4-2.8c-0.7-1.1-1.2-2.3-1.6-3.5c-0.8-2.5-1-5.2-0.4-7.8
			c0.2-0.6,0.4-1.3,0.6-1.9c0.3-0.6,0.6-1.2,0.9-1.7c0.7-1.1,1.5-2.1,2.5-2.9c0.9-0.9,2-1.6,3.1-2.2c0.5-0.3,1.1-0.6,1.7-0.8
			c0.6-0.2,1.2-0.4,1.8-0.6c2.5-0.7,5.1-0.6,7.7,0.2c0,0,0.1,0,0.1,0c0,0,0-0.1,0-0.1l0,0c-2.3-1.5-5.3-2-8.1-1.5
			c-0.7,0.1-1.4,0.3-2.1,0.5c-0.7,0.2-1.3,0.5-2,0.9c-1.3,0.7-2.4,1.6-3.4,2.6c-1,1.1-1.7,2.3-2.3,3.6c-0.5,1.3-0.9,2.6-1.2,4
			C25.9,562.9,25.9,565.5,26.2,568.1C26.3,568.1,26.3,568.1,26.2,568.1L26.2,568.1z M27,574.9c0,0.6,0,1.2-0.1,1.8
			c-0.1,2.4-0.5,4.8-1.4,7c-0.9,2.2-2,4.3-3.6,6c-0.8,0.8-1.8,1.6-2.8,2.1c-0.5,0.3-1.1,0.5-1.7,0.6c-0.6,0.2-1.2,0.2-1.7,0.2
			c-0.6,0-1.1-0.2-1.5-0.6c-0.4-0.4-0.6-0.9-0.6-1.5c-0.1-1.2,0.2-2.4,0.6-3.5c0.9-2.2,2.3-4.2,3.7-6.3c1.4-2,2.9-4,4.4-5.9
			c0.4-0.5,0.8-0.9,1.2-1.5c0.4-0.5,0.8-1,1.1-1.4c0.3-0.4,0.7-0.8,1-1.1c-0.1,0.7-0.2,1.4-0.4,2c-0.4,1.3-0.9,2.5-1.6,3.7
			c-0.7,1.2-1.4,2.4-2.2,3.5c-0.8,1.2-1.6,2.3-2.4,3.5c0,0,0,0.1,0,0.1c0,0,0.1,0,0.1,0c2-2,4-4,5.6-6.4c0.8-1.2,1.5-2.5,2-3.9
			c0.1-0.2,0.1-0.4,0.2-0.5c0,0.1,0,0.1,0,0.2c0,0.1,0,0.3,0,0.4l0,0.5C27,574.3,27,574.6,27,574.9z"/>
		<linearGradient id="SVGID_10_" gradientUnits="userSpaceOnUse" x1="10.6475" y1="550.432" x2="13.4977" y2="550.432">
			<stop  offset="0" style="stop-color:#612E1A"/>
			<stop  offset="0.4303" style="stop-color:#C99B7A"/>
			<stop  offset="1" style="stop-color:#75412C"/>
		</linearGradient>
		<path class="st20" d="M10.7,553.7c0,0.1,0.1,0.1,0.1,0.1c0.2,0,0.5,0,0.7-0.1c0.2-0.1,0.3-0.2,0.5-0.3c0.1-0.1,0.2-0.3,0.3-0.4
			c0.1-0.1,0.2-0.3,0.2-0.5c0-0.4-0.2-0.8-0.1-1.1c0-0.3,0.2-0.6,0.5-0.9c0.1-0.1,0.2-0.3,0.3-0.4c0.1-0.2,0.1-0.3,0.2-0.5
			c0.1-0.3,0.2-0.7,0.1-1.2c-0.1-0.4-0.4-0.9-0.8-1.2c-0.5-0.3-1-0.3-1.4,0.1c-0.1,0.1-0.1,0.1,0,0.2c0.3,0.4,0.3,0.6,0.3,0.8
			c0,0.2-0.1,0.3-0.1,0.5c0,0.2,0.1,0.4,0.1,0.7c0,0.1,0,0.3,0.1,0.4c0,0.1,0.1,0.3,0.2,0.5c0.1,0.3,0.1,0.6,0,0.9
			c-0.1,0.3-0.5,0.4-0.8,0.6c-0.1,0.1-0.2,0.2-0.2,0.4c0,0.1-0.1,0.3-0.1,0.4C10.6,552.9,10.7,553.2,10.7,553.7L10.7,553.7z"/>
		<linearGradient id="SVGID_11_" gradientUnits="userSpaceOnUse" x1="11.2986" y1="551.1847" x2="15.5366" y2="551.1847">
			<stop  offset="0" style="stop-color:#612E1A"/>
			<stop  offset="0.4303" style="stop-color:#C99B7A"/>
			<stop  offset="1" style="stop-color:#75412C"/>
		</linearGradient>
		<path class="st21" d="M12.9,555.2c-0.2,0.3-0.3,0.6-0.5,1c-0.1,0.3-0.3,0.7-0.4,1c-0.3,0.7-0.5,1.4-0.7,2.2c0,0,0,0,0,0.1
			c0,0.1,0.1,0.1,0.1,0c0.8-0.4,1.3-1,1.8-1.6c0.2-0.3,0.5-0.7,0.6-1c0.2-0.4,0.3-0.7,0.4-1.1c0.2-0.8,0.1-1.6,0.2-2.4
			c0.1-0.8,0.3-1.5,0.6-2.3c0.3-0.8,0.4-1.6,0.3-2.4c0-0.8-0.1-1.7-0.5-2.5c-0.7-1.6-2-2.9-3.6-3.4c0,0-0.1,0-0.1,0
			c-0.1,0-0.1,0.1,0,0.1c0.8,1.4,1.4,2.6,1.8,3.9c0.2,0.6,0.4,1.3,0.6,2c0.1,0.7,0.3,1.4,0.4,2.1c0.1,0.7,0.1,1.5-0.1,2.2
			C13.8,554,13.2,554.6,12.9,555.2z"/>
		<linearGradient id="SVGID_12_" gradientUnits="userSpaceOnUse" x1="11.5699" y1="549.7228" x2="36.1345" y2="549.7228">
			<stop  offset="0" style="stop-color:#612E1A"/>
			<stop  offset="0.4303" style="stop-color:#C99B7A"/>
			<stop  offset="1" style="stop-color:#75412C"/>
		</linearGradient>
		<path class="st22" d="M26,533.2c-0.6,0.7-1.1,1.5-1.6,2.3c-0.5,0.8-0.8,1.7-1.1,2.6c0,0,0,0.1,0,0.1c-0.1-0.2-0.2-0.4-0.3-0.6
			c-1.1-1.9-3-3.4-5.1-4.1c-2.1-0.6-4.3-0.5-6.2,0.3c0,0-0.1,0.1-0.1,0.1c0,0.1,0,0.1,0.1,0.1c2-0.1,4,0.2,5.6,1
			c0.4,0.2,0.8,0.4,1.2,0.7c0.4,0.3,0.7,0.5,1.1,0.8c0.6,0.6,1.2,1.3,1.6,2.1c0.8,1.4,1.2,3,1.4,4.7c0,0.1-0.1,0.2-0.1,0.3
			c-0.1,0.4-0.2,0.7-0.2,1.2c0,0.2,0,0.5,0.2,0.9c0.1,0.2,0.2,0.4,0.4,0.5c0,0.2,0,0.4,0,0.6c0,1,0,2-0.1,3c-0.2,2-0.6,3.9-1.3,5.8
			c-0.7,1.9-1.8,3.6-2.8,5.2l-1.5,2.5c-0.5,0.8-1.1,1.6-1.6,2.4c-0.6,0.8-1.2,1.6-1.8,2.4l-1.9,2.4c0,0,0,0.1,0,0.1
			c0,0,0.1,0.1,0.1,0c0.9-0.5,1.7-1.1,2.5-1.8c0.8-0.7,1.5-1.4,2.2-2.2c0.7-0.8,1.3-1.6,1.9-2.4c0.6-0.8,1.1-1.7,1.5-2.7
			c0.9-1.9,1.4-3.9,2-5.8c0.6-1.9,1.2-3.8,1.8-5.8c0.3-1,0.5-2,0.6-3c0-0.1,0-0.2,0-0.2c0.1,0,0.2,0,0.4,0c0.4-0.1,0.8-0.2,1.2-0.4
			c0.7-0.4,1.3-0.9,1.8-1.4c0.5-0.5,0.9-1.1,1.3-1.7c0.7-1.2,1.3-2.4,1.8-3.6c0.5-1.2,0.9-2.5,1.3-3.7c0.4-1.2,0.9-2.4,1.5-3.4
			c0.1-0.1,0.2-0.3,0.3-0.4c0.1-0.1,0.2-0.2,0.3-0.3c0.2-0.2,0.4-0.4,0.7-0.7c0.2-0.2,0.5-0.5,0.7-0.7c0.2-0.3,0.5-0.5,0.6-0.9l0,0
			c0-0.2,0-0.3-0.2-0.4l0,0c-1.8-0.5-3.8-0.2-5.5,0.6C28.7,530.5,27.2,531.7,26,533.2z M30.9,530.6c0.7-0.5,1.5-0.9,2.3-1.1
			c0.7-0.2,1.5-0.2,2.2,0c-0.1,0.1-0.2,0.3-0.3,0.4c-0.2,0.2-0.5,0.4-0.7,0.6c-0.3,0.2-0.5,0.4-0.8,0.6c-0.1,0.1-0.3,0.2-0.4,0.4
			l-0.3,0.4c-0.9,1.1-1.6,2.2-2.2,3.4c-0.6,1.2-1.1,2.4-1.6,3.5c-0.5,1.1-1.1,2.3-1.8,3.3c-0.7,1-1.4,1.9-2.3,2.4
			c-0.1,0.1-0.3,0.1-0.4,0.2c0-0.3,0-0.6,0-0.9c0-0.3,0-0.6,0-0.9c0.1-0.2,0.1-0.3,0.2-0.5c0.2-0.6,0.5-1.1,0.8-1.7
			c0.3-0.6,0.6-1.1,1-1.7c0.2-0.3,0.4-0.5,0.5-0.8c0.2-0.2,0.4-0.5,0.6-0.7l0,0c0,0,0-0.1,0-0.1c0-0.1-0.1-0.1-0.1-0.1
			c-0.3,0.1-0.6,0.3-0.9,0.5c-0.3,0.2-0.5,0.4-0.8,0.7c-0.5,0.5-0.9,1-1.3,1.5c-0.1,0.2-0.3,0.4-0.4,0.5c0,0,0,0,0,0
			c0-0.2-0.1-0.3-0.1-0.5c0.2-0.5,0.4-1.1,0.6-1.6c0.7-1.6,1.6-3,2.7-4.3C28.4,533,29.6,531.6,30.9,530.6z"/>
		<linearGradient id="SVGID_13_" gradientUnits="userSpaceOnUse" x1="41.1876" y1="524.3679" x2="45.6219" y2="524.3679">
			<stop  offset="0" style="stop-color:#612E1A"/>
			<stop  offset="0.4303" style="stop-color:#C99B7A"/>
			<stop  offset="1" style="stop-color:#75412C"/>
		</linearGradient>
		<path class="st23" d="M45.3,524.5c-0.1-0.1-0.2-0.2-0.2-0.2c-0.1-0.1-0.2-0.1-0.3-0.1c-0.2,0-0.5,0.2-0.8,0.2
			c-0.2,0-0.4-0.2-0.5-0.5c-0.1-0.3-0.2-0.5-0.3-0.6c-0.1-0.2-0.2-0.3-0.4-0.4c-0.1,0-0.2-0.1-0.3-0.1c-0.1,0-0.2,0-0.3,0
			c-0.2,0-0.5,0-0.9,0.1c-0.1,0-0.1,0.1-0.1,0.1l0,0c0,0.1,0,0.2,0,0.3c0,0.1,0,0.2,0,0.2c0,0.2,0,0.3,0.1,0.4
			c0.1,0.3,0.2,0.5,0.4,0.6c0.2,0.2,0.4,0.2,0.6,0.2c0.1,0,0.2,0,0.4,0c0.1,0,0.3-0.1,0.4-0.1c0.3-0.1,0.5-0.1,0.7,0.1
			c0.2,0.1,0.2,0.5,0.4,0.7c0.1,0.1,0.2,0.2,0.3,0.2c0.1,0,0.2,0,0.3,0c0.1,0,0.2,0,0.4-0.1c0.1,0,0.3-0.1,0.5-0.3
			c0.1,0,0.1-0.1,0.1-0.2c0-0.2-0.1-0.4-0.1-0.5C45.5,524.7,45.4,524.6,45.3,524.5z"/>
		<linearGradient id="SVGID_14_" gradientUnits="userSpaceOnUse" x1="35.5343" y1="524.701" x2="45.9983" y2="524.701">
			<stop  offset="0" style="stop-color:#612E1A"/>
			<stop  offset="0.4303" style="stop-color:#C99B7A"/>
			<stop  offset="1" style="stop-color:#75412C"/>
		</linearGradient>
		<path class="st24" d="M35.9,520.1c0.2,0.9,0.4,1.9,0.7,2.7c0.3,0.9,0.7,1.7,1,2.6c0.4,0.8,0.8,1.7,1.2,2.4l0,0.1c0,0,0,0,0,0.1
			c0.4,0.5,0.8,1,1.2,1.5c0.4,0.5,0.9,1,1.4,1.4c1,0.9,2.2,1.6,3.5,1.9c0,0,0.1,0,0.1,0c0,0,0-0.1,0-0.1c-1-0.8-1.8-1.8-2.5-2.7
			c-0.4-0.5-0.7-1-1-1.5l-0.9-1.5c-0.4-0.8-0.8-1.6-1.2-2.4c-0.4-0.8-0.9-1.6-1.3-2.4c-0.4-0.8-0.8-1.6-1.2-2.4
			c-0.3-0.7-0.6-1.5-0.7-2.3c0.4-0.1,0.9-0.1,1.3-0.1c0.5,0,1,0.1,1.5,0.3c1,0.4,1.8,0.9,2.6,1.4c0.8,0.5,1.6,1.2,2.3,1.9
			c0.7,0.8,1.3,1.6,1.9,2.6c0,0,0.1,0,0.1,0c0.1,0,0.1,0,0.1-0.1c0-1.2-0.3-2.3-0.9-3.3c-0.6-1-1.5-1.9-2.5-2.6c-1-0.7-2.2-1-3.4-1
			c-1.2,0-2.3,0.1-3.4,0.4c-0.1,0-0.2,0.2-0.2,0.3l0,0C35.6,518.2,35.7,519.1,35.9,520.1z"/>
		<linearGradient id="SVGID_15_" gradientUnits="userSpaceOnUse" x1="40.954" y1="541.4233" x2="45.1489" y2="541.4233">
			<stop  offset="0" style="stop-color:#612E1A"/>
			<stop  offset="0.4303" style="stop-color:#C99B7A"/>
			<stop  offset="1" style="stop-color:#75412C"/>
		</linearGradient>
		<path class="st25" d="M45.1,536.3c-0.6-0.2-1.3-0.1-1.8,0.2c-0.3,0.1-0.6,0.3-0.8,0.5c-0.2,0.2-0.5,0.5-0.6,0.7
			c-0.3,0.6-0.3,1.3-0.4,1.9c-0.1,0.6-0.2,1.1-0.4,1.7c0,0.1-0.1,0.3-0.1,0.5c0,0.2,0,0.3,0,0.5c0,0.3,0.1,0.6,0.1,0.9
			c0.1,0.6,0.3,1.2,0.7,1.7c0.4,0.5,0.8,1,1.4,1.3c0.5,0.3,1.2,0.5,1.8,0.4c0,0,0,0,0,0c0.1,0,0.1-0.1,0-0.2l0,0
			c-0.4-0.5-0.6-0.9-0.8-1.4c-0.2-0.4-0.4-0.8-0.7-1.3c-0.1-0.1-0.1-0.3-0.2-0.4c0.2,0.2,0.5,0.4,0.8,0.4c0.3,0.1,0.7,0,1-0.3
			c0,0,0.1-0.1,0.1-0.2l0,0c-0.1-0.4-0.1-0.6-0.1-0.8c0-0.2,0-0.3,0-0.4c0-0.1-0.2-0.2-0.3-0.2c-0.1,0-0.1-0.1-0.2-0.1
			c-0.1,0-0.2-0.1-0.3-0.2c-0.2-0.1-0.3-0.3-0.2-0.5c0.1-0.2,0.5-0.1,0.6-0.1c0.1,0,0.1,0,0.1,0c0,0,0-0.1,0-0.1
			c0-0.1,0.1-0.2,0.1-0.3c0.1-0.1,0.1-0.2,0.2-0.4c0-0.1,0-0.1,0-0.2l0,0c-0.1-0.2-0.2-0.3-0.4-0.4c-0.1-0.1-0.3-0.1-0.5-0.1
			c-0.3,0-0.7,0.2-0.8,0.5c-0.1,0.4,0,0.8,0,1c0,0.2-0.1,0.5-0.3,0.7c-0.1,0.1-0.1,0.3-0.2,0.4c0,0.2,0,0.3,0,0.4
			c0,0.1,0,0.3,0.1,0.4c-0.1-0.1-0.2-0.3-0.3-0.4l-0.3-0.6l-0.2-0.3c-0.1-0.1-0.1-0.2-0.2-0.3c-0.2-0.5-0.3-1-0.1-1.5
			c0.2-0.5,0.7-0.8,1.1-1c0.2-0.1,0.3-0.3,0.5-0.5l0.5-0.5c0.3-0.4,0.7-0.7,1.1-1.3c0,0,0,0,0,0C45.2,536.4,45.1,536.3,45.1,536.3
			L45.1,536.3z"/>
		<linearGradient id="SVGID_16_" gradientUnits="userSpaceOnUse" x1="47.2652" y1="511.4597" x2="47.4263" y2="511.4597">
			<stop  offset="0" style="stop-color:#612E1A"/>
			<stop  offset="0.4303" style="stop-color:#C99B7A"/>
			<stop  offset="1" style="stop-color:#75412C"/>
		</linearGradient>
		<path class="st26" d="M47.4,511.5c0.1,0,0.1-0.1,0-0.2c0,0-0.1,0-0.1,0C47.3,511.5,47.3,511.5,47.4,511.5z"/>
		<linearGradient id="SVGID_17_" gradientUnits="userSpaceOnUse" x1="45.6591" y1="511.4938" x2="47.767" y2="511.4938">
			<stop  offset="0" style="stop-color:#612E1A"/>
			<stop  offset="0.4303" style="stop-color:#C99B7A"/>
			<stop  offset="1" style="stop-color:#75412C"/>
		</linearGradient>
		<path class="st27" d="M47.7,510.7L47.7,510.7c0-0.1,0.1-0.1,0.1-0.2c-0.1-0.3-0.2-0.6-0.5-0.7c-0.3-0.1-0.6-0.2-1,0
			c-0.4,0.2-0.5,0.6-0.6,0.9c0,0.2,0,0.3,0,0.4c0,0.1,0.1,0.3,0.2,0.4c0.2,0.2,0.3,0.4,0.3,0.6c0,0.2-0.3,0.5-0.3,0.7
			c0,0.1,0,0.2,0.1,0.3c0.1,0.1,0.2,0.2,0.3,0.2c0.1,0.1,0.2,0.1,0.4,0.1c0.1,0,0.3,0,0.5-0.1l0,0c0,0,0.1-0.1,0.1-0.1
			c0-0.2,0.1-0.3,0.1-0.4c0-0.1,0.1-0.2,0.1-0.3c0-0.1,0-0.1,0-0.2c0-0.1,0-0.1-0.1-0.1c-0.2,0-0.5-0.1-0.6-0.2
			c-0.1-0.1,0-0.3,0.2-0.4c0.1-0.1,0.2-0.1,0.3-0.1c0,0,0,0,0.1,0c0,0,0-0.1,0-0.1C47.3,511.2,47.5,511,47.7,510.7z"/>
		<linearGradient id="SVGID_18_" gradientUnits="userSpaceOnUse" x1="41.6619" y1="512.729" x2="48.5001" y2="512.729">
			<stop  offset="0" style="stop-color:#612E1A"/>
			<stop  offset="0.4303" style="stop-color:#C99B7A"/>
			<stop  offset="1" style="stop-color:#75412C"/>
		</linearGradient>
		<path class="st28" d="M42.2,513.8c0.1,0.7,0.2,1.5,0.5,2.2c0.2,0.4,0.4,0.7,0.6,0.9c0.3,0.3,0.5,0.5,0.9,0.7
			c0.6,0.4,1.4,0.7,2.2,0.7c0,0,0,0,0.1,0c0.1,0,0.1-0.1,0-0.2c-0.4-0.6-0.8-1.1-1.2-1.7l-0.6-0.7c-0.2-0.3-0.4-0.5-0.6-0.7
			c-0.4-0.4-1-0.9-1.3-1.5c-0.3-0.6-0.2-1.3,0-1.9c0.1-0.3,0.3-0.6,0.4-0.8l0.1-0.1l0,0l0,0l0,0l0,0c0,0,0,0,0,0l0-0.1
			c0-0.1,0.1-0.2,0.1-0.2c0.1-0.1,0.2-0.2,0.2-0.3c0.4-0.4,0.8-0.7,1.3-1c0.5-0.3,1-0.6,1.6-0.8c0.6-0.2,1.2-0.4,1.9-0.7l0,0
			c0,0,0,0,0.1,0c0,0,0-0.1,0-0.1c-0.6-0.4-1.4-0.6-2.2-0.7c-0.8,0-1.6,0.1-2.3,0.5c-0.7,0.4-1.4,1-1.8,1.7
			c-0.1,0.2-0.2,0.4-0.3,0.6c0,0.1-0.1,0.2-0.1,0.3l0,0.1l0,0l0,0l0,0l0,0l0,0l0,0.2c-0.1,0.4-0.1,0.8,0,1.2
			C41.8,512.4,42,513.1,42.2,513.8z"/>
		<linearGradient id="SVGID_19_" gradientUnits="userSpaceOnUse" x1="8.8381" y1="519.9563" x2="29.9608" y2="519.9563">
			<stop  offset="0" style="stop-color:#612E1A"/>
			<stop  offset="0.4303" style="stop-color:#C99B7A"/>
			<stop  offset="1" style="stop-color:#75412C"/>
		</linearGradient>
		<path class="st29" d="M8.9,511.6c0.7,0.6,1.6,0.9,2.5,1c0.9,0.1,1.8,0.1,2.7,0.1c1.8-0.1,3.5-0.2,5.2-0.2c0.4,0,0.9,0,1.3,0l1.3,0
			c0.9,0,1.7,0,2.5,0.1c0.5,0,0.9,0.1,1.3,0.2l-0.4,0.1c-0.2,0-0.4,0.1-0.5,0.1c-1.5,0.4-2.8,1.3-3.7,2.4c-1,1.1-1.7,2.4-2.3,3.7
			c-0.5,1.3-0.8,2.8-0.9,4.2c-0.3,1.1-0.1,2.3,0.4,3.2c0.5,1,1.4,1.8,2.5,2.2c0,0,0.1,0,0.1,0l0,0c1.3,0.3,2.6,0.3,3.9,0
			c1.3-0.3,2.5-0.9,3.5-1.8c0.5-0.5,0.9-1.1,1.2-1.7c0.3-0.7,0.4-1.4,0.5-2.1c0-0.4,0-0.7-0.1-1l0-0.2c0-0.1,0-0.2-0.1-0.3
			c0-0.2-0.1-0.4-0.2-0.5c-0.2-0.7-0.6-1.3-1.1-1.8c-1-1-2.4-1.7-3.9-1.7c-0.7,0-1.5,0.2-2.1,0.5c-0.7,0.3-1.3,0.8-1.7,1.5
			c-0.4,0.7-0.5,1.5-0.4,2.2c0.1,0.7,0.4,1.4,0.8,2c0.1,0.1,0.2,0.3,0.4,0.4c0.1,0.1,0.3,0.2,0.4,0.3c0.3,0.2,0.7,0.4,1.2,0.4
			c0.4,0,0.8-0.1,1.1-0.2c0.3-0.1,0.6-0.3,0.8-0.5l0,0c0,0,0,0,0,0c0.3-0.3,0.5-0.6,0.6-1c0.1-0.4,0.1-0.9-0.1-1.2
			c-0.2-0.4-0.5-0.7-0.9-0.8c-0.1,0-0.1,0-0.2-0.1c0,0,0,0,0,0c0-0.1-0.1-0.1-0.1-0.1c0,0,0,0,0,0c0,0,0,0-0.1,0c0,0,0,0-0.1,0
			l-0.1,0c-0.2,0-0.4,0-0.5,0.1l0,0c0,0,0,0-0.1,0c-0.1,0.1-0.2,0.2-0.1,0.3c0.1,0.2,0.2,0.2,0.2,0.2c0,0,0.1,0,0.1,0
			c0,0,0.1,0,0.1,0c0.2,0,0.4,0,0.6,0.1c0.2,0.1,0.4,0.3,0.4,0.5c0.1,0.4-0.1,0.8-0.4,1.1c-0.5,0.3-0.9,0.4-1.2,0.4
			c-0.2,0-0.3-0.1-0.4-0.2c-0.1-0.1-0.1-0.1-0.2-0.2c-0.1-0.1-0.1-0.2-0.2-0.3c-0.2-0.4-0.4-0.8-0.4-1.3c0-0.4,0.1-0.8,0.3-1.2
			c0.2-0.3,0.5-0.6,0.9-0.7c0.4-0.2,0.9-0.3,1.3-0.3c0.9,0,1.7,0.4,2.3,1.1c0.3,0.3,0.5,0.7,0.7,1.1c0,0.1,0.1,0.2,0.1,0.3l0,0.1
			l0,0.2c0,0.2,0.1,0.5,0.1,0.7c0,0.9-0.3,1.8-1,2.5c-0.7,0.7-1.6,1.2-2.6,1.5c-1,0.3-2,0.3-3.1,0.2c-0.7-0.3-1.4-0.8-1.8-1.4
			c-0.5-0.7-0.7-1.5-0.6-2.4l0-0.1c0,0,0,0,0,0c-0.1-1.4,0.1-2.8,0.5-4.1c0.4-1.3,1.1-2.6,2.1-3.5c1-1,2.2-1.7,3.5-1.9
			c0.2,0,0.3,0,0.5-0.1l0.5,0c0.3,0,0.7,0,1,0c0.3,0,0.6,0.1,0.9,0.2c0.2,0.1,0.4,0.2,0.5,0.4c0.2,0.3,0.6,0.4,1,0.3
			c0.4-0.2,0.5-0.6,0.3-1l0-0.1c-0.3-0.5-0.6-0.9-1-1.2c-0.4-0.3-0.8-0.6-1.3-0.8c-0.9-0.4-1.9-0.6-2.8-0.7
			c-0.9-0.1-1.8-0.1-2.7-0.1l-1.3,0c-0.4,0-0.9,0.1-1.3,0.1c-1.8,0.1-3.5,0.4-5.2,0.7c-0.9,0.1-1.7,0.2-2.5,0.3
			c-0.8,0-1.7-0.1-2.5-0.5c0,0-0.1,0-0.1,0C8.8,511.5,8.8,511.5,8.9,511.6L8.9,511.6z M23.9,521.2C23.9,521.2,23.9,521.2,23.9,521.2
			C23.9,521.2,23.9,521.2,23.9,521.2C23.9,521.2,23.9,521.2,23.9,521.2z"/>
		<linearGradient id="SVGID_20_" gradientUnits="userSpaceOnUse" x1="10.48" y1="522.8359" x2="15.6188" y2="522.8359">
			<stop  offset="0" style="stop-color:#612E1A"/>
			<stop  offset="0.4303" style="stop-color:#C99B7A"/>
			<stop  offset="1" style="stop-color:#75412C"/>
		</linearGradient>
		<path class="st30" d="M12.3,528.2c0.3,0.2,0.9,0.3,1.3,0.1c0.5-0.1,0.8-0.5,1.1-0.8c0.3-0.3,0.4-0.6,0.6-1c0.3-0.7,0.3-1.3,0.3-2
			c0-0.3,0-0.7-0.1-1c-0.1-0.3-0.2-0.6-0.3-0.9c-0.3-0.6-0.5-1.2-0.7-1.8c-0.2-0.6-0.2-1.3-0.5-1.9c-0.2-0.3-0.4-0.6-0.6-0.8
			c-0.3-0.2-0.5-0.4-0.8-0.6c-0.6-0.3-1.2-0.5-1.9-0.4c0,0,0,0-0.1,0c-0.1,0-0.1,0.1,0,0.2c0.4,0.6,0.7,1,1.1,1.5
			c0.2,0.2,0.4,0.4,0.5,0.6c0.2,0.2,0.4,0.4,0.6,0.5c0.4,0.3,1,0.6,1.2,1.2c0.3,0.5,0.3,1.1,0.2,1.7c-0.1,0.6-0.2,1.1-0.3,1.6
			c-0.1,0.5-0.3,1-0.4,1.5c-0.1,0.5-0.3,0.8-0.4,1.1c-0.1,0.1-0.2,0.2-0.4,0.3c-0.2,0.1-0.5,0-0.9,0l0,0c0,0,0,0-0.1,0
			c-0.1,0-0.1,0.1,0,0.1C11.7,527.8,12,528.1,12.3,528.2z"/>
	</g>
</g>
</svg>
