<?xml version="1.0" encoding="utf-8"?>
<!-- Generator: Adobe Illustrator 23.0.3, SVG Export Plug-In . SVG Version: 6.00 Build 0)  -->
<svg version="1.1" id="Layer_1" xmlns="http://www.w3.org/2000/svg" xmlns:xlink="http://www.w3.org/1999/xlink" x="0px" y="0px"
	 viewBox="0 0 56.7 708.7" style="enable-background:new 0 0 56.7 708.7;" xml:space="preserve">
<style type="text/css">
	.st0{fill:#2C1F2D;}
	.st1{fill:#443044;}
	.st2{fill:#201122;}
	.st3{fill:#391F39;}
	.st4{fill:#6B4E6C;}
	.st5{fill:#503951;}
	.st6{fill:#5E3E5F;}
	.st7{fill:#422B43;}
	.st8{fill:#1F111E;}
	.st9{fill:url(#SVGID_1_);}
	.st10{fill:url(#SVGID_2_);}
	.st11{fill:url(#SVGID_3_);}
</style>
<g>
	<g>
		<g>
			<path class="st0" d="M30.9,7.4C30.7,4.5,30.5,0,28.5,0c-0.6,0-1.7,0-2.2,0c-2,0-2.2,4.5-2.4,7.4C12.6,225,15.6,682,20.3,694.3
				c0.4,1.1,1.5,0.8,2.5,0.4c0.9,0.9,2.7-0.4,3.6-0.4c0.5,0,1.2,0,2,0c0.9,0,2.7,1.3,3.6,0.4c1,0.4,2.1,0.7,2.5-0.4
				C39.2,682,42.3,225,30.9,7.4z"/>
			<path class="st1" d="M30.1,155.7c-0.1-2.3-0.3-5.8-1.8-5.8c-0.4,0-1.3,0-1.7,0c-1.5,0-1.7,3.5-1.8,5.8
				c-8.9,170.7-6.5,529.1-2.9,538.8c0.3,0.9,1.2,0.6,2,0.3c0.7,0.7,2.1-0.3,2.8-0.3c0.4,0,1,0,1.6,0c0.7,0,2.1,1,2.8,0.3
				c0.8,0.3,1.6,0.6,2-0.3C36.7,684.8,39.1,326.4,30.1,155.7z"/>
		</g>
		<g>
			<path class="st2" d="M32.8,170.1c-5.1,5.8-10.7,11.3-14.5,18c2,0.5,4,0.9,5.9,1.5c5,1.6,9.4,5,12.2,10.5c0.1,0.3,0.3,0.6,0.4,0.9
				c-0.2-11.7-0.4-23.3-0.7-34.7C35.1,167.5,33.9,168.8,32.8,170.1z"/>
			<path class="st2" d="M33.4,341.7c0,11.2-0.2,22.4-1,33.5c2.2,1.5,4.3,3.5,6.2,5.7c-0.1-38.6-0.4-78.3-0.9-117.6
				c-0.9,3.6-2.1,8-4.2,10.8c0.3,10.3,0.1,20.7-0.1,30.7c-0.2,11.5,0,23.1,0,34.6c0.1,0.5,0.1,1,0.1,1.5
				C33.5,341.2,33.4,341.4,33.4,341.7z"/>
			<path class="st2" d="M20.7,88.3c-0.1,2.7-0.2,5.5-0.3,8.3c3.3-3,6.8-5.7,10.3-7.9c0.3-0.2,0.7-0.4,1.1-0.7
				c0.8-0.9,1.6-1.9,2.3-2.8c-0.1-2.6-0.2-5.1-0.2-7.6c-0.1,0.1-0.2,0.1-0.2,0.2C29.1,81,24.9,84.6,20.7,88.3z"/>
			<path class="st2" d="M23.3,118.2c4.1-3,7.6-6,10.9-9.6c0.2-0.2,0.3-0.3,0.5-0.5c-0.1-1.9-0.1-3.8-0.2-5.6
				c-4.5,4.7-9.4,8.9-14.7,11.7c-0.1,2.1-0.1,4.2-0.2,6.3c0.2-0.1,0.3-0.1,0.5-0.2C21.3,119.6,22.3,118.9,23.3,118.2z"/>
			<path class="st2" d="M32.4,511.8c0.7,0,1.3,0.1,2,0c0.3-0.1,0.6-0.2,0.9-0.3c0.1-0.1,0.2-0.1,0.3-0.2c0.2-0.2,0.5-0.5,0.6-0.7
				c0,0,0-0.1,0.1-0.1c0,0,0,0,0,0c0.2-0.4,0.4-0.8,0.6-1.3c0.1-0.2,0.1-0.3,0.1-0.3c0,0,0-0.1,0-0.1c0.2-0.6,0.3-1.2,0.5-1.7
				c0-0.2,0.1-0.7,0.1-0.9c0-0.8,0-1.6,0-2.5c-0.2-3.9-1.7-10.6-3.4-15.6c-0.7-2.2-1.8-5-3-7.6c-0.5-1.1-1.1-2.3-1.7-3.4
				c-0.3-0.5-0.5-1-0.8-1.5c-0.1-0.2-0.2-0.3-0.2-0.4c0,0,0-0.1-0.1-0.1c-0.5-0.7-1-1.4-1.6-2.1c-0.2-0.1-0.8-0.7-0.8-0.7
				c-0.4-0.3-0.9-0.7-1.3-0.9c-0.1-0.1-1.3-0.7-0.7-0.4c-0.4-0.2-0.7-0.3-1.1-0.4c-0.8-0.3-1.7-0.6-2.5-0.8
				c-1.4-0.4-2.9-0.6-4.4-1.1c0,13.3,0.1,26.3,0.1,38.8c1.6,0.2,3.2,0.5,4.8,1c3.3,1,6.5,2.3,9.8,3.1c0.2,0.1,1.3,0.2,1.1,0.2
				C32.1,511.8,32.3,511.8,32.4,511.8z"/>
			<path class="st2" d="M38.7,415.7c0-3.8,0-7.6,0-11.4c-0.1-0.2-0.1-0.5-0.2-0.7c0,0-0.6-1.7-0.3-1.1c-0.2-0.6-0.4-1.1-0.6-1.6
				c-1.9-4.6-3.8-8-6.9-11.2c-2,4.4-9,3.7-9.8-1.8c-0.2-1-0.3-2.1-0.4-3.2c-1.8-0.4-3.5-1.7-4.3-3.5c-0.1,19.9-0.1,39.4-0.1,58.5
				c1.6-2.5,3.5-4.8,5.6-6.8c2.2-2.2,4.5-4.2,6.9-6.2c1-0.8,1.9-1.6,2.9-2.5c0.5-0.4,0.9-0.8,1.4-1.2c0,0,1.2-1.1,0.8-0.7
				c0.9-0.9,1.8-1.8,2.7-2.8c0.4-0.4,0.7-0.9,1.1-1.3c0.1-0.1,0.8-1.2,0.6-0.8C38.2,416.7,38.5,416.2,38.7,415.7z"/>
			<path class="st2" d="M32.1,152.5c1.5-2,2.4-3.3,3.4-5.1c0.1-0.2,0.2-0.3,0.3-0.5c-0.1-5.3-0.3-10.6-0.4-15.9
				c-0.1,0-0.2-0.1-0.3-0.1c-1.6-0.2-3.2-0.2-4.8,0.1c-0.1,0-1.1,0.2-0.9,0.1c-0.3,0.1-0.6,0.1-0.9,0.2c-0.8,0.2-1.6,0.4-2.3,0.6
				c-0.5,0.1-1,0.3-1.4,0.5c-1.7,1-3.5,1.9-5.3,2.7c-0.3,10.9-0.5,22.1-0.8,33.3c1.3-1.5,2.6-3,3.9-4.5
				C25.8,160.2,29.1,156.6,32.1,152.5z"/>
			<path class="st2" d="M28.5,10c0.7-0.8,1.5-1.3,2.4-1.6c0-0.3,0-0.7-0.1-1C30.7,4.5,30.5,0,28.5,0h-2.2c-2,0-2.2,4.5-2.4,7.4
				c-0.1,2.7-0.3,5.4-0.4,8.1C25.2,13.7,26.9,11.8,28.5,10z"/>
			<path class="st2" d="M38.7,433.6c-4.8,4.3-10,8.1-13.9,13.4c-1.4,2-2.8,5-3.9,8c-0.1,0.3-0.3,0.9-0.5,1.5
				c1.1,0.3,2.2,0.5,3.3,0.8c4.2,1.2,8.6,3.5,11.6,7.5c1.2,1.6,2.3,3.4,3.4,5.3C38.7,458.2,38.7,446,38.7,433.6z"/>
			<path class="st2" d="M38.2,524.1c-3.6,1.3-7.4,0.8-10.9-0.1c-3.3-0.9-6.5-2.2-9.8-3.1c-0.4-0.1-0.7-0.2-1.1-0.3
				c0.1,10.8,0.1,21.2,0.2,31.3c5.9,6.7,11.3,14,16.4,21.6c1.7,2.6,3.4,5.2,5,7.8c0.2-17.7,0.4-36.9,0.5-57.3
				C38.4,524.1,38.3,524.1,38.2,524.1z"/>
			<path class="st2" d="M22.2,46.4c3-3.5,6.1-6.9,9.1-10.4c0.3-0.4,0.6-0.7,0.9-1.1c-0.1-1.3-0.1-2.5-0.2-3.7
				c-3.1,2.9-6.2,5.7-9.6,8.2C22.4,41.7,22.3,44,22.2,46.4z"/>
			<path class="st2" d="M21.9,224.5c2.6,0,4.3,2,5.1,4.8c1.2,3.7,2.2,7.6,3,11.5c0.3-5.6,0.5-11.3,0.3-17c-0.2-5.6-0.4-9.3-2-14.8
				c0-0.2-0.1-0.3-0.2-0.5c0-0.1-0.1-0.2-0.1-0.3c-0.2-0.4-0.4-0.9-0.6-1.3c-0.5-0.9-1-1.8-1.7-2.5c-1.3-1.4-2.7-1.9-4.8-2.5
				c-1-0.3-1.9-0.5-2.8-0.8c-0.1,8.6-0.3,17.2-0.4,25.8C18.6,225.5,20.4,224.5,21.9,224.5z"/>
			<path class="st2" d="M22.7,274.8c-4-5.3-4.8-14-5.4-21c-0.5,40.7-0.8,82-1,122.2c1.4-5,2.7-10.1,3.8-15.2c0.5-7,1.5-14,2.8-20.7
				c-0.1-11.7-0.3-23.5-0.1-35.2C22.9,294.9,23,284.8,22.7,274.8z"/>
			<path class="st2" d="M21.2,71.2c3.4-3.3,6.6-6.7,9.8-10.5c0.7-0.8,1.4-1.7,2.1-2.5c0-0.6,0-1.2-0.1-1.8c-4,3.6-7.8,7.6-11.7,11.3
				C21.3,68.8,21.3,70,21.2,71.2z"/>
			<path class="st3" d="M27,229.3c1.2,3.7,2.2,7.6,3,11.5c0.3-5.6,0.5-11.3,0.3-17c-0.2-5.6-0.4-9.3-2-14.8c0-0.2-0.1-0.3-0.2-0.5
				c0-0.1-0.1-0.2-0.1-0.3c-0.2-0.4-0.4-0.9-0.6-1.3c-0.5-0.9-1-1.8-1.7-2.5c-0.9-0.9-1.8-1.5-3-1.9c-0.3,7.2-0.5,14.5-0.7,22
				C24.5,224.6,26.1,226.6,27,229.3z"/>
			<path class="st3" d="M22.7,274.8c-0.7-1-1.4-2.1-1.9-3.3c-0.7,29.9-1.2,61.2-1.5,92.8c0.3-1.2,0.5-2.4,0.8-3.6
				c0.5-7,1.5-14,2.8-20.7c-0.1-11.7-0.3-23.5-0.1-35.2C22.9,294.9,23,284.8,22.7,274.8z"/>
			<path class="st3" d="M32.4,511.8c0.7,0,1.3,0.1,2,0c0.3-0.1,0.6-0.2,0.9-0.3c0.1-0.1,0.2-0.1,0.3-0.2c0.2-0.2,0.5-0.5,0.6-0.7
				c0-5.1,0-10.3,0-15.6c-0.6-2.4-1.2-4.8-1.9-6.9c-0.7-2.2-1.8-5-3-7.6c-0.5-1.1-1.1-2.3-1.7-3.4c-0.3-0.5-0.5-1-0.8-1.5
				c-0.1-0.2-0.2-0.3-0.2-0.4c0,0,0-0.1-0.1-0.1c-0.5-0.7-1-1.4-1.6-2.1c-0.2-0.1-0.8-0.7-0.8-0.7c-0.4-0.3-0.9-0.7-1.3-0.9
				c-0.1-0.1-1.3-0.7-0.7-0.4c-0.4-0.2-0.7-0.3-1.1-0.4c-0.8-0.3-1.7-0.6-2.5-0.8c-0.6-0.2-1.3-0.3-2-0.4c0,13.1,0,26,0,38.6
				c0.8,0.2,1.7,0.4,2.5,0.6c3.3,1,6.5,2.3,9.8,3.1c0.2,0.1,1.3,0.2,1.1,0.2C32.1,511.8,32.3,511.8,32.4,511.8z"/>
			<path class="st3" d="M36.1,419.6c0-7.4-0.1-14.8-0.2-22.2c-1.5-2.9-3.1-5.3-5.3-7.7c-2,4.4-9,3.7-9.8-1.8c-0.2-1-0.3-2.1-0.4-3.2
				c-0.5-0.1-1-0.3-1.4-0.5c-0.2,17.4-0.3,34.8-0.4,51.9c0.9-1.2,1.9-2.3,3-3.3c2.2-2.2,4.5-4.2,6.9-6.2c1-0.8,1.9-1.6,2.9-2.5
				c0.5-0.4,0.9-0.8,1.4-1.2c0,0,1.2-1.1,0.8-0.7C34.5,421.3,35.3,420.5,36.1,419.6z"/>
			<path class="st3" d="M30.1,155.1c-0.1-2.3-0.4-5.2-1.8-5.2h-1.7c-1.5,0-1.7,3.5-1.8,5.8c-0.1,2-0.2,4.1-0.3,6.2
				C26.3,159.6,28.3,157.4,30.1,155.1z"/>
			<path class="st3" d="M30.9,172.2c-2.5,2.8-5.1,5.5-7.4,8.4c-0.1,2.8-0.2,5.7-0.4,8.6c0.3,0.1,0.7,0.2,1,0.3
				c2.8,0.9,5.4,2.3,7.6,4.4C31.6,186.4,31.3,179.2,30.9,172.2z"/>
			<path class="st3" d="M27.3,524c-2.9-0.8-5.8-1.9-8.7-2.8c0,11.4,0.1,22.5,0.1,33.2c5.1,6,9.8,12.5,14.2,19.1c1,1.5,2,3.1,3,4.6
				c0.1-16.7,0.2-34.7,0.3-53.5C33.3,525.2,30.2,524.8,27.3,524z"/>
			<path class="st3" d="M24.9,447c-1.4,2-2.8,5-3.9,8c-0.1,0.3-0.3,0.9-0.5,1.5c1.1,0.3,2.2,0.5,3.3,0.8c4.2,1.2,8.6,3.5,11.6,7.5
				c0.3,0.4,0.6,0.9,0.9,1.3c0-10-0.1-20.1-0.1-30.3C32.1,439.3,28.1,442.6,24.9,447z"/>
			<path class="st3" d="M33.4,341.7c0,11.2-0.2,22.4-1,33.5c1.2,0.8,2.3,1.7,3.3,2.7c-0.3-35.6-0.9-71.1-1.6-104.7
				c-0.2,0.3-0.4,0.7-0.6,1c0.3,10.3,0.1,20.7-0.1,30.7c-0.2,11.5,0,23.1,0,34.6c0.1,0.5,0.1,1,0.1,1.5
				C33.5,341.2,33.4,341.4,33.4,341.7z"/>
		</g>
	</g>
	<g>
		<g>
			<g>
				<path class="st4" d="M7.8,601c0.9,5.8,23.7,5.9,23,0c-4-37.7,24.4-96.2,0.7-120.4c-4.1-4.2-25.8-22.1-23.8-16.6
					C21.3,500,2.7,566.6,7.8,601z"/>
				<path class="st5" d="M47.4,702.5c-1.2,8.3-30.5-0.3-29.6-8.6c5.7-53.8-34.8-137.1-1-171.7c5.8-5.9,36.8-31.6,33.9-23.7
					C31.4,549.9,54.7,653.5,47.4,702.5z"/>
				<path class="st0" d="M12.4,707.2c1.8,3.9,36.5-0.6,35-4.6C38,676.8,76,630,37.9,617.7c-6.6-2.1-41.3-10.4-37.6-6.9
					C24,633.4,1.6,684,12.4,707.2z"/>
			</g>
			<g>
				<path class="st6" d="M32.7,481.8c0.4,0.9,0.8,1.9,1,2.9c0.5,2.4-0.6,4.9-3.1,5.6c-2.2,0.6-5-0.7-5.5-3.2
					c-0.1-0.3-0.4-1.2-0.4-1.1c-0.1-0.2-0.3-0.5-0.4-0.7c0,0,0,0,0,0c0,0,0,0,0,0c-0.1-0.2-0.3-0.3-0.4-0.5
					c-0.4-0.4-0.7-0.8-1.1-1.1c-0.2-0.2-0.5-0.4-0.8-0.7c-0.1-0.1-0.1-0.1-0.2-0.2c-0.5-0.4-1-0.7-1.4-1c-1-0.6-1.9-1.3-2.9-1.8
					c1.5,3.2,2.9,6.6,3.4,10.1c1.1,7.4,1.7,12.4-0.2,19.9c-1.4,5.8-4.8,12.1-9.1,16.2c0,0,0,0,0,0c-0.2,2.6-0.4,5.2-0.7,7.8
					c3.9-5,7.8-9.5,11.2-14.6c1.4-2,3.9-3,6.1-1.6c2,1.2,3,4.2,1.6,6.3c-6.7,10-14.8,18-20.7,28.2c-1.8,18.6-3.2,35.9-1.3,48.7
					c0.9,5.8,23.7,5.9,23,0c-0.8-7.4-0.3-15.7,0.8-24.3c-0.8-5.2-1.4-10.5-1.6-15.8c-0.2-3.5-0.2-7.1,0.1-10.6
					c0.5-5.6,1.1-11.3,2.4-16.7c1.3-5.4,3.4-10.5,5.6-15.6c0.9-2,1.8-3.9,2.9-5.8C41.3,500,39.3,489.4,32.7,481.8z"/>
				<path class="st6" d="M8.3,465.3c0.6,0.1,1.2,0.2,1.8,0.6c3.7,2.1,7.6,3.8,11.3,5.9C14.2,466,6.5,460.6,7.8,464
					C7.9,464.4,8.1,464.8,8.3,465.3z"/>
				<path class="st7" d="M16.8,522.2c-4.8,4.9-8,10.7-10.2,17.3c1.1-1.6,2.3-3.1,3.5-4.6c4.2-5.4,8.3-10.1,11.9-15.5
					c1.4-2,3.9-3,6.1-1.6c2,1.2,3,4.2,1.6,6.3c-7.8,11.7-17.5,20.6-23.3,33.4c-0.6,1.3-1.8,2-3.1,2.2c-0.7,16.7,2.4,35.9,6,55.5
					c0.7,0.4,1.5,0.9,2.2,1.2c0.4,0.2,0.7,0.3,1.1,0.5c-0.5-0.2-0.4-0.2,0,0c0.6,0.3,1.3,0.5,1.9,0.7c2.6,0.9,5.2,1.8,7.9,2.6
					c5.6,1.7,11.3,3.5,16.2,6.8c2,1.4,2.9,4,1.6,6.3c-1.2,2.1-4.1,3-6.1,1.6c-2.5-1.7-4.6-2.7-6.9-3.5c-2.6-1-5.3-1.8-8-2.7
					c-2.6-0.8-5.2-1.6-7.8-2.5c0.8,1.9,1.6,3.9,2.4,5.8c3.6,9.2,5.4,18.9,6,28.7c0.4,7-0.4,14-1.4,20.9c0,4.2-0.1,8.3-0.6,12.2
					c-0.5,4.5,7.7,9,15.5,11c-0.1-0.3-0.1-0.6-0.1-1c-0.6-4.2-1.5-8.7-1.1-13c0.4-4.4,0.8-9,2.1-13.2c1.2-4.1,2.9-8,4.6-11.8
					c2.5-5.7,6-10.8,9-16.1c-0.6-9.5-1.3-19.3-2-29.4c-3.1-3.3-5.4-7.4-6.8-11.9c-4.8-15.4-8.4-31.3-9.1-47.5
					c-0.2-3.5-0.2-7.1,0.1-10.6c0.5-5.6,1.1-11.3,2.4-16.7c1.3-5.4,3.4-10.5,5.6-15.6c1.3-3.1,3-6.1,4.9-8.9c1.8-3.1,4-5.7,6.7-7.8
					c0.3-0.9,0.6-1.8,1-2.7C53.6,490.7,22.6,516.3,16.8,522.2z"/>
				<path class="st8" d="M52.7,629c-2.5-4.9-7.1-8.8-14.8-11.3c-6.6-2.1-41.3-10.4-37.6-6.9c1.3,1.2,2.4,2.5,3.4,3.8
					c1.4-0.9,3.2-1.1,4.7-0.1c1,0.7,2.1,1.3,3.2,1.9c0.4,0.2,0.7,0.3,1.1,0.5c-0.5-0.2-0.4-0.2,0,0c0.6,0.3,1.3,0.5,1.9,0.7
					c2.6,0.9,5.2,1.8,7.9,2.6c5.6,1.7,11.3,3.5,16.2,6.8c2,1.4,2.9,4,1.6,6.3c-1.2,2.1-4.1,3-6.1,1.6c-2.5-1.7-4.6-2.7-6.9-3.5
					c-2.6-1-5.3-1.8-8-2.7c-2.6-0.8-5.2-1.6-7.8-2.5c0.8,1.9,1.6,3.9,2.4,5.8c3.6,9.2,5.4,18.9,6,28.7c0.5,7.9-0.7,15.6-1.8,23.3
					c-0.5,4.6-0.8,9.2-0.6,13.8c0,0.2,0.1,0.3,0.1,0.5c2,1.9,3.7,4,5.2,6.5c0.5,1.2,1,2.4,1.5,3.6c3.1-0.2,6.5-0.6,9.7-1.1
					c-0.3-1.1-0.5-2.3-0.7-3.5c-0.6-4.2-1.5-8.7-1.1-13c0.4-4.4,0.8-9,2.1-13.2c1.2-4.1,2.9-8,4.6-11.8c3.2-7.1,7.8-13.3,11.2-20.3
					c1.1-3.1,1.9-6.2,2.5-9.4C52.8,633.8,52.8,631.4,52.7,629z"/>
			</g>
		</g>
		<g>
			
				<linearGradient id="SVGID_1_" gradientUnits="userSpaceOnUse" x1="-429.1741" y1="3155.7913" x2="-372.5158" y2="3155.7913" gradientTransform="matrix(1 0 0 1 429.2087 -2525.5845)">
				<stop  offset="0" style="stop-color:#350345"/>
				<stop  offset="0.4303" style="stop-color:#D14CBA"/>
				<stop  offset="1" style="stop-color:#460D58"/>
			</linearGradient>
			<path class="st9" d="M0,610.3c1.8-0.3,3.7-0.4,5.6-0.3c1.9,0.1,3.8,0.3,5.6,0.8c1.7,0.4,3.5,0.8,5.3,1.1c1.8,0.3,3.6,0.6,5.4,1.1
				c0.9,0.2,1.8,0.5,2.7,0.8c0.4,0.1,0.9,0.3,1.3,0.5l1.3,0.5c1.7,0.6,3.5,1.3,5.2,1.9c1.7,0.6,3.5,1.2,5.2,1.8
				c1.7,0.6,3.5,1.2,5.3,1.8c0.9,0.3,1.7,0.6,2.6,1l1.3,0.5l1.3,0.6l0.3,0.1l0.3,0.2c0.2,0.1,0.5,0.2,0.7,0.4
				c0.4,0.3,0.9,0.6,1.3,0.9c0.8,0.6,1.5,1.4,2.2,2.2c1.3,1.6,2.2,3.5,2.8,5.4c0.6,1.9,0.9,4,0.9,6c0,0.5,0,1-0.1,1.5
				c0,0.3,0,0.5-0.1,0.8l-0.1,0.7c-0.1,0.9-0.2,1.9-0.4,2.9c-0.2,1-0.5,2-0.9,3c-0.4,1-1.1,2-2,2.7c-0.4,0.4-0.9,0.7-1.4,0.9
				l-0.2,0.1l-0.2,0.1c-0.1,0.1-0.3,0.1-0.4,0.1c-0.3,0.1-0.5,0.1-0.8,0.2c-1,0.2-2.1,0.1-3.1-0.2c-1-0.3-2-0.7-2.7-1.6
				c-0.3-0.4-0.6-0.9-0.7-1.4c-0.1-0.5-0.1-1,0-1.5l0.3,0c0,0.5,0.1,0.9,0.3,1.3c0.2,0.4,0.4,0.7,0.7,0.9c0.6,0.5,1.4,0.7,2.3,0.8
				c0.4,0,0.8,0,1.2,0c0.4,0,0.8-0.1,1.2-0.2c0.2-0.1,0.4-0.1,0.5-0.2c0.1,0,0.2-0.1,0.2-0.1l0.1-0.1c0,0,0.1,0,0.1-0.1
				c0.3-0.2,0.6-0.4,0.9-0.7c1-1,1.4-2.6,1.6-4.4c0.1-0.9,0.2-1.8,0.2-2.7l0-0.7c0-0.2,0-0.4,0-0.6c0-0.4,0-0.9,0-1.3
				c0-1.7-0.3-3.5-0.7-5.1c-0.5-1.7-1.1-3.3-2.1-4.6c-0.5-0.7-1-1.3-1.6-1.9c-0.3-0.3-0.6-0.5-0.9-0.8c-0.2-0.1-0.3-0.2-0.5-0.3
				l-0.3-0.2l-0.3-0.2c-1.6-0.9-3.2-1.9-4.8-2.7c-1.6-0.9-3.3-1.7-5-2.4c-1.7-0.7-3.4-1.3-5.2-1.9c-1.8-0.5-3.6-0.9-5.4-1.2
				l-1.4-0.2c-0.4-0.1-0.9-0.1-1.3-0.2l-2.7-0.4c-1.8-0.3-3.6-0.5-5.4-0.9c-1.8-0.4-3.7-0.9-5.4-1.5c-1.7-0.6-3.4-1-5.2-1.4
				c-1.8-0.4-3.6-0.7-5.4-1L0,610.3z"/>
			
				<linearGradient id="SVGID_2_" gradientUnits="userSpaceOnUse" x1="-425.5414" y1="3051.2913" x2="-377.5137" y2="3051.2913" gradientTransform="matrix(1 0 0 1 429.2087 -2525.5845)">
				<stop  offset="0" style="stop-color:#350345"/>
				<stop  offset="0.4303" style="stop-color:#D14CBA"/>
				<stop  offset="1" style="stop-color:#460D58"/>
			</linearGradient>
			<path class="st10" d="M47.5,507.3C47.5,507.3,47.5,507.3,47.5,507.3c-0.1-0.1-0.2-0.1-0.2-0.1c-0.1-0.1-0.1-0.1-0.2-0.2
				c-0.1-0.2-0.1-0.3-0.1-0.5c0-0.3,0-0.6,0.1-0.9c0.1-0.6,0.3-1.1,0.5-1.6c0.4-1,0.8-2,1.2-3c0.2-0.5,0.4-1,0.6-1.4
				c0.2-0.5,0.3-0.9,0.3-1.3c0-0.2,0-0.3,0-0.3c0,0,0,0,0,0c0,0,0.1,0.1,0,0.1l0,0l0,0c0,0,0.1,0.1,0.1,0.1c0,0,0,0,0,0
				c0.1,0,0.1,0,0,0c-0.1,0-0.2,0-0.4,0.1c-0.2,0-0.4,0.1-0.6,0.2c-0.9,0.3-1.8,0.7-2.7,1.2c-0.9,0.5-1.8,1-2.7,1.5l-2.7,1.6
				c-0.9,0.5-1.7,1.1-2.6,1.7c-3.4,2.4-6.6,5.2-9.5,8.3c-2.9,3.2-6.1,6.1-9,9.2c-0.7,0.8-1.5,1.5-2.2,2.3c-0.4,0.4-0.7,0.8-1.1,1.2
				c-0.4,0.4-0.7,0.8-1,1.2c-1.3,1.6-2.5,3.2-3.6,5c-2.1,3.6-3.7,7.4-4.5,11.4c-0.4,2-0.5,4-0.2,5.8c0.2,0.9,0.5,1.7,1,2.5
				c0.5,0.7,1.1,1.4,1.8,1.8c0.7,0.4,1.5,0.5,2.3,0.3c0.4-0.1,0.8-0.3,1.3-0.5c0.4-0.2,0.9-0.5,1.3-0.8c0.8-0.6,1.6-1.2,2.3-2
				c0.3-0.4,0.6-0.8,0.7-1.3c0.1-0.5,0.1-1-0.1-1.4l0.2-0.2c0.4,0.4,0.6,1.1,0.5,1.7c0,0.6-0.3,1.2-0.5,1.7c-0.6,1-1.3,1.9-2.2,2.6
				c-0.4,0.4-0.9,0.7-1.3,1.1c-0.5,0.3-0.9,0.6-1.6,0.9c-0.6,0.2-1.3,0.4-1.9,0.4c-0.7,0-1.3-0.2-1.9-0.4c-1.2-0.5-2.2-1.4-3-2.3
				c-0.8-1-1.3-2.1-1.7-3.4c-0.6-2.4-0.5-4.8-0.1-7.1c0.4-2.3,1.1-4.5,2-6.5c0.9-2.1,2-4,3.2-5.8c1.2-1.8,2.6-3.6,4.2-5.1
				c0.8-0.8,1.6-1.5,2.4-2.2c0.8-0.7,1.7-1.4,2.5-2c1.7-1.3,3.4-2.6,4.9-4c0.8-0.7,1.6-1.4,2.3-2.2c0.7-0.7,1.4-1.5,2.1-2.4
				c1.4-1.6,2.7-3.3,4.2-4.9c1.4-1.6,2.9-3.3,4.6-4.7c0.8-0.7,1.7-1.4,2.7-2c0.9-0.6,1.8-1.1,2.8-1.6c0.9-0.5,1.9-1,2.9-1.5
				c1-0.4,2-0.9,3.2-1.1c0.3-0.1,0.6-0.1,0.9-0.2c0.3,0,0.7-0.1,1.1,0c0.2,0.1,0.5,0.1,0.8,0.3c0.1,0,0.1,0.1,0.2,0.2
				c0.1,0.1,0.2,0.2,0.2,0.3l0.1,0.2c0,0.1,0.1,0.1,0.1,0.2c0.2,0.5,0.2,1,0.1,1.3c-0.1,0.7-0.4,1.3-0.6,1.8c-0.3,0.5-0.5,1-0.8,1.5
				c-0.6,0.9-1.2,1.8-1.7,2.7c-0.3,0.4-0.5,0.9-0.7,1.4c-0.2,0.5-0.4,1-0.1,1.3L47.5,507.3z"/>
			
				<linearGradient id="SVGID_3_" gradientUnits="userSpaceOnUse" x1="-421.4972" y1="3004.1992" x2="-390.2958" y2="3004.1992" gradientTransform="matrix(1 0 0 1 429.2087 -2525.5845)">
				<stop  offset="0" style="stop-color:#350345"/>
				<stop  offset="0.4303" style="stop-color:#D14CBA"/>
				<stop  offset="1" style="stop-color:#460D58"/>
			</linearGradient>
			<path class="st11" d="M31.5,491.4c-0.1,0.5,0.1,0.9,0.4,1.1c0.3,0.2,0.8,0.4,1.2,0.5c0.9,0.2,1.8,0.1,2.3-0.3
				c0.3-0.2,0.5-0.4,0.6-0.7c0.1-0.3,0.2-0.6,0.2-1c0-0.2,0-0.4,0-0.6c0-0.2,0-0.4-0.1-0.6c-0.1-0.4-0.2-0.8-0.4-1.2
				c-0.7-1.7-1.8-3.5-3.1-5.2c-0.3-0.4-0.7-0.8-1-1.2c-0.4-0.4-0.7-0.8-1.1-1.1c-0.8-0.7-1.6-1.4-2.4-2c-0.9-0.6-1.8-1.1-2.7-1.7
				c-0.9-0.5-1.8-1.1-2.7-1.6c-1.8-1.1-3.5-2.3-5.3-3.5c-1.7-1.3-3.4-2.7-4.9-4.3c-0.2-0.2-0.4-0.4-0.6-0.6
				c-0.2-0.2-0.4-0.4-0.6-0.6l-1-1.2c-0.6-0.7-1.3-1.4-1.9-1.6l0.7-0.3c-0.1,0.1-0.3,0.3-0.4,0.5c-0.1,0.2-0.1,0.4-0.2,0.7
				c0,0.3,0,0.5,0.1,0.8c0.1,0.3,0.2,0.6,0.3,0.8L9,466.5c-0.2-0.2-0.5-0.4-0.7-0.7c-0.2-0.3-0.4-0.6-0.5-0.9
				c-0.1-0.3-0.2-0.7-0.1-1.1c0-0.4,0.2-0.8,0.4-1.2l0.2-0.3l0.5,0c0.7,0,1.4,0.2,1.9,0.5c0.5,0.3,1,0.6,1.5,1
				c0.4,0.4,0.9,0.7,1.2,1.1c0.2,0.2,0.4,0.3,0.6,0.5l0.6,0.5c1.6,1.3,3.2,2.5,4.8,3.8c1.6,1.3,3.3,2.6,4.9,4
				c0.8,0.7,1.6,1.4,2.4,2.2c0.8,0.8,1.5,1.5,2.3,2.3c0.8,0.8,1.5,1.5,2.3,2.3c0.4,0.4,0.8,0.8,1.1,1.1c0.4,0.4,0.8,0.7,1.2,1.1
				c0.8,0.7,1.7,1.4,2.5,2.1c0.8,0.8,1.6,1.6,2.1,2.7c0.3,0.5,0.5,1.1,0.6,1.8c0.1,0.3,0.1,0.6,0.1,1c0,0.3,0,0.7,0,1
				c-0.1,0.7-0.3,1.4-0.7,2c-0.2,0.3-0.5,0.6-0.8,0.9c-0.3,0.2-0.6,0.4-1,0.6c-0.7,0.3-1.4,0.3-2,0.2c-0.6-0.1-1.2-0.3-1.8-0.6
				c-0.5-0.3-1-0.7-1.4-1.3c-0.2-0.3-0.3-0.6-0.3-1c0-0.4,0.1-0.7,0.3-0.9L31.5,491.4z"/>
		</g>
	</g>
</g>
</svg>
