<?xml version="1.0" encoding="utf-8"?>
<!-- Generator: Adobe Illustrator 23.0.3, SVG Export Plug-In . SVG Version: 6.00 Build 0)  -->
<svg version="1.1" id="Layer_1" xmlns="http://www.w3.org/2000/svg" xmlns:xlink="http://www.w3.org/1999/xlink" x="0px" y="0px"
	 viewBox="0 0 56.7 708.7" style="enable-background:new 0 0 56.7 708.7;" xml:space="preserve">
<style type="text/css">
	.st0{fill:#A17B31;}
	.st1{fill:#B78839;}
	.st2{fill:#86701E;}
	.st3{fill:#9C7F25;}
	.st4{fill:#9B752F;}
	.st5{fill:#674B1B;}
	.st6{fill:#856528;}
	.st7{fill:#7A5A1D;}
	.st8{fill:#8F6823;}
	.st9{fill:url(#SVGID_1_);}
	.st10{fill:url(#SVGID_2_);}
	.st11{fill:url(#SVGID_3_);}
	.st12{fill:url(#SVGID_4_);}
</style>
<g>
	<g>
		<g>
			<path class="st0" d="M30.9,0.9c-0.9-1.2-4.2-1.2-5.1,0c-6.7,8.5-7.2,600.7-7.5,575.6c0.9,91,7.4,125,10,125c2.6,0,9.1-34,10-125
				C38.1,601.6,37.6,9.4,30.9,0.9z"/>
			<path class="st1" d="M30,237.5c-0.6-0.8-2.8-0.8-3.4,0c-4.4,5.6-4.8,397.8-4.9,381.2c0.6,60.2,4.9,82.7,6.6,82.7
				c1.8,0,6-22.5,6.6-82.7C34.8,635.3,34.4,243.2,30,237.5z"/>
		</g>
		<g>
			<path class="st2" d="M19.5,332.7c5.4-8.8,11.2-17,17.6-24.3c0-7.1-0.1-14.3-0.1-21.4c-6.1,5.2-11.9,10.7-17.3,16.9
				C19.6,313.4,19.5,323.1,19.5,332.7z"/>
			<path class="st2" d="M25,356.2c-1.8,2.3-3.7,4.6-5.7,6.8c0,4.4,0,8.7-0.1,13.1c5.7-11.5,10.6-23.7,16.2-35.4
				C32.2,346.1,28.7,351.4,25,356.2z"/>
			<path class="st2" d="M36.1,189.1c-2.6-1.6-5.1-3.4-7.5-5.1c-2.7-1.9-5.3-4-7.9-6.1c0,1.9,0,3.7-0.1,5.6c5,4.2,10.2,8.1,15.5,11.8
				C36.1,193.2,36.1,191.1,36.1,189.1z"/>
			<path class="st2" d="M36.8,271c0-0.2,0-0.3,0-0.5c-5.8-0.5-11.5-2.1-16.9-4.9c-0.1,7-0.1,13.9-0.2,20.9
				c3.9-3.9,7.9-7.6,11.9-11.1C33.4,273.9,35.1,272.4,36.8,271z"/>
			<path class="st2" d="M35.9,173.8c-0.1-6.1-0.1-12.2-0.2-18.1c-4.8-3.8-9.7-7.4-14.5-11c-0.1,5.7-0.1,11.5-0.2,17.4
				c3.6,3.1,7.2,6.1,10.9,8.8C33.2,171.8,34.5,172.8,35.9,173.8z"/>
			<path class="st2" d="M38,500.5c0-3.6,0-7.4,0-11.2c-0.6,3.3-1.2,6.7-1.7,10.1C36.9,499.7,37.5,500,38,500.5z"/>
			<path class="st2" d="M19.7,499.6c0.9-1.7,1.8-3.4,2.6-5.2c3.6-8,5.8-15.1,8.1-23.5c2.9-10.7,5.1-21.6,7.5-32.5
				c0-6.1-0.1-12.3-0.1-18.6C30.6,446.1,21.9,471.9,19.7,499.6z"/>
			<path class="st2" d="M36.5,377.2c0.3-0.6,0.6-1.2,1-1.6c0-3,0-6,0-9c-5.2,13.1-10.4,26.2-15,39.7c-1.2,3.5-2.3,6.9-3.4,10.5
				c0,3.6,0,7.1,0,10.6c0.1-0.3,0.2-0.6,0.3-0.9C24.5,410,29.3,392.5,36.5,377.2z"/>
			<path class="st2" d="M23.6,29.1c-0.1,3.7-0.3,7.8-0.4,12.2c3.5,1.1,7,2,10.5,2.7c-0.1-2.7-0.2-5.4-0.3-7.9
				c-0.4-0.3-0.8-0.7-1.2-1c-2.1-1.7-4.3-3.3-6.6-4.8C24.9,30,24.3,29.5,23.6,29.1z"/>
			<path class="st2" d="M35.1,114.5c-0.1-7.8-0.3-15.4-0.4-22.6c-3.5-2.7-7.1-5.2-10.6-7.8c-0.7-0.5-1.3-1-2-1.4
				c-0.2,8.2-0.3,16.9-0.5,26C26.1,110.9,30.5,113,35.1,114.5z"/>
			<path class="st2" d="M28.4,227.9c-0.9-0.5-1.8-1.1-2.7-1.6c-0.3-0.1-0.5-0.3-0.8-0.4c-0.2-0.1-0.6-0.3-0.7-0.4
				c-1.3-0.7-2.6-1.4-4-2c-0.1,9-0.2,18.2-0.2,27.4c0.7,0.5,1.5,1,2.2,1.4c0,0,0,0,0,0c0.3,0.1,0.5,0.3,0.8,0.4
				c2.6,1.2,5,2.5,7.7,3.3c2,0.5,3.9,0.9,5.9,1.1c-0.1-8-0.1-16-0.2-23.9C33.8,231.3,31.1,229.5,28.4,227.9z"/>
			<path class="st2" d="M38.1,515.9c-0.7,2-1.6,4-2.6,5.9c0,0.5-0.1,1.1-0.1,1.6c-0.1,1.3-0.1,2.6-0.2,3.9c-0.1,2.6-0.1,5.3-0.1,7.9
				c-0.1,8.8,0.2,21.4-5.5,27.5c-2.2,2.3-5,2.8-7.1,0c-1.8-2.4-2.2-7.3,0-9.6c0.3-0.3,0.6-0.6,0.8-1c0,0,0,0,0-0.1
				c0.2-0.4,0.3-0.7,0.5-1.1c0,0,0-0.1,0-0.1c0.2-1,0.4-1.9,0.6-2.9c0.1-0.5,0.2-1.1,0.2-1.6c0-0.1,0-0.1,0-0.2c0-0.1,0-0.2,0-0.2
				c0.4-5,0.3-10.1,0.4-15.2c0-2.4,0.1-5,0.2-7.6c-0.2-0.8-0.3-1.6-0.4-2.4c-0.1-2.7-0.1-5.5,0-8.2c-1.9,2.7-4,5.1-6.3,7.2
				c-0.1,39.4-0.2,62.4-0.3,57c0.9,91,7.4,125,10,125c2.6,0,9.1-34,10-125C38.3,582,38.2,557.5,38.1,515.9z"/>
			<path class="st2" d="M31.8,5.7c-0.3-2.7-0.6-4.4-0.9-4.8c-0.9-1.2-4.2-1.2-5.1,0c-0.2,0.3-0.4,1.3-0.7,2.8
				C27.4,4.3,29.6,5,31.8,5.7z"/>
			<path class="st2" d="M20.5,199.2c0,3.3-0.1,6.6-0.1,9.9c4.4,1.7,8.6,4.2,12.7,6.8c1.1,0.7,2.2,1.4,3.3,2.1c0-2.4,0-4.8-0.1-7.2
				C31,207.1,25.7,203.3,20.5,199.2z"/>
			<path class="st2" d="M21.5,123c0,2-0.1,4.1-0.1,6.1c4.3,3.3,8.7,6.5,13,9.8c0.4,0.3,0.7,0.6,1.1,0.8c-0.1-3.8-0.1-7.6-0.2-11.4
				C30.6,127.2,25.9,125.2,21.5,123z"/>
			<path class="st2" d="M34,57.7c-3.8-0.7-7.5-1.8-11.2-2.9c-0.1,4-0.2,8.1-0.3,12.4c3.9,3.1,7.9,5.9,11.9,8.8
				C34.3,69.6,34.1,63.5,34,57.7z"/>
			<path class="st3" d="M33.6,376.2c-3.8,9.5-7.4,19.2-10.8,29c0,3.3-0.1,6.7-0.1,10.1c3.3-10.7,6.7-21.5,10.9-31.7
				C33.7,381.1,33.6,378.6,33.6,376.2z"/>
			<path class="st3" d="M34.7,547.7c-0.5,5.8-1.8,11.4-5.1,14.9c-2.2,2.3-5,2.8-7.1,0c-0.2-0.2-0.3-0.5-0.5-0.7
				c-0.1,37.5-0.2,61.2-0.2,56.8c0.6,60.2,4.9,82.7,6.6,82.7c1.8,0,6-22.5,6.6-82.7C34.9,623.6,34.9,593.2,34.7,547.7z"/>
			<path class="st3" d="M32.1,275c0-1.8-0.1-3.5-0.1-5.2c-2.4-0.5-4.8-1.1-7.1-2c-0.1,4.3-0.2,9.1-0.4,14.1c2.4-2.2,4.8-4.4,7.2-6.5
				C31.8,275.3,31.9,275.1,32.1,275z"/>
			<path class="st3" d="M25,356.2c-0.6,0.7-1.2,1.5-1.7,2.2c0,3.1-0.1,6.2-0.1,9.3c3.4-7.5,6.7-15.1,10.1-22.5c0-0.3,0-0.7,0-1
				C30.7,348.4,27.9,352.4,25,356.2z"/>
			<path class="st3" d="M23.7,326.1c2.9-4.4,6-8.6,9.2-12.6c-0.1-8-0.3-15.5-0.4-22.6c-2.9,2.6-5.6,5.3-8.3,8.1
				C23.9,307.4,23.8,316.5,23.7,326.1z"/>
			<path class="st3" d="M34.2,454.6c0-7.2-0.1-14.5-0.1-21.8c-4.4,15.4-8.8,30.8-11.7,46.7c0,5-0.1,9.9-0.1,14.8
				c3.6-8,5.8-15.1,8-23.5C31.7,465.5,33,460.1,34.2,454.6z"/>
			<path class="st3" d="M26.7,237.5c-0.5,0.6-1,6.4-1.4,16.1c1.8,0.9,3.6,1.7,5.5,2.2c0.2,0.1,0.5,0.1,0.7,0.2
				c-0.4-11.2-0.9-17.9-1.5-18.6C29.4,236.8,27.3,236.8,26.7,237.5z"/>
			<path class="st3" d="M22.1,515.9c-0.1,13.4-0.1,26-0.2,37.6c0.1-0.2,0.3-0.4,0.4-0.5c0.3-0.3,0.6-0.6,0.8-1c0,0,0,0,0-0.1
				c0.2-0.4,0.3-0.7,0.5-1.1c0,0,0-0.1,0-0.1c0.2-1,0.4-1.9,0.6-2.9c0.1-0.5,0.2-1.1,0.2-1.6c0-0.1,0-0.1,0-0.2c0-0.1,0-0.2,0-0.2
				c0.4-5,0.3-10.1,0.4-15.2c0-2.4,0.1-5,0.2-7.6c-0.2-0.8-0.3-1.6-0.4-2.4c-0.1-2.7-0.1-5.5,0-8.2
				C24.1,513.6,23.1,514.8,22.1,515.9z"/>
		</g>
	</g>
	<g>
		<path class="st4" d="M52.3,649c-3.3-1.7-5.7-3.6-8.1-8.2c-2.4-4.7-3.6-11.6-6.2-15.9c-4.6-7.7-5.5,15.9-5.8,19.7
			c-0.4,5.5-1,10.8-1.8,16.2c-0.6,3.8-0.9,9.1-2.4,12.4c-1.2,2.7-4.1,4.7-4,7.9l-2.3,3.8c0.6,3.6,1.2,18.2-3.2,16.1
			c0.4-4.5-5-1.8-4.4,3.8c0.6,6.1,5.5,3.4,7.8,2.1c8-4.4,9.8-16.2,13-27.5c1-3.5,2.5-6,4.4-8.2c-1.1,4,1.1,6.2,3.2,7.2
			c2.2,1.1,4.5,0.3,6.1-2.9c2.6-5.1,3-13.9,1.9-19.9C53.9,657.9,56.2,651,52.3,649z"/>
		<path class="st5" d="M40.9,631.9c-3.7-7.8-5.5-14.7-6.6-24.3c-2.1-18.9,0.4-39.6,4-57.4c5.9-29,21.3-55.2,15.8-87.9
			c-1.1-6.5-4.2-14.8-7.7-18.7c-3.3-3.8-9.6-5.4-12.5,0.5c-3.1,6.4-2.5,16.7-1.7,24.2c0.4,4,1.4,8.2,2.9,11.5c0.8,1.8,3.5,6.1,4.5,5
			l-3.2,11c-2-5.2-5.1-6.8-8.7-1.7c-3,4.3-2.9,11.2-4.4,16.7c-0.5-4.4,0.3-9.8-3.1-11.6c-2.9-1.5-7.3,2.5-8,7.1
			c-0.6,3.4,1.5,5.3,1.2,7.7c-0.2,1.3-1.2,2.4-2.1,3.1c-0.5,0-0.9,0.1-1.4,0.2c-4.2,1-9,5-9.7,12.8c-0.9,9.2,0.8,14.9,6,16.5
			c5.2,1.6,6.9,3.1,8.6,12c0.6,3.3,1.8,7.9,0.9,11.4c-0.2,0.9-0.5,1.6-0.8,2.2c-1-0.6-2-0.6-2.9-0.1c-0.1-0.2-0.2-0.4-0.4-0.6v0.8
			c-2.7,1.7-4.4,7.3-4.3,12c0.3,8.7,2.9,10.8,5.4,17.6c2.2,6.2,1,16,2.6,22.9c2.3,10,4.9,17.9,11,22.4c4.2,3.1,9.1,9.3,13.5,10.8
			c1.9,0.7,5.2-1.4,6.6,1c1.3,2.2,0.9,8.8-1.4,8.8c2.5-3.7-0.9-8.2-2.8-3.6c-1.2,3,0.6,11,2.8,12.2c6.7,3.4,5.7-17.2,4.8-22.3
			C48.2,645.5,44.2,638.9,40.9,631.9z"/>
		<g>
			<path class="st6" d="M42.9,633.4c-3.9-13.6-5.8-29.6-5.4-44.6c0.4-19.6,1.8-37.8,5.1-56.7c1-6.1,2.3-12.5,4-18.2
				c0.8-2.6,2.7-6.6,2.9-8.4l-6-7.1c-6.6,3.6-11.7,9.2-16.6,18.1c-3.7,6.6-5.3,8.5-10.4,4.4c-4.4-3.6-8.4-3.8-12.2,1.3
				c-3.4,4.5-5.8,17.7-0.5,21.7c1.8,1.4,5.1,0.7,6.3-2.3c1.1-2.8,0.1-9.1-2.3-5.8c2.9,2-0.4,9.8-2.7,4.9c-2.2-4.5,0.7-8.3,3.2-8.1
				c5.9,0.4,8.4,12.1,10.4,20c1.9,7.6,0.8,18.5,0.8,26.6c0,16.2-1.5,32.3-0.1,48.1c0.4,4,0.6,8,1.4,11.8c0.8,3.6,1.9,5.9,1.8,10
				c-0.3,7.8-5.5,9.8-5.4,18.1c0.1,8.2,4.6,13,4.6,21.4c0,8-2.9,12-6.3,16.5c12.8-1.3,17-17.9,20-36.6c1.2-7.6,4.2-12.8,8.9-15.4
				c2.7-1.5,7.6,1.8,9.4-1.5C48.1,651.1,45,640.8,42.9,633.4z"/>
			<path class="st4" d="M38.5,443.5c-6.7,2.3-12.8,17.1-4.8,25.1c9.7,9.7,9.8-16.8,3.9-12.6c2.1-0.5,2.7,2.9,1.7,5.9
				c-6.1,2.9-5.5-14.7,1.4-12c4.9,2,4.3,15.5,2.6,22.1c-2.1,8.1-7.4,11.7-10.8,17.8c-5.5,9.6-6.7,29.6-4.3,41.9l-0.3,3.7
				c-0.4-1.2-1-1.1-1.4-2.7c-3.5,0.6,0.7,7.8-0.8,12c-2.3,6.2-4.8,0.3-5.2-4.8c-6.4-2.4-5.2,12.7-3.3,17.5c3,7.4,6.7,9.2,6.4,18.7
				c-0.2,6.9-1.8,17.3-7.4,15c-2.6-1.1-4.4-4.7-4.3-9.3c0.1-4.3,2.1-7.4,2.2-1.5c5.9,2.7,2.7-15.5-3.5-9.4
				c-8.8,8.7,1.4,35.3,11.1,28.9c11.3-7.5,9.9-38,10-54.2c0.1-12.6,1.2-27.8,9.5-32.4c3.3-1.9,6.9,0,10-3.2c3.4-3.5,4.5-9.9,5-15.9
				C58.1,473.8,55.5,437.6,38.5,443.5z"/>
		</g>
		<g>
			<path class="st7" d="M42.9,633.4c-3.9-13.6-5.8-29.6-5.4-44.6c0.4-19.6,1.8-37.8,5.1-56.7c1-6.1,2.3-12.5,4-18.2
				c0.8-2.6,2.7-6.6,2.9-8.4l-5.6-6.7c-0.5,1.2-1,2.4-1.4,3.6c-0.1,0.3-0.2,0.7-0.3,1c-0.2,0.4-0.4,0.9-0.5,1.3
				c-1.4,3.2-3.8,4.8-6,2.6c-0.5-0.5-0.9-1.1-1.2-1.8c-2.6,2.9-5.1,6.5-7.5,10.8c-3.7,6.6-5.3,8.5-10.4,4.4
				c-4.4-3.6-8.4-3.8-12.2,1.3c-3.4,4.5-5.8,17.7-0.5,21.7c1.8,1.4,5.1,0.7,6.3-2.3c0.1-0.3,0.2-0.5,0.3-0.9
				c-0.7,0.4-1.4,0.5-2.2,0.5c-0.7,1.2-1.9,1.5-2.9-0.2c-1.9-0.8-3.4-3.7-3.4-7.1c0-3.7,0.6-8.6,2.9-10.3c1.1-0.8,1.9-1.2,3.1-1.3
				c0.2,0,0.3,0,0.5-0.1c0,0,0.1,0,0.2-0.1c13-7.2,19.8,19.3,19.9,36.5c0,4-2,7.3-4.4,7.3c-2.4,0-4.4-3.3-4.4-7.3
				c0-0.9,0-1.8-0.1-2.6c0-0.4-0.1-1.9-0.1-1.8c-0.1-1.4-0.3-2.8-0.5-4.1c-0.3-1.7-0.6-3.4-1-5.1c0-0.2-0.2-0.9-0.3-1
				c0-0.1,0-0.1,0-0.2c-0.2-0.8-0.5-1.6-0.7-2.3c-0.3-0.9-0.6-1.7-1-2.5c0,0,0-0.1-0.1-0.1c-0.1-0.2-0.3-0.5-0.4-0.7
				c-0.2-0.4-0.5-0.8-0.7-1.1c-0.2-0.2-0.7-0.8-0.8-0.9c-0.1-0.1-0.2-0.2-0.2-0.2c-0.1,0-0.1-0.1-0.2-0.1c0,0,0,0,0,0
				c0,0.2-0.1,0.5-0.2,0.7c2.5,4.2,4,10.9,5.3,16c1.9,7.6,0.8,18.5,0.8,26.6c0,16.2-1.5,32.3-0.1,48.1c0.4,4,0.6,8,1.4,11.8
				c0.8,3.6,1.9,5.9,1.8,10c-0.3,7.8-5.5,9.8-5.4,18.1c0.1,8.2,4.6,13,4.6,21.4c0,8-2.9,12-6.3,16.5c12.8-1.3,17-17.9,20-36.6
				c0.3-1.9,0.7-3.7,1.2-5.2c-0.6-0.6-1.3-1.3-1.9-1.9c-0.1,1.9-0.1,3.9-0.1,5.8c0,4-2,7.3-4.4,7.3c-2.4,0-4.4-3.3-4.4-7.3v-25.7
				c0-4,2-7.3,4.4-7.3c2.4,0,4.4,3.3,4.4,7.3v0.7c0.8-0.9,1.7-1.3,2.6-1.2c1.2-0.2,2.5,0.6,3.5,2c0,0,0,0,0,0c0.6,0.6,1.2,1.3,1.7,2
				c1,1.4,1.9,3.3,2.4,5.3c0.2,0.8,0.4,1.7,0.4,2.5c2.8-0.4,6.7,1.8,8.3-1.1C48.1,651.1,45,640.8,42.9,633.4z M26.3,608.8
				c-2.4,0-4.4-3.3-4.4-7.3c0-5.4,0-10.1-1-15.2c-0.7-3.8,0.8-7.9,3.1-9c2.4-1.1,4.7,1.3,5.4,5.1c1.2,6.2,1.3,12.6,1.3,19
				C30.7,605.5,28.7,608.8,26.3,608.8z"/>
			<path class="st8" d="M21.3,588.5c-1.1,2.3-2.8,3.5-5.1,2.6c-2.6-1.1-4.4-4.7-4.3-9.3c0.1-4.3,2.1-7.4,2.2-1.5
				c5.9,2.7,2.7-15.5-3.5-9.4c-8.8,8.7,1.4,35.3,11.1,28.9c0.1-0.1,0.2-0.1,0.3-0.2C21.9,595.8,21.8,592.2,21.3,588.5z"/>
			<path class="st8" d="M33.7,468.6c9.7,9.7,9.8-16.8,3.9-12.6c2.1-0.5,2.7,2.9,1.7,5.9c-5.4,2.6-5.5-10.9-0.7-12.2c0-1,0.2-2,0.6-3
				c1.2-3.4,4-4.7,6-2.6c1,1,1.9,2,2.7,3.2c1.6,1.9,3.2,4,4.4,6.5c0.9,1.8,1.6,3.6,2.2,5.4c-2.5-10.9-7.4-18.6-16-15.7
				C31.8,445.8,25.7,460.6,33.7,468.6z"/>
			<path class="st8" d="M56.4,472.4c-0.4,2-1.4,3.7-2.6,4.5c-0.1,0.9-0.2,1.9-0.3,2.8c0.1,1.5-0.1,3.2-0.5,4.7
				c-0.2,0.7-0.4,1.4-0.6,2.1c-0.5,2-1,3.8-1.7,5.5c-1.2,3-3.4,4.5-5.5,3c-0.1,0.4-0.3,0.9-0.5,1.3c-0.7,2-1.6,4-2.3,6
				c-0.1,0.3-0.2,0.7-0.3,1c-0.2,0.4-0.4,0.9-0.5,1.3c-1.4,3.2-3.8,4.8-6,2.6c-2.1-2-2.8-6.5-1.6-10c1-2.9,2.2-5.5,3.2-8.4
				c0.1-0.3,0.3-0.7,0.4-1.1c0.1-0.5,0.2-1,0.4-1.4c0.3-0.9,0.7-1.9,1.1-2.8c1.2-2.8,2.3-4.9,3.3-7.3c0.1-0.8,0.2-1.6,0.3-2.4
				c0-0.2,0.1-0.4,0.1-0.6c-2.3,7.1-7.2,10.6-10.4,16.3c-5.5,9.6-6.7,29.6-4.3,41.9l-0.3,3.7c-0.4-1.2-1-1.1-1.4-2.7
				c-1.5,0.2-1.6,1.6-1.3,3.5c2.2,7.1,3.3,15.6,3.3,22.5c0,4-2,7.3-4.4,7.3c-2.4,0-4.4-3.3-4.4-7.3c0-0.9,0-1.8-0.1-2.6
				c0-0.4-0.1-1.9-0.1-1.8c-0.1-1.4-0.3-2.8-0.5-4.1c-0.3-1.7-0.6-3.4-1-5.1c0-0.2-0.2-0.9-0.3-1c0-0.1,0-0.1,0-0.2
				c-0.2-0.8-0.5-1.6-0.7-2.3c-0.1-0.2-0.1-0.3-0.2-0.5c-2.1,3.6-1.1,12.7,0.4,16.3c3,7.4,6.7,9.2,6.4,18.7c0,0.5,0,1-0.1,1.6
				c0.2-0.1,0.3-0.2,0.5-0.3c2.4-1.1,4.7,1.3,5.4,5.1c0.1,0.5,0.2,1,0.3,1.6c2.4-12.2,1.9-28.2,2-38.4c0.1-12.6,1.2-27.8,9.5-32.4
				c3.3-1.9,6.9,0,10-3.2c3.4-3.5,4.5-9.9,5-15.9C56.7,487.8,56.9,480,56.4,472.4z"/>
			<path class="st8" d="M45.3,469.3c0-0.4,0-0.8-0.1-1.2c0,0,0,0,0,0c0-0.2,0-0.4-0.1-0.5c-0.1-0.6-0.2-1.3-0.3-1.9
				c0-0.1,0-0.2-0.1-0.3c0,0,0,0,0,0c0-0.2-0.1-0.4-0.2-0.6c-0.1-0.1-0.1-0.1-0.2-0.2c-0.2,2.8-0.6,5.4-1.1,7.4
				C43.7,470.7,44.5,469.8,45.3,469.3z"/>
		</g>
		<g>
			
				<linearGradient id="SVGID_1_" gradientUnits="userSpaceOnUse" x1="-361.6968" y1="758.0011" x2="-339.9518" y2="758.0011" gradientTransform="matrix(1 0 0 1 365.3879 -198.0604)">
				<stop  offset="0" style="stop-color:#B48570"/>
				<stop  offset="0.4303" style="stop-color:#FFF7EF"/>
				<stop  offset="1" style="stop-color:#C49E8C"/>
			</linearGradient>
			<path class="st9" d="M6.5,535.4c0-0.2,0.1-0.3,0.1-0.5c0-0.1,0.1-0.3,0.1-0.4c0.1-0.3,0.1-0.6,0.1-0.9l0-0.1l0.1-0.1
				c0.4-0.4,0.8-0.7,1.3-0.6c0.5,0,1,0.5,1.3,1.1c0.3,0.7,0.4,1.5,0.5,2.3c0,0.8-0.1,1.6-0.3,2.3c-0.1,0.4-0.3,0.7-0.4,1
				c-0.2,0.3-0.3,0.6-0.5,0.8c-0.4,0.5-0.9,0.8-1.4,1c-0.5,0.1-1,0-1.5-0.4c-0.5-0.3-0.9-0.9-1.2-1.5c-0.3-0.6-0.5-1.4-0.7-2.2
				c-0.1-0.8-0.2-1.5-0.2-2.3c0-0.8,0-1.6,0.2-2.4c0.2-0.8,0.5-1.5,0.8-2.1c0.8-1.1,1.7-1.6,2.6-1.9c0.9-0.2,1.9-0.2,2.8,0.1
				c0.9,0.2,1.8,0.6,2.7,1.2c0.4,0.3,0.8,0.6,1.2,1c0.4,0.4,0.8,0.9,1.1,1.3c1.4,1.9,2.5,4.3,3.4,6.9c0.9,2.6,1.6,5.3,2.3,8.1l1,4.2
				c0.3,1.4,0.7,2.8,1,4.1c0.7,2.8,1.3,5.5,1.8,8.4c0.2,1.5,0.4,2.9,0.6,4.4c0.1,1.5,0.2,3,0.1,4.6c0,1.5-0.1,3-0.3,4.5
				c-0.2,1.5-0.5,3-0.9,4.4c-0.4,1.4-0.9,2.7-1.4,3.9c-0.6,1.2-1.2,2.4-1.9,3.3c-0.7,1-1.6,1.8-2.5,2.2c-0.5,0.2-1,0.3-1.5,0.3
				c-0.5,0-1-0.2-1.4-0.6c-0.9-0.6-1.6-1.7-2.2-2.9c-0.6-1.2-1.1-2.6-1.4-4.1c-0.3-1.5-0.4-3.2,0-4.7c0.2-0.8,0.5-1.4,0.8-2
				c0.3-0.6,0.7-1,1.1-1.4c0.4-0.4,0.9-0.7,1.4-0.6c0.3,0.1,0.5,0.3,0.7,0.6c0.2,0.3,0.3,0.7,0.3,1.1c0.1,0.8,0.1,1.6,0,2.3
				c-0.1,0.4-0.2,0.7-0.3,1c-0.1,0.1-0.2,0.2-0.4,0.2c-0.1-0.1-0.2-0.2-0.3-0.3l0.1-0.1c0.1,0.1,0.2,0.2,0.3,0.3
				c0.1,0,0.2,0,0.2-0.1c0.1-0.2,0.2-0.6,0.3-0.9c0.1-0.7,0.1-1.4,0-2.1c-0.1-0.7-0.4-1.2-0.8-1.2c-0.4,0-0.8,0.2-1.1,0.6
				c-0.4,0.4-0.7,0.8-1,1.3c-0.3,0.5-0.5,1.1-0.6,1.7c-0.3,1.3-0.2,2.7,0.1,4c0.3,1.3,0.7,2.6,1.3,3.6c0.6,1.1,1.2,2,2,2.5
				c0.8,0.5,1.6,0.5,2.4,0.1c0.8-0.4,1.5-1.1,2.2-2c1.3-1.8,2.4-4.2,3.1-6.7c0.4-1.3,0.7-2.6,0.9-4c0.2-1.4,0.3-2.8,0.4-4.3
				c0.1-2.9-0.2-5.8-0.6-8.6c-0.4-2.8-1-5.6-1.6-8.4l-0.9-4.2c-0.3-1.4-0.6-2.8-0.9-4.2c-0.6-2.8-1.3-5.5-2.2-8
				c-0.9-2.5-2.1-4.8-3.5-6.6c-0.4-0.4-0.7-0.9-1.1-1.2c-0.4-0.3-0.8-0.6-1.2-0.8c-0.8-0.5-1.7-0.8-2.6-0.9
				c-0.9-0.1-1.7-0.2-2.6,0.1c-0.8,0.2-1.7,0.7-2.2,1.6c-0.6,0.9-0.9,2.2-0.8,3.5c0,0.7,0.1,1.4,0.2,2c0.1,0.6,0.3,1.3,0.5,1.8
				c0.5,1.1,1.3,1.7,2,1.6c0.4-0.1,0.8-0.3,1.1-0.7c0.2-0.2,0.3-0.4,0.5-0.7c0.1-0.2,0.3-0.5,0.4-0.8c0.4-1.2,0.4-2.7,0-3.9
				c-0.2-0.6-0.6-1-1-1c-0.4-0.1-0.8,0.1-1.2,0.5l0-0.2c0,0.4,0,0.7-0.1,1c0,0.2-0.1,0.3-0.1,0.4C6.7,535.2,6.6,535.3,6.5,535.4
				L6.5,535.4z"/>
			
				<linearGradient id="SVGID_2_" gradientUnits="userSpaceOnUse" x1="-336.3558" y1="703.0901" x2="-317.7114" y2="703.0901" gradientTransform="matrix(1 0 0 1 365.3879 -198.0604)">
				<stop  offset="0" style="stop-color:#B48570"/>
				<stop  offset="0.4303" style="stop-color:#FFF7EF"/>
				<stop  offset="1" style="stop-color:#C49E8C"/>
			</linearGradient>
			<path class="st10" d="M38.3,456c0.5-0.2,1.1-0.2,1.6,0.1c0.5,0.3,1,0.9,1.2,1.8c0.3,0.8,0.3,1.9,0.1,2.7c-0.2,0.9-0.6,1.6-1,2.2
				c-0.4,0.6-0.9,1.1-1.5,1.3c-0.5,0.2-1.1,0.2-1.7,0c-1.1-0.5-2-1.8-2.6-3.4c-0.3-0.8-0.5-1.6-0.7-2.5c-0.1-0.9-0.2-1.9-0.1-2.8
				c0.1-0.9,0.3-1.9,0.6-2.6c0.3-0.8,0.7-1.4,1.2-2c0.9-1.1,2-1.7,3-2c1.1-0.3,2.2-0.3,3.2,0c1.1,0.3,2.1,1.2,2.9,2.4
				c0.8,1.2,1.4,2.7,1.9,4.4c0.4,1.6,0.7,3.3,0.8,5.1c0.2,1.7,0.2,3.5,0.2,5.2c0,3.5-0.1,6.9-0.5,10.4c-0.2,1.7-0.6,3.4-1,5
				c-0.4,1.6-0.9,3.1-1.5,4.6c-0.6,1.4-1.2,2.8-1.9,4.1c-0.7,1.3-1.4,2.6-2.1,3.9c-1.3,2.6-2.5,5.4-3.6,8.3
				c-2.2,5.8-3.7,12.2-4.8,18.8c-1.1,6.6-1.8,13.4-2.2,20.2c-0.4,6.8-0.6,13.7-0.7,20.6h-0.1c-0.1-6.9-0.1-13.8,0.2-20.7
				c0.3-6.9,0.9-13.8,2-20.5c0.6-3.4,1.2-6.7,2.1-9.9c0.8-3.2,1.8-6.3,3-9.2c1.1-3,2.4-5.7,3.8-8.3c0.3-0.6,0.7-1.3,1.1-1.9
				c0.4-0.6,0.7-1.2,1.1-1.9c0.7-1.3,1.4-2.6,2-3.9c1.2-2.8,2.1-5.9,2.6-9.2c0.5-3.3,0.6-6.8,0.5-10.2c-0.1-3.4-0.4-6.9-1.2-9.9
				c-0.4-1.5-1-2.9-1.8-3.9c-0.8-1-1.7-1.7-2.7-2c-1-0.3-2-0.2-3,0.1c-1,0.3-1.9,0.9-2.7,1.8c-0.8,0.9-1.4,2.2-1.5,3.8
				c-0.1,1.5,0.1,3.2,0.6,4.6c0.5,1.4,1.3,2.6,2.2,3c0.5,0.2,0.9,0.3,1.4,0.1c0.5-0.2,0.9-0.5,1.3-1.1c0.4-0.5,0.7-1.1,0.9-1.8
				c0.2-0.7,0.2-1.6,0-2.3c-0.2-0.7-0.6-1.3-1-1.7c-0.5-0.3-1-0.4-1.5-0.3L38.3,456z"/>
			
				<linearGradient id="SVGID_3_" gradientUnits="userSpaceOnUse" x1="-345.6856" y1="872.9997" x2="-315.1384" y2="872.9997" gradientTransform="matrix(1 0 0 1 365.3879 -198.0604)">
				<stop  offset="0" style="stop-color:#B48570"/>
				<stop  offset="0.4303" style="stop-color:#FFF7EF"/>
				<stop  offset="1" style="stop-color:#C49E8C"/>
			</linearGradient>
			<path class="st11" d="M44.9,669.4c0.4-0.2,0.8-0.5,1-1c0.3-0.5,0.4-1.1,0.5-1.7c0.1-1.3-0.1-2.6-0.7-3.4c-0.3-0.4-0.6-0.7-1-0.8
				c-0.1,0-0.2,0-0.3-0.1l-0.1,0c-0.1,0-0.1,0-0.1,0c-0.2,0-0.4,0.1-0.5,0.2c-0.7,0.4-1.2,1.4-1.5,2.6c-0.3,1.1-0.5,2.4-0.3,3.6
				c0,0.3,0.1,0.6,0.2,0.9c0,0.1,0.1,0.3,0.1,0.4c0,0.1,0.1,0.3,0.1,0.4c0.2,0.5,0.4,1.1,0.7,1.5c0.3,0.4,0.6,0.7,0.9,0.8
				c0.3,0.1,0.7,0.1,1-0.1c0.7-0.4,1.3-1.3,1.8-2.3c1.1-2,1.9-4.3,2.5-6.8c0.3-1.2,0.6-2.5,0.7-3.8c0.1-0.7,0.1-1.3,0-2
				c0-0.7-0.1-1.3-0.2-2c-0.2-1.3-0.6-2.5-1.1-3.5c-0.6-1-1.3-1.7-2-2.1c-0.8-0.4-1.6-0.6-2.4-0.6c-0.8,0-1.6,0.2-2.4,0.5
				c-1.6,0.6-3.1,1.8-4.4,3.3c-1.3,1.5-2.4,3.5-3.4,5.7c-0.9,2.2-1.7,4.5-2.4,7c-0.7,2.5-1.3,5-1.9,7.5l-0.9,3.8l-0.9,3.8
				c-0.6,2.5-1.1,5.1-1.8,7.7c-0.6,2.5-1.4,5.1-2.3,7.3c-0.5,1.1-1,2.2-1.7,3.1c-0.7,0.9-1.5,1.5-2.3,1.7l0-0.1
				c0.8-0.3,1.5-1,2.1-1.9c0.6-0.9,1.1-2,1.5-3.1c0.9-2.3,1.5-4.8,2.1-7.3c0.6-2.5,1.1-5.1,1.6-7.7c0.3-1.3,0.6-2.6,0.9-3.8l0.9-3.8
				c1.2-5.1,2.5-10.3,4.5-14.8c1-2.2,2.2-4.3,3.6-5.8c1.4-1.6,3-2.6,4.7-3.1c1.6-0.5,3.4-0.5,5,0.4c0.8,0.5,1.5,1.2,2.1,2.3
				c0.6,1,1,2.3,1.2,3.6c0.1,0.7,0.2,1.4,0.2,2.1c0,0.4,0,0.7,0,1c0,0.4,0,0.7,0,1.1c-0.1,1.4-0.3,2.7-0.6,4.1
				c-0.3,1.3-0.6,2.6-1,3.8c-0.4,1.2-0.9,2.4-1.4,3.5c-0.3,0.5-0.6,1.1-0.9,1.5c-0.3,0.5-0.7,0.9-1.2,1.1c-0.4,0.3-0.9,0.4-1.4,0.2
				c-0.5-0.2-0.9-0.6-1.2-1.1c-0.3-0.5-0.6-1.1-0.8-1.7c-0.1-0.2-0.1-0.3-0.2-0.5c-0.1-0.2-0.1-0.3-0.1-0.5
				c-0.1-0.4-0.1-0.7-0.2-1.1c-0.1-1.5,0-3,0.4-4.3c0.4-1.3,1.1-2.5,1.9-3c0.2-0.1,0.5-0.2,0.7-0.2c0.1,0,0.1,0,0.2,0
				c0.1,0,0.1,0,0.2,0c0.1,0,0.2,0,0.3,0.1c0.4,0.2,0.9,0.5,1.2,1.1c0.7,1.1,0.9,2.7,0.7,4.1c-0.1,0.7-0.3,1.4-0.6,1.9
				c-0.3,0.5-0.7,0.8-1.1,0.9L44.9,669.4z"/>
			
				<linearGradient id="SVGID_4_" gradientUnits="userSpaceOnUse" x1="-335.7106" y1="771.9816" x2="-310.4236" y2="771.9816" gradientTransform="matrix(1 0 0 1 365.3879 -198.0604)">
				<stop  offset="0" style="stop-color:#B48570"/>
				<stop  offset="0.4303" style="stop-color:#FFF7EF"/>
				<stop  offset="1" style="stop-color:#C49E8C"/>
			</linearGradient>
			<path class="st12" d="M54.6,491.8c0.3,0.9,0.4,1.9,0.4,2.9c0,1-0.1,2-0.3,3c-0.3,1.9-0.9,3.8-1.6,5.4c-0.7,1.7-1.5,3.2-2.4,4.5
				c-1,1.3-2,2.3-3.1,3.2c-1.1,0.9-2.2,1.7-3.2,2.5c-1.1,0.9-2.1,1.9-3,3c-1.9,2.3-3.6,5-5.1,8.1c-1.5,3.1-2.7,6.5-3.6,10.1
				c-1,3.6-1.6,7.4-2,11.3c-0.8,7.8-0.7,15.8-0.3,23.7c0.2,3.9,0.5,7.9,0.8,11.8c0.2,2,0.3,3.9,0.5,5.9c0.2,2,0.4,3.9,0.6,5.8
				c0.9,7.8,2.1,15.4,3.7,22.9c0.8,3.7,1.7,7.4,2.6,11c0.5,1.8,1,3.6,1.5,5.4c0.5,1.8,1,3.6,1.6,5.3c1.2,3.4,2.7,6.5,4.5,8.9
				c0.9,1.2,1.9,2.3,2.8,3.8c0.4,0.7,0.8,1.6,1,2.5c0.2,0.9,0.3,2,0.3,3l-0.1,0c0-1-0.1-2-0.4-2.8c-0.3-0.9-0.6-1.6-1-2.3
				c-0.9-1.4-1.9-2.4-2.9-3.5c-2-2.4-3.6-5.5-4.8-9c-0.6-1.7-1.2-3.5-1.7-5.3c-0.5-1.8-1-3.6-1.5-5.4c-1-3.6-1.9-7.3-2.7-11.1
				c-1.6-7.5-2.8-15.3-3.7-23.1c-0.2-2-0.4-3.9-0.5-5.9c-0.1-2-0.3-4-0.4-5.9c-0.3-4-0.5-7.9-0.6-11.9c-0.3-7.9-0.3-15.9,0.5-23.8
				c0.4-3.9,1-7.8,1.9-11.6c0.9-3.7,2-7.3,3.5-10.5c1.5-3.2,3.2-6.1,5.2-8.4c1-1.2,2-2.2,3.1-3.1c1.1-0.9,2.2-1.6,3.3-2.4
				c1.1-0.8,2.1-1.7,3.1-2.9c0.9-1.2,1.7-2.6,2.4-4.2c0.7-1.6,1.3-3.3,1.7-5.1c0.2-0.9,0.3-1.9,0.4-2.9
				C54.8,493.8,54.7,492.8,54.6,491.8L54.6,491.8z"/>
		</g>
	</g>
</g>
</svg>
