<?xml version="1.0" encoding="utf-8"?>
<!-- Generator: Adobe Illustrator 23.0.3, SVG Export Plug-In . SVG Version: 6.00 Build 0)  -->
<svg version="1.1" id="Layer_1" xmlns="http://www.w3.org/2000/svg" xmlns:xlink="http://www.w3.org/1999/xlink" x="0px" y="0px"
	 viewBox="0 0 56.7 708.7" style="enable-background:new 0 0 56.7 708.7;" xml:space="preserve">
<style type="text/css">
	.st0{fill:#412C42;}
	.st1{fill:#5E4360;}
	.st2{fill:#463247;}
	.st3{fill:#6E4F70;}
	.st4{fill:#2B1E34;}
	.st5{fill:#473352;}
	.st6{fill:#312239;}
	.st7{fill:#553E62;}
	.st8{fill:url(#SVGID_1_);}
	.st9{fill:url(#SVGID_2_);}
	.st10{fill:url(#SVGID_3_);}
	.st11{fill:url(#SVGID_4_);}
	.st12{fill:url(#SVGID_5_);}
	.st13{fill:url(#SVGID_6_);}
</style>
<g>
	<g>
		<g>
			<g>
				<path class="st0" d="M24.2,0.8c-9.8,7.4-10.6,520.5-10.9,498.8c1.3,78.8,10.8,108.3,14.6,108.3c3.9,0,13.3-29.4,14.6-108.3
					C42.2,521.3,41.4,8.1,31.6,0.8C30.3-0.3,25.6-0.3,24.2,0.8z"/>
				<path class="st1" d="M27.9,103.6c-6.6,0-11.7,362.5-11.1,400.1c1,59.8,8.2,82.2,11.1,82.2c2.9,0,10.1-22.3,11.1-82.2
					C39.7,466.1,34.5,103.6,27.9,103.6z"/>
			</g>
		</g>
		<g>
			<path class="st2" d="M46.4,483.4c6.1-4.3-3.6-36.9-18.4-36.9c-14.9,0-24.5,32.6-18.4,36.9c5.4,3.8,2.2,34-9.2,201.8
				c-0.5,7.4,14.7,23.5,27.6,23.5c13,0,28.1-16,27.6-23.5C44.2,517.3,41,487.1,46.4,483.4z"/>
		</g>
		<path class="st0" d="M42.6,457.8c-3.4,0.5-11.8,8-14.4,5.7c-4.7-4,6.3-14.6,8.3-16.8c7.4-8.2,25.5-30.3,17.2-42.7
			c-3.6-5.4-9.4-5.7-14.2-8.2c-5.9-3.1-3.9-6.8-1-12.8c6-12.2,10.1-19.4,4.3-33.3c-1.4-3.4-6.5-7.2-7.2-10.4c-1.1-4.7,4-8.3,6-11.6
			c6.2-10-5.9-12.7-5-23l2.9-5.5c-0.1-0.5,0.1-1-0.1-1.6c-3.9,1.2-7.7,10.2-7.7,14.7c0,5.5,5.2,6.7,5.8,11c0.6,4.4-5.4,7.2-7.6,10.4
			c-8.2,12,6.4,19.6,7.2,30.8c0.4,5.6-4,9.1-6.8,13.2c-4.7,6.7-4.8,12.9-4.4,21.4c0.4,6.9,2.4,12.9,6.8,17.6c3.5,3.7,8,5.3,5.3,11.5
			c-2.8,6.4-11.8,12-15.9,17.7c-4.1,5.6-10.7,12.2-11.3,19.8c-0.5,5.4,2.2,12,4.9,16.3c2.6,4.2,7.7,5.6,7.3,11.5
			c-0.5,6.5-8,10.8-11.8,14.7c-5.5,5.5-9.6,13.7-10.7,21.9c-1,7.1-0.2,15,3.5,21c2.5,4.1,7.5,6.9,7.8,12.1c0.3,4.7-2.9,8.6-2.9,13.7
			c-0.1,5.6,0.4,11.4,2.6,16.5c2,4.8,8,9.7,8.2,1.1c0.1-5.1-4.5-8.9-6-13.1c-3.6-10,6.1-16.4,3.9-26.9c-1.1-5.5,3.7-7.8,2.4-12.6
			c-1.3-4.5-8.3-10.4-6.3-14.2c3.5-6.7,9-11.6,14.2-16.6c6.6-6.4,12.1-13.1,17.3-21C50.9,481.1,61.8,454.9,42.6,457.8z"/>
		<path class="st3" d="M40.2,545.5c-7.8-4.1-6.2-8.3-3.3-15.4c4.2-10.1,22.5-19.5,19.4-30.6c-1.3-4.9-7-8-8.6-12.6
			c-1.5-4.4,4-10.3,2.3-13.2l3.4-0.5c3-0.6,2.6-8.5,1.4-11.5c-2.7-6.6-8.3-2.9-12.2-7.3c-3.9-4.4,3.2-9.3,5.2-13.1
			c2.2-4.4,1.1-9.1,2.3-13.5c-2.9,5.8-7.5,10.2-11.6,15.7c-2.3,3.2-5.6,14.1-1.7,17.2c4.6,3.7,13.6-4.3,13.4,4.9
			c-0.1,6.1-7.9,10.1-11,15.2c-5.9,9.8,5.2,17.3-0.7,26.9c-6.8,11.1-18.8,18.3-18.8,31.9c0,10.5,6.8,21.5,4.9,31.8
			c-2,10.6-14,17.7-20.5,26.3c-3.1,4.1-3.9,8.4-3.6,13.2c0.2,2.6,0.1,4.2,1.5,6.6c1.2,1.9,4.9,3,4.5,5.4c-0.6,4.3-7.3,3.2-5.3,8.9
			c1.8,5.1,6.7,4.5,12.3,2.6c13.5-4.5,20.1-17.5,29.6-25.2c4.6-3.8,9.4-6.7,6.2-12.5c-3.7-6.8-9.9-1.6-15.2-4.5
			c-12.4-6.7,17.7-23.5,18.6-30.5C53.8,553.8,47.1,549.1,40.2,545.5z"/>
		<path class="st3" d="M32.6,414.1c-10.1-8.2-4.4-17.7-1-26.9c1.9-5.3,3.6-9.9,3.3-15.5c-0.4-6.3-2.7-6.2-6.9-10.9
			c-5.9-6.6,4.1-17.5,6.4-25.3c1.1-3.7,2.8-9.4,0-12.8c-3.4-4.1-9.7-1.6-11.2-6.4c-2.5-8,21.4-16.9,13.1-25.2
			c-3.7-3.7-10.8,1.4-10.9-5.9c0-3.1,4.4-7.9,5.9-11.1c2.5-5.5,0.5-7.8,0.2-13.2c-0.3-4.6,1.8-9.3,3.3-13.7c3-8.7,5.4-18.9,4.9-27.9
			c-10.9,0.6-11.2,35-11.6,41.2c-0.4,6.2-1.4,12-4.8,17.4c-3.7,6-4.1,9.9-0.5,16.5c3.9,7.2,2.6,6.4-2.1,12.7
			c-3,4.1-3.8,11.9-1.7,16.3c2,4.3,7.4,6.3,8.4,11.5c1.1,5.5-2.4,9.8-5.7,14.3c-3.3,4.6-7.3,7.8-6,13.2c1.1,4.5,5.1,7.9,7.6,11.5
			c7.8,11.3-9.8,16.7-13.8,26.9c-4.6,11.7,4,15.3,11.2,23.5c7.2,8.1-7.7,16.2-9.1,24.8c-0.5,3.4-1.4,10.8,4.8,9.8
			c4.8-0.8,9-10.4,10.3-13.4c0,0.5-0.1,1,0,1.5l4.1-4.4c1-1.4,3.1-2.7,5.4-3.4c1.6-4.5,3.7-8.9,4.2-13.6
			C41.2,418.3,37.8,418.3,32.6,414.1z"/>
	</g>
	<g>
		<g>
			<g>
				<path class="st4" d="M39.3,557.3c0,0.5,0.1,0.9,0.2,1.4c0.4-4.1,0.8-8.5,1.1-13.3C39.4,549.3,38.8,553.3,39.3,557.3z"/>
				<path class="st4" d="M38.5,126.1c-0.1-2.7-0.1-5.3-0.2-7.9c-0.6,2.8-1.3,5.5-2.1,8.3C36.9,126.3,37.7,126.2,38.5,126.1z"/>
				<path class="st4" d="M35,26.8c-4.6-3-9.2-6.1-13.5-9.3c-0.6,7.8-1.2,18-1.7,30.2c5.3-1.1,10.7-1.7,16.2-2
					C35.7,38.7,35.3,32.4,35,26.8z"/>
				<path class="st4" d="M37.5,87.5c-0.3-11.8-0.7-22.7-1.1-32.5c-4.9,0.3-9.8,0.7-14.5,1.7C28.6,66.4,34.5,76.6,37.5,87.5z"/>
				<path class="st4" d="M40.2,226.6c0-0.4,0-0.8,0-1.2c-0.2,0.4-0.4,0.9-0.6,1.3C39.8,226.7,40,226.6,40.2,226.6z"/>
				<path class="st4" d="M30.3,390.6c2.4-0.5,5.4,0.3,6.6,2.1c1.9,3.1,3.5,6.4,5,9.7c-0.2-31.6-0.5-68.5-0.9-106.8
					c-2.6,5.3-13.4,2.9-11.1-2.7c1.6-3.9,2.2-7.5,2.5-11.4c-0.9,1.1-1.8,2.2-2.9,3.2c-1.6,1.7-3.8,2.7-6.6,2.1
					c-2.5-0.5-4.3-2.4-4.3-4.5c0.1-9.5,4.3-18.4,12.7-25.2c0.4-0.3,0.9-0.6,1.3-0.8c1.7-5.8,2.7-11.7,2.8-17.7c-1,0.5-1.7,1-2.8,1.8
					c-0.5,0.3-1,0.7-1.4,1.1c-2.7,4.4-5.5,8.7-8.7,12.8c-2.3,3-4.7,6-7.4,8.9c-1.4,125.7-1.7,247.1-1.9,236.3
					c1,59.5,6.6,90.8,11,102.7c1.1-4.6,2.3-9.2,3.8-13.8c0.5-1.6,2-2.6,3.8-3.1c-0.1-2.6-0.2-5.3-0.4-7.9
					c-0.4-5.1-2.1-10.1-3.1-15.1c-1.1-5.7-1.1-11.2,0.3-16.9c1.1-4.8,3.2-9.3,5.4-13.8c1.6-3.3,3.4-6.5,4.8-9.8
					c-3.4,2-9.2-0.1-9.2-3.8c-0.1-21.3-9.7-42.3-8.7-63.6c-2-1.2-2.5-3-2.1-5c3.2-15.6,5.3-31.3,8.3-46.9c-0.2-2.1-0.5-4.2-1-6.3
					C25.7,393.8,27,391.4,30.3,390.6z M26,368.8v-29.3c0-5,8.1-5.8,10.8-2.4c2,1.1,3.3,3.2,2.5,5.1c-0.4,0.9-0.9,1.9-1.6,2.7v23.8
					C37.7,374.7,26,374.7,26,368.8z"/>
				<path class="st4" d="M24.9,7c2.6,1.7,5.5,2.5,8.6,2.6c-0.6-5.3-1.3-8.3-1.9-8.9c-1.3-1-6.1-1-7.4,0c-0.5,0.4-1,2.2-1.5,5.2
					C23.5,6.2,24.3,6.5,24.9,7z"/>
				<path class="st4" d="M28.2,180.2c0.4-0.6,0.8-1.1,1.1-1.7c4.2-6.6,7.6-12.7,9.8-20c-0.1-7.8-0.3-15.5-0.5-23
					c-0.3,0.1-0.6,0.1-0.8,0.2c-0.2,0-0.3,0.1-0.3,0.1c-0.1,0-0.2,0.1-0.3,0.1c-2.4,1-4.7,2.2-6.8,3.5c-2.1,1.3-4.6,1.9-7,0.7
					c-2.1-1-3.5-3.3-2.7-5.2c5.9-13.1,9.3-27.4,6.6-40.7c-1.6-7.6-4.6-14.8-8.5-21.8c-1.1,32.8-2,74-2.6,117.9
					C19.9,186.7,23.8,183.3,28.2,180.2z"/>
				<path class="st4" d="M32.6,215c2.9-6.7,5.4-13.5,7.1-20.4c-0.1-3.3-0.1-6.7-0.2-10c-0.7,0.4-1.4,0.9-2.1,1.3c-0.7,1-1.4,2-2.1,3
					c-5.1,7.3-10.8,14.3-17.1,21c-0.8,0.8-1.6,1.7-2.4,2.5c-0.1,9.7-0.3,19.5-0.4,29.3c2-2.1,4.2-4.1,6.6-6
					C26.1,229.1,29.6,222.1,32.6,215z"/>
				<path class="st4" d="M42,417.1c-0.8,0.1-1.7,0.2-2.5,0c0,1.9,0,3.8,0,5.7c0,2.7-2.4,4.2-5,4.4c-0.8,4.7-1.6,9.4-2.4,14.1
					c1.6,1.2,2.1,2.9,1.7,4.6c-2.7,11-0.5,23.5,1.9,34.8c1.7,8.3,3.7,16.7,4.8,25.2c0.3-0.3,0.7-0.6,1-0.9c0.2-0.2,0.3-0.3,0.4-0.3
					c0.1-0.2,0.3-0.3,0.4-0.5c0-0.1,0.1-0.2,0.3-0.4c0-1.4,0.1-2.9,0.1-4.4C42.5,505.6,42.3,470.8,42,417.1z"/>
				<path class="st5" d="M34.5,427.3c-0.8,4.7-1.6,9.4-2.4,14.1c1.6,1.2,2.1,2.9,1.7,4.6c-2.7,11-0.5,23.5,1.9,34.8
					c1.1,5.6,2.4,11.1,3.4,16.7c0-13.1-0.2-39.2-0.6-72.1C37.6,426.6,36.1,427.2,34.5,427.3z"/>
				<path class="st5" d="M28.2,180.2c0.4-0.6,0.8-1.1,1.1-1.7c1.3-2.1,2.5-4.1,3.7-6.1c-0.5-12.6-1-24-1.5-33.7
					c-0.4,0.2-0.7,0.4-1.1,0.7c-1.8,1.2-4,1.7-6.2,1c-0.6,12.4-1.2,27.5-1.8,44.2C24.3,183.1,26.2,181.6,28.2,180.2z"/>
				<path class="st5" d="M28.3,104c-0.1-0.2-0.2-0.3-0.4-0.3c-0.9,0-1.8,7.1-2.7,19.3C27.2,116.7,28.3,110.3,28.3,104z"/>
				<path class="st5" d="M32.8,256.4c1.1-3.8,1.9-7.7,2.4-11.6c0-1.9-0.1-3.9-0.1-5.8c-0.7,0.4-1.4,0.9-2.3,1.5
					c-0.5,0.3-1,0.7-1.4,1.1c-2.7,4.4-5.5,8.7-8.7,12.8c-0.7,1-1.5,1.9-2.2,2.9c-0.1,5.4-0.3,10.9-0.4,16.5
					c1.8-6.2,5.6-11.8,11.4-16.5C31.8,256.9,32.3,256.6,32.8,256.4z"/>
				<path class="st5" d="M29.7,518c-0.1-21.3-9.7-42.3-8.7-63.6c-2-1.2-2.5-3-2.1-5c3.2-15.6,5.3-31.3,8.3-46.9
					c-0.2-2.1-0.5-4.2-1-6.3c-0.5-2.5,0.8-5,4.1-5.7c2.4-0.5,5.4,0.3,6.6,2.1c0.4,0.7,0.8,1.4,1.2,2.1c-0.1-8.4-0.3-17.2-0.4-26.1
					c0,6-11.6,6-11.6,0v-29.3c0-5,8.1-5.8,10.8-2.4c0.1,0.1,0.2,0.1,0.3,0.2c-0.2-12.8-0.5-25.8-0.7-38.7c-3.8,0.4-8-1.9-6.4-5.6
					c1.6-3.9,2.2-7.5,2.5-11.4c-0.9,1.1-1.8,2.2-2.9,3.2c-1.6,1.7-3.8,2.7-6.6,2.1c-1.3-0.3-2.4-1-3.2-1.8
					c-2.1,96.7-3.3,199.6-2.9,218.7c1,59.8,8.2,82.2,11.1,82.2c0.9,0,2.2-2.2,3.7-7c0-0.5-0.1-1-0.1-1.5c-0.4-5.1-2.1-10.1-3.1-15.1
					c-1.1-5.7-1.1-11.2,0.3-16.9c1.1-4.8,3.2-9.3,5.4-13.8c1.5-2.9,3-5.8,4.4-8.8c0-0.3,0-0.5,0-0.8C35,523.6,29.7,521.6,29.7,518z"
					/>
				<path class="st5" d="M21.8,206.2c-0.3,9.8-0.6,20-0.9,30.6c0.4-0.3,0.7-0.6,1.1-0.9c4.1-6.8,7.6-13.8,10.6-20.9
					c0.5-1.3,1.1-2.5,1.6-3.8c-0.2-6.8-0.4-13.4-0.6-19.7C30,196.6,26,201.5,21.8,206.2z"/>
			</g>
		</g>
		<g>
			<path class="st6" d="M33.4,448c-2,10.5,0.1,22.2,2.3,32.9c1.7,8.3,3.7,16.7,4.8,25.2c0.3-0.3,0.7-0.6,1-0.9
				c0.2-0.2,0.3-0.3,0.4-0.3c0.1-0.2,0.3-0.3,0.4-0.5c0.1-0.2,1-1.7,0.6-0.7c0.3-0.6,0.6-1.1,1.1-1.5c-0.2-12.8,0.6-17.4,2.5-18.7
				C51.7,479.6,45,454.4,33.4,448z"/>
			<path class="st6" d="M30.6,634.8c-0.5,4.4-1,8.9-1.3,13.3c0.2,0,0.5,0,0.7,0.1c0.1-3.7,0.3-7.4,0.5-11.1
				C30.5,636.3,30.5,635.6,30.6,634.8z"/>
			<path class="st6" d="M55.5,685.2c-5-73.8-8.4-121-10.2-151.1c-3.7,7.5-6.9,15.1-6,23.2c0.5,5.1,2.3,10,3.2,15
				c1,5.9,1.1,12,1.2,18c0.3,13.7-0.5,27.4-1.3,41.1c-0.3,7.3-0.7,14.7-0.9,22c2.1,2.2,3.4,5,3.4,7.9c0,6.6-0.5,13.2-2.4,19.6
				c-2.1,7-12,11.1-20.5,9.3c-9-2-13.8-9.3-11.6-16.3c0.3-1,0.6-2,0.8-3.1c0.4-3.2,0.5-6.3,0.5-9.5c0-4,2.3-7.6,5.9-10
				c0.5-7.5,1.3-15,2.3-22.5c1.8-13.5,4-27.2,8.4-40.4c0.5-1.6,2-2.6,3.8-3.1c-0.1-2.6-0.2-5.3-0.4-7.9c-0.4-5.1-2.1-10.1-3.1-15.1
				c-1.1-5.7-1.1-11.2,0.3-16.9c1.1-4.8,3.2-9.3,5.4-13.8c1.6-3.3,3.4-6.5,4.8-9.8c-3.4,2-9.2-0.1-9.2-3.8
				c-0.1-21.3-9.7-42.3-8.7-63.6c-1.5-0.9-2.2-2.2-2.3-3.7c-9.3,9-14,29.3-9.3,32.6c5.4,3.8,2.2,34-9.2,201.8
				c-0.5,7.4,14.7,23.5,27.6,23.5C40.9,708.7,56,692.6,55.5,685.2z"/>
		</g>
		<path class="st4" d="M28.8,335.6c2.2-0.9,5.1-0.7,7,0.5c1-3.2,4.3-5.9,5.8-8.3c6.2-10-5.9-12.7-5-23l2.9-5.5
			c-0.1-0.5,0.1-1-0.1-1.6c-3.9,1.2-7.7,10.2-7.7,14.7c0,5.5,5.2,6.7,5.8,11c0.6,4.4-5.4,7.2-7.6,10.4
			C29.5,334.4,29.2,335,28.8,335.6z"/>
		<path class="st4" d="M42.9,349.7c-0.8-1.9-2.7-3.9-4.4-5.9c-0.2,0.4-0.5,0.7-0.8,1.1v23.8c0,2.2-1.6,3.6-3.6,4.2
			c-1.2,1.6-2.6,3.2-3.8,4.8c-4.7,6.7-4.8,12.9-4.4,21.4c0.1,2.1,0.4,4.1,0.8,6c0.2-0.9,0.3-1.7,0.5-2.6c-0.2-2.1-0.5-4.2-1-6.3
			c-0.5-2.5,0.8-5,4.1-5.7c1.8-0.4,4.1,0,5.5,1.1c-0.4-2.3,1-5.1,2.8-8.6C44.6,370.8,48.8,363.7,42.9,349.7z"/>
		<path class="st4" d="M53.7,404c-3.6-5.4-9.4-5.7-14.2-8.2c-0.5-0.3-1-0.6-1.4-0.9c2,3.6,3.6,7.3,5.4,10.9c1.2,1.8,2.2,3.6,3.1,5.5
			c1.6,3.6-3.3,6.4-7.2,5.7c0,1.9,0,3.8,0,5.7c0,0.9-0.3,1.6-0.7,2.2c-0.1,0.9-0.3,1.9-0.8,3.1c-1,2.2-2.7,4.3-4.7,6.4
			c-0.4,2.3-0.8,4.6-1.2,6.8c1.6,1.2,2.1,2.9,1.7,4.6c-0.4,1.5-0.6,3-0.8,4.5c1.6-1.8,3-3.2,3.6-3.8C43.9,438.6,62,416.4,53.7,404z"
			/>
		<path class="st4" d="M42.6,457.8c-2.2,0.3-6.4,3.5-9.8,5.1c0.5,6,1.7,12.1,2.8,18c1.2,5.8,2.5,11.6,3.6,17.4c2-2.6,4-5.3,5.9-8.2
			C50.9,481.1,61.8,454.9,42.6,457.8z"/>
		<path class="st4" d="M19.6,594.5c0.1-5.1-4.5-8.9-6-13.1c-3.6-10,6.1-16.4,3.9-26.9c-1.1-5.5,3.7-7.8,2.4-12.6
			c-1.3-4.5-8.3-10.4-6.3-14.2c3.5-6.7,9-11.6,14.2-16.6c0.5-0.5,1-1,1.5-1.5c-2-18.4-9.1-36.7-8.2-55.2c-1.8-1-2.4-2.6-2.2-4.3
			c-3.6,4.6-7.5,9.8-8,15.5c-0.5,5.4,2.2,12,4.9,16.3c2.6,4.2,7.7,5.6,7.3,11.5c-0.5,6.5-8,10.8-11.8,14.7
			c-5.5,5.5-9.6,13.7-10.7,21.9c-1,7.1-0.2,15,3.5,21c2.5,4.1,7.5,6.9,7.8,12.1c0.3,4.7-2.9,8.6-2.9,13.7
			c-0.1,5.6,0.4,11.4,2.6,16.5C13.4,598.2,19.4,603,19.6,594.5z"/>
		<path class="st7" d="M50,427.8c-2.9,5.8-7.5,10.2-11.6,15.7c-2.3,3.2-5.6,14.1-1.7,17.2c4.6,3.7,13.6-4.3,13.4,4.9
			c-0.1,6.1-7.9,10.1-11,15.2c-5,8.3,2.2,15,0.9,22.6c0.1,0.9,0.3,1.7,0.4,2.6c0.3-0.3,0.7-0.6,1-0.9c0.2-0.2,0.3-0.3,0.4-0.3
			c0.1-0.2,0.3-0.3,0.4-0.5c0.1-0.2,1-1.7,0.6-0.7c2.3-5,10.9-4.1,11.4,1.2c0.1,1.4,0.2,2.9,0.1,4.3c2-3.1,3-6.3,2.1-9.6
			c-1.3-4.9-7-8-8.6-12.6c-1.5-4.4,4-10.3,2.3-13.2l3.4-0.5c3-0.6,2.6-8.5,1.4-11.5c-2.7-6.6-8.3-2.9-12.2-7.3
			c-3.9-4.4,3.2-9.3,5.2-13.1C50,437,48.8,432.3,50,427.8z"/>
		<path class="st7" d="M19.7,628.8c1.8-13.5,4-27.2,8.4-40.4c0.5-1.5,1.9-2.5,3.6-3c0.1-0.1,0.1-0.2,0.2-0.4
			c-0.1-2.5-0.2-5.1-0.4-7.6c-0.4-5.1-2.1-10.1-3.1-15.1c-1.1-5.7-1.1-11.2,0.3-16.9c1.1-4.8,3.2-9.3,5.4-13.8
			c1.6-3.3,3.4-6.5,4.8-9.8c-3.2,1.8-8.4,0.2-9.1-3.1c-5.3,6.1-10.1,12.2-10.1,20.8c0,10.5,6.8,21.5,4.9,31.8
			c-2,10.6-14,17.7-20.5,26.3c-3.1,4.1-3.9,8.4-3.6,13.2c0.2,2.6,0.1,4.2,1.5,6.6c1.2,1.9,4.9,3,4.5,5.4c-0.6,4.3-7.3,3.2-5.3,8.9
			c1.8,5.1,6.7,4.5,12.3,2.6c2.1-0.7,4-1.6,5.9-2.7C19.4,630.7,19.6,629.8,19.7,628.8z"/>
		<path class="st7" d="M40.5,545.7c-1.1,3.8-1.7,7.7-1.3,11.7c0.5,5.1,2.3,10,3.2,15c0,0.3,0.1,0.5,0.1,0.8c5-4.5,9.8-8.8,10.2-11.5
			C53.8,554,47.3,549.2,40.5,545.7z"/>
		<path class="st7" d="M43.7,592.9c0,5.3,0,10.6-0.2,16c4.5-3.6,8.9-6.6,5.9-12.2C47.8,593.8,45.8,593,43.7,592.9z"/>
		<path class="st7" d="M39.5,422.9c0,2.7-2.4,4.2-5,4.4c-0.8,4.6-1.5,9.1-2.3,13.7c1.1-0.8,2.4-1.5,3.9-1.9
			c1.6-4.5,3.7-8.9,4.2-13.6c0.4-2.9,0-4.6-0.9-5.9C39.5,420.7,39.5,421.8,39.5,422.9z"/>
		<path class="st7" d="M32.7,240.5c-0.5,0.3-1,0.7-1.4,1.1c-0.8,1.3-1.6,2.6-2.4,3.9c-0.6,6.7-0.8,12.7-0.9,15
			c1.1-1.1,2.2-2.2,3.5-3.2c0.1-0.1,0.2-0.1,0.2-0.2c0.6-3.4,1.9-6.7,3-9.9c0.1-0.3,0.2-0.5,0.3-0.8c0.4-2.5,0.6-5.1,0.6-7.7
			C34.6,239.2,33.8,239.7,32.7,240.5z"/>
		<path class="st7" d="M23.1,316.3c-1.7-5.6,9.7-11.7,13.6-17.8c-3.8,0.6-8.3-1.8-6.8-5.6c0.5-1.2,0.9-2.3,1.2-3.4
			c-2.5,0-4.8,0.1-5.5-2.5c-0.8,0.1-1.7,0.1-2.6-0.1c-1.1-0.2-2-0.7-2.8-1.4c-0.2,2.7,0.6,5.4,2.4,8.8c3.9,7.2,2.6,6.4-2.1,12.7
			c-3,4.1-3.8,11.9-1.7,16.3c2,4.3,7.4,6.3,8.4,11.5c0.1,0.5,0.2,1,0.2,1.5c1.7-1.4,4.6-1.8,6.9-1c1.1-3.7,2.8-9.3,0-12.7
			C31,318.6,24.6,321.1,23.1,316.3z"/>
		<path class="st7" d="M26,368.8v-26.2c-1.1,2.3-2.8,4.4-4.4,6.6c-3.3,4.6-7.3,7.8-6,13.2c1.1,4.5,5.1,7.9,7.6,11.5
			c7.8,11.3-9.8,16.7-13.8,26.9c-4.6,11.7,4,15.3,11.2,23.5c7.2,8.1-7.7,16.2-9.1,24.8c-0.5,3.4-1.4,10.8,4.8,9.8
			c1.7-0.3,3.3-1.7,4.7-3.5c0-0.3,0-0.6,0-0.9c-2-1.2-2.5-3-2.1-5c3.1-15.1,5.1-30.2,8-45.3c-0.1-1,0-2.1,0.1-3.1
			c-0.2-1.6-0.5-3.1-0.8-4.7c-0.5-2.5,0.7-4.9,4-5.7c0.5-1.2,0.9-2.3,1.3-3.5c1.8-5,3.4-9.4,3.3-14.5C31.4,374.1,26,372.8,26,368.8z
			"/>
	</g>
	<g>
		
			<linearGradient id="SVGID_1_" gradientUnits="userSpaceOnUse" x1="-293.0701" y1="769.6444" x2="-249.6703" y2="769.6444" gradientTransform="matrix(1 0 0 1 296.0104 -174.6829)">
			<stop  offset="0" style="stop-color:#695E41"/>
			<stop  offset="0.4303" style="stop-color:#D9D6CB"/>
			<stop  offset="1" style="stop-color:#7C7259"/>
		</linearGradient>
		<path class="st8" d="M45.9,571.3C45.8,571.3,45.8,571.4,45.9,571.3c0.1,1.3-0.2,2.5-0.6,3.7c-0.4,1.2-0.9,2.3-1.5,3.5
			c-1.2,2.3-2.7,4.4-4.2,6.6l-2.4,3.2c-0.8,1.1-1.6,2.1-2.4,3.2c-0.8,1-1.7,2.1-2.6,3.1c-0.9,1-1.8,2-2.8,2.9c-2,1.9-4.4,3.5-6.9,5
			c-2.5,1.5-5.2,2.8-7.8,4.2c-1.3,0.7-2.5,1.5-3.7,2.4c-0.6,0.4-1.2,0.9-1.7,1.3c-0.6,0.5-1.1,0.9-1.6,1.4c-2.1,1.9-3.8,4.2-4.7,6.6
			c0,0,0,0.1,0,0.1c0,0,0.1,0,0.1,0c1.6-2.2,3.4-4.1,5.6-5.9c0.5-0.4,1.1-0.9,1.7-1.3c0.6-0.4,1.1-0.8,1.7-1.2l3.6-2.4
			c2.4-1.6,4.8-3.3,7.2-4.8c1.2-0.8,2.5-1.6,3.7-2.4c1.2-0.8,2.4-1.6,3.6-2.5c1.1-0.9,2.2-1.8,3.2-2.8c1-1,2-2,2.9-3
			c1.8-2.1,3.5-4.2,5-6.4c1.5-2.2,2.9-4.5,3.9-6.9c0.5-1.2,0.9-2.5,1.1-3.7c0.1-0.6,0.2-1.3,0.1-1.9C46.3,572.6,46.2,572,45.9,571.3
			C45.9,571.4,45.9,571.3,45.9,571.3z"/>
		
			<linearGradient id="SVGID_2_" gradientUnits="userSpaceOnUse" x1="-285.608" y1="688.2042" x2="-244.3054" y2="688.2042" gradientTransform="matrix(1 0 0 1 296.0104 -174.6829)">
			<stop  offset="0" style="stop-color:#695E41"/>
			<stop  offset="0.4303" style="stop-color:#D9D6CB"/>
			<stop  offset="1" style="stop-color:#7C7259"/>
		</linearGradient>
		<path class="st9" d="M50.8,462.7c0,0-0.1,0-0.1,0c0,0-0.1,0.1-0.1,0.1c0.5,1.1,0.7,2.2,0.5,3.3c-0.2,1.1-0.6,2.1-1.2,3.2
			c-1.2,2-3,3.8-4.7,5.5c-1.8,1.8-3.6,3.5-5.3,5.4c-0.9,0.9-1.6,1.9-2.3,3c-0.7,1.1-1.2,2.2-1.5,3.4c-0.5,2.3-0.5,4.7-0.4,7
			c0.1,2.3,0.5,4.6,0.6,6.8c0.1,2.2,0.1,4.5-0.4,6.6c-0.5,2.2-1.5,4.3-2.9,6.2c-2.9,3.9-5.6,8-7.8,12.2c-0.6,1.1-1.1,2.1-1.6,3.2
			c-0.5,1.1-0.9,2.2-1.3,3.3c-0.8,2.2-1.4,4.5-1.9,6.7c-0.5,2.2-1,4.5-1.6,6.6c-0.7,2.2-1.6,4.3-2.7,6.3c-0.6,1-1.3,2-2,3
			c-0.7,1-1.4,2-2,3c-0.6,1.1-1.1,2.2-1.3,3.3c-0.2,1.2-0.1,2.3,0.1,3.5c0,0,0.1,0.1,0.1,0.1c0.1,0,0.1,0,0.1-0.1
			c-0.1-1.1,0-2.3,0.3-3.3c0.3-1.1,0.9-2.1,1.5-3.1c1.3-1.9,3.1-3.8,4.4-5.9c0.7-1,1.3-2.1,1.8-3.2c0.5-1.1,0.9-2.2,1.3-3.3
			c0.7-2.2,1.2-4.5,1.5-6.8c0.3-2.3,0.8-4.5,1.4-6.7c0.3-1.1,0.7-2.2,1.1-3.3c0.4-1.1,0.9-2.2,1.4-3.2c1-2.1,2.3-4.2,3.7-6.1
			c1.4-2,2.9-3.9,4.5-5.8c1.6-1.9,2.9-4.1,3.5-6.4c0.7-2.3,0.8-4.6,0.7-6.9c-0.1-2.3-0.3-4.6-0.4-6.8c0-1.1-0.1-2.2,0-3.4
			c0.1-1.1,0.2-2.2,0.4-3.3c0.2-1,0.7-2,1.3-3c0.6-1,1.3-1.9,2.1-2.8c1.6-1.9,3.3-3.6,5-5.5c0.9-0.9,1.7-1.9,2.4-2.9
			c0.8-1,1.5-2,2-3.1c0.6-1.1,0.9-2.2,1-3.4C51.7,464.9,51.4,463.8,50.8,462.7z"/>
		
			<linearGradient id="SVGID_3_" gradientUnits="userSpaceOnUse" x1="-281.9018" y1="580.1145" x2="-256.8464" y2="580.1145" gradientTransform="matrix(1 0 0 1 296.0104 -174.6829)">
			<stop  offset="0" style="stop-color:#695E41"/>
			<stop  offset="0.4303" style="stop-color:#D9D6CB"/>
			<stop  offset="1" style="stop-color:#7C7259"/>
		</linearGradient>
		<path class="st10" d="M14.3,434.8c2.5-1.8,4.6-4,6.2-6.4c0.4-0.6,0.8-1.2,1.2-1.8c0.4-0.6,0.7-1.2,1-1.9c0.6-1.3,1.1-2.6,1.4-3.9
			c0.2-0.7,0.3-1.3,0.4-2c0.1-0.7,0-1.4,0-2.1c-0.2-1.4-0.5-2.7-0.9-4c-0.3-1.3-0.7-2.6-0.9-3.9c-0.2-1.3-0.2-2.6,0.1-3.9
			c0.3-1.3,0.9-2.5,1.5-3.7c0.7-1.2,1.4-2.3,2.3-3.5c0.8-1.1,1.8-2.2,2.7-3.3l2.9-3.3c1.9-2.2,3.7-4.5,5.1-7
			c0.7-1.3,1.2-2.6,1.6-3.9c0.2-0.7,0.3-1.4,0.3-2c0-0.7,0-1.4-0.1-2c0,0,0-0.1-0.1-0.1c-0.1,0-0.1,0-0.1,0.1
			c-0.2,2.7-1.4,5.2-3,7.5c-1.6,2.3-3.5,4.5-5.4,6.6c-1.9,2.2-3.8,4.4-5.5,6.8c-0.8,1.2-1.6,2.4-2.2,3.7c-0.6,1.3-1,2.7-1.1,4
			c-0.2,1.4,0,2.7,0.3,4.1c0.3,1.3,0.6,2.6,0.9,4c0.3,1.3,0.5,2.6,0.4,3.9c0,0.7-0.1,1.3-0.2,1.9c-0.1,0.6-0.4,1.3-0.6,1.9
			c-1.7,5.1-4.5,9.9-8.5,14.2c0,0,0,0.1,0,0.1C14.2,434.9,14.2,434.9,14.3,434.8z"/>
		
			<linearGradient id="SVGID_4_" gradientUnits="userSpaceOnUse" x1="-279.8409" y1="526.6168" x2="-256.9422" y2="526.6168" gradientTransform="matrix(1 0 0 1 296.0104 -174.6829)">
			<stop  offset="0" style="stop-color:#695E41"/>
			<stop  offset="0.4303" style="stop-color:#D9D6CB"/>
			<stop  offset="1" style="stop-color:#7C7259"/>
		</linearGradient>
		<path class="st11" d="M38.9,328.9c-0.6,1.3-0.9,2.7-1.2,4c-0.2,1.2-0.5,2.4-0.8,3.5c-0.4,0-0.8,0.1-1.3,0.1
			c-0.6,0.1-1.3,0.3-1.9,0.7c-0.6,0.4-1,0.9-1.2,1.4c-0.2,0.5-0.4,1-0.4,1.5c-0.1,1-0.1,1.9-0.1,2.8c0,0.9-0.1,1.7-0.4,2.5
			c-0.3,0.8-0.7,1.6-1.2,2.3c-0.6,0.7-1.3,1.3-2.1,2c-1.6,1.3-3.1,2.7-4.4,4.3c-1.3,1.5-2.4,3.2-3.4,4.8c-1,1.7-1.8,3.4-2.3,5.2
			c-0.5,1.8-0.9,3.6-1.1,5.4c-0.3,1.8-0.5,3.6-0.7,5.4c0,0,0,0.1,0.1,0.1c0,0,0.1,0,0.1,0c0.8-1.7,1.3-3.5,1.8-5.3l1.5-5.3
			c0.5-1.8,0.9-3.5,1.6-5.2c0.6-1.7,1.6-3.4,2.9-4.8c0.7-0.7,1.4-1.4,2.2-2c0.8-0.6,1.7-1.2,2.6-1.8c0.9-0.6,1.8-1.2,2.6-2
			c0.8-0.8,1.3-1.7,1.7-2.6c0.2-0.5,0.3-0.9,0.4-1.4c0.1-0.5,0.2-1,0.2-1.4c0.1-0.9,0-1.9,0.1-2.7c0.1-0.8,0.3-1.6,0.9-2
			c0.6-0.4,1.6-0.6,2.6-0.7l0.1,0c0.3,0,0.6-0.2,0.7-0.5c0.4-1.4,0.4-2.8,0.5-4.2c0-1.4,0.1-2.7,0.3-4.1c0,0,0-0.1-0.1-0.1
			C39,328.8,38.9,328.8,38.9,328.9z"/>
		
			<linearGradient id="SVGID_5_" gradientUnits="userSpaceOnUse" x1="-278.8405" y1="484.6423" x2="-256.5671" y2="484.6423" gradientTransform="matrix(1 0 0 1 296.0104 -174.6829)">
			<stop  offset="0" style="stop-color:#695E41"/>
			<stop  offset="0.4303" style="stop-color:#D9D6CB"/>
			<stop  offset="1" style="stop-color:#7C7259"/>
		</linearGradient>
		<path class="st12" d="M36.7,298c-0.7,0.4-1.6,0.8-2.4,1.3c-0.8,0.5-1.7,1-2.3,1.8c-0.6,0.7-1,1.5-1.3,2.3
			c-0.3,0.8-0.5,1.6-0.7,2.3c-0.2,0.7-0.6,1.4-1,2c-0.1,0.2-0.2,0.3-0.3,0.4c-0.1,0.1-0.1,0.2-0.2,0.2c-0.1,0.1-0.1,0.1-0.2,0.2
			c-0.3,0.3-0.6,0.6-0.9,0.8c-1.3,1.1-3,1.9-4.5,3c-0.8,0.5-1.4,1.1-2.1,1.8c-0.6,0.7-1.1,1.4-1.6,2.1c-0.4,0.7-0.8,1.5-1.1,2.2
			c-0.3,0.8-0.5,1.6-0.6,2.3c-0.3,1.6-0.3,3.2,0.2,4.8c0,0,0,0.1,0.1,0.1c0.1,0,0.1,0,0.1-0.1c0.2-1.6,0.6-3.1,1-4.5
			c0.2-0.7,0.5-1.5,0.8-2.2l0.9-2.2c0.3-0.7,0.6-1.5,1-2.1c0.4-0.7,0.9-1.3,1.6-1.9c1.3-1.1,3.1-1.8,4.8-2.7
			c0.4-0.2,0.8-0.5,1.2-0.8c0.1-0.1,0.2-0.1,0.3-0.2c0.1-0.1,0.2-0.1,0.3-0.2c0.2-0.2,0.4-0.3,0.5-0.5c0.6-0.7,1.1-1.5,1.4-2.2
			c0.3-0.8,0.6-1.5,0.9-2.2c0.3-0.7,0.6-1.3,1.1-1.9c0.4-0.6,1.1-1,1.8-1.5c0.7-0.5,1.5-0.9,2.3-1.5c0.8-0.6,1.5-1.3,1.7-2.2
			c0.3-0.9,0.1-1.7-0.2-2.4c0,0,0,0-0.1,0c-0.1,0-0.1,0-0.1,0.1c0,0.8-0.1,1.5-0.5,2.2C38,297.1,37.4,297.6,36.7,298z"/>
		
			<linearGradient id="SVGID_6_" gradientUnits="userSpaceOnUse" x1="-279.8564" y1="379.5697" x2="-257.4334" y2="379.5697" gradientTransform="matrix(1 0 0 1 296.0104 -174.6829)">
			<stop  offset="0" style="stop-color:#695E41"/>
			<stop  offset="0.4303" style="stop-color:#D9D6CB"/>
			<stop  offset="1" style="stop-color:#7C7259"/>
		</linearGradient>
		<path class="st13" d="M17,283.4C17,283.4,17,283.4,17,283.4c-0.2-1.2-0.4-2.4-0.3-3.6c0.1-1.2,0.3-2.3,0.8-3.4
			c0.5-1.1,1.1-2.2,1.8-3.2c0.7-1,1.6-2,2.4-2.9c1.7-1.9,3.5-3.9,4.6-6.2c1.2-2.3,1.6-4.8,1.5-7.2c-0.1-2.4-0.7-4.8-1.5-7.2
			c-0.8-2.3-1.7-4.6-2.6-6.8c-0.9-2.3-1.6-4.5-1.9-6.9c-0.1-1.2-0.2-2.3-0.1-3.5c0.1-1.2,0.3-2.3,0.7-3.4c0.4-1.1,1.1-2.1,2-3.1
			c0.9-0.9,2-1.7,3-2.6c1-0.9,2-1.8,2.8-2.8c0.8-1,1.4-2.2,1.7-3.4c0.3-1.2,0.3-2.4,0.1-3.6c-0.2-1.2-0.4-2.4-0.7-3.5
			c-0.3-1.2-0.6-2.3-0.8-3.5c-0.2-1.2-0.4-2.3-0.5-3.5c-0.3-2.4-0.4-4.7-0.4-7.1c0-2.4,0.2-4.7,0.5-7c0.4-2.3,1-4.6,2.1-6.7
			c0.6-1,1.3-2,2.1-2.9c0.9-0.8,2-1.5,3.2-1.8c0.3-0.1,0.6-0.3,0.6-0.6l0,0c0.3-1.2,0.2-2.4-0.2-3.6c-0.4-1.1-1-2.2-1.6-3.2
			c-1.3-2-2.8-3.8-3.7-5.7c-0.2-0.5-0.4-1-0.5-1.5c-0.1-0.2-0.1-0.5-0.1-0.8c0-0.2-0.1-0.5-0.1-0.8c-0.1-1,0.1-2,0.3-3
			c0.5-2,1.8-4,2.7-6.1c0.4-1.1,0.8-2.2,0.9-3.3c0.1-1.2-0.1-2.3-0.3-3.4c-0.3-1.1-0.6-2.1-0.8-3.2c-0.2-1-0.3-2.1-0.3-3.2
			c0.1-2.1,1.1-4.2,1.8-6.3c0.3-1.1,0.6-2.2,0.6-3.3c0-1.1-0.3-2.2-0.8-3.2c0,0-0.1-0.1-0.1,0c0,0-0.1,0.1-0.1,0.1
			c0.5,1,0.6,2.1,0.6,3.2c-0.1,1.1-0.4,2.1-0.8,3.1c-0.8,2.1-2,4.1-2.2,6.4c-0.1,1.1-0.1,2.3,0.1,3.4c0.2,1.1,0.4,2.2,0.7,3.2
			c0.2,1.1,0.3,2.1,0.2,3.1c-0.1,1-0.5,2-0.9,3c-0.9,2-2.2,3.9-2.9,6.2c-0.4,1.1-0.5,2.3-0.4,3.4c0,0.3,0,0.6,0.1,0.9
			c0,0.3,0.1,0.6,0.2,0.9c0.1,0.6,0.3,1.1,0.6,1.7c1,2.2,2.5,4.1,3.8,5.9c0.6,0.9,1.1,1.9,1.5,2.9c0.3,0.8,0.4,1.7,0.3,2.5
			c-1.4,0.5-2.5,1.2-3.4,2.1c-1,1-1.8,2.1-2.4,3.3c-1.2,2.3-1.7,4.7-2.1,7.1c-0.6,4.8-0.4,9.6,0.4,14.4c0.2,1.2,0.4,2.4,0.7,3.5
			c0.3,1.2,0.6,2.4,0.9,3.5c0.3,1.2,0.7,2.3,0.9,3.5c0.2,1.2,0.2,2.3,0,3.5c-0.5,2.3-2.3,4.3-4.3,6c-1,0.9-2.1,1.7-3.1,2.6
			c-1,0.9-1.7,2-2.2,3.2c-0.5,1.2-0.8,2.4-1,3.6c-0.2,1.2-0.2,2.4-0.1,3.6c0.2,2.4,0.8,4.8,1.6,7.1c0.8,2.3,1.7,4.6,2.4,6.9
			c0.7,2.3,1.4,4.6,1.5,6.9c0.1,1.2,0,2.3-0.2,3.4c-0.2,1.1-0.5,2.2-1,3.3c-1,2.2-2.6,4.1-4.3,6.1c-1.6,2-3.2,4.1-4,6.5
			c-0.8,2.4-0.7,4.9,0.2,7.1C16.9,283.4,16.9,283.4,17,283.4z"/>
	</g>
</g>
</svg>
