<?xml version="1.0" encoding="utf-8"?>
<!-- Generator: Adobe Illustrator 23.0.3, SVG Export Plug-In . SVG Version: 6.00 Build 0)  -->
<svg version="1.1" id="Layer_1" xmlns="http://www.w3.org/2000/svg" xmlns:xlink="http://www.w3.org/1999/xlink" x="0px" y="0px"
	 viewBox="0 0 56.7 708.7" style="enable-background:new 0 0 56.7 708.7;" xml:space="preserve">
<style type="text/css">
	.st0{fill:#41492D;}
	.st1{fill:#091003;}
	.st2{fill:#2B331B;}
	.st3{fill:#C75A00;}
	.st4{fill:#FF8200;}
	.st5{fill:url(#SVGID_1_);}
	.st6{fill:url(#SVGID_2_);}
	.st7{fill:url(#SVGID_3_);}
	.st8{fill:url(#SVGID_4_);}
	.st9{fill:url(#SVGID_5_);}
	.st10{fill:url(#SVGID_6_);}
</style>
<g>
	<g>
		<path class="st0" d="M41.1,636.4c-5.1-13.9,3.2-34.2,3.2-54.8c0-1.9-0.5-3.9,0-5.7c2-6.9,6.2-12.7,6.2-20.7
			c0-9.7-5.4-16.1-8.8-23.8c-3.5-7.9-6.1-17.4-4-23.5c4.9-13.6,12.8-15.2,12.8-31.2c0-7.5-3.3-35-15-39.3
			c-0.1-22.3-0.3-50.3-0.5-81.6c3.3-2.9,5.5-8,5.5-13.7c0-5.8-2.3-10.9-5.7-13.8c-0.1-14.4-0.2-32.9-0.4-48.1
			c6.3-3.3,8.1-7.9,8.1-17.5c0-9.8-2-14.6-8.5-17.7C33.2,154.8,31.9,57.6,30.2,0h-3.7c-1.7,57.6-3,154.8-3.9,244.9
			c-6.5,3.2-8.5,7.9-8.5,17.7c0,9.6,1.8,14.2,8.1,17.5c-0.1,15.2-0.3,33.7-0.4,48.1c-3.4,2.9-5.7,8-5.7,13.8
			c0,5.7,2.2,10.7,5.5,13.7c-0.2,31.3-0.4,59.3-0.5,81.6c-11.7,4.3-15,31.8-15,39.3c0,16,7.9,17.6,12.8,31.2
			c2.2,6.1-0.4,15.6-4,23.5c-3.5,7.8-8.8,14.1-8.8,23.8c0,8,4.2,13.8,6.2,20.7c0.5,1.8,0,3.8,0,5.7c0,20.6,8.4,40.9,3.2,54.8
			C11,648.9,0,655.6,0,670.5c0,21.1,12.7,38.2,28.3,38.2c15.7,0,28.3-17.1,28.3-38.2C56.7,655.6,45.7,648.9,41.1,636.4z"/>
		<path class="st1" d="M37.8,648.1c-3.8-10.2,2.4-25.3,2.4-40.5c0-1.4-0.4-2.9,0-4.2c1.5-5.1,4.6-9.4,4.6-15.3
			c0-7.2-4-11.9-6.5-17.6c-2.6-5.8-4.5-12.9-2.9-17.3c3.6-10,13.4-13.9,13.4-25.7c0-12.6-6.3-23.2-15-26.4
			c-0.1-16.4-8.4-39.8-0.4-60.2c1.4-3.5,4-5.9,4-10.1c0-4.3-2.7-6.7-4.2-10.2c-3.9-9.3-4.9-23.6-0.3-32.9c2.8-5.6,7.9-8.5,7.9-15.6
			c0-7.2-3.4-13.4-8.2-15.7c-0.7-66.5-1.6-135.7-2.8-178.2H27c-1.3,42.6-2.2,111.7-2.8,178.2c-4.8,2.3-8.2,8.5-8.2,15.7
			c0,7.1,5.1,10,7.9,15.6c4.7,9.3,3.6,23.6-0.3,32.9c-1.5,3.5-4.2,5.9-4.2,10.2c0,4.2,2.7,6.6,4,10.1c8.1,20.4-0.3,43.8-0.4,60.2
			c-8.6,3.2-15,13.8-15,26.4c0,11.8,9.7,15.7,13.4,25.7c1.6,4.5-0.3,11.5-2.9,17.3c-2.6,5.7-6.5,10.4-6.5,17.6
			c0,5.9,3.1,10.2,4.6,15.3c0.4,1.3,0,2.8,0,4.2c0,15.2,6.2,30.2,2.4,40.5c-3.4,9.2-11.5,14.2-11.5,25.2c0,15.6,9.4,28.2,20.9,28.2
			c11.6,0,20.9-12.6,20.9-28.2C49.3,662.3,41.2,657.3,37.8,648.1z"/>
	</g>
	<g>
		<path class="st2" d="M25.4,338.6c0.2,0.9,0.7,1.9,1.3,2.3c2,1.6,5,2.1,7.9,2.2c1.9,0.1,3.9,0,6-0.1c0-0.3,0-0.6,0-0.9
			c0-5.8-2.3-10.9-5.7-13.8c0-2.4,0-4.9-0.1-7.4c-1.5,1.6-3,3.3-4.4,5.1c-2.1,2.7-4.5,6.1-5,8.7c0,0.2-0.1,1-0.1,0.9
			c0,0.3,0,0.5,0,0.8C25.2,337.7,25.1,337.4,25.4,338.6z"/>
		<path class="st2" d="M24.4,173.8c-0.3-0.7-0.7-1.3-1-2c0,0.6,0,1.1,0,1.7C23.7,173.5,24.1,173.6,24.4,173.8z"/>
		<path class="st2" d="M24.9,72.1c-0.1,5-0.2,10.2-0.3,15.4c2.4,2.4,5,4.5,7.6,6.5c-0.1-8.4-0.3-16.5-0.4-24.5
			C29.5,70.4,27.2,71.2,24.9,72.1z"/>
		<path class="st2" d="M25.1,60.6c2.2-0.8,4.3-1.6,6.5-2.5c0-1.8-0.1-3.6-0.1-5.4c-2-1.2-4.1-2.4-6.2-3.6
			C25.2,52.9,25.1,56.7,25.1,60.6z"/>
		<path class="st2" d="M39.2,273.7c0.5,0.1,1,0.2,1.5,0.4c1.3-2.8,1.8-6.4,1.8-11.4c0-9.8-2-14.6-8.5-17.7
			c-0.1-13.2-0.3-26.6-0.4-39.9c-3.7-4.9-7.3-10-10.4-15.6c-0.2,18.5-0.4,37.2-0.6,55.5c-6.5,3.2-8.5,7.9-8.5,17.7
			c0,3,0.2,5.5,0.6,7.6c0.1,0,0.2,0,0.3,0C23,269.1,31.4,271.8,39.2,273.7z"/>
		<path class="st2" d="M24.4,100.4c-0.1,6.9-0.2,13.9-0.3,20.9c2.7,1.1,5.6,1.8,8.6,2c-0.1-5.7-0.2-11.3-0.2-16.8
			c-1.7-1.2-3.3-2.4-4.9-3.6C26.4,102.1,25.4,101.3,24.4,100.4z"/>
		<path class="st2" d="M27.9,676.6c2.9,1.9,6.4,1.3,9.6-0.4c0.8-0.4,1.5-0.9,2.3-1.4c1.1-2.8,2.2-5.5,3.6-8c-0.1-1.5-0.1-2.9,0-4.3
			c0.3-3.9,3.5-6.9,6-4.9c0.8-1,1.7-2,2.6-2.9c-1.4-2.4-3.1-4.7-4.7-7c-4.8,3.1-10.4,4.6-15.4,6.7c-3.4,1.4-6.1,2.4-9,5.2
			c-0.1,0.1-0.1,0.1-0.2,0.2c0,0-0.1,0.1-0.1,0.2c-0.3,0.3-0.5,0.6-0.7,1c-0.1,0.1-0.1,0.2-0.2,0.2c0,0,0,0,0,0.1
			c-0.1,0.2-0.2,0.5-0.3,0.7c0,0.2-0.2,0.6-0.2,0.8c0,0.1,0,0.2-0.1,0.3c0,0,0,0,0,0.1c0,0.4,0,0.7,0,1.1c0,0.1,0,0.2,0.1,0.4
			C21.9,668.9,24.4,674.3,27.9,676.6z"/>
		<path class="st2" d="M33.2,163.6c-2-1.4-3.9-2.9-5.9-4.3c1.7,4.3,3.7,8.3,6,12C33.2,168.7,33.2,166.2,33.2,163.6z"/>
		<path class="st2" d="M54.3,674.9c0.2,0.4,0.5,0.8,0.8,1.1c0.5,0.4,0.9,0.9,1.2,1.4c0.3-2.2,0.5-4.6,0.5-6.9c0-0.3,0-0.7,0-1
			c-0.9,1.5-1.9,3-2.9,4.5C53.9,674.3,54.1,674.6,54.3,674.9z"/>
		<path class="st2" d="M13.5,534.6c-0.5,1.1-1.1,2.1-1.7,3.1c4.5,4.7,9.8,8.3,15.2,11.1c3.8,0.4,7.3,1.6,10.5,4.9
			c1.8,1.8,2.7,4.7,1.5,7.5c-0.1,0.2-0.2,0.4-0.3,0.6c3.2,1.5,6.4,2.7,9.6,3.9c1.3-3.2,2.3-6.6,2.3-10.6c0-9.6-5.2-15.9-8.7-23.5
			c-0.9,0.3-1.8,0.6-2.7,0.8C30.8,534.6,22.1,535.3,13.5,534.6z"/>
		<path class="st2" d="M23.3,476c9-2.4,17.8-6.8,25.6-13.5c-1.7-9.2-5.1-19.6-10.9-23.9c-4.9,4.5-10.2,8.3-15.5,12.1
			c-4.8,3.4-9.9,6.8-14.7,10.9c-1.2,6.3-1.7,12.1-1.7,15c0,0.1,0,0.1,0,0.2C11.8,478.1,17.8,477.5,23.3,476z"/>
		<path class="st2" d="M27.3,133.5c1.6,3.1,3.6,5.9,5.6,8.6c0-2.6-0.1-5.3-0.1-7.9C31,134.1,29.1,133.9,27.3,133.5z"/>
		<path class="st2" d="M24.6,627.5c4.9,1.9,10.1,2.8,15.2,3.9c-1.3-8.2,0.7-18.2,2.4-28.8c-1.5,0.5-2.9,1.1-4.4,1.6
			c-4.1,1.4-8.3,2.8-12.3,4.8c-2,0.9-3.4,1.7-5.2,3c-0.8,0.5-1.5,1.1-2.2,1.8c-1,0.9-0.7,0.6-1.4,1.4c-0.1,0.1-0.2,0.2-0.2,0.3
			c0.3,2.6,0.6,5.1,0.7,7.5c0.6,0.7,1.3,1.3,2.1,1.8C21,625.9,22.7,626.8,24.6,627.5z"/>
		<path class="st2" d="M12.4,581.6c0,7.5,1.1,14.9,2.3,22c2.9-2.4,6.3-4.1,9.3-5.5c6.5-3,13.4-4.6,20-7.3c0.3-3,0.5-6.1,0.5-9.2
			c0-1.9-0.5-3.9,0-5.7c0-0.1,0-0.1,0.1-0.2c-3.7-1.4-7.4-2.9-11-4.9c-5-2.8-10.6-6.5-12.6-13.7c-4.7-2.8-9.2-6.1-13.2-10.1
			c-0.8,2.5-1.3,5.2-1.3,8.2c0,8,4.2,13.8,6.2,20.7C12.9,577.6,12.4,579.7,12.4,581.6z"/>
		<path class="st2" d="M17.9,523.7c6.1,0.2,12.3-0.1,18.1-1.5c0.7-0.2,1.5-0.4,2.2-0.6c-1.3-5.1-1.8-10-0.5-13.7
			c0.3-0.8,0.6-1.5,0.9-2.2c-5.6,1-11.2,1.3-17-0.9c-3.6-1.4-3.8-7.3-1-10c3-2.9,5.9-6,8.7-9.3c-1.8,0.6-3.5,1.1-5.3,1.5
			c-5.2,1.2-10.6,1.8-16,1.2c2.6,6.6,7.5,10.3,10.9,19.7C20.5,512.1,19.7,517.9,17.9,523.7z"/>
		<path class="st2" d="M50.9,685.5c-1.2-1-2.3-2.3-3.3-3.9c-1,1.4-2,2.7-2.9,4.1c-1.2,1.9-3.2,1.9-4.7,0.9c-2.1,1-4.2,1.7-6.5,1.9
			c-9.7,1.1-18.9-9.4-20.5-22.2c-1.4-11.8,6.3-17.9,13.5-21.2c2.9-1.4,5.9-2.4,8.9-3.6c-4.2-0.9-8.4-1.7-12.5-3.3
			c-2.1-0.8-4.5-2-6.8-3.6c-0.2,0.6-0.3,1.1-0.5,1.7C11,648.9,0,655.6,0,670.5c0,21.1,12.7,38.2,28.3,38.2
			c11.6,0,21.5-9.3,25.9-22.7C53.3,686.5,52.1,686.4,50.9,685.5z"/>
		<path class="st2" d="M30.3,1.3c0-0.4,0-0.9,0-1.3h-3.7c0,0.4,0,0.9,0,1.3C27.7,1.2,29,1.2,30.3,1.3z"/>
		<path class="st2" d="M28.8,433.8c-1.6,0.8-3.2,1.5-4.8,2.2c-0.9,0.4-1.9,0.8-3,1.1c0,0.1,0,0.2,0,0.2c-3.1,1.1-5.6,3.9-7.6,7.5
			c0.9-0.6,1.7-1.2,2.6-1.8C20.2,440.1,24.6,437.1,28.8,433.8z"/>
		<path class="st2" d="M22.2,286.4c3.7,0.8,8,1.2,12.1,1.4c0.1,0,0.2,0,0.3,0c0-1.5,0-2.9,0-4.3c-4.1-1-8.2-1.9-12.3-2.4
			C22.2,282.9,22.2,284.7,22.2,286.4z"/>
		<path class="st2" d="M32.5,309.5c0.7-0.7,1.4-1.4,2.1-2.1c0-2.8,0-5.7-0.1-8.5c-2.7-0.2-5.5-0.4-8.2-0.8c-1.3-0.2-2.8-0.4-4.3-0.6
			c-0.1,8.2-0.1,16.6-0.2,24.2C25,317,29.1,313,32.5,309.5z"/>
		<path class="st2" d="M29.9,369.1c1.7-1.5,3.5-3,5.2-4.5c0-2.9,0-5.8-0.1-8.8c0.6-0.5,1.1-1.1,1.6-1.7c-1.7,0-3.4,0-5.1-0.3
			c-3.8-0.6-7.8-1.6-10.7-5.2c-2.5-3-3.9-7.8-3.8-12.4c-0.5,1.8-0.8,3.8-0.8,5.9c0,5.7,2.2,10.7,5.5,13.7
			c-0.1,7.2-0.1,14.1-0.1,20.9C24.2,374,27,371.5,29.9,369.1z"/>
		<path class="st2" d="M50.5,476.7c0-0.4,0-0.9,0-1.5c-6,6.6-11.7,13.8-17.7,20.5c4.3-0.1,8.7-1.2,13-2.3
			C48.5,489.2,50.5,484.8,50.5,476.7z"/>
		<path class="st2" d="M26.1,12.3c-0.2,7.8-0.4,16.2-0.6,25.1c1.1,0.7,2.3,1.4,3.4,2c0.8,0.4,1.5,0.9,2.3,1.3
			c-0.2-10.1-0.4-19.6-0.7-28.5C29.1,12.1,27.6,12.1,26.1,12.3z"/>
		<path class="st2" d="M35.4,418.5c-0.1-12.5-0.2-26.3-0.3-41c-4.8,4.1-9.6,8.2-13.8,13.3c-0.1,12.6-0.2,24.3-0.2,35
			c1.6-0.7,3.3-1.4,4.9-2.2C29.2,422,32.3,420.2,35.4,418.5z"/>
		<path class="st1" d="M32.9,419.9c-3.6-9.3-4.6-23.1,0-32.2c2.7-5.4,7.6-8.3,7.9-15c-0.1,0.1-0.2,0.2-0.4,0.3
			c-5.5,4.8-11.3,9.3-16.5,14.9c4.5,9.3,3.4,23.4-0.4,32.7c-0.8,2-2.1,3.6-3,5.5c0,0,0,0,0,0c1.8-0.7,3.7-1.6,5.5-2.5
			C28.3,422.4,30.6,421.1,32.9,419.9z"/>
		<path class="st1" d="M32.1,309.9c0-3.8-0.1-7.5-0.1-11.3c-1.8-0.1-3.7-0.3-5.5-0.6c-0.5-0.1-1.1-0.1-1.6-0.2
			c-0.1,6.7-0.2,13.5-0.2,20.2C26.9,315.1,29.6,312.4,32.1,309.9z"/>
		<path class="st1" d="M29.4,485.5c-1.7,0.5-3.4,1-5,1.4c-0.2,1.6-0.4,3.2-0.6,4.8C25.7,489.6,27.5,487.6,29.4,485.5z"/>
		<path class="st1" d="M26.5,194.9c-0.5,21.5-1,47.6-1.4,75.6c2.2,0.3,4.3,0.8,6.4,1.3c-0.4-26.1-0.8-50.6-1.3-71.4
			C29,198.6,27.7,196.8,26.5,194.9z"/>
		<path class="st1" d="M30.5,473.6c-1.1-9.9-1.4-20.3,1.8-30.1c-2.2,1.7-4.4,3.4-6.6,5c1.8,8.8,1.3,18,0.3,26.7
			C27.5,474.8,29,474.2,30.5,473.6z"/>
		<path class="st1" d="M25.3,334.7c0,0.2-0.1,1-0.1,0.9c0,0.3,0,0.5,0,0.8c0,1.3-0.1,1.1,0.2,2.2c0.2,0.9,0.7,1.9,1.3,2.3
			c1.5,1.2,3.6,1.8,5.8,2.1c-0.1-6.4-0.1-12.9-0.2-19.3c-0.6,0.7-1.3,1.5-1.9,2.3C28.2,328.7,25.9,332,25.3,334.7z"/>
		<path class="st1" d="M31.7,282.9c-2.3-0.5-4.5-1-6.8-1.3c0,1.8,0,3.6-0.1,5.4c2.2,0.3,4.6,0.6,6.9,0.8
			C31.8,286.1,31.8,284.5,31.7,282.9z"/>
		<path class="st1" d="M38.2,361.9c-1.4-2.5-3.4-4.5-5.6-5.6c0-0.8,0-1.6,0-2.4c-0.3,0-0.7-0.1-1-0.1c-2.5-0.4-5.1-1-7.4-2.3
			c0,1.6,0,3.2,0,4.9c-4.8,2.3-8.2,8.5-8.2,15.7c0,3.3,1.1,5.7,2.5,7.8c3.6-3.9,7.5-7.4,11.4-10.8C32.6,366.7,35.4,364.3,38.2,361.9
			z"/>
		<path class="st1" d="M28.8,433.8c-1.6,0.8-3.2,1.5-4.8,2.2c-0.9,0.4-1.8,0.7-2.7,1c0.3,0.5,0.6,1.1,0.9,1.6
			C24.5,437.1,26.7,435.5,28.8,433.8z"/>
		<path class="st1" d="M27.9,676.6c2.9,1.9,6.4,1.3,9.6-0.4c0.8-0.4,1.5-0.9,2.3-1.4c1.1-2.8,2.2-5.5,3.6-8c-0.1-1.5-0.1-2.9,0-4.3
			c0.1-1.2,0.4-2.3,1-3.2c-1.7-2.5-3.5-5-5-7.8c-2.5,1-5,1.8-7.4,2.8c-3.4,1.4-6.1,2.4-9,5.2c-0.1,0.1-0.1,0.1-0.2,0.2
			c0,0-0.1,0.1-0.1,0.2c-0.3,0.3-0.5,0.6-0.7,1c-0.1,0.1-0.1,0.2-0.2,0.2c0,0,0,0,0,0.1c-0.1,0.2-0.2,0.5-0.3,0.7
			c0,0.2-0.2,0.6-0.2,0.8c0,0.1,0,0.2-0.1,0.3c0,0,0,0,0,0.1c0,0.4,0,0.7,0,1.1c0,0.1,0,0.2,0.1,0.4
			C21.9,668.9,24.4,674.3,27.9,676.6z"/>
		<path class="st1" d="M35.4,641.5c-4.2-0.9-8.4-1.7-12.5-3.3c-0.9-0.4-1.9-0.8-2.9-1.3c0.3,4.1,0.1,7.9-1.1,11.2
			c-0.5,1.3-1.1,2.5-1.7,3.7c2.6-3,6-5.1,9.3-6.7C29.5,643.8,32.5,642.7,35.4,641.5z"/>
		<path class="st1" d="M47.7,681.6c-1,1.4-2,2.7-2.9,4.1c-1.2,1.9-3.2,1.9-4.7,0.9c-2.1,1-4.2,1.7-6.5,1.9
			c-9.7,1.1-18.9-9.4-20.5-22.2c-0.5-3.9,0.1-7.1,1.2-9.8c-3.4,5-6.9,9.6-6.9,16.8c0,15.6,9.4,28.2,20.9,28.2c9.2,0,17-8,19.8-19.1
			C48,682.1,47.8,681.8,47.7,681.6z"/>
		<path class="st1" d="M44.6,590.5c0.1-0.8,0.2-1.5,0.2-2.3c0-5.7-2.5-9.9-4.9-14.2c-2.2-0.9-4.4-1.9-6.5-3.1
			c-4.3-2.4-9-5.5-11.5-10.9c-0.5,3.5-1.8,7.3-3.3,10.6c-2.6,5.7-6.5,10.4-6.5,17.6c0,5.5,2.7,9.6,4.2,14.2c2.5-1.8,5.2-3.1,7.6-4.2
			C30.7,595,37.7,593.4,44.6,590.5z"/>
		<path class="st1" d="M16,523.6c6.6,0.4,13.6,0.1,19.9-1.4c3.2-0.8,6.5-1.8,9.5-3.4c0.5-0.3,1.2-0.6,1.8-1c-1.4-5-3.9-9.3-7.1-12.4
			c-6.2,1.3-12.3,1.9-18.6-0.6c-0.9-0.4-1.6-1-2.1-1.9c-5.8,3.8-10.1,11.1-11.2,20C10.9,523.2,13.5,523.5,16,523.6z"/>
		<path class="st1" d="M40.2,603.3c-0.8,0.3-1.6,0.5-2.3,0.8c-4.1,1.4-8.3,2.8-12.3,4.8c-2,0.9-3.4,1.7-5.2,3
			c-0.8,0.5-1.5,1.1-2.2,1.8c-0.8,0.7-0.8,0.6-1.1,1.1c0.3,3.1,0.8,6.1,1.3,9.1c0.3,0.3,0.7,0.6,1.1,0.8c1.7,1.2,3.4,2.1,5.3,2.8
			c4.1,1.6,8.5,2.5,12.8,3.4c1.1-7.2,2.8-15.2,2.8-23.2c0-1.4-0.4-2.9,0-4.2C40.1,603.4,40.1,603.4,40.2,603.3z"/>
		<path class="st1" d="M35.7,552.1c3.8-8.9,12.2-12.9,12.9-23.3c-3,1.6-6.2,2.8-9.5,3.6c-9.7,2.5-19.9,3-29.9,1.6
			c0.2,0.5,0.4,1,0.6,1.5c5,5.8,11,10,17.2,13.3C30.1,549.1,33,550,35.7,552.1z"/>
	</g>
	<g>
		<g>
			<path class="st3" d="M37.4,262c0,5.7-4,10.2-9,10.2c-5,0-9-4.6-9-10.2c0-5.7,4-10.2,9-10.2C33.3,251.7,37.4,256.3,37.4,262z"/>
			<path class="st4" d="M33.7,253.7c0.1,0.5,0.2,0.9,0.2,1.4c0.5,0.3,1.1,0.7,1.5,1.2c1.6,2.1,1.5,5.6,0,7.7c-1.6,2.3-4,3.2-6.3,2.5
				c-1.9-0.6-3.4-2.3-4.5-4.4c-1.3-2.4-1.3-5.5-0.4-8.1c0.2-0.7,0.6-1.3,1-1.8c-3.4,1.4-5.9,5.2-5.9,9.6c0,5.7,4,10.2,9,10.2
				c5,0,9-4.6,9-10.2C37.4,258.6,35.9,255.6,33.7,253.7z"/>
		</g>
		<g>
			<path class="st3" d="M37.4,677.1c0,5.7-4,10.2-9,10.2c-5,0-9-4.6-9-10.2c0-5.7,4-21,9-21C33.3,656.1,37.4,671.4,37.4,677.1z"/>
			<path class="st4" d="M33.7,668.9c0.1,0.5,0.2,0.9,0.2,1.4c0.5,0.3,1.1,0.7,1.5,1.2c1.6,2.1,1.5,5.6,0,7.7c-1.6,2.3-4,3.2-6.3,2.5
				c-1.9-0.6-3.4-2.3-4.5-4.4c-1.3-2.4,1.1-16.9,2-19.5c0.2-0.7-1.3,0.8-0.9,0.3c-3.4,1.4-6.4,14.5-6.4,18.9c0,5.7,4,10.2,9,10.2
				c5,0,9-4.6,9-10.2C37.4,673.7,35.9,670.7,33.7,668.9z"/>
		</g>
		<g>
			<path class="st3" d="M33.3,372.6c0,3.1-2.2,5.6-4.9,5.6c-2.7,0-4.9-2.5-4.9-5.6c0-3.1,2.2-5.6,4.9-5.6
				C31.1,367,33.3,369.5,33.3,372.6z"/>
			<path class="st4" d="M31.3,368.1c0.1,0.2,0.1,0.5,0.1,0.8c0.3,0.1,0.6,0.4,0.8,0.7c0.9,1.2,0.8,3,0,4.2c-0.9,1.3-2.2,1.7-3.4,1.4
				c-1-0.3-1.9-1.3-2.5-2.4c-0.7-1.3-0.7-3-0.2-4.4c0.1-0.4,0.3-0.7,0.5-1c-1.9,0.8-3.2,2.8-3.2,5.2c0,3.1,2.2,5.6,4.9,5.6
				c2.7,0,4.9-2.5,4.9-5.6C33.3,370.8,32.5,369.2,31.3,368.1z"/>
		</g>
		<g>
			<path class="st3" d="M33.3,587.5c0,3.1-2.2,5.6-4.9,5.6c-2.7,0-4.9-2.5-4.9-5.6c0-3.1,2.2-5.6,4.9-5.6
				C31.1,581.9,33.3,584.4,33.3,587.5z"/>
			<path class="st4" d="M31.3,583c0.1,0.2,0.1,0.5,0.1,0.8c0.3,0.1,0.6,0.4,0.8,0.7c0.9,1.2,0.8,3,0,4.2c-0.9,1.3-2.2,1.7-3.4,1.4
				c-1-0.3-1.9-1.3-2.5-2.4c-0.7-1.3-0.7-3-0.2-4.4c0.1-0.4,0.3-0.7,0.5-1c-1.9,0.8-3.2,2.8-3.2,5.2c0,3.1,2.2,5.6,4.9,5.6
				c2.7,0,4.9-2.5,4.9-5.6C33.3,585.7,32.5,584.1,31.3,583z"/>
		</g>
		<g>
			<path class="st3" d="M32,341.5c0,2.3-1.6,4.2-3.7,4.2c-2,0-3.7-1.9-3.7-4.2s1.6-4.2,3.7-4.2C30.4,337.3,32,339.2,32,341.5z"/>
			<path class="st4" d="M30.5,338.2c0.1,0.2,0.1,0.4,0.1,0.6c0.2,0.1,0.4,0.3,0.6,0.5c0.6,0.9,0.6,2.3,0,3.1c-0.7,0.9-1.6,1.3-2.6,1
				c-0.8-0.2-1.4-0.9-1.8-1.8c-0.5-1-0.5-2.2-0.2-3.3c0.1-0.3,0.2-0.5,0.4-0.7c-1.4,0.6-2.4,2.1-2.4,3.9c0,2.3,1.6,4.2,3.7,4.2
				c2,0,3.7-1.9,3.7-4.2C32,340.1,31.4,338.9,30.5,338.2z"/>
		</g>
		<g>
			<path class="st3" d="M32,524.2c0,2.3-1.6,4.2-3.7,4.2c-2,0-3.7-1.9-3.7-4.2c0-2.3,1.6-4.2,3.7-4.2C30.4,520.1,32,521.9,32,524.2z
				"/>
			<path class="st4" d="M30.5,520.9c0.1,0.2,0.1,0.4,0.1,0.6c0.2,0.1,0.4,0.3,0.6,0.5c0.6,0.9,0.6,2.3,0,3.1c-0.7,0.9-1.6,1.3-2.6,1
				c-0.8-0.2-1.4-0.9-1.8-1.8c-0.5-1-0.5-2.2-0.2-3.3c0.1-0.3,0.2-0.5,0.4-0.7c-1.4,0.6-2.4,2.1-2.4,3.9c0,2.3,1.6,4.2,3.7,4.2
				c2,0,3.7-1.9,3.7-4.2C32,522.8,31.4,521.6,30.5,520.9z"/>
		</g>
		<g>
			<path class="st3" d="M31,431.6c0,1.7-1.2,3-2.7,3c-1.5,0-2.7-1.4-2.7-3c0-1.7,1.2-3,2.7-3C29.8,428.5,31,429.9,31,431.6z"/>
			<path class="st4" d="M29.9,429.1c0,0.1,0.1,0.3,0.1,0.4c0.2,0.1,0.3,0.2,0.4,0.4c0.5,0.6,0.5,1.7,0,2.3c-0.5,0.7-1.2,0.9-1.9,0.7
				c-0.6-0.2-1-0.7-1.3-1.3c-0.4-0.7-0.4-1.6-0.1-2.4c0.1-0.2,0.2-0.4,0.3-0.5c-1,0.4-1.7,1.5-1.7,2.8c0,1.7,1.2,3,2.7,3
				c1.5,0,2.7-1.4,2.7-3C31,430.6,30.6,429.7,29.9,429.1z"/>
		</g>
	</g>
	<g>
		
			<linearGradient id="SVGID_1_" gradientUnits="userSpaceOnUse" x1="-275.8678" y1="800.97" x2="-258.3748" y2="800.97" gradientTransform="matrix(1 0 0 1 294.9471 -173.6196)">
			<stop  offset="0" style="stop-color:#483500"/>
			<stop  offset="0.4303" style="stop-color:#BCAC44"/>
			<stop  offset="1" style="stop-color:#5C4605"/>
		</linearGradient>
		<path class="st5" d="M30.5,668.6c0.1,0,0.1,0.1,0.2,0.1c0.1,0,0.1,0.1,0.2,0.1c0.1,0.1,0.2,0.1,0.4,0.1l0,0.1
			c0.1-0.4,0.1-0.9,0.1-1.3c0-0.4-0.2-0.9-0.4-1c-0.3-0.2-0.6-0.1-0.9-0.1c-0.3,0.1-0.6,0.3-0.9,0.5c-0.6,0.4-1.1,1-1.5,1.7
			c-0.2,0.3-0.3,0.8-0.5,1.2c-0.1,0.4-0.2,0.8-0.3,1.3c-0.1,0.9,0,1.8,0.2,2.6c0.2,0.8,0.7,1.5,1.2,2c1.1,0.9,2.5,1.4,3.7,1
			c1.3-0.4,2.3-1.6,3-3c0.7-1.5,1-3.3,0.9-5c0-0.4-0.1-0.9-0.2-1.3c-0.1-0.4-0.2-0.9-0.3-1.3c-0.2-0.9-0.5-1.7-0.8-2.5
			c-0.7-1.6-1.5-3-2.5-4.3c-1-1.3-2-2.5-3.1-3.7c-0.5-0.6-1.1-1.2-1.6-1.8c-0.5-0.6-1-1.3-1.4-2c-0.9-1.4-1.7-3-2.3-4.6
			c-0.7-1.6-1.2-3.4-1.6-5.2c-0.4-1.8-0.7-3.6-0.7-5.5c-0.1-1.9,0-3.7,0.3-5.6c0.3-1.8,0.7-3.6,1.2-5.4c0.5-1.7,1.1-3.4,1.8-5.1
			c2.7-6.5,6.2-12.3,8.5-19c1.1-3.3,1.9-6.9,1.9-10.5c0-0.9,0-1.8-0.1-2.7c-0.1-0.9-0.2-1.8-0.4-2.6c-0.4-1.7-1.1-3.2-2.1-4.4
			c-1-1.2-2.1-2.1-3.4-2.5c-1.3-0.4-2.6-0.4-3.9,0.1c-2.5,1-4.7,3.8-5.3,7.3c-0.3,1.7-0.2,3.6,0.3,5.2c0.5,1.6,1.5,3,2.6,4
			c0.6,0.5,1.2,0.9,1.8,1.2c0.6,0.3,1.3,0.6,2,0.6c0.3,0,0.7-0.1,0.9-0.3c0.3-0.2,0.5-0.5,0.7-0.9c0.2-0.4,0.3-0.8,0.3-1.2
			c0-0.4-0.1-0.9-0.4-1.1l-0.2-0.2l0.2,0c0.1,0,0.3,0,0.4,0c0,0,0.1,0,0.1,0.1c0,0.1,0,0.1,0,0.1c0,0,0,0,0,0.1l-0.1,0.1
			c0,0,0,0.1,0,0.1l-0.1,0c0-0.1,0-0.1,0.1-0.2l0.1-0.1c0,0,0-0.1,0,0c0,0,0,0-0.1,0c-0.1,0-0.2,0-0.4,0l0-0.1
			c0.3,0.2,0.5,0.7,0.5,1.2c0,0.5-0.1,1-0.3,1.4c-0.2,0.4-0.4,0.8-0.7,1c-0.3,0.3-0.7,0.4-1,0.4c-0.7,0.1-1.4-0.2-2.1-0.5
			c-0.7-0.3-1.3-0.7-1.9-1.2c-1.2-1-2.3-2.4-2.9-4.1c-0.3-0.9-0.5-1.8-0.6-2.8c-0.1-1,0-1.9,0.1-2.9c0.3-1.9,1-3.6,2-5
			c1-1.4,2.2-2.5,3.6-3.1c1.4-0.6,2.9-0.6,4.3-0.2c1.4,0.5,2.7,1.4,3.8,2.8c1.1,1.3,1.9,3,2.3,4.9c0.2,0.9,0.4,1.9,0.4,2.9
			c0.1,0.9,0.1,1.9,0.1,2.8c-0.1,3.8-0.9,7.5-2.1,10.9c-1.2,3.4-2.7,6.6-4.3,9.6c-1.6,3.1-3.2,6.1-4.6,9.3c-1.4,3.2-2.5,6.6-3,10.2
			c-0.3,1.8-0.4,3.7-0.3,5.5c0.1,1.8,0.3,3.7,0.7,5.4c0.8,3.5,2.2,6.8,4,9.5c0.5,0.7,0.9,1.3,1.4,1.9c0.5,0.6,1.1,1.2,1.6,1.8
			c1.1,1.2,2.2,2.3,3.2,3.6c1,1.3,2,2.7,2.7,4.4c0.3,0.8,0.6,1.7,0.9,2.6c0.1,0.4,0.2,0.9,0.3,1.4c0.1,0.5,0.1,1,0.2,1.5
			c0.1,2-0.3,3.9-1.1,5.6c-0.8,1.6-2,3-3.5,3.4c-0.7,0.2-1.5,0.2-2.2,0c-0.4-0.1-0.7-0.3-1-0.5c-0.3-0.2-0.7-0.4-1-0.7
			c-0.6-0.6-1.1-1.4-1.3-2.3c-0.3-0.9-0.3-2-0.2-2.9c0.1-0.5,0.2-0.9,0.3-1.4c0.1-0.4,0.3-0.9,0.5-1.3c0.5-0.8,1.1-1.3,1.7-1.7
			c0.3-0.2,0.7-0.4,1-0.5c0.3-0.1,0.7-0.1,1.1,0.1c0.2,0.1,0.3,0.3,0.4,0.6c0.1,0.2,0.1,0.5,0.1,0.7c0,0.5-0.1,1-0.2,1.4l0,0.1l0,0
			c-0.1,0-0.1,0-0.2,0c-0.1,0-0.1-0.1-0.2-0.1c-0.1-0.1-0.2-0.2-0.3-0.2L30.5,668.6z"/>
		
			<linearGradient id="SVGID_2_" gradientUnits="userSpaceOnUse" x1="-277.1104" y1="730.436" x2="-258.3007" y2="730.436" gradientTransform="matrix(1 0 0 1 294.9471 -173.6196)">
			<stop  offset="0" style="stop-color:#483500"/>
			<stop  offset="0.4303" style="stop-color:#BCAC44"/>
			<stop  offset="1" style="stop-color:#5C4605"/>
		</linearGradient>
		<path class="st6" d="M33.5,601.9c0.6-1.5,1-3.2,1.3-4.9c0.3-1.7,0.4-3.4,0.4-5.1c0-3.4-0.6-6.8-1.6-10c-0.5-1.6-1.1-3.1-1.8-4.5
			c-0.2-0.3-0.4-0.7-0.6-1l-0.6-1l-1.2-2c-0.8-1.3-1.6-2.7-2.4-4.1c-0.8-1.4-1.5-2.9-2-4.6c-0.5-1.6-0.9-3.4-0.9-5.2
			c-0.1-1.8,0.1-3.6,0.5-5.2c0.4-1.7,0.9-3.3,1.6-4.8c0.6-1.5,1.4-2.9,2.2-4.3c1.5-2.8,3.2-5.4,4.6-8.3c1.4-2.8,2.6-6,3-9.4
			c0.4-3.3,0.1-6.9-1.1-9.8c-0.6-1.5-1.4-2.7-2.5-3.6c-1-0.9-2.2-1.4-3.5-1.5c-1.2-0.1-2.5,0.2-3.6,0.8c-1.1,0.6-2.1,1.7-2.9,2.9
			c-1.7,2.5-2.8,5.6-3.4,8.9c-0.3,1.6-0.4,3.3-0.3,5c0.1,1.7,0.4,3.3,1,4.7c0.6,1.4,1.6,2.5,2.7,3.1c0.1,0.1,0.3,0.1,0.4,0.2
			c0.1,0.1,0.3,0.1,0.4,0.1c0.3,0.1,0.6,0.1,0.9,0.1c0.6,0,1.2-0.3,1.7-0.6c0.6-0.3,1.1-0.8,1.5-1.4c0.4-0.6,0.8-1.3,0.9-2
			c0.1-0.8-0.1-1.5-0.4-2.1c-0.4-0.6-0.9-1.1-1.5-1.4c-0.3-0.1-0.6-0.2-0.9-0.2c-0.3,0-0.6,0.2-0.8,0.4c-0.3,0.2-0.5,0.5-0.7,0.8
			c-0.2,0.3-0.4,0.7-0.4,1c-0.1,0.4,0,0.8,0.2,1.1c0.2,0.3,0.5,0.5,0.8,0.5c0.3,0,0.6-0.2,0.7-0.5c0.2-0.4,0.2-0.8,0.2-1.2l0.1,0
			c0,0.4,0,0.9-0.1,1.3c-0.2,0.4-0.5,0.7-0.9,0.7c-0.3,0-0.7-0.2-0.9-0.5c-0.3-0.3-0.4-0.8-0.3-1.3c0-0.2,0.1-0.5,0.2-0.7
			c0.1-0.2,0.2-0.4,0.3-0.6c0.2-0.4,0.4-0.7,0.7-1c0.3-0.3,0.6-0.4,1-0.5c0.4-0.1,0.7,0,1,0.2c0.3,0.2,0.6,0.4,0.9,0.6
			c0.3,0.2,0.5,0.5,0.8,0.9c0.2,0.3,0.4,0.8,0.5,1.2c0.1,0.5,0.1,1,0.1,1.4c-0.1,1-0.5,1.8-1,2.4c-0.5,0.7-1,1.2-1.7,1.6
			c-0.6,0.4-1.3,0.6-2,0.7c-0.3,0-0.7,0-1-0.1c-0.2,0-0.3-0.1-0.5-0.2c-0.2-0.1-0.3-0.1-0.5-0.2c-0.6-0.3-1.2-0.8-1.8-1.3
			c-0.5-0.6-1-1.3-1.4-2c-0.7-1.6-1.1-3.4-1.2-5.2c-0.1-1.8,0-3.6,0.3-5.3c0.3-1.7,0.7-3.4,1.3-5c0.6-1.6,1.3-3.1,2.2-4.4
			c0.9-1.3,2-2.5,3.3-3.1c0.3-0.2,0.6-0.3,1-0.4c0.3-0.1,0.6-0.2,1-0.3c0.7-0.1,1.3-0.2,2-0.1c1.3,0.1,2.7,0.7,3.8,1.7
			c1.1,1,2,2.4,2.6,4c0.6,1.6,1,3.3,1.1,5.1c0.1,1.8,0.1,3.5-0.2,5.3c-0.3,1.7-0.7,3.4-1.3,5c-0.6,1.6-1.2,3.1-2,4.5
			c-1.5,2.9-3.1,5.5-4.6,8.3c-0.8,1.4-1.5,2.8-2.1,4.3c-0.6,1.5-1.1,3.1-1.5,4.7c-0.3,1.6-0.5,3.3-0.4,5c0.1,1.7,0.5,3.3,1,4.8
			c1.1,3.1,2.7,5.7,4.3,8.4l1.2,2l0.6,1c0.2,0.4,0.4,0.7,0.6,1.1c0.7,1.5,1.4,3,1.8,4.7c1,3.3,1.5,6.8,1.4,10.3
			c0,1.8-0.2,3.5-0.5,5.2C34.7,598.8,34.2,600.5,33.5,601.9L33.5,601.9z"/>
		
			<linearGradient id="SVGID_3_" gradientUnits="userSpaceOnUse" x1="-273.1854" y1="636.9468" x2="-260.1177" y2="636.9468" gradientTransform="matrix(1 0 0 1 294.9471 -173.6196)">
			<stop  offset="0" style="stop-color:#483500"/>
			<stop  offset="0.4303" style="stop-color:#BCAC44"/>
			<stop  offset="1" style="stop-color:#5C4605"/>
		</linearGradient>
		<path class="st7" d="M29.5,436.3c-0.1-0.1-0.2-0.1-0.3-0.1c-0.1,0-0.2,0.1-0.2,0.2c-0.1,0.2-0.2,0.5-0.3,0.7
			c-0.1,0.5-0.1,1.1,0.1,1.6c0.2,0.5,0.6,0.7,1,0.7c0.4,0,0.8-0.1,1.2-0.3l-0.1,0.1c0.4-1.1,0.5-2.4,0.6-3.7c0-1.3,0-2.5-0.2-3.8
			c-0.2-1.2-0.4-2.5-0.8-3.6c-0.4-1.1-0.9-2.2-1.6-3c-0.3-0.4-0.7-0.7-1.1-0.8c-0.4-0.1-0.8-0.1-1.2,0c-0.8,0.3-1.6,1.1-2.2,2
			c-0.7,0.9-1.2,1.9-1.5,3c-0.3,1.1-0.5,2.4-0.4,3.6c0.1,1.3,0.3,2.5,0.6,3.7c0.3,1.2,0.7,2.4,1.1,3.5c0.9,2.3,1.9,4.5,2.9,6.8
			c0.5,1.1,0.9,2.3,1.3,3.5c0.4,1.2,0.6,2.5,0.9,3.7c0.5,2.5,0.7,5.2,0.7,7.8c0,2.6-0.1,5.2-0.4,7.8c-0.3,2.6-0.7,5.1-1.1,7.7
			c-0.2,1.3-0.5,2.5-0.6,3.8c-0.2,1.3-0.3,2.5-0.4,3.8c-0.2,2.5-0.3,5.1-0.2,7.6c0.1,1.3,0.2,2.5,0.5,3.7c0.3,1.2,0.6,2.3,1.2,3.3
			c0.5,1,1.3,1.7,2.1,2.2l0.2,0.1l0.1,0l0.1,0c0.1,0,0.2,0.1,0.3,0.1c0.2,0.1,0.4,0.1,0.6,0.1c0.4,0,0.8-0.3,1.2-0.6
			c0.7-0.7,1.1-1.8,1.1-3c0-0.6-0.1-1.2-0.3-1.7c-0.2-0.5-0.5-1.1-0.8-1.4c-0.3-0.4-0.8-0.5-1.1-0.2c-0.4,0.3-0.6,0.8-0.7,1.4
			c-0.1,0.6-0.1,1.2,0.2,1.7c0.2,0.5,0.7,0.8,1.2,0.8l-0.1,0.1c0-0.2,0-0.5,0-0.7c0-0.3,0-0.5,0.1-0.8l0.1,0c-0.1,0.2,0,0.5,0,0.7
			c0,0.3,0,0.5,0,0.8l0,0.1l-0.1,0c-0.2,0-0.5-0.1-0.7-0.2c-0.2-0.1-0.5-0.3-0.6-0.6c-0.3-0.6-0.4-1.3-0.3-2
			c0.1-0.7,0.3-1.4,0.8-1.8c0.2-0.2,0.5-0.3,0.8-0.2c0.3,0.1,0.5,0.2,0.8,0.4c0.2,0.2,0.4,0.5,0.6,0.7c0.2,0.3,0.3,0.6,0.4,0.9
			c0.2,0.6,0.4,1.3,0.4,2c0,1.4-0.5,2.8-1.3,3.7c-0.4,0.4-0.9,0.7-1.5,0.8c-0.3,0-0.5,0-0.8,0c-0.1,0-0.3-0.1-0.4-0.1l-0.1,0l-0.1,0
			l-0.2-0.1c-1-0.5-1.8-1.4-2.4-2.5c-0.6-1.1-1.1-2.3-1.4-3.6c-0.3-1.3-0.5-2.6-0.5-3.9c-0.3-5.3,0.4-10.5,1.4-15.6
			c0.5-2.5,0.9-5,1.2-7.6c0.3-2.5,0.5-5.1,0.6-7.7c0-2.6-0.1-5.1-0.5-7.7c-0.2-1.3-0.5-2.5-0.8-3.7c-0.3-1.2-0.8-2.3-1.3-3.5
			c-0.9-2.2-2-4.4-2.9-6.7c-0.5-1.1-0.9-2.3-1.2-3.5c-0.3-1.2-0.6-2.5-0.7-3.8c-0.1-1.3,0-2.7,0.3-4c0.3-1.3,0.9-2.4,1.6-3.4
			c0.7-1,1.5-1.9,2.5-2.3c0.5-0.2,1.1-0.2,1.6,0c0.5,0.2,1,0.5,1.4,1c0.8,0.9,1.3,2.1,1.7,3.3c0.4,1.2,0.7,2.5,0.8,3.8
			c0.2,1.3,0.2,2.6,0.1,4c-0.1,1.3-0.3,2.6-0.7,3.9l0,0.1l-0.1,0c-0.4,0.2-0.9,0.3-1.4,0.2c-0.2,0-0.5-0.1-0.7-0.3
			c-0.2-0.2-0.4-0.4-0.5-0.7c-0.2-0.6-0.2-1.3,0-1.8c0.1-0.3,0.2-0.6,0.4-0.8c0.1-0.1,0.2-0.2,0.3-0.2
			C29.4,436,29.5,436.1,29.5,436.3L29.5,436.3z"/>
		
			<linearGradient id="SVGID_4_" gradientUnits="userSpaceOnUse" x1="-269.5822" y1="564.0257" x2="-259.1139" y2="564.0257" gradientTransform="matrix(1 0 0 1 294.9471 -173.6196)">
			<stop  offset="0" style="stop-color:#483500"/>
			<stop  offset="0.4303" style="stop-color:#BCAC44"/>
			<stop  offset="1" style="stop-color:#5C4605"/>
		</linearGradient>
		<path class="st8" d="M29.5,421.2c-0.8-2.9-1.4-5.8-1.9-8.8c-0.5-3-0.8-6-0.9-9.1c0-0.8,0-1.5,0-2.3c0-0.8,0-1.5,0.1-2.3
			c0.1-1.5,0.2-3.1,0.4-4.6c0.4-3,1-6,2.1-8.7c1-2.8,2.6-5.1,3.9-7.5c0.6-1.2,1.2-2.5,1.6-3.9c0.3-1.4,0.4-2.8,0.3-4.3
			c-0.1-1.4-0.4-2.9-1-4.1c-0.5-1.2-1.3-2.3-2.1-3.2c-1.7-1.7-4-2.4-6.2-2l0.2-0.3c-0.1,0.5-0.1,0.9,0,1.3c0.1,0.4,0.2,0.8,0.5,1.1
			c0.2,0.3,0.6,0.4,0.9,0.5c0.3,0.1,0.7,0,1-0.1l-0.1,0.1l0.1-0.8l0-0.4l0-0.1c0,0,0,0,0,0c0,0,0,0,0,0c0,0,0,0,0,0c0,0,0,0,0,0
			c0,0,0,0,0,0c0,0,0,0,0,0l0,0l0,0.2l-0.1,0l0-0.2l0,0c0,0,0,0,0,0c0,0,0,0,0,0c0,0,0,0,0,0c0,0,0,0,0,0c0,0,0,0,0,0l0,0
			c0,0,0,0.1,0,0.1l0,0.4l0,0.8l0,0.1l-0.1,0c-0.4,0.1-0.7,0.2-1.1,0.2c-0.4,0-0.8-0.2-1.1-0.5c-0.3-0.3-0.6-0.8-0.7-1.4
			c-0.1-0.5-0.1-1.1-0.1-1.6l0-0.2l0.2-0.1c2.3-0.6,4.8,0,6.7,1.8c1,0.9,1.8,2.1,2.4,3.5c0.3,0.7,0.5,1.4,0.7,2.2
			c0.2,0.8,0.3,1.5,0.3,2.3c0.1,1.6,0,3.2-0.4,4.7c-0.4,1.5-1,2.8-1.8,4.1c-0.7,1.2-1.5,2.3-2.2,3.5c-0.7,1.2-1.4,2.4-1.9,3.7
			c-1.1,2.6-1.7,5.6-2,8.6c-0.1,1.5-0.2,3-0.2,4.5c0,0.8,0,1.5,0,2.3c0,0.8,0,1.5,0.1,2.3C27.7,409.3,28.5,415.3,29.5,421.2
			L29.5,421.2z"/>
		
			<linearGradient id="SVGID_5_" gradientUnits="userSpaceOnUse" x1="-271.3477" y1="517.8072" x2="-261.1956" y2="517.8072" gradientTransform="matrix(1 0 0 1 294.9471 -173.6196)">
			<stop  offset="0" style="stop-color:#483500"/>
			<stop  offset="0.4303" style="stop-color:#BCAC44"/>
			<stop  offset="1" style="stop-color:#5C4605"/>
		</linearGradient>
		<path class="st9" d="M31.5,358c-1.2-1.1-2.3-2.5-3.3-3.9c-0.5-0.7-1-1.5-1.4-2.3c-0.2-0.4-0.4-0.8-0.6-1.2
			c-0.2-0.4-0.4-0.8-0.6-1.3c-0.7-1.7-1.3-3.6-1.6-5.6c-0.3-1.9-0.5-3.9-0.3-5.9c0.3-4,3.1-7.6,6.3-7.4c0.8,0.1,1.6,0.4,2.3,1
			c0.7,0.6,1.2,1.6,1.4,2.7c0.1,0.6,0.1,1.2-0.1,1.7c-0.2,0.6-0.5,1.1-0.9,1.3c-0.4,0.3-0.8,0.3-1.2,0.3c-0.4,0-0.8-0.1-1.1-0.2
			l-0.2-0.1l0-0.2c-0.1-0.9-0.1-1.8,0.1-2.6l0-0.1l0.1,0c0.1-0.1,0.2-0.1,0.4-0.1c0.1,0,0.3,0,0.4,0.1c0.1,0.1,0.2,0.2,0.3,0.3
			c0.1,0.1,0.1,0.2,0.2,0.3l0,0.1c-0.1,0-0.2-0.2-0.3-0.2c-0.1-0.1-0.2-0.2-0.2-0.2c-0.2-0.1-0.4,0-0.5,0.1l0.1-0.1
			c-0.1,0.8,0,1.6,0.1,2.4l-0.2-0.3c0.3,0.1,0.7,0.1,1,0.1c0.3,0,0.7-0.1,0.9-0.3c0.3-0.2,0.4-0.5,0.5-0.8c0.1-0.4,0.1-0.8,0-1.2
			c-0.2-0.8-0.6-1.5-1.1-2c-0.5-0.5-1.2-0.8-1.8-0.8c-1.3-0.2-2.7,0.5-3.8,1.7c-1.1,1.1-2,2.8-2.2,4.7c-0.3,1.9-0.2,3.9,0.3,5.7
			c0.4,1.9,1.1,3.5,1.9,5.2C27.7,352.1,29.6,355.1,31.5,358L31.5,358z"/>
		
			<linearGradient id="SVGID_6_" gradientUnits="userSpaceOnUse" x1="-270.6739" y1="454.5752" x2="-255.6651" y2="454.5752" gradientTransform="matrix(1 0 0 1 294.9471 -173.6196)">
			<stop  offset="0" style="stop-color:#483500"/>
			<stop  offset="0.4303" style="stop-color:#BCAC44"/>
			<stop  offset="1" style="stop-color:#5C4605"/>
		</linearGradient>
		<path class="st10" d="M27.1,329c0.3-2.3,0.6-4.6,0.7-7c0.2-2.3,0.3-4.7,0.4-7c0.2-4.7,0.2-9.4,0.1-14c0-1.2-0.1-2.3-0.1-3.5
			c-0.1-1.2-0.1-2.3-0.2-3.5c-0.2-2.3-0.4-4.7-0.6-7c-0.6-4.6-1.4-9.2-2.8-13.5l-0.4-1.1l0.6,1c0.7,1.3,1.8,2.2,3,2.5
			c1.2,0.3,2.4,0.1,3.5-0.4c1.1-0.5,2.2-1.3,3.2-2.2c1-1,1.8-2.1,2.5-3.4c0.7-1.3,1.1-2.8,1.4-4.3c0.2-1.6,0.2-3.2,0-4.7
			c-0.4-3.1-1.5-6.1-2.9-8.7c-0.4-0.6-0.7-1.3-1.1-1.9c-0.4-0.6-0.8-1.1-1.3-1.6c-0.5-0.4-1-0.8-1.5-1.1c-0.6-0.3-1.1-0.6-1.7-1
			c-0.5-0.3-1.1-0.6-1.7-0.9c-0.6-0.3-1.2-0.7-1.7-1.2c-0.5-0.5-1-1.3-1.2-2.1c-0.1-0.4-0.2-0.8-0.3-1.3c-0.1-0.4-0.1-0.8-0.1-1.3
			c0-0.9,0.1-1.8,0.2-2.6c0.2-0.8,0.4-1.6,0.8-2.4c0.4-0.7,1-1.3,1.6-1.6c0.3-0.1,0.7-0.1,1-0.1c0.3,0.1,0.6,0.2,1,0.4
			c0.6,0.4,1.1,1.2,1.3,2c0.2,0.8,0.3,1.7,0.2,2.6c-0.1,0.4-0.2,0.9-0.4,1.2c-0.2,0.4-0.5,0.7-0.8,0.9c-0.6,0.4-1.3,0.3-1.9,0
			l-0.1,0l0-0.1c0-0.4-0.1-0.9,0-1.4c0.1-0.5,0.2-0.9,0.4-1.2l0,0l0,0c0.1-0.1,0.2-0.1,0.3-0.1c0.1,0,0.2,0,0.3,0.1
			c0.1,0.1,0.1,0.2,0.2,0.3c0,0.1,0,0.1,0.1,0.2c0,0,0,0.1,0,0.1l0,0.1c-0.1,0-0.1,0-0.1-0.1c0,0,0-0.1,0-0.1c0-0.1,0-0.1-0.1-0.2
			c0-0.1-0.1-0.2-0.2-0.2c-0.1-0.1-0.3,0-0.4,0.1l0,0c-0.1,0.4-0.3,0.8-0.3,1.2c0,0.4,0,0.8,0.1,1.3l-0.1-0.1
			c0.6,0.2,1.2,0.2,1.7-0.1c0.5-0.3,0.8-1,0.9-1.8c0.1-0.7,0-1.5-0.2-2.2c-0.2-0.7-0.6-1.3-1.1-1.6c-0.2-0.1-0.5-0.2-0.8-0.3
			c-0.3,0-0.5,0-0.8,0.1c-0.5,0.2-0.9,0.7-1.3,1.3c-0.3,0.6-0.6,1.3-0.7,2.1c-0.1,0.7-0.2,1.5-0.2,2.3c0,0.7,0.2,1.5,0.4,2.2
			c0.2,0.7,0.6,1.2,1,1.7c0.9,0.9,2.1,1.3,3.2,2c0.6,0.3,1.1,0.6,1.7,0.9c0.6,0.3,1.2,0.7,1.7,1.2c0.5,0.5,1,1.1,1.4,1.8
			c0.4,0.6,0.8,1.3,1.2,2c1.4,2.7,2.5,5.8,2.9,9.2c0.2,1.7,0.2,3.4-0.1,5.1c-0.3,1.7-0.8,3.3-1.5,4.6c-0.8,1.4-1.7,2.5-2.7,3.5
			c-1,0.9-2.1,1.7-3.3,2.2c-1.2,0.5-2.5,0.7-3.7,0.3c-0.6-0.2-1.2-0.5-1.7-0.9c-0.5-0.5-1-1-1.4-1.7l0.2-0.2
			c0.7,2.2,1.3,4.4,1.8,6.7c0.5,2.3,0.9,4.6,1.3,6.9c0.3,2.3,0.6,4.6,0.8,7c0.1,1.2,0.2,2.3,0.3,3.5c0.1,1.2,0.1,2.4,0.2,3.5
			c0.1,4.7,0.1,9.4-0.2,14.1c-0.2,2.3-0.4,4.7-0.6,7C28,324.4,27.6,326.7,27.1,329L27.1,329z"/>
	</g>
</g>
</svg>
